%FSLAX45Y45*%
G04 Gerber Fmt 4.5, Leading zero omitted, Abs format (unit mm)*
G04 Created by KiCad (PCBNEW (6.0.4-0)) date 2022-03-21 10:13:04*
%MOMM*%
%LPD*%
G01*
G04 APERTURE LIST*
%TA.AperFunction,Profile*%
%ADD10C,0.100000*%
%TD*%
%ADD11C,0.200000*%
%ADD12C,0.115200*%
G04 APERTURE END LIST*
D10*
X3149600Y-7213600D02*
X4470400Y-7213600D01*
X4470400Y-7213600D02*
X4470400Y-6908800D01*
X3149600Y-7493000D02*
X1727200Y-7493000D01*
X1727200Y-7493000D02*
X1727200Y-4292600D01*
X1727200Y-4292600D02*
X8013700Y-4292600D01*
X4470400Y-6908800D02*
X8013700Y-6908800D01*
X8013700Y-4292600D02*
X8013700Y-6908800D01*
X3149600Y-7493000D02*
X3149600Y-7213600D01*
D11*
D12*
X1796600Y-4362000D02*
X1911800Y-4477200D01*
X1911800Y-4362000D02*
X1796600Y-4477200D01*
X7816400Y-6724200D02*
X7931600Y-6839400D01*
X7931600Y-6724200D02*
X7816400Y-6839400D01*
D11*
X1979819Y-7808476D02*
X1979819Y-7608476D01*
X2027438Y-7608476D01*
X2056009Y-7618000D01*
X2075057Y-7637048D01*
X2084581Y-7656095D01*
X2094105Y-7694190D01*
X2094105Y-7722762D01*
X2084581Y-7760857D01*
X2075057Y-7779905D01*
X2056009Y-7798952D01*
X2027438Y-7808476D01*
X1979819Y-7808476D01*
X2179819Y-7808476D02*
X2179819Y-7675143D01*
X2179819Y-7713238D02*
X2189343Y-7694190D01*
X2198867Y-7684667D01*
X2217914Y-7675143D01*
X2236962Y-7675143D01*
X2303629Y-7808476D02*
X2303629Y-7675143D01*
X2303629Y-7608476D02*
X2294105Y-7618000D01*
X2303629Y-7627524D01*
X2313152Y-7618000D01*
X2303629Y-7608476D01*
X2303629Y-7627524D01*
X2427438Y-7808476D02*
X2408390Y-7798952D01*
X2398867Y-7779905D01*
X2398867Y-7608476D01*
X2532200Y-7808476D02*
X2513152Y-7798952D01*
X2503629Y-7779905D01*
X2503629Y-7608476D01*
X2760771Y-7808476D02*
X2760771Y-7608476D01*
X2827438Y-7751333D01*
X2894105Y-7608476D01*
X2894105Y-7808476D01*
X3075057Y-7808476D02*
X3075057Y-7703714D01*
X3065533Y-7684667D01*
X3046486Y-7675143D01*
X3008390Y-7675143D01*
X2989343Y-7684667D01*
X3075057Y-7798952D02*
X3056009Y-7808476D01*
X3008390Y-7808476D01*
X2989343Y-7798952D01*
X2979819Y-7779905D01*
X2979819Y-7760857D01*
X2989343Y-7741809D01*
X3008390Y-7732286D01*
X3056009Y-7732286D01*
X3075057Y-7722762D01*
X3170295Y-7675143D02*
X3170295Y-7875143D01*
X3170295Y-7684667D02*
X3189343Y-7675143D01*
X3227438Y-7675143D01*
X3246486Y-7684667D01*
X3256009Y-7694190D01*
X3265533Y-7713238D01*
X3265533Y-7770381D01*
X3256009Y-7789428D01*
X3246486Y-7798952D01*
X3227438Y-7808476D01*
X3189343Y-7808476D01*
X3170295Y-7798952D01*
X3351248Y-7789428D02*
X3360771Y-7798952D01*
X3351248Y-7808476D01*
X3341724Y-7798952D01*
X3351248Y-7789428D01*
X3351248Y-7808476D01*
X3351248Y-7684667D02*
X3360771Y-7694190D01*
X3351248Y-7703714D01*
X3341724Y-7694190D01*
X3351248Y-7684667D01*
X3351248Y-7703714D01*
D12*
X1607000Y-8080400D02*
X1722200Y-8195600D01*
X1722200Y-8080400D02*
X1607000Y-8195600D01*
D11*
X2084581Y-8228476D02*
X1970295Y-8228476D01*
X2027438Y-8228476D02*
X2027438Y-8028476D01*
X2008390Y-8057048D01*
X1989343Y-8076095D01*
X1970295Y-8085619D01*
X2170295Y-8209428D02*
X2179819Y-8218952D01*
X2170295Y-8228476D01*
X2160771Y-8218952D01*
X2170295Y-8209428D01*
X2170295Y-8228476D01*
X2370295Y-8228476D02*
X2256010Y-8228476D01*
X2313152Y-8228476D02*
X2313152Y-8028476D01*
X2294105Y-8057048D01*
X2275057Y-8076095D01*
X2256010Y-8085619D01*
X2551248Y-8028476D02*
X2456010Y-8028476D01*
X2446486Y-8123714D01*
X2456010Y-8114190D01*
X2475057Y-8104667D01*
X2522676Y-8104667D01*
X2541724Y-8114190D01*
X2551248Y-8123714D01*
X2560771Y-8142762D01*
X2560771Y-8190381D01*
X2551248Y-8209428D01*
X2541724Y-8218952D01*
X2522676Y-8228476D01*
X2475057Y-8228476D01*
X2456010Y-8218952D01*
X2446486Y-8209428D01*
X2636962Y-8047524D02*
X2646486Y-8038000D01*
X2665533Y-8028476D01*
X2713152Y-8028476D01*
X2732200Y-8038000D01*
X2741724Y-8047524D01*
X2751248Y-8066571D01*
X2751248Y-8085619D01*
X2741724Y-8114190D01*
X2627438Y-8228476D01*
X2751248Y-8228476D01*
X2836962Y-8228476D02*
X2836962Y-8095143D01*
X2836962Y-8114190D02*
X2846486Y-8104667D01*
X2865533Y-8095143D01*
X2894105Y-8095143D01*
X2913152Y-8104667D01*
X2922676Y-8123714D01*
X2922676Y-8228476D01*
X2922676Y-8123714D02*
X2932200Y-8104667D01*
X2951248Y-8095143D01*
X2979819Y-8095143D01*
X2998867Y-8104667D01*
X3008390Y-8123714D01*
X3008390Y-8228476D01*
X3103628Y-8228476D02*
X3103628Y-8095143D01*
X3103628Y-8114190D02*
X3113152Y-8104667D01*
X3132200Y-8095143D01*
X3160771Y-8095143D01*
X3179819Y-8104667D01*
X3189343Y-8123714D01*
X3189343Y-8228476D01*
X3189343Y-8123714D02*
X3198867Y-8104667D01*
X3217914Y-8095143D01*
X3246486Y-8095143D01*
X3265533Y-8104667D01*
X3275057Y-8123714D01*
X3275057Y-8228476D01*
X3665533Y-8018952D02*
X3494105Y-8276095D01*
X3922676Y-8028476D02*
X3941724Y-8028476D01*
X3960771Y-8038000D01*
X3970295Y-8047524D01*
X3979819Y-8066571D01*
X3989343Y-8104667D01*
X3989343Y-8152286D01*
X3979819Y-8190381D01*
X3970295Y-8209428D01*
X3960771Y-8218952D01*
X3941724Y-8228476D01*
X3922676Y-8228476D01*
X3903628Y-8218952D01*
X3894105Y-8209428D01*
X3884581Y-8190381D01*
X3875057Y-8152286D01*
X3875057Y-8104667D01*
X3884581Y-8066571D01*
X3894105Y-8047524D01*
X3903628Y-8038000D01*
X3922676Y-8028476D01*
X4075057Y-8209428D02*
X4084581Y-8218952D01*
X4075057Y-8228476D01*
X4065533Y-8218952D01*
X4075057Y-8209428D01*
X4075057Y-8228476D01*
X4208390Y-8028476D02*
X4227438Y-8028476D01*
X4246486Y-8038000D01*
X4256010Y-8047524D01*
X4265533Y-8066571D01*
X4275057Y-8104667D01*
X4275057Y-8152286D01*
X4265533Y-8190381D01*
X4256010Y-8209428D01*
X4246486Y-8218952D01*
X4227438Y-8228476D01*
X4208390Y-8228476D01*
X4189343Y-8218952D01*
X4179819Y-8209428D01*
X4170295Y-8190381D01*
X4160771Y-8152286D01*
X4160771Y-8104667D01*
X4170295Y-8066571D01*
X4179819Y-8047524D01*
X4189343Y-8038000D01*
X4208390Y-8028476D01*
X4446486Y-8095143D02*
X4446486Y-8228476D01*
X4398867Y-8018952D02*
X4351248Y-8161809D01*
X4475057Y-8161809D01*
X4646486Y-8028476D02*
X4551248Y-8028476D01*
X4541724Y-8123714D01*
X4551248Y-8114190D01*
X4570295Y-8104667D01*
X4617914Y-8104667D01*
X4636962Y-8114190D01*
X4646486Y-8123714D01*
X4656010Y-8142762D01*
X4656010Y-8190381D01*
X4646486Y-8209428D01*
X4636962Y-8218952D01*
X4617914Y-8228476D01*
X4570295Y-8228476D01*
X4551248Y-8218952D01*
X4541724Y-8209428D01*
X4827438Y-8095143D02*
X4827438Y-8228476D01*
X4779819Y-8018952D02*
X4732200Y-8161809D01*
X4856010Y-8161809D01*
X4922676Y-8028476D02*
X4922676Y-8066571D01*
X4998867Y-8028476D02*
X4998867Y-8066571D01*
X5294105Y-8304667D02*
X5284581Y-8295143D01*
X5265533Y-8266571D01*
X5256010Y-8247524D01*
X5246486Y-8218952D01*
X5236962Y-8171333D01*
X5236962Y-8133238D01*
X5246486Y-8085619D01*
X5256010Y-8057048D01*
X5265533Y-8038000D01*
X5284581Y-8009428D01*
X5294105Y-7999905D01*
X5360771Y-8047524D02*
X5370295Y-8038000D01*
X5389343Y-8028476D01*
X5436962Y-8028476D01*
X5456010Y-8038000D01*
X5465533Y-8047524D01*
X5475057Y-8066571D01*
X5475057Y-8085619D01*
X5465533Y-8114190D01*
X5351248Y-8228476D01*
X5475057Y-8228476D01*
X5713152Y-8228476D02*
X5713152Y-8028476D01*
X5798867Y-8228476D02*
X5798867Y-8123714D01*
X5789343Y-8104667D01*
X5770295Y-8095143D01*
X5741724Y-8095143D01*
X5722676Y-8104667D01*
X5713152Y-8114190D01*
X5922676Y-8228476D02*
X5903628Y-8218952D01*
X5894105Y-8209428D01*
X5884581Y-8190381D01*
X5884581Y-8133238D01*
X5894105Y-8114190D01*
X5903628Y-8104667D01*
X5922676Y-8095143D01*
X5951248Y-8095143D01*
X5970295Y-8104667D01*
X5979819Y-8114190D01*
X5989343Y-8133238D01*
X5989343Y-8190381D01*
X5979819Y-8209428D01*
X5970295Y-8218952D01*
X5951248Y-8228476D01*
X5922676Y-8228476D01*
X6103628Y-8228476D02*
X6084581Y-8218952D01*
X6075057Y-8199905D01*
X6075057Y-8028476D01*
X6256009Y-8218952D02*
X6236962Y-8228476D01*
X6198867Y-8228476D01*
X6179819Y-8218952D01*
X6170295Y-8199905D01*
X6170295Y-8123714D01*
X6179819Y-8104667D01*
X6198867Y-8095143D01*
X6236962Y-8095143D01*
X6256009Y-8104667D01*
X6265533Y-8123714D01*
X6265533Y-8142762D01*
X6170295Y-8161809D01*
X6341724Y-8218952D02*
X6360771Y-8228476D01*
X6398867Y-8228476D01*
X6417914Y-8218952D01*
X6427438Y-8199905D01*
X6427438Y-8190381D01*
X6417914Y-8171333D01*
X6398867Y-8161809D01*
X6370295Y-8161809D01*
X6351248Y-8152286D01*
X6341724Y-8133238D01*
X6341724Y-8123714D01*
X6351248Y-8104667D01*
X6370295Y-8095143D01*
X6398867Y-8095143D01*
X6417914Y-8104667D01*
X6494105Y-8304667D02*
X6503628Y-8295143D01*
X6522676Y-8266571D01*
X6532200Y-8247524D01*
X6541724Y-8218952D01*
X6551248Y-8171333D01*
X6551248Y-8133238D01*
X6541724Y-8085619D01*
X6532200Y-8057048D01*
X6522676Y-8038000D01*
X6503628Y-8009428D01*
X6494105Y-7999905D01*
X6856009Y-8304667D02*
X6846486Y-8295143D01*
X6827438Y-8266571D01*
X6817914Y-8247524D01*
X6808390Y-8218952D01*
X6798867Y-8171333D01*
X6798867Y-8133238D01*
X6808390Y-8085619D01*
X6817914Y-8057048D01*
X6827438Y-8038000D01*
X6846486Y-8009428D01*
X6856009Y-7999905D01*
X6932200Y-8095143D02*
X6932200Y-8228476D01*
X6932200Y-8114190D02*
X6941724Y-8104667D01*
X6960771Y-8095143D01*
X6989343Y-8095143D01*
X7008390Y-8104667D01*
X7017914Y-8123714D01*
X7017914Y-8228476D01*
X7141724Y-8228476D02*
X7122676Y-8218952D01*
X7113152Y-8209428D01*
X7103628Y-8190381D01*
X7103628Y-8133238D01*
X7113152Y-8114190D01*
X7122676Y-8104667D01*
X7141724Y-8095143D01*
X7170295Y-8095143D01*
X7189343Y-8104667D01*
X7198867Y-8114190D01*
X7208390Y-8133238D01*
X7208390Y-8190381D01*
X7198867Y-8209428D01*
X7189343Y-8218952D01*
X7170295Y-8228476D01*
X7141724Y-8228476D01*
X7265533Y-8095143D02*
X7341724Y-8095143D01*
X7294105Y-8028476D02*
X7294105Y-8199905D01*
X7303628Y-8218952D01*
X7322676Y-8228476D01*
X7341724Y-8228476D01*
X7560771Y-8095143D02*
X7560771Y-8295143D01*
X7560771Y-8104667D02*
X7579819Y-8095143D01*
X7617914Y-8095143D01*
X7636962Y-8104667D01*
X7646486Y-8114190D01*
X7656009Y-8133238D01*
X7656009Y-8190381D01*
X7646486Y-8209428D01*
X7636962Y-8218952D01*
X7617914Y-8228476D01*
X7579819Y-8228476D01*
X7560771Y-8218952D01*
X7770295Y-8228476D02*
X7751248Y-8218952D01*
X7741724Y-8199905D01*
X7741724Y-8028476D01*
X7932200Y-8228476D02*
X7932200Y-8123714D01*
X7922676Y-8104667D01*
X7903628Y-8095143D01*
X7865533Y-8095143D01*
X7846486Y-8104667D01*
X7932200Y-8218952D02*
X7913152Y-8228476D01*
X7865533Y-8228476D01*
X7846486Y-8218952D01*
X7836962Y-8199905D01*
X7836962Y-8180857D01*
X7846486Y-8161809D01*
X7865533Y-8152286D01*
X7913152Y-8152286D01*
X7932200Y-8142762D01*
X7998867Y-8095143D02*
X8075057Y-8095143D01*
X8027438Y-8028476D02*
X8027438Y-8199905D01*
X8036962Y-8218952D01*
X8056009Y-8228476D01*
X8075057Y-8228476D01*
X8217914Y-8218952D02*
X8198867Y-8228476D01*
X8160771Y-8228476D01*
X8141724Y-8218952D01*
X8132200Y-8199905D01*
X8132200Y-8123714D01*
X8141724Y-8104667D01*
X8160771Y-8095143D01*
X8198867Y-8095143D01*
X8217914Y-8104667D01*
X8227438Y-8123714D01*
X8227438Y-8142762D01*
X8132200Y-8161809D01*
X8398867Y-8228476D02*
X8398867Y-8028476D01*
X8398867Y-8218952D02*
X8379819Y-8228476D01*
X8341724Y-8228476D01*
X8322676Y-8218952D01*
X8313152Y-8209428D01*
X8303628Y-8190381D01*
X8303628Y-8133238D01*
X8313152Y-8114190D01*
X8322676Y-8104667D01*
X8341724Y-8095143D01*
X8379819Y-8095143D01*
X8398867Y-8104667D01*
X8475057Y-8304667D02*
X8484581Y-8295143D01*
X8503629Y-8266571D01*
X8513152Y-8247524D01*
X8522676Y-8218952D01*
X8532200Y-8171333D01*
X8532200Y-8133238D01*
X8522676Y-8085619D01*
X8513152Y-8057048D01*
X8503629Y-8038000D01*
X8484581Y-8009428D01*
X8475057Y-7999905D01*
M02*
