%TF.GenerationSoftware,KiCad,Pcbnew,(6.0.4-0)*%
%TF.CreationDate,2022-03-21T10:12:57+01:00*%
%TF.ProjectId,IrDA_RS232,49724441-5f52-4533-9233-322e6b696361,rev?*%
%TF.SameCoordinates,Original*%
%TF.FileFunction,Copper,L4,Bot*%
%TF.FilePolarity,Positive*%
%FSLAX46Y46*%
G04 Gerber Fmt 4.6, Leading zero omitted, Abs format (unit mm)*
G04 Created by KiCad (PCBNEW (6.0.4-0)) date 2022-03-21 10:12:57*
%MOMM*%
%LPD*%
G01*
G04 APERTURE LIST*
%TA.AperFunction,ComponentPad*%
%ADD10C,4.000000*%
%TD*%
%TA.AperFunction,ComponentPad*%
%ADD11R,1.600000X1.600000*%
%TD*%
%TA.AperFunction,ComponentPad*%
%ADD12C,1.600000*%
%TD*%
%TA.AperFunction,ViaPad*%
%ADD13C,0.450000*%
%TD*%
%TA.AperFunction,Conductor*%
%ADD14C,0.127000*%
%TD*%
G04 APERTURE END LIST*
D10*
%TO.P,J1,0,PAD*%
%TO.N,GND*%
X24128931Y-46316400D03*
X24128931Y-71316400D03*
D11*
%TO.P,J1,1,1*%
%TO.N,/RS232_DCD*%
X25548931Y-53276400D03*
D12*
%TO.P,J1,2,2*%
%TO.N,/RS232_RXD*%
X25548931Y-56046400D03*
%TO.P,J1,3,3*%
%TO.N,/RS232_TXD*%
X25548931Y-58816400D03*
%TO.P,J1,4,4*%
%TO.N,/RS232_DTR*%
X25548931Y-61586400D03*
%TO.P,J1,5,5*%
%TO.N,GND*%
X25548931Y-64356400D03*
%TO.P,J1,6,6*%
%TO.N,/RS232_DSR*%
X22708931Y-54661400D03*
%TO.P,J1,7,7*%
%TO.N,/RS232_RTS*%
X22708931Y-57431400D03*
%TO.P,J1,8,8*%
%TO.N,/RS232_CTS*%
X22708931Y-60201400D03*
%TO.P,J1,9,9*%
%TO.N,/RS232_RING*%
X22708931Y-62971400D03*
%TD*%
D13*
%TO.N,GND*%
X31750000Y-56692800D03*
X31750000Y-55422800D03*
X31648400Y-52425600D03*
X72948800Y-61620400D03*
X69900800Y-61620400D03*
X68122800Y-56794400D03*
X70866000Y-50139600D03*
%TO.N,+5V*%
X66395600Y-52120800D03*
%TO.N,/RS232_RING*%
X46634400Y-51714400D03*
%TO.N,+5V*%
X47040800Y-50749200D03*
%TO.N,GND*%
X46939200Y-48361600D03*
X49428400Y-49784000D03*
X52120800Y-50596800D03*
%TO.N,+5V*%
X65278000Y-49987200D03*
%TO.N,/MCP_TX*%
X38709600Y-53289200D03*
X62280800Y-53848000D03*
%TO.N,/MCP_RX*%
X37439600Y-52730400D03*
X62230000Y-52628800D03*
%TO.N,+5V*%
X65661600Y-55247600D03*
X43383200Y-67894200D03*
X50546000Y-65532000D03*
X59436000Y-66802000D03*
X40309800Y-69011800D03*
X49911000Y-65532000D03*
X49453800Y-65532000D03*
X76039500Y-63085500D03*
X49911000Y-67056000D03*
X49453800Y-67056000D03*
X51003200Y-67056000D03*
X50546000Y-67056000D03*
X51003200Y-65532000D03*
X43129200Y-58724800D03*
X43103800Y-46736000D03*
X68709600Y-55247600D03*
X64516000Y-66294000D03*
X75184000Y-51816000D03*
X71534500Y-63085500D03*
X73312500Y-63085500D03*
X69850000Y-63246000D03*
X43383200Y-55626000D03*
X53086000Y-56388000D03*
%TO.N,GND*%
X52324000Y-52070000D03*
X46939200Y-67056000D03*
X42418000Y-55626000D03*
X56642000Y-51562000D03*
X70358000Y-56134000D03*
X46939200Y-65532000D03*
X35052000Y-49530000D03*
X45847000Y-65532000D03*
X47117000Y-59766200D03*
X75184000Y-50800000D03*
X66040000Y-59563000D03*
X46482000Y-65532000D03*
X54356000Y-66040000D03*
X45847000Y-67056000D03*
X46482000Y-67056000D03*
X35458400Y-58242200D03*
X59436000Y-66040000D03*
X35306000Y-46050200D03*
X65532000Y-56388000D03*
X77724000Y-53848000D03*
X45415200Y-67056000D03*
X42392600Y-67894200D03*
X45415200Y-65532000D03*
X71424500Y-61671500D03*
X37719000Y-51435000D03*
X47117000Y-57353200D03*
%TO.N,/RS232_RXD*%
X39624000Y-54356000D03*
%TO.N,/RS232_TXD*%
X40640000Y-54483000D03*
%TO.N,/RS232_DTR*%
X35814000Y-61214000D03*
%TO.N,/RS232_DSR*%
X39624000Y-66395600D03*
X35001200Y-67411600D03*
%TO.N,/MCP_DSR*%
X44704000Y-55626000D03*
X36449000Y-63500000D03*
%TO.N,/MCP_DTR*%
X45280503Y-55626000D03*
X38862000Y-63915000D03*
%TD*%
D14*
%TO.N,/MCP_TX*%
X62280800Y-53848000D02*
X39268400Y-53848000D01*
X39268400Y-53848000D02*
X38709600Y-53289200D01*
X45364400Y-53797200D02*
X51612800Y-53797200D01*
X38709600Y-53289200D02*
X39217600Y-53797200D01*
X39217600Y-53797200D02*
X45364400Y-53797200D01*
%TO.N,/RS232_RING*%
X46634400Y-51714400D02*
X46498789Y-51850011D01*
X24908789Y-51850011D02*
X24079200Y-52679600D01*
X46498789Y-51850011D02*
X24908789Y-51850011D01*
X24079200Y-61601131D02*
X22708931Y-62971400D01*
X24079200Y-52679600D02*
X24079200Y-61601131D01*
%TO.N,/MCP_RX*%
X37541200Y-52628800D02*
X37439600Y-52730400D01*
X62230000Y-52628800D02*
X37541200Y-52628800D01*
%TO.N,/RS232_RXD*%
X37933600Y-56046400D02*
X39624000Y-54356000D01*
X25548931Y-56046400D02*
X37933600Y-56046400D01*
%TO.N,/RS232_TXD*%
X37846000Y-57277000D02*
X40640000Y-54483000D01*
X25548931Y-58816400D02*
X27848400Y-58816400D01*
X27848400Y-58816400D02*
X29387800Y-57277000D01*
X29387800Y-57277000D02*
X37846000Y-57277000D01*
%TO.N,/RS232_DTR*%
X35441600Y-61586400D02*
X35814000Y-61214000D01*
X25548931Y-61586400D02*
X35441600Y-61586400D01*
%TO.N,/RS232_DSR*%
X38608000Y-67411600D02*
X39624000Y-66395600D01*
X35001200Y-67411600D02*
X38608000Y-67411600D01*
%TO.N,/MCP_DSR*%
X43180000Y-63500000D02*
X36449000Y-63500000D01*
X44704000Y-61976000D02*
X43815000Y-62865000D01*
X43815000Y-62865000D02*
X43180000Y-63500000D01*
X44704000Y-55626000D02*
X44704000Y-61976000D01*
%TO.N,/MCP_DTR*%
X43527000Y-63915000D02*
X38862000Y-63915000D01*
X45280503Y-55626000D02*
X45280503Y-62161497D01*
X43688000Y-63754000D02*
X43527000Y-63915000D01*
X45280503Y-62161497D02*
X43688000Y-63754000D01*
%TD*%
%TA.AperFunction,Conductor*%
%TO.N,GND*%
G36*
X79608621Y-43416502D02*
G01*
X79655114Y-43470158D01*
X79666500Y-43522500D01*
X79666500Y-67286850D01*
X79646498Y-67354971D01*
X79592842Y-67401464D01*
X79522568Y-67411568D01*
X79457988Y-67382074D01*
X79436040Y-67357306D01*
X79435759Y-67356890D01*
X79432576Y-67350852D01*
X79428174Y-67345643D01*
X79428172Y-67345640D01*
X79320513Y-67218243D01*
X79320509Y-67218239D01*
X79316106Y-67213029D01*
X79291862Y-67194493D01*
X79178179Y-67107575D01*
X79178175Y-67107572D01*
X79172758Y-67103431D01*
X79166578Y-67100549D01*
X79166576Y-67100548D01*
X79086399Y-67063161D01*
X79009220Y-67027172D01*
X78893718Y-67001354D01*
X78838165Y-66988936D01*
X78838159Y-66988935D01*
X78833121Y-66987809D01*
X78827594Y-66987500D01*
X78694923Y-66987500D01*
X78560611Y-67002091D01*
X78389591Y-67059645D01*
X78383741Y-67063160D01*
X78383739Y-67063161D01*
X78321517Y-67100548D01*
X78234920Y-67152581D01*
X78229960Y-67157272D01*
X78229958Y-67157273D01*
X78119379Y-67261843D01*
X78103813Y-67276563D01*
X78002388Y-67425805D01*
X77999855Y-67432139D01*
X77999853Y-67432142D01*
X77937911Y-67587008D01*
X77937910Y-67587013D01*
X77935377Y-67593345D01*
X77923602Y-67664474D01*
X77907551Y-67761432D01*
X77905906Y-67771367D01*
X77906263Y-67778184D01*
X77906263Y-67778188D01*
X77906831Y-67789017D01*
X77915349Y-67951564D01*
X77917162Y-67958144D01*
X77917162Y-67958147D01*
X77959363Y-68111351D01*
X77963268Y-68125530D01*
X78047424Y-68285148D01*
X78051826Y-68290357D01*
X78051828Y-68290360D01*
X78153078Y-68410172D01*
X78181770Y-68475113D01*
X78170797Y-68545256D01*
X78123644Y-68598333D01*
X78056840Y-68617500D01*
X44711982Y-68617500D01*
X44711213Y-68617498D01*
X44639489Y-68617060D01*
X44613790Y-68624404D01*
X44597036Y-68627980D01*
X44579472Y-68630495D01*
X44579468Y-68630496D01*
X44570588Y-68631768D01*
X44562420Y-68635482D01*
X44562419Y-68635482D01*
X44549601Y-68641310D01*
X44532077Y-68647758D01*
X44518531Y-68651629D01*
X44518527Y-68651631D01*
X44509905Y-68654095D01*
X44502318Y-68658882D01*
X44502316Y-68658883D01*
X44487309Y-68668352D01*
X44472228Y-68676490D01*
X44460573Y-68681789D01*
X44456070Y-68683836D01*
X44456069Y-68683837D01*
X44447902Y-68687550D01*
X44441104Y-68693407D01*
X44441103Y-68693408D01*
X44430437Y-68702599D01*
X44415426Y-68713707D01*
X44395924Y-68726012D01*
X44389983Y-68732739D01*
X44378237Y-68746039D01*
X44366044Y-68758084D01*
X44345803Y-68775525D01*
X44340919Y-68783060D01*
X44333262Y-68794873D01*
X44321971Y-68809748D01*
X44306709Y-68827029D01*
X44296423Y-68848938D01*
X44295356Y-68851211D01*
X44287033Y-68866195D01*
X44272499Y-68888618D01*
X44269928Y-68897216D01*
X44269926Y-68897220D01*
X44265891Y-68910713D01*
X44259229Y-68928158D01*
X44249432Y-68949025D01*
X44248051Y-68957896D01*
X44245322Y-68975423D01*
X44241539Y-68992142D01*
X44237104Y-69006972D01*
X44233883Y-69017741D01*
X44233828Y-69026717D01*
X44233828Y-69026718D01*
X44233688Y-69049661D01*
X44233661Y-69050314D01*
X44233500Y-69051346D01*
X44233500Y-69080018D01*
X44233498Y-69080786D01*
X44233060Y-69152511D01*
X44233421Y-69153773D01*
X44233500Y-69154940D01*
X44233500Y-71539500D01*
X44213498Y-71607621D01*
X44159842Y-71654114D01*
X44107500Y-71665500D01*
X31503982Y-71665500D01*
X31503213Y-71665498D01*
X31431489Y-71665060D01*
X31405790Y-71672404D01*
X31389036Y-71675980D01*
X31371472Y-71678495D01*
X31371468Y-71678496D01*
X31362588Y-71679768D01*
X31354420Y-71683482D01*
X31354419Y-71683482D01*
X31341601Y-71689310D01*
X31324077Y-71695758D01*
X31310531Y-71699629D01*
X31310527Y-71699631D01*
X31301905Y-71702095D01*
X31294318Y-71706882D01*
X31294316Y-71706883D01*
X31279309Y-71716352D01*
X31264228Y-71724490D01*
X31252573Y-71729789D01*
X31248070Y-71731836D01*
X31248069Y-71731837D01*
X31239902Y-71735550D01*
X31233104Y-71741407D01*
X31233103Y-71741408D01*
X31222437Y-71750599D01*
X31207426Y-71761707D01*
X31187924Y-71774012D01*
X31181983Y-71780739D01*
X31170237Y-71794039D01*
X31158044Y-71806084D01*
X31137803Y-71823525D01*
X31132919Y-71831060D01*
X31125262Y-71842873D01*
X31113971Y-71857748D01*
X31098709Y-71875029D01*
X31087356Y-71899211D01*
X31079033Y-71914195D01*
X31064499Y-71936618D01*
X31061928Y-71945216D01*
X31061926Y-71945220D01*
X31057891Y-71958713D01*
X31051229Y-71976158D01*
X31041432Y-71997025D01*
X31040051Y-72005896D01*
X31037322Y-72023423D01*
X31033539Y-72040141D01*
X31025883Y-72065741D01*
X31025828Y-72074717D01*
X31025828Y-72074718D01*
X31025688Y-72097661D01*
X31025661Y-72098314D01*
X31025500Y-72099346D01*
X31025500Y-72128018D01*
X31025498Y-72128786D01*
X31025060Y-72200511D01*
X31025421Y-72201773D01*
X31025500Y-72202940D01*
X31025500Y-74333500D01*
X31005498Y-74401621D01*
X30951842Y-74448114D01*
X30899500Y-74459500D01*
X17868500Y-74459500D01*
X17800379Y-74439498D01*
X17753886Y-74385842D01*
X17742500Y-74333500D01*
X17742500Y-73262387D01*
X22547652Y-73262387D01*
X22556479Y-73274005D01*
X22779212Y-73435830D01*
X22785892Y-73440070D01*
X23055503Y-73588290D01*
X23062638Y-73591647D01*
X23348701Y-73704908D01*
X23356227Y-73707353D01*
X23654210Y-73783862D01*
X23661981Y-73785345D01*
X23967209Y-73823903D01*
X23975100Y-73824400D01*
X24282762Y-73824400D01*
X24290653Y-73823903D01*
X24595881Y-73785345D01*
X24603652Y-73783862D01*
X24901635Y-73707353D01*
X24909161Y-73704908D01*
X25195224Y-73591647D01*
X25202359Y-73588290D01*
X25471970Y-73440070D01*
X25478650Y-73435830D01*
X25701754Y-73273736D01*
X25710177Y-73262813D01*
X25703273Y-73249952D01*
X24141743Y-71688422D01*
X24127799Y-71680808D01*
X24125966Y-71680939D01*
X24119351Y-71685190D01*
X22554265Y-73250276D01*
X22547652Y-73262387D01*
X17742500Y-73262387D01*
X17742500Y-71320358D01*
X21616221Y-71320358D01*
X21635538Y-71627394D01*
X21636531Y-71635255D01*
X21694177Y-71937446D01*
X21696148Y-71945123D01*
X21791215Y-72237709D01*
X21794130Y-72245072D01*
X21925120Y-72523441D01*
X21928932Y-72530374D01*
X22093782Y-72790136D01*
X22098426Y-72796529D01*
X22173428Y-72887190D01*
X22185945Y-72895645D01*
X22196683Y-72889438D01*
X23756909Y-71329212D01*
X23763287Y-71317532D01*
X24493339Y-71317532D01*
X24493470Y-71319365D01*
X24497721Y-71325980D01*
X26060076Y-72888335D01*
X26073338Y-72895577D01*
X26083443Y-72888388D01*
X26159436Y-72796529D01*
X26164080Y-72790136D01*
X26328930Y-72530374D01*
X26332742Y-72523441D01*
X26463732Y-72245072D01*
X26466647Y-72237709D01*
X26561714Y-71945123D01*
X26563685Y-71937446D01*
X26621331Y-71635255D01*
X26622324Y-71627394D01*
X26641641Y-71320358D01*
X26641641Y-71312442D01*
X26622324Y-71005406D01*
X26621331Y-70997545D01*
X26563685Y-70695354D01*
X26561714Y-70687677D01*
X26466647Y-70395091D01*
X26463732Y-70387728D01*
X26332742Y-70109359D01*
X26328930Y-70102426D01*
X26164080Y-69842664D01*
X26159436Y-69836271D01*
X26084434Y-69745610D01*
X26071917Y-69737155D01*
X26061179Y-69743362D01*
X24500953Y-71303588D01*
X24493339Y-71317532D01*
X23763287Y-71317532D01*
X23764523Y-71315268D01*
X23764392Y-71313435D01*
X23760141Y-71306820D01*
X22197786Y-69744465D01*
X22184524Y-69737223D01*
X22174419Y-69744412D01*
X22098426Y-69836271D01*
X22093782Y-69842664D01*
X21928932Y-70102426D01*
X21925120Y-70109359D01*
X21794130Y-70387728D01*
X21791215Y-70395091D01*
X21696148Y-70687677D01*
X21694177Y-70695354D01*
X21636531Y-70997545D01*
X21635538Y-71005406D01*
X21616221Y-71312442D01*
X21616221Y-71320358D01*
X17742500Y-71320358D01*
X17742500Y-69369987D01*
X22547685Y-69369987D01*
X22554589Y-69382848D01*
X24116119Y-70944378D01*
X24130063Y-70951992D01*
X24131896Y-70951861D01*
X24138511Y-70947610D01*
X25703597Y-69382524D01*
X25710210Y-69370413D01*
X25701383Y-69358795D01*
X25478650Y-69196970D01*
X25471970Y-69192730D01*
X25202359Y-69044510D01*
X25195224Y-69041153D01*
X25106140Y-69005882D01*
X39825405Y-69005882D01*
X39826569Y-69014784D01*
X39826569Y-69014787D01*
X39828354Y-69028433D01*
X39843214Y-69142073D01*
X39898532Y-69267792D01*
X39986911Y-69372932D01*
X40101247Y-69449040D01*
X40232349Y-69489999D01*
X40369676Y-69492516D01*
X40378909Y-69489999D01*
X40493527Y-69458751D01*
X40502191Y-69456389D01*
X40584014Y-69406149D01*
X40611591Y-69389217D01*
X40619239Y-69384521D01*
X40642525Y-69358795D01*
X40705384Y-69289350D01*
X40705385Y-69289349D01*
X40711412Y-69282690D01*
X40771299Y-69159083D01*
X40794086Y-69023636D01*
X40794231Y-69011800D01*
X40793384Y-69005882D01*
X40776032Y-68884723D01*
X40776032Y-68884721D01*
X40774759Y-68875836D01*
X40717910Y-68750803D01*
X40628253Y-68646751D01*
X40512996Y-68572044D01*
X40381403Y-68532690D01*
X40372427Y-68532635D01*
X40372426Y-68532635D01*
X40314880Y-68532284D01*
X40244055Y-68531851D01*
X40111992Y-68569595D01*
X40104405Y-68574382D01*
X40104403Y-68574383D01*
X40067768Y-68597498D01*
X39995831Y-68642887D01*
X39904909Y-68745836D01*
X39846536Y-68870166D01*
X39843663Y-68888618D01*
X39826786Y-68997009D01*
X39826786Y-68997013D01*
X39825405Y-69005882D01*
X25106140Y-69005882D01*
X24909161Y-68927892D01*
X24901635Y-68925447D01*
X24603652Y-68848938D01*
X24595881Y-68847455D01*
X24290653Y-68808897D01*
X24282762Y-68808400D01*
X23975100Y-68808400D01*
X23967209Y-68808897D01*
X23661981Y-68847455D01*
X23654210Y-68848938D01*
X23356227Y-68925447D01*
X23348701Y-68927892D01*
X23062638Y-69041153D01*
X23055503Y-69044510D01*
X22785892Y-69192730D01*
X22779212Y-69196970D01*
X22556108Y-69359064D01*
X22547685Y-69369987D01*
X17742500Y-69369987D01*
X17742500Y-67405682D01*
X34516805Y-67405682D01*
X34517969Y-67414584D01*
X34517969Y-67414587D01*
X34522845Y-67451873D01*
X34534614Y-67541873D01*
X34589932Y-67667592D01*
X34595710Y-67674465D01*
X34595710Y-67674466D01*
X34642747Y-67730423D01*
X34678311Y-67772732D01*
X34792647Y-67848840D01*
X34923749Y-67889799D01*
X35061076Y-67892316D01*
X35070309Y-67889799D01*
X35075873Y-67888282D01*
X42898805Y-67888282D01*
X42899969Y-67897184D01*
X42899969Y-67897187D01*
X42901754Y-67910833D01*
X42916614Y-68024473D01*
X42971932Y-68150192D01*
X42977710Y-68157065D01*
X42977710Y-68157066D01*
X43035573Y-68225903D01*
X43060311Y-68255332D01*
X43174647Y-68331440D01*
X43305749Y-68372399D01*
X43443076Y-68374916D01*
X43452309Y-68372399D01*
X43520563Y-68353791D01*
X43575591Y-68338789D01*
X43692639Y-68266921D01*
X43784812Y-68165090D01*
X43801052Y-68131572D01*
X43840785Y-68049562D01*
X43840785Y-68049561D01*
X43844699Y-68041483D01*
X43867486Y-67906036D01*
X43867631Y-67894200D01*
X43866784Y-67888282D01*
X43849432Y-67767123D01*
X43849432Y-67767121D01*
X43848159Y-67758236D01*
X43791310Y-67633203D01*
X43701653Y-67529151D01*
X43586396Y-67454444D01*
X43454803Y-67415090D01*
X43445827Y-67415035D01*
X43445826Y-67415035D01*
X43388280Y-67414684D01*
X43317455Y-67414251D01*
X43185392Y-67451995D01*
X43177805Y-67456782D01*
X43177803Y-67456783D01*
X43116564Y-67495422D01*
X43069231Y-67525287D01*
X42978309Y-67628236D01*
X42974495Y-67636359D01*
X42974494Y-67636361D01*
X42961295Y-67664474D01*
X42919936Y-67752566D01*
X42915947Y-67778188D01*
X42900186Y-67879409D01*
X42900186Y-67879413D01*
X42898805Y-67888282D01*
X35075873Y-67888282D01*
X35184927Y-67858551D01*
X35193591Y-67856189D01*
X35310639Y-67784321D01*
X35322658Y-67771043D01*
X35383200Y-67733963D01*
X35416071Y-67729600D01*
X38588608Y-67729600D01*
X38599590Y-67730079D01*
X38636143Y-67733277D01*
X38649866Y-67729600D01*
X38671581Y-67723782D01*
X38682310Y-67721404D01*
X38707579Y-67716948D01*
X38707584Y-67716946D01*
X38718440Y-67715032D01*
X38727987Y-67709519D01*
X38730953Y-67708440D01*
X38733814Y-67707106D01*
X38744466Y-67704252D01*
X38774520Y-67683208D01*
X38783790Y-67677303D01*
X38806011Y-67664474D01*
X38806015Y-67664471D01*
X38815560Y-67658960D01*
X38839143Y-67630855D01*
X38846569Y-67622751D01*
X39419238Y-67050082D01*
X48969405Y-67050082D01*
X48970569Y-67058984D01*
X48970569Y-67058987D01*
X48976004Y-67100548D01*
X48987214Y-67186273D01*
X49042532Y-67311992D01*
X49130911Y-67417132D01*
X49245247Y-67493240D01*
X49341430Y-67523290D01*
X49344559Y-67524267D01*
X49376349Y-67534199D01*
X49513676Y-67536716D01*
X49522909Y-67534199D01*
X49646191Y-67500589D01*
X49646752Y-67502645D01*
X49705300Y-67495422D01*
X49722446Y-67499488D01*
X49801759Y-67524267D01*
X49833549Y-67534199D01*
X49970876Y-67536716D01*
X49980109Y-67534199D01*
X50094727Y-67502951D01*
X50103391Y-67500589D01*
X50162217Y-67464470D01*
X50230733Y-67445872D01*
X50297964Y-67466958D01*
X50337447Y-67493240D01*
X50433630Y-67523290D01*
X50436759Y-67524267D01*
X50468549Y-67534199D01*
X50605876Y-67536716D01*
X50615109Y-67534199D01*
X50738391Y-67500589D01*
X50738952Y-67502645D01*
X50797500Y-67495422D01*
X50814646Y-67499488D01*
X50893959Y-67524267D01*
X50925749Y-67534199D01*
X51063076Y-67536716D01*
X51072309Y-67534199D01*
X51186927Y-67502951D01*
X51195591Y-67500589D01*
X51312639Y-67428721D01*
X51325027Y-67415035D01*
X51398784Y-67333550D01*
X51398785Y-67333549D01*
X51404812Y-67326890D01*
X51427359Y-67280354D01*
X51460785Y-67211362D01*
X51460785Y-67211361D01*
X51464699Y-67203283D01*
X51487486Y-67067836D01*
X51487631Y-67056000D01*
X51486784Y-67050082D01*
X51469432Y-66928923D01*
X51469432Y-66928921D01*
X51468159Y-66920036D01*
X51411801Y-66796082D01*
X58951605Y-66796082D01*
X58952769Y-66804984D01*
X58952769Y-66804987D01*
X58960509Y-66864177D01*
X58969414Y-66932273D01*
X59024732Y-67057992D01*
X59030510Y-67064865D01*
X59030510Y-67064866D01*
X59104242Y-67152581D01*
X59113111Y-67163132D01*
X59227447Y-67239240D01*
X59299795Y-67261843D01*
X59346911Y-67276563D01*
X59358549Y-67280199D01*
X59495876Y-67282716D01*
X59505109Y-67280199D01*
X59619727Y-67248951D01*
X59628391Y-67246589D01*
X59745439Y-67174721D01*
X59768662Y-67149065D01*
X59831584Y-67079550D01*
X59831585Y-67079549D01*
X59837612Y-67072890D01*
X59845459Y-67056695D01*
X59893585Y-66957362D01*
X59893585Y-66957361D01*
X59897499Y-66949283D01*
X59915455Y-66842551D01*
X59919479Y-66818633D01*
X59920286Y-66813836D01*
X59920431Y-66802000D01*
X59919584Y-66796082D01*
X59902232Y-66674923D01*
X59902232Y-66674921D01*
X59900959Y-66666036D01*
X59844110Y-66541003D01*
X59754453Y-66436951D01*
X59639196Y-66362244D01*
X59507603Y-66322890D01*
X59498627Y-66322835D01*
X59498626Y-66322835D01*
X59441080Y-66322484D01*
X59370255Y-66322051D01*
X59238192Y-66359795D01*
X59230605Y-66364582D01*
X59230603Y-66364583D01*
X59190824Y-66389682D01*
X59122031Y-66433087D01*
X59116088Y-66439816D01*
X59107657Y-66449362D01*
X59031109Y-66536036D01*
X59027295Y-66544159D01*
X59027294Y-66544161D01*
X59024101Y-66550962D01*
X58972736Y-66660366D01*
X58967974Y-66690951D01*
X58952986Y-66787209D01*
X58952986Y-66787213D01*
X58951605Y-66796082D01*
X51411801Y-66796082D01*
X51411310Y-66795003D01*
X51321653Y-66690951D01*
X51206396Y-66616244D01*
X51074803Y-66576890D01*
X51065827Y-66576835D01*
X51065826Y-66576835D01*
X51008280Y-66576484D01*
X50937455Y-66576051D01*
X50928824Y-66578518D01*
X50928822Y-66578518D01*
X50807895Y-66613079D01*
X50737170Y-66612647D01*
X50626208Y-66579463D01*
X50626205Y-66579463D01*
X50617603Y-66576890D01*
X50608627Y-66576835D01*
X50608626Y-66576835D01*
X50551080Y-66576484D01*
X50480255Y-66576051D01*
X50348192Y-66613795D01*
X50340602Y-66618584D01*
X50295853Y-66646818D01*
X50227568Y-66666252D01*
X50160085Y-66645988D01*
X50121727Y-66621125D01*
X50121725Y-66621124D01*
X50114196Y-66616244D01*
X49982603Y-66576890D01*
X49973627Y-66576835D01*
X49973626Y-66576835D01*
X49916080Y-66576484D01*
X49845255Y-66576051D01*
X49836624Y-66578518D01*
X49836622Y-66578518D01*
X49715695Y-66613079D01*
X49644970Y-66612647D01*
X49534008Y-66579463D01*
X49534005Y-66579463D01*
X49525403Y-66576890D01*
X49516427Y-66576835D01*
X49516426Y-66576835D01*
X49458880Y-66576484D01*
X49388055Y-66576051D01*
X49255992Y-66613795D01*
X49248405Y-66618582D01*
X49248403Y-66618583D01*
X49195055Y-66652243D01*
X49139831Y-66687087D01*
X49048909Y-66790036D01*
X49045095Y-66798159D01*
X49045094Y-66798161D01*
X49027568Y-66835491D01*
X48990536Y-66914366D01*
X48980827Y-66976724D01*
X48970786Y-67041209D01*
X48970786Y-67041213D01*
X48969405Y-67050082D01*
X39419238Y-67050082D01*
X39556774Y-66912546D01*
X39619086Y-66878520D01*
X39648177Y-66875662D01*
X39674898Y-66876152D01*
X39674902Y-66876151D01*
X39683876Y-66876316D01*
X39692539Y-66873954D01*
X39692541Y-66873954D01*
X39807727Y-66842551D01*
X39816391Y-66840189D01*
X39923024Y-66774716D01*
X39925791Y-66773017D01*
X39933439Y-66768321D01*
X39967003Y-66731240D01*
X40019584Y-66673150D01*
X40019585Y-66673149D01*
X40025612Y-66666490D01*
X40034447Y-66648256D01*
X40081585Y-66550962D01*
X40081585Y-66550961D01*
X40085499Y-66542883D01*
X40108286Y-66407436D01*
X40108431Y-66395600D01*
X40107584Y-66389682D01*
X40093033Y-66288082D01*
X64031605Y-66288082D01*
X64032769Y-66296984D01*
X64032769Y-66296987D01*
X64036493Y-66325463D01*
X64049414Y-66424273D01*
X64104732Y-66549992D01*
X64193111Y-66655132D01*
X64307447Y-66731240D01*
X64438549Y-66772199D01*
X64575876Y-66774716D01*
X64585109Y-66772199D01*
X64699727Y-66740951D01*
X64708391Y-66738589D01*
X64812081Y-66674923D01*
X64817791Y-66671417D01*
X64825439Y-66666721D01*
X64831463Y-66660066D01*
X64911584Y-66571550D01*
X64911585Y-66571549D01*
X64917612Y-66564890D01*
X64928275Y-66542883D01*
X64973585Y-66449362D01*
X64973585Y-66449361D01*
X64977499Y-66441283D01*
X65000286Y-66305836D01*
X65000431Y-66294000D01*
X64999584Y-66288082D01*
X64982232Y-66166923D01*
X64982232Y-66166921D01*
X64980959Y-66158036D01*
X64924110Y-66033003D01*
X64834453Y-65928951D01*
X64719196Y-65854244D01*
X64587603Y-65814890D01*
X64578627Y-65814835D01*
X64578626Y-65814835D01*
X64521080Y-65814484D01*
X64450255Y-65814051D01*
X64318192Y-65851795D01*
X64310605Y-65856582D01*
X64310603Y-65856583D01*
X64252677Y-65893132D01*
X64202031Y-65925087D01*
X64111109Y-66028036D01*
X64107295Y-66036159D01*
X64107294Y-66036161D01*
X64104939Y-66041177D01*
X64052736Y-66152366D01*
X64043027Y-66214724D01*
X64032986Y-66279209D01*
X64032986Y-66279213D01*
X64031605Y-66288082D01*
X40093033Y-66288082D01*
X40090232Y-66268523D01*
X40090232Y-66268521D01*
X40088959Y-66259636D01*
X40032110Y-66134603D01*
X39942453Y-66030551D01*
X39827196Y-65955844D01*
X39695603Y-65916490D01*
X39686627Y-65916435D01*
X39686626Y-65916435D01*
X39629080Y-65916084D01*
X39558255Y-65915651D01*
X39426192Y-65953395D01*
X39418605Y-65958182D01*
X39418603Y-65958183D01*
X39386173Y-65978645D01*
X39310031Y-66026687D01*
X39219109Y-66129636D01*
X39215295Y-66137759D01*
X39215294Y-66137761D01*
X39201603Y-66166923D01*
X39160736Y-66253966D01*
X39139605Y-66389682D01*
X39137591Y-66389368D01*
X39120182Y-66446077D01*
X39104122Y-66465758D01*
X38513185Y-67056695D01*
X38450873Y-67090721D01*
X38424090Y-67093600D01*
X35417947Y-67093600D01*
X35349826Y-67073598D01*
X35332724Y-67058738D01*
X35332276Y-67059252D01*
X35325514Y-67053353D01*
X35319653Y-67046551D01*
X35204396Y-66971844D01*
X35072803Y-66932490D01*
X35063827Y-66932435D01*
X35063826Y-66932435D01*
X35006280Y-66932084D01*
X34935455Y-66931651D01*
X34803392Y-66969395D01*
X34795805Y-66974182D01*
X34795803Y-66974183D01*
X34734050Y-67013146D01*
X34687231Y-67042687D01*
X34681288Y-67049416D01*
X34602251Y-67138908D01*
X34596309Y-67145636D01*
X34592495Y-67153759D01*
X34592494Y-67153761D01*
X34581411Y-67177368D01*
X34537936Y-67269966D01*
X34531393Y-67311992D01*
X34518186Y-67396809D01*
X34518186Y-67396813D01*
X34516805Y-67405682D01*
X17742500Y-67405682D01*
X17742500Y-65442462D01*
X24827424Y-65442462D01*
X24836720Y-65454477D01*
X24887925Y-65490331D01*
X24897420Y-65495814D01*
X25094878Y-65587890D01*
X25105170Y-65591636D01*
X25315619Y-65648025D01*
X25326412Y-65649928D01*
X25543456Y-65668917D01*
X25554406Y-65668917D01*
X25771450Y-65649928D01*
X25782243Y-65648025D01*
X25992692Y-65591636D01*
X26002984Y-65587890D01*
X26135532Y-65526082D01*
X48969405Y-65526082D01*
X48970569Y-65534984D01*
X48970569Y-65534987D01*
X48972354Y-65548633D01*
X48987214Y-65662273D01*
X49042532Y-65787992D01*
X49130911Y-65893132D01*
X49245247Y-65969240D01*
X49376349Y-66010199D01*
X49513676Y-66012716D01*
X49522909Y-66010199D01*
X49646191Y-65976589D01*
X49646752Y-65978645D01*
X49705300Y-65971422D01*
X49722445Y-65975488D01*
X49833549Y-66010199D01*
X49970876Y-66012716D01*
X49980109Y-66010199D01*
X50094727Y-65978951D01*
X50103391Y-65976589D01*
X50162217Y-65940470D01*
X50230733Y-65921872D01*
X50297964Y-65942958D01*
X50337447Y-65969240D01*
X50468549Y-66010199D01*
X50605876Y-66012716D01*
X50615109Y-66010199D01*
X50738391Y-65976589D01*
X50738952Y-65978645D01*
X50797500Y-65971422D01*
X50814645Y-65975488D01*
X50925749Y-66010199D01*
X51063076Y-66012716D01*
X51072309Y-66010199D01*
X51186927Y-65978951D01*
X51195591Y-65976589D01*
X51312639Y-65904721D01*
X51353911Y-65859125D01*
X51398784Y-65809550D01*
X51398785Y-65809549D01*
X51404812Y-65802890D01*
X51464699Y-65679283D01*
X51487486Y-65543836D01*
X51487631Y-65532000D01*
X51486784Y-65526082D01*
X51469432Y-65404923D01*
X51469432Y-65404921D01*
X51468159Y-65396036D01*
X51411310Y-65271003D01*
X51321653Y-65166951D01*
X51206396Y-65092244D01*
X51074803Y-65052890D01*
X51065827Y-65052835D01*
X51065826Y-65052835D01*
X51008280Y-65052484D01*
X50937455Y-65052051D01*
X50928824Y-65054518D01*
X50928822Y-65054518D01*
X50807895Y-65089079D01*
X50737170Y-65088647D01*
X50626208Y-65055463D01*
X50626205Y-65055463D01*
X50617603Y-65052890D01*
X50608627Y-65052835D01*
X50608626Y-65052835D01*
X50551080Y-65052484D01*
X50480255Y-65052051D01*
X50348192Y-65089795D01*
X50340602Y-65094584D01*
X50295853Y-65122818D01*
X50227568Y-65142252D01*
X50160085Y-65121988D01*
X50121727Y-65097125D01*
X50121725Y-65097124D01*
X50114196Y-65092244D01*
X49982603Y-65052890D01*
X49973627Y-65052835D01*
X49973626Y-65052835D01*
X49916080Y-65052484D01*
X49845255Y-65052051D01*
X49836624Y-65054518D01*
X49836622Y-65054518D01*
X49715695Y-65089079D01*
X49644970Y-65088647D01*
X49534008Y-65055463D01*
X49534005Y-65055463D01*
X49525403Y-65052890D01*
X49516427Y-65052835D01*
X49516426Y-65052835D01*
X49458880Y-65052484D01*
X49388055Y-65052051D01*
X49255992Y-65089795D01*
X49248405Y-65094582D01*
X49248403Y-65094583D01*
X49186650Y-65133546D01*
X49139831Y-65163087D01*
X49048909Y-65266036D01*
X48990536Y-65390366D01*
X48984370Y-65429966D01*
X48970786Y-65517209D01*
X48970786Y-65517213D01*
X48969405Y-65526082D01*
X26135532Y-65526082D01*
X26200442Y-65495814D01*
X26209937Y-65490331D01*
X26261979Y-65453891D01*
X26270355Y-65443412D01*
X26263287Y-65429966D01*
X25561743Y-64728422D01*
X25547799Y-64720808D01*
X25545966Y-64720939D01*
X25539351Y-64725190D01*
X24833854Y-65430687D01*
X24827424Y-65442462D01*
X17742500Y-65442462D01*
X17742500Y-64361875D01*
X24236414Y-64361875D01*
X24255403Y-64578919D01*
X24257306Y-64589712D01*
X24313695Y-64800161D01*
X24317441Y-64810453D01*
X24409517Y-65007911D01*
X24415000Y-65017406D01*
X24451440Y-65069448D01*
X24461919Y-65077824D01*
X24475365Y-65070756D01*
X25176909Y-64369212D01*
X25183287Y-64357532D01*
X25913339Y-64357532D01*
X25913470Y-64359365D01*
X25917721Y-64365980D01*
X26623218Y-65071477D01*
X26634993Y-65077907D01*
X26647008Y-65068611D01*
X26682862Y-65017406D01*
X26688345Y-65007911D01*
X26780421Y-64810453D01*
X26784167Y-64800161D01*
X26840556Y-64589712D01*
X26842459Y-64578919D01*
X26861448Y-64361875D01*
X26861448Y-64350925D01*
X26842459Y-64133881D01*
X26840556Y-64123088D01*
X26784167Y-63912639D01*
X26780421Y-63902347D01*
X26688345Y-63704889D01*
X26682862Y-63695394D01*
X26646422Y-63643352D01*
X26635943Y-63634976D01*
X26622497Y-63642044D01*
X25920953Y-64343588D01*
X25913339Y-64357532D01*
X25183287Y-64357532D01*
X25184523Y-64355268D01*
X25184392Y-64353435D01*
X25180141Y-64346820D01*
X24474644Y-63641323D01*
X24462869Y-63634893D01*
X24450854Y-63644189D01*
X24415000Y-63695394D01*
X24409517Y-63704889D01*
X24317441Y-63902347D01*
X24313695Y-63912639D01*
X24257306Y-64123088D01*
X24255403Y-64133881D01*
X24236414Y-64350925D01*
X24236414Y-64361875D01*
X17742500Y-64361875D01*
X17742500Y-62956606D01*
X21649432Y-62956606D01*
X21650674Y-62971400D01*
X21664409Y-63134951D01*
X21666737Y-63162678D01*
X21723738Y-63361466D01*
X21726556Y-63366948D01*
X21726557Y-63366952D01*
X21815445Y-63539909D01*
X21815448Y-63539913D01*
X21818265Y-63545395D01*
X21946717Y-63707461D01*
X21951410Y-63711455D01*
X21951411Y-63711456D01*
X22081727Y-63822363D01*
X22104202Y-63841491D01*
X22284720Y-63942380D01*
X22481397Y-64006284D01*
X22686740Y-64030770D01*
X22692875Y-64030298D01*
X22692877Y-64030298D01*
X22886787Y-64015377D01*
X22886791Y-64015376D01*
X22892929Y-64014904D01*
X23092109Y-63959292D01*
X23097613Y-63956512D01*
X23097615Y-63956511D01*
X23271193Y-63868831D01*
X23271195Y-63868830D01*
X23276694Y-63866052D01*
X23439653Y-63738734D01*
X23443679Y-63734070D01*
X23443682Y-63734067D01*
X23570750Y-63586857D01*
X23570751Y-63586855D01*
X23574779Y-63582189D01*
X23629872Y-63485209D01*
X23673881Y-63407740D01*
X23673883Y-63407736D01*
X23676926Y-63402379D01*
X23721166Y-63269388D01*
X24827507Y-63269388D01*
X24834575Y-63282834D01*
X25536119Y-63984378D01*
X25550063Y-63991992D01*
X25551896Y-63991861D01*
X25558511Y-63987610D01*
X26052039Y-63494082D01*
X35964605Y-63494082D01*
X35965769Y-63502984D01*
X35965769Y-63502987D01*
X35971315Y-63545395D01*
X35982414Y-63630273D01*
X36037732Y-63755992D01*
X36043510Y-63762865D01*
X36043510Y-63762866D01*
X36106668Y-63838002D01*
X36126111Y-63861132D01*
X36133588Y-63866109D01*
X36226060Y-63927663D01*
X36240447Y-63937240D01*
X36371549Y-63978199D01*
X36508876Y-63980716D01*
X36518109Y-63978199D01*
X36632727Y-63946951D01*
X36641391Y-63944589D01*
X36758439Y-63872721D01*
X36770458Y-63859443D01*
X36831000Y-63822363D01*
X36863871Y-63818000D01*
X38255099Y-63818000D01*
X38323220Y-63838002D01*
X38369713Y-63891658D01*
X38380035Y-63927661D01*
X38395414Y-64045273D01*
X38450732Y-64170992D01*
X38456510Y-64177865D01*
X38456510Y-64177866D01*
X38503547Y-64233823D01*
X38539111Y-64276132D01*
X38546588Y-64281109D01*
X38645305Y-64346820D01*
X38653447Y-64352240D01*
X38784549Y-64393199D01*
X38921876Y-64395716D01*
X38931109Y-64393199D01*
X38988133Y-64377653D01*
X39054391Y-64359589D01*
X39171439Y-64287721D01*
X39183458Y-64274443D01*
X39244000Y-64237363D01*
X39276871Y-64233000D01*
X43507608Y-64233000D01*
X43518590Y-64233479D01*
X43555143Y-64236677D01*
X43568866Y-64233000D01*
X43590581Y-64227182D01*
X43601310Y-64224804D01*
X43626579Y-64220348D01*
X43626584Y-64220346D01*
X43637440Y-64218432D01*
X43646987Y-64212919D01*
X43649953Y-64211840D01*
X43652814Y-64210506D01*
X43663466Y-64207652D01*
X43693520Y-64186608D01*
X43702790Y-64180703D01*
X43725011Y-64167874D01*
X43725015Y-64167871D01*
X43734560Y-64162360D01*
X43758143Y-64134255D01*
X43765569Y-64126151D01*
X44651638Y-63240082D01*
X69365605Y-63240082D01*
X69366769Y-63248984D01*
X69366769Y-63248987D01*
X69367990Y-63258323D01*
X69383414Y-63376273D01*
X69438732Y-63501992D01*
X69444510Y-63508865D01*
X69444510Y-63508866D01*
X69488352Y-63561022D01*
X69527111Y-63607132D01*
X69641447Y-63683240D01*
X69772549Y-63724199D01*
X69909876Y-63726716D01*
X69919109Y-63724199D01*
X70033727Y-63692951D01*
X70042391Y-63690589D01*
X70159439Y-63618721D01*
X70197359Y-63576828D01*
X70245584Y-63523550D01*
X70245585Y-63523549D01*
X70251612Y-63516890D01*
X70262663Y-63494082D01*
X70307585Y-63401362D01*
X70307585Y-63401361D01*
X70311499Y-63393283D01*
X70334286Y-63257836D01*
X70334431Y-63246000D01*
X70333696Y-63240862D01*
X70316232Y-63118923D01*
X70316232Y-63118921D01*
X70314959Y-63110036D01*
X70301112Y-63079582D01*
X71050105Y-63079582D01*
X71051269Y-63088484D01*
X71051269Y-63088487D01*
X71053054Y-63102133D01*
X71067914Y-63215773D01*
X71123232Y-63341492D01*
X71129010Y-63348365D01*
X71129010Y-63348366D01*
X71178919Y-63407740D01*
X71211611Y-63446632D01*
X71219088Y-63451609D01*
X71294778Y-63501992D01*
X71325947Y-63522740D01*
X71457049Y-63563699D01*
X71594376Y-63566216D01*
X71603609Y-63563699D01*
X71718227Y-63532451D01*
X71726891Y-63530089D01*
X71843939Y-63458221D01*
X71894485Y-63402379D01*
X71930084Y-63363050D01*
X71930085Y-63363049D01*
X71936112Y-63356390D01*
X71987236Y-63250871D01*
X71992085Y-63240862D01*
X71992085Y-63240861D01*
X71995999Y-63232783D01*
X72018786Y-63097336D01*
X72018931Y-63085500D01*
X72018084Y-63079582D01*
X72828105Y-63079582D01*
X72829269Y-63088484D01*
X72829269Y-63088487D01*
X72831054Y-63102133D01*
X72845914Y-63215773D01*
X72901232Y-63341492D01*
X72907010Y-63348365D01*
X72907010Y-63348366D01*
X72956919Y-63407740D01*
X72989611Y-63446632D01*
X72997088Y-63451609D01*
X73072778Y-63501992D01*
X73103947Y-63522740D01*
X73235049Y-63563699D01*
X73372376Y-63566216D01*
X73381609Y-63563699D01*
X73496227Y-63532451D01*
X73504891Y-63530089D01*
X73621939Y-63458221D01*
X73672485Y-63402379D01*
X73708084Y-63363050D01*
X73708085Y-63363049D01*
X73714112Y-63356390D01*
X73765236Y-63250871D01*
X73770085Y-63240862D01*
X73770085Y-63240861D01*
X73773999Y-63232783D01*
X73796786Y-63097336D01*
X73796931Y-63085500D01*
X73796084Y-63079582D01*
X75555105Y-63079582D01*
X75556269Y-63088484D01*
X75556269Y-63088487D01*
X75558054Y-63102133D01*
X75572914Y-63215773D01*
X75628232Y-63341492D01*
X75634010Y-63348365D01*
X75634010Y-63348366D01*
X75683919Y-63407740D01*
X75716611Y-63446632D01*
X75724088Y-63451609D01*
X75799778Y-63501992D01*
X75830947Y-63522740D01*
X75962049Y-63563699D01*
X76099376Y-63566216D01*
X76108609Y-63563699D01*
X76223227Y-63532451D01*
X76231891Y-63530089D01*
X76348939Y-63458221D01*
X76399485Y-63402379D01*
X76435084Y-63363050D01*
X76435085Y-63363049D01*
X76441112Y-63356390D01*
X76492236Y-63250871D01*
X76497085Y-63240862D01*
X76497085Y-63240861D01*
X76500999Y-63232783D01*
X76523786Y-63097336D01*
X76523931Y-63085500D01*
X76523084Y-63079582D01*
X76505732Y-62958423D01*
X76505732Y-62958421D01*
X76504459Y-62949536D01*
X76447610Y-62824503D01*
X76357953Y-62720451D01*
X76242696Y-62645744D01*
X76111103Y-62606390D01*
X76102127Y-62606335D01*
X76102126Y-62606335D01*
X76044580Y-62605984D01*
X75973755Y-62605551D01*
X75841692Y-62643295D01*
X75834105Y-62648082D01*
X75834103Y-62648083D01*
X75772350Y-62687046D01*
X75725531Y-62716587D01*
X75719588Y-62723316D01*
X75689648Y-62757217D01*
X75634609Y-62819536D01*
X75630795Y-62827659D01*
X75630794Y-62827661D01*
X75602636Y-62887636D01*
X75576236Y-62943866D01*
X75569831Y-62985003D01*
X75556486Y-63070709D01*
X75556486Y-63070713D01*
X75555105Y-63079582D01*
X73796084Y-63079582D01*
X73778732Y-62958423D01*
X73778732Y-62958421D01*
X73777459Y-62949536D01*
X73720610Y-62824503D01*
X73630953Y-62720451D01*
X73515696Y-62645744D01*
X73384103Y-62606390D01*
X73375127Y-62606335D01*
X73375126Y-62606335D01*
X73317580Y-62605984D01*
X73246755Y-62605551D01*
X73114692Y-62643295D01*
X73107105Y-62648082D01*
X73107103Y-62648083D01*
X73045350Y-62687046D01*
X72998531Y-62716587D01*
X72992588Y-62723316D01*
X72962648Y-62757217D01*
X72907609Y-62819536D01*
X72903795Y-62827659D01*
X72903794Y-62827661D01*
X72875636Y-62887636D01*
X72849236Y-62943866D01*
X72842831Y-62985003D01*
X72829486Y-63070709D01*
X72829486Y-63070713D01*
X72828105Y-63079582D01*
X72018084Y-63079582D01*
X72000732Y-62958423D01*
X72000732Y-62958421D01*
X71999459Y-62949536D01*
X71942610Y-62824503D01*
X71852953Y-62720451D01*
X71737696Y-62645744D01*
X71606103Y-62606390D01*
X71597127Y-62606335D01*
X71597126Y-62606335D01*
X71539580Y-62605984D01*
X71468755Y-62605551D01*
X71336692Y-62643295D01*
X71329105Y-62648082D01*
X71329103Y-62648083D01*
X71267350Y-62687046D01*
X71220531Y-62716587D01*
X71214588Y-62723316D01*
X71184648Y-62757217D01*
X71129609Y-62819536D01*
X71125795Y-62827659D01*
X71125794Y-62827661D01*
X71097636Y-62887636D01*
X71071236Y-62943866D01*
X71064831Y-62985003D01*
X71051486Y-63070709D01*
X71051486Y-63070713D01*
X71050105Y-63079582D01*
X70301112Y-63079582D01*
X70258110Y-62985003D01*
X70168453Y-62880951D01*
X70053196Y-62806244D01*
X69921603Y-62766890D01*
X69912627Y-62766835D01*
X69912626Y-62766835D01*
X69855080Y-62766484D01*
X69784255Y-62766051D01*
X69652192Y-62803795D01*
X69644605Y-62808582D01*
X69644603Y-62808583D01*
X69606417Y-62832677D01*
X69536031Y-62877087D01*
X69445109Y-62980036D01*
X69386736Y-63104366D01*
X69378613Y-63156536D01*
X69366986Y-63231209D01*
X69366986Y-63231213D01*
X69365605Y-63240082D01*
X44651638Y-63240082D01*
X45491654Y-62400066D01*
X45499758Y-62392640D01*
X45519416Y-62376145D01*
X45527863Y-62369057D01*
X45533374Y-62359512D01*
X45533377Y-62359508D01*
X45546210Y-62337279D01*
X45552110Y-62328018D01*
X45573154Y-62297963D01*
X45576007Y-62287318D01*
X45577346Y-62284446D01*
X45578426Y-62281480D01*
X45583935Y-62271937D01*
X45585848Y-62261088D01*
X45585851Y-62261080D01*
X45590308Y-62235803D01*
X45592686Y-62225075D01*
X45599326Y-62200292D01*
X45599326Y-62200291D01*
X45602180Y-62189640D01*
X45598982Y-62153087D01*
X45598503Y-62142105D01*
X45598503Y-56382082D01*
X52601605Y-56382082D01*
X52602769Y-56390984D01*
X52602769Y-56390987D01*
X52610510Y-56450178D01*
X52619414Y-56518273D01*
X52674732Y-56643992D01*
X52680510Y-56650865D01*
X52680510Y-56650866D01*
X52757331Y-56742256D01*
X52763111Y-56749132D01*
X52770588Y-56754109D01*
X52853151Y-56809067D01*
X52877447Y-56825240D01*
X53008549Y-56866199D01*
X53145876Y-56868716D01*
X53155109Y-56866199D01*
X53269727Y-56834951D01*
X53278391Y-56832589D01*
X53395439Y-56760721D01*
X53451077Y-56699253D01*
X53481584Y-56665550D01*
X53481585Y-56665549D01*
X53487612Y-56658890D01*
X53500041Y-56633238D01*
X53543585Y-56543362D01*
X53543585Y-56543361D01*
X53547499Y-56535283D01*
X53570286Y-56399836D01*
X53570431Y-56388000D01*
X53569584Y-56382082D01*
X53552232Y-56260923D01*
X53552232Y-56260921D01*
X53550959Y-56252036D01*
X53494110Y-56127003D01*
X53404453Y-56022951D01*
X53289196Y-55948244D01*
X53157603Y-55908890D01*
X53148627Y-55908835D01*
X53148626Y-55908835D01*
X53091080Y-55908484D01*
X53020255Y-55908051D01*
X52888192Y-55945795D01*
X52880605Y-55950582D01*
X52880603Y-55950583D01*
X52822677Y-55987132D01*
X52772031Y-56019087D01*
X52766088Y-56025816D01*
X52755487Y-56037819D01*
X52681109Y-56122036D01*
X52622736Y-56246366D01*
X52620389Y-56261441D01*
X52602986Y-56373209D01*
X52602986Y-56373213D01*
X52601605Y-56382082D01*
X45598503Y-56382082D01*
X45598503Y-56037819D01*
X45618505Y-55969698D01*
X45631088Y-55953264D01*
X45676087Y-55903550D01*
X45676088Y-55903549D01*
X45682115Y-55896890D01*
X45716415Y-55826096D01*
X45738088Y-55781362D01*
X45738088Y-55781361D01*
X45742002Y-55773283D01*
X45764789Y-55637836D01*
X45764934Y-55626000D01*
X45764087Y-55620082D01*
X45746735Y-55498923D01*
X45746735Y-55498921D01*
X45745462Y-55490036D01*
X45688613Y-55365003D01*
X45598956Y-55260951D01*
X45569228Y-55241682D01*
X65177205Y-55241682D01*
X65178369Y-55250584D01*
X65178369Y-55250587D01*
X65181456Y-55274194D01*
X65195014Y-55377873D01*
X65215340Y-55424067D01*
X65233557Y-55465467D01*
X65250332Y-55503592D01*
X65338711Y-55608732D01*
X65453047Y-55684840D01*
X65528452Y-55708398D01*
X65565719Y-55720041D01*
X65584149Y-55725799D01*
X65721476Y-55728316D01*
X65730709Y-55725799D01*
X65845327Y-55694551D01*
X65853991Y-55692189D01*
X65971039Y-55620321D01*
X66014376Y-55572443D01*
X66057184Y-55525150D01*
X66057185Y-55525149D01*
X66063212Y-55518490D01*
X66075450Y-55493232D01*
X66119185Y-55402962D01*
X66119185Y-55402961D01*
X66123099Y-55394883D01*
X66143426Y-55274059D01*
X66145079Y-55264233D01*
X66145886Y-55259436D01*
X66146031Y-55247600D01*
X66145184Y-55241682D01*
X68225205Y-55241682D01*
X68226369Y-55250584D01*
X68226369Y-55250587D01*
X68229456Y-55274194D01*
X68243014Y-55377873D01*
X68263340Y-55424067D01*
X68281557Y-55465467D01*
X68298332Y-55503592D01*
X68386711Y-55608732D01*
X68501047Y-55684840D01*
X68576452Y-55708398D01*
X68613719Y-55720041D01*
X68632149Y-55725799D01*
X68769476Y-55728316D01*
X68778709Y-55725799D01*
X68893327Y-55694551D01*
X68901991Y-55692189D01*
X69019039Y-55620321D01*
X69062376Y-55572443D01*
X69105184Y-55525150D01*
X69105185Y-55525149D01*
X69111212Y-55518490D01*
X69123450Y-55493232D01*
X69167185Y-55402962D01*
X69167185Y-55402961D01*
X69171099Y-55394883D01*
X69191426Y-55274059D01*
X69193079Y-55264233D01*
X69193886Y-55259436D01*
X69194031Y-55247600D01*
X69193184Y-55241682D01*
X69175832Y-55120523D01*
X69175832Y-55120521D01*
X69174559Y-55111636D01*
X69117710Y-54986603D01*
X69028053Y-54882551D01*
X68912796Y-54807844D01*
X68781203Y-54768490D01*
X68772227Y-54768435D01*
X68772226Y-54768435D01*
X68714680Y-54768084D01*
X68643855Y-54767651D01*
X68511792Y-54805395D01*
X68504205Y-54810182D01*
X68504203Y-54810183D01*
X68464744Y-54835080D01*
X68395631Y-54878687D01*
X68304709Y-54981636D01*
X68300895Y-54989759D01*
X68300894Y-54989761D01*
X68291269Y-55010262D01*
X68246336Y-55105966D01*
X68240095Y-55146051D01*
X68226586Y-55232809D01*
X68226586Y-55232813D01*
X68225205Y-55241682D01*
X66145184Y-55241682D01*
X66127832Y-55120523D01*
X66127832Y-55120521D01*
X66126559Y-55111636D01*
X66069710Y-54986603D01*
X65980053Y-54882551D01*
X65864796Y-54807844D01*
X65733203Y-54768490D01*
X65724227Y-54768435D01*
X65724226Y-54768435D01*
X65666680Y-54768084D01*
X65595855Y-54767651D01*
X65463792Y-54805395D01*
X65456205Y-54810182D01*
X65456203Y-54810183D01*
X65416744Y-54835080D01*
X65347631Y-54878687D01*
X65256709Y-54981636D01*
X65252895Y-54989759D01*
X65252894Y-54989761D01*
X65243269Y-55010262D01*
X65198336Y-55105966D01*
X65192095Y-55146051D01*
X65178586Y-55232809D01*
X65178586Y-55232813D01*
X65177205Y-55241682D01*
X45569228Y-55241682D01*
X45483699Y-55186244D01*
X45352106Y-55146890D01*
X45343130Y-55146835D01*
X45343129Y-55146835D01*
X45285583Y-55146484D01*
X45214758Y-55146051D01*
X45082695Y-55183795D01*
X45075104Y-55188585D01*
X45075103Y-55188585D01*
X45059996Y-55198116D01*
X44991710Y-55217549D01*
X44924230Y-55197285D01*
X44914726Y-55191125D01*
X44907196Y-55186244D01*
X44775603Y-55146890D01*
X44766627Y-55146835D01*
X44766626Y-55146835D01*
X44709080Y-55146484D01*
X44638255Y-55146051D01*
X44506192Y-55183795D01*
X44498605Y-55188582D01*
X44498603Y-55188583D01*
X44452695Y-55217549D01*
X44390031Y-55257087D01*
X44384088Y-55263816D01*
X44364951Y-55285484D01*
X44299109Y-55360036D01*
X44295295Y-55368159D01*
X44295294Y-55368161D01*
X44286904Y-55386032D01*
X44240736Y-55484366D01*
X44235423Y-55518490D01*
X44220986Y-55611209D01*
X44220986Y-55611213D01*
X44219605Y-55620082D01*
X44220769Y-55628984D01*
X44220769Y-55628987D01*
X44228073Y-55684840D01*
X44237414Y-55756273D01*
X44292732Y-55881992D01*
X44350389Y-55950583D01*
X44356451Y-55957795D01*
X44384972Y-56022810D01*
X44386000Y-56038870D01*
X44386000Y-61792090D01*
X44365998Y-61860211D01*
X44349095Y-61881185D01*
X43085185Y-63145095D01*
X43022873Y-63179121D01*
X42996090Y-63182000D01*
X36865747Y-63182000D01*
X36797626Y-63161998D01*
X36780524Y-63147138D01*
X36780076Y-63147652D01*
X36773314Y-63141753D01*
X36767453Y-63134951D01*
X36652196Y-63060244D01*
X36520603Y-63020890D01*
X36511627Y-63020835D01*
X36511626Y-63020835D01*
X36454080Y-63020484D01*
X36383255Y-63020051D01*
X36251192Y-63057795D01*
X36243605Y-63062582D01*
X36243603Y-63062583D01*
X36190255Y-63096243D01*
X36135031Y-63131087D01*
X36044109Y-63234036D01*
X36040295Y-63242159D01*
X36040294Y-63242161D01*
X36027511Y-63269388D01*
X35985736Y-63358366D01*
X35976027Y-63420724D01*
X35965986Y-63485209D01*
X35965986Y-63485213D01*
X35964605Y-63494082D01*
X26052039Y-63494082D01*
X26264008Y-63282113D01*
X26270438Y-63270338D01*
X26261142Y-63258323D01*
X26209937Y-63222469D01*
X26200442Y-63216986D01*
X26002984Y-63124910D01*
X25992692Y-63121164D01*
X25782243Y-63064775D01*
X25771450Y-63062872D01*
X25554406Y-63043883D01*
X25543456Y-63043883D01*
X25326412Y-63062872D01*
X25315619Y-63064775D01*
X25105170Y-63121164D01*
X25094878Y-63124910D01*
X24897420Y-63216986D01*
X24887925Y-63222469D01*
X24835883Y-63258909D01*
X24827507Y-63269388D01*
X23721166Y-63269388D01*
X23726626Y-63252973D01*
X23740256Y-63212001D01*
X23740257Y-63211998D01*
X23742201Y-63206153D01*
X23768120Y-63000986D01*
X23768533Y-62971400D01*
X23748353Y-62765589D01*
X23688582Y-62567617D01*
X23685689Y-62562177D01*
X23683340Y-62556476D01*
X23686192Y-62555301D01*
X23674174Y-62498905D01*
X23699267Y-62432490D01*
X23710719Y-62419332D01*
X24290351Y-61839700D01*
X24298455Y-61832274D01*
X24326560Y-61808691D01*
X24328371Y-61810849D01*
X24373617Y-61780742D01*
X24444605Y-61779611D01*
X24504935Y-61817038D01*
X24532156Y-61866327D01*
X24551075Y-61932303D01*
X24563738Y-61976466D01*
X24566556Y-61981948D01*
X24566557Y-61981952D01*
X24655445Y-62154909D01*
X24655448Y-62154913D01*
X24658265Y-62160395D01*
X24786717Y-62322461D01*
X24791410Y-62326455D01*
X24791411Y-62326456D01*
X24849796Y-62376145D01*
X24944202Y-62456491D01*
X25124720Y-62557380D01*
X25321397Y-62621284D01*
X25526740Y-62645770D01*
X25532875Y-62645298D01*
X25532877Y-62645298D01*
X25726787Y-62630377D01*
X25726791Y-62630376D01*
X25732929Y-62629904D01*
X25932109Y-62574292D01*
X25937613Y-62571512D01*
X25937615Y-62571511D01*
X26111193Y-62483831D01*
X26111195Y-62483830D01*
X26116694Y-62481052D01*
X26279653Y-62353734D01*
X26283679Y-62349070D01*
X26283682Y-62349067D01*
X26410750Y-62201857D01*
X26410751Y-62201855D01*
X26414779Y-62197189D01*
X26516926Y-62017379D01*
X26525825Y-61990628D01*
X26566307Y-61932303D01*
X26631895Y-61905124D01*
X26645383Y-61904400D01*
X35422208Y-61904400D01*
X35433190Y-61904879D01*
X35469743Y-61908077D01*
X35483466Y-61904400D01*
X35505181Y-61898582D01*
X35515910Y-61896204D01*
X35541179Y-61891748D01*
X35541184Y-61891746D01*
X35552040Y-61889832D01*
X35561587Y-61884319D01*
X35564553Y-61883240D01*
X35567414Y-61881906D01*
X35578066Y-61879052D01*
X35608120Y-61858008D01*
X35617390Y-61852103D01*
X35639611Y-61839274D01*
X35639615Y-61839271D01*
X35649160Y-61833760D01*
X35663192Y-61817038D01*
X35672743Y-61805655D01*
X35680169Y-61797551D01*
X35746774Y-61730946D01*
X35809086Y-61696920D01*
X35838177Y-61694062D01*
X35864898Y-61694552D01*
X35864902Y-61694551D01*
X35873876Y-61694716D01*
X35882539Y-61692354D01*
X35882541Y-61692354D01*
X35997727Y-61660951D01*
X36006391Y-61658589D01*
X36123439Y-61586721D01*
X36129463Y-61580066D01*
X36209584Y-61491550D01*
X36209585Y-61491549D01*
X36215612Y-61484890D01*
X36248398Y-61417221D01*
X36271585Y-61369362D01*
X36271585Y-61369361D01*
X36275499Y-61361283D01*
X36298286Y-61225836D01*
X36298431Y-61214000D01*
X36297584Y-61208082D01*
X36280232Y-61086923D01*
X36280232Y-61086921D01*
X36278959Y-61078036D01*
X36271843Y-61062384D01*
X36244243Y-61001683D01*
X36222110Y-60953003D01*
X36132453Y-60848951D01*
X36017196Y-60774244D01*
X35885603Y-60734890D01*
X35876627Y-60734835D01*
X35876626Y-60734835D01*
X35819080Y-60734484D01*
X35748255Y-60734051D01*
X35616192Y-60771795D01*
X35608605Y-60776582D01*
X35608603Y-60776583D01*
X35602828Y-60780227D01*
X35500031Y-60845087D01*
X35409109Y-60948036D01*
X35405295Y-60956159D01*
X35405294Y-60956161D01*
X35384700Y-61000025D01*
X35350736Y-61072366D01*
X35349356Y-61081230D01*
X35349355Y-61081233D01*
X35336813Y-61161785D01*
X35306568Y-61226018D01*
X35246399Y-61263702D01*
X35212313Y-61268400D01*
X26647638Y-61268400D01*
X26579517Y-61248398D01*
X26531146Y-61190416D01*
X26530363Y-61188517D01*
X26528582Y-61182617D01*
X26521330Y-61168978D01*
X26434390Y-61005467D01*
X26434388Y-61005464D01*
X26431496Y-61000025D01*
X26427605Y-60995255D01*
X26427603Y-60995251D01*
X26304689Y-60844543D01*
X26304686Y-60844540D01*
X26300794Y-60839768D01*
X26293897Y-60834062D01*
X26146202Y-60711878D01*
X26146197Y-60711875D01*
X26141453Y-60707950D01*
X26136034Y-60705020D01*
X26136031Y-60705018D01*
X25964963Y-60612522D01*
X25964958Y-60612520D01*
X25959543Y-60609592D01*
X25761994Y-60548440D01*
X25755869Y-60547796D01*
X25755868Y-60547796D01*
X25562457Y-60527468D01*
X25562455Y-60527468D01*
X25556328Y-60526824D01*
X25430160Y-60538306D01*
X25356522Y-60545007D01*
X25356521Y-60545007D01*
X25350381Y-60545566D01*
X25151997Y-60603954D01*
X25146532Y-60606811D01*
X24974192Y-60696908D01*
X24974188Y-60696911D01*
X24968732Y-60699763D01*
X24807566Y-60829343D01*
X24674639Y-60987760D01*
X24633613Y-61062386D01*
X24583269Y-61112443D01*
X24513852Y-61127336D01*
X24447403Y-61102335D01*
X24405019Y-61045378D01*
X24397200Y-61001683D01*
X24397200Y-59403238D01*
X24417202Y-59335117D01*
X24470858Y-59288624D01*
X24541132Y-59278520D01*
X24605712Y-59308014D01*
X24635265Y-59345641D01*
X24658265Y-59390395D01*
X24786717Y-59552461D01*
X24791410Y-59556455D01*
X24791411Y-59556456D01*
X24860230Y-59615025D01*
X24944202Y-59686491D01*
X25124720Y-59787380D01*
X25321397Y-59851284D01*
X25526740Y-59875770D01*
X25532875Y-59875298D01*
X25532877Y-59875298D01*
X25726787Y-59860377D01*
X25726791Y-59860376D01*
X25732929Y-59859904D01*
X25932109Y-59804292D01*
X25937613Y-59801512D01*
X25937615Y-59801511D01*
X26111193Y-59713831D01*
X26111195Y-59713830D01*
X26116694Y-59711052D01*
X26279653Y-59583734D01*
X26283679Y-59579070D01*
X26283682Y-59579067D01*
X26410750Y-59431857D01*
X26410751Y-59431855D01*
X26414779Y-59427189D01*
X26516926Y-59247379D01*
X26525825Y-59220628D01*
X26566307Y-59162303D01*
X26631895Y-59135124D01*
X26645383Y-59134400D01*
X27829008Y-59134400D01*
X27839990Y-59134879D01*
X27876543Y-59138077D01*
X27890266Y-59134400D01*
X27911981Y-59128582D01*
X27922710Y-59126204D01*
X27947979Y-59121748D01*
X27947984Y-59121746D01*
X27958840Y-59119832D01*
X27968387Y-59114319D01*
X27971353Y-59113240D01*
X27974214Y-59111906D01*
X27984866Y-59109052D01*
X28014920Y-59088008D01*
X28024190Y-59082103D01*
X28046411Y-59069274D01*
X28046415Y-59069271D01*
X28055960Y-59063760D01*
X28079543Y-59035655D01*
X28086969Y-59027551D01*
X28395638Y-58718882D01*
X42644805Y-58718882D01*
X42645969Y-58727784D01*
X42645969Y-58727787D01*
X42647754Y-58741433D01*
X42662614Y-58855073D01*
X42717932Y-58980792D01*
X42723710Y-58987665D01*
X42723710Y-58987666D01*
X42800531Y-59079056D01*
X42806311Y-59085932D01*
X42813788Y-59090909D01*
X42891117Y-59142383D01*
X42920647Y-59162040D01*
X43051749Y-59202999D01*
X43189076Y-59205516D01*
X43198309Y-59202999D01*
X43312927Y-59171751D01*
X43321591Y-59169389D01*
X43413038Y-59113240D01*
X43430991Y-59102217D01*
X43438639Y-59097521D01*
X43449129Y-59085932D01*
X43524784Y-59002350D01*
X43524785Y-59002349D01*
X43530812Y-58995690D01*
X43590699Y-58872083D01*
X43613486Y-58736636D01*
X43613631Y-58724800D01*
X43612784Y-58718882D01*
X43595432Y-58597723D01*
X43595432Y-58597721D01*
X43594159Y-58588836D01*
X43537310Y-58463803D01*
X43447653Y-58359751D01*
X43332396Y-58285044D01*
X43200803Y-58245690D01*
X43191827Y-58245635D01*
X43191826Y-58245635D01*
X43134280Y-58245284D01*
X43063455Y-58244851D01*
X42931392Y-58282595D01*
X42923805Y-58287382D01*
X42923803Y-58287383D01*
X42896681Y-58304496D01*
X42815231Y-58355887D01*
X42809288Y-58362616D01*
X42772488Y-58404284D01*
X42724309Y-58458836D01*
X42720495Y-58466959D01*
X42720494Y-58466961D01*
X42709316Y-58490770D01*
X42665936Y-58583166D01*
X42656227Y-58645524D01*
X42646186Y-58710009D01*
X42646186Y-58710013D01*
X42644805Y-58718882D01*
X28395638Y-58718882D01*
X29482615Y-57631905D01*
X29544927Y-57597879D01*
X29571710Y-57595000D01*
X37826608Y-57595000D01*
X37837590Y-57595479D01*
X37874143Y-57598677D01*
X37887866Y-57595000D01*
X37909581Y-57589182D01*
X37920310Y-57586804D01*
X37945579Y-57582348D01*
X37945584Y-57582346D01*
X37956440Y-57580432D01*
X37965987Y-57574919D01*
X37968953Y-57573840D01*
X37971814Y-57572506D01*
X37982466Y-57569652D01*
X38012520Y-57548608D01*
X38021790Y-57542703D01*
X38044011Y-57529874D01*
X38044015Y-57529871D01*
X38053560Y-57524360D01*
X38077143Y-57496255D01*
X38084569Y-57488151D01*
X39952638Y-55620082D01*
X42898805Y-55620082D01*
X42899969Y-55628984D01*
X42899969Y-55628987D01*
X42907273Y-55684840D01*
X42916614Y-55756273D01*
X42971932Y-55881992D01*
X43060311Y-55987132D01*
X43174647Y-56063240D01*
X43305749Y-56104199D01*
X43443076Y-56106716D01*
X43452309Y-56104199D01*
X43566927Y-56072951D01*
X43575591Y-56070589D01*
X43692639Y-55998721D01*
X43698663Y-55992066D01*
X43778784Y-55903550D01*
X43778785Y-55903549D01*
X43784812Y-55896890D01*
X43819112Y-55826096D01*
X43840785Y-55781362D01*
X43840785Y-55781361D01*
X43844699Y-55773283D01*
X43867486Y-55637836D01*
X43867631Y-55626000D01*
X43866784Y-55620082D01*
X43849432Y-55498923D01*
X43849432Y-55498921D01*
X43848159Y-55490036D01*
X43791310Y-55365003D01*
X43701653Y-55260951D01*
X43586396Y-55186244D01*
X43454803Y-55146890D01*
X43445827Y-55146835D01*
X43445826Y-55146835D01*
X43388280Y-55146484D01*
X43317455Y-55146051D01*
X43185392Y-55183795D01*
X43177805Y-55188582D01*
X43177803Y-55188583D01*
X43131895Y-55217549D01*
X43069231Y-55257087D01*
X43063288Y-55263816D01*
X43044151Y-55285484D01*
X42978309Y-55360036D01*
X42974495Y-55368159D01*
X42974494Y-55368161D01*
X42966104Y-55386032D01*
X42919936Y-55484366D01*
X42914623Y-55518490D01*
X42900186Y-55611209D01*
X42900186Y-55611213D01*
X42898805Y-55620082D01*
X39952638Y-55620082D01*
X40572774Y-54999946D01*
X40635086Y-54965920D01*
X40664177Y-54963062D01*
X40690898Y-54963552D01*
X40690902Y-54963551D01*
X40699876Y-54963716D01*
X40708539Y-54961354D01*
X40708541Y-54961354D01*
X40823727Y-54929951D01*
X40832391Y-54927589D01*
X40949439Y-54855721D01*
X40966642Y-54836716D01*
X41035584Y-54760550D01*
X41035585Y-54760549D01*
X41041612Y-54753890D01*
X41045550Y-54745763D01*
X41097585Y-54638362D01*
X41097585Y-54638361D01*
X41101499Y-54630283D01*
X41124286Y-54494836D01*
X41124431Y-54483000D01*
X41123584Y-54477082D01*
X41106232Y-54355923D01*
X41106232Y-54355921D01*
X41104959Y-54347036D01*
X41101244Y-54338866D01*
X41098724Y-54330247D01*
X41101556Y-54329419D01*
X41093659Y-54273870D01*
X41123255Y-54209336D01*
X41183042Y-54171048D01*
X41218348Y-54166000D01*
X61863465Y-54166000D01*
X61931586Y-54186002D01*
X61947448Y-54198070D01*
X61952136Y-54202261D01*
X61957911Y-54209132D01*
X61965382Y-54214105D01*
X61965383Y-54214106D01*
X62030749Y-54257617D01*
X62072247Y-54285240D01*
X62203349Y-54326199D01*
X62340676Y-54328716D01*
X62349909Y-54326199D01*
X62464527Y-54294951D01*
X62473191Y-54292589D01*
X62590239Y-54220721D01*
X62648192Y-54156696D01*
X62676384Y-54125550D01*
X62676385Y-54125549D01*
X62682412Y-54118890D01*
X62687914Y-54107535D01*
X62738385Y-54003362D01*
X62738385Y-54003361D01*
X62742299Y-53995283D01*
X62765086Y-53859836D01*
X62765231Y-53848000D01*
X62756881Y-53789692D01*
X62747032Y-53720923D01*
X62747032Y-53720921D01*
X62745759Y-53712036D01*
X62688910Y-53587003D01*
X62599253Y-53482951D01*
X62483996Y-53408244D01*
X62352403Y-53368890D01*
X62343427Y-53368835D01*
X62343426Y-53368835D01*
X62285880Y-53368484D01*
X62215055Y-53368051D01*
X62082992Y-53405795D01*
X62075405Y-53410582D01*
X62075403Y-53410583D01*
X62025143Y-53442295D01*
X61966831Y-53479087D01*
X61960889Y-53485816D01*
X61960888Y-53485816D01*
X61959481Y-53487409D01*
X61957697Y-53488532D01*
X61954053Y-53491633D01*
X61953605Y-53491107D01*
X61899395Y-53525226D01*
X61865041Y-53530000D01*
X51819757Y-53530000D01*
X51756757Y-53513119D01*
X51723240Y-53493768D01*
X51640623Y-53479200D01*
X39401510Y-53479200D01*
X39333389Y-53459198D01*
X39312415Y-53442295D01*
X39229514Y-53359394D01*
X39195488Y-53297082D01*
X39193882Y-53288161D01*
X39175832Y-53162123D01*
X39175832Y-53162121D01*
X39174559Y-53153236D01*
X39168288Y-53139443D01*
X39161699Y-53124950D01*
X39151713Y-53054659D01*
X39181314Y-52990128D01*
X39241105Y-52951844D01*
X39276400Y-52946800D01*
X61812665Y-52946800D01*
X61880786Y-52966802D01*
X61896648Y-52978870D01*
X61901336Y-52983061D01*
X61907111Y-52989932D01*
X61914582Y-52994905D01*
X61914583Y-52994906D01*
X61934179Y-53007950D01*
X62021447Y-53066040D01*
X62152549Y-53106999D01*
X62289876Y-53109516D01*
X62299109Y-53106999D01*
X62413727Y-53075751D01*
X62422391Y-53073389D01*
X62508597Y-53020458D01*
X62531791Y-53006217D01*
X62539439Y-53001521D01*
X62546911Y-52993266D01*
X62625584Y-52906350D01*
X62625585Y-52906349D01*
X62631612Y-52899690D01*
X62691499Y-52776083D01*
X62714286Y-52640636D01*
X62714431Y-52628800D01*
X62710186Y-52599154D01*
X62696232Y-52501723D01*
X62696232Y-52501721D01*
X62694959Y-52492836D01*
X62638110Y-52367803D01*
X62548453Y-52263751D01*
X62433196Y-52189044D01*
X62301603Y-52149690D01*
X62292627Y-52149635D01*
X62292626Y-52149635D01*
X62235080Y-52149284D01*
X62164255Y-52148851D01*
X62032192Y-52186595D01*
X62024605Y-52191382D01*
X62024603Y-52191383D01*
X62018687Y-52195116D01*
X61916031Y-52259887D01*
X61910089Y-52266616D01*
X61910088Y-52266616D01*
X61908681Y-52268209D01*
X61906897Y-52269332D01*
X61903253Y-52272433D01*
X61902805Y-52271907D01*
X61848595Y-52306026D01*
X61814241Y-52310800D01*
X47021447Y-52310800D01*
X46953326Y-52290798D01*
X46906833Y-52237142D01*
X46896729Y-52166868D01*
X46920471Y-52114882D01*
X65911205Y-52114882D01*
X65912369Y-52123784D01*
X65912369Y-52123787D01*
X65918003Y-52166868D01*
X65929014Y-52251073D01*
X65947990Y-52294199D01*
X65978710Y-52364014D01*
X65984332Y-52376792D01*
X65990110Y-52383665D01*
X65990110Y-52383666D01*
X66044572Y-52448457D01*
X66072711Y-52481932D01*
X66187047Y-52558040D01*
X66318149Y-52598999D01*
X66455476Y-52601516D01*
X66464709Y-52598999D01*
X66579327Y-52567751D01*
X66587991Y-52565389D01*
X66705039Y-52493521D01*
X66715529Y-52481932D01*
X66791184Y-52398350D01*
X66791185Y-52398349D01*
X66797212Y-52391690D01*
X66804127Y-52377419D01*
X66853185Y-52276162D01*
X66853185Y-52276161D01*
X66857099Y-52268083D01*
X66874127Y-52166868D01*
X66879079Y-52137433D01*
X66879886Y-52132636D01*
X66880031Y-52120800D01*
X66879184Y-52114882D01*
X66861832Y-51993723D01*
X66861832Y-51993721D01*
X66860559Y-51984836D01*
X66850760Y-51963283D01*
X66807426Y-51867977D01*
X66803710Y-51859803D01*
X66760868Y-51810082D01*
X74699605Y-51810082D01*
X74700769Y-51818984D01*
X74700769Y-51818987D01*
X74706520Y-51862961D01*
X74717414Y-51946273D01*
X74772732Y-52071992D01*
X74778510Y-52078865D01*
X74778510Y-52078866D01*
X74845860Y-52158989D01*
X74861111Y-52177132D01*
X74975447Y-52253240D01*
X75106549Y-52294199D01*
X75243876Y-52296716D01*
X75253109Y-52294199D01*
X75367727Y-52262951D01*
X75376391Y-52260589D01*
X75483024Y-52195116D01*
X75485791Y-52193417D01*
X75493439Y-52188721D01*
X75512185Y-52168011D01*
X75579584Y-52093550D01*
X75579585Y-52093549D01*
X75585612Y-52086890D01*
X75638754Y-51977206D01*
X75641585Y-51971362D01*
X75641585Y-51971361D01*
X75645499Y-51963283D01*
X75668286Y-51827836D01*
X75668431Y-51816000D01*
X75667584Y-51810082D01*
X75650232Y-51688923D01*
X75650232Y-51688921D01*
X75648959Y-51680036D01*
X75592110Y-51555003D01*
X75502453Y-51450951D01*
X75387196Y-51376244D01*
X75255603Y-51336890D01*
X75246627Y-51336835D01*
X75246626Y-51336835D01*
X75189080Y-51336484D01*
X75118255Y-51336051D01*
X74986192Y-51373795D01*
X74978605Y-51378582D01*
X74978603Y-51378583D01*
X74916850Y-51417546D01*
X74870031Y-51447087D01*
X74779109Y-51550036D01*
X74775295Y-51558159D01*
X74775294Y-51558161D01*
X74765775Y-51578436D01*
X74720736Y-51674366D01*
X74714503Y-51714400D01*
X74700986Y-51801209D01*
X74700986Y-51801213D01*
X74699605Y-51810082D01*
X66760868Y-51810082D01*
X66714053Y-51755751D01*
X66598796Y-51681044D01*
X66467203Y-51641690D01*
X66458227Y-51641635D01*
X66458226Y-51641635D01*
X66400680Y-51641284D01*
X66329855Y-51640851D01*
X66197792Y-51678595D01*
X66190205Y-51683382D01*
X66190203Y-51683383D01*
X66181423Y-51688923D01*
X66081631Y-51751887D01*
X65990709Y-51854836D01*
X65932336Y-51979166D01*
X65922627Y-52041524D01*
X65912586Y-52106009D01*
X65912586Y-52106013D01*
X65911205Y-52114882D01*
X46920471Y-52114882D01*
X46926223Y-52102288D01*
X46938135Y-52090623D01*
X46943839Y-52087121D01*
X46951366Y-52078806D01*
X47029984Y-51991950D01*
X47029985Y-51991949D01*
X47036012Y-51985290D01*
X47046675Y-51963283D01*
X47091985Y-51869762D01*
X47091985Y-51869761D01*
X47095899Y-51861683D01*
X47118686Y-51726236D01*
X47118831Y-51714400D01*
X47115183Y-51688923D01*
X47100632Y-51587323D01*
X47100632Y-51587321D01*
X47099359Y-51578436D01*
X47042510Y-51453403D01*
X47036651Y-51446604D01*
X47036649Y-51446600D01*
X47026797Y-51435167D01*
X46997484Y-51370504D01*
X47007784Y-51300259D01*
X47054426Y-51246733D01*
X47100709Y-51230038D01*
X47100676Y-51229916D01*
X47102199Y-51229501D01*
X47102201Y-51229500D01*
X47233191Y-51193789D01*
X47350239Y-51121921D01*
X47442412Y-51020090D01*
X47502299Y-50896483D01*
X47525086Y-50761036D01*
X47525231Y-50749200D01*
X47524384Y-50743282D01*
X47507032Y-50622123D01*
X47507032Y-50622121D01*
X47505759Y-50613236D01*
X47448910Y-50488203D01*
X47359253Y-50384151D01*
X47243996Y-50309444D01*
X47112403Y-50270090D01*
X47103427Y-50270035D01*
X47103426Y-50270035D01*
X47045880Y-50269684D01*
X46975055Y-50269251D01*
X46842992Y-50306995D01*
X46835405Y-50311782D01*
X46835403Y-50311783D01*
X46777477Y-50348332D01*
X46726831Y-50380287D01*
X46635909Y-50483236D01*
X46577536Y-50607566D01*
X46567827Y-50669924D01*
X46557786Y-50734409D01*
X46557786Y-50734413D01*
X46556405Y-50743282D01*
X46557569Y-50752184D01*
X46557569Y-50752187D01*
X46559354Y-50765833D01*
X46574214Y-50879473D01*
X46629532Y-51005192D01*
X46642055Y-51020090D01*
X46650009Y-51029553D01*
X46678530Y-51094569D01*
X46667372Y-51164684D01*
X46620079Y-51217636D01*
X46573378Y-51234480D01*
X46568655Y-51234451D01*
X46436592Y-51272195D01*
X46320431Y-51345487D01*
X46229509Y-51448436D01*
X46225696Y-51456558D01*
X46225693Y-51456562D01*
X46224285Y-51459562D01*
X46222106Y-51462024D01*
X46220765Y-51464065D01*
X46220470Y-51463871D01*
X46177227Y-51512723D01*
X46110231Y-51532011D01*
X24928181Y-51532011D01*
X24917199Y-51531532D01*
X24913267Y-51531188D01*
X24880646Y-51528334D01*
X24869995Y-51531188D01*
X24845208Y-51537829D01*
X24834479Y-51540207D01*
X24809210Y-51544663D01*
X24809205Y-51544665D01*
X24798349Y-51546579D01*
X24788802Y-51552092D01*
X24785836Y-51553171D01*
X24782975Y-51554505D01*
X24772323Y-51557359D01*
X24763293Y-51563682D01*
X24742269Y-51578403D01*
X24732999Y-51584308D01*
X24710778Y-51597137D01*
X24710774Y-51597140D01*
X24701229Y-51602651D01*
X24694141Y-51611098D01*
X24677646Y-51630756D01*
X24670220Y-51638860D01*
X23868049Y-52441031D01*
X23859945Y-52448457D01*
X23831840Y-52472040D01*
X23826329Y-52481585D01*
X23826326Y-52481589D01*
X23813497Y-52503810D01*
X23807592Y-52513080D01*
X23786548Y-52543134D01*
X23783694Y-52553786D01*
X23782360Y-52556647D01*
X23781281Y-52559613D01*
X23775768Y-52569160D01*
X23773854Y-52580016D01*
X23773852Y-52580021D01*
X23769396Y-52605290D01*
X23767018Y-52616019D01*
X23760897Y-52638866D01*
X23757523Y-52651457D01*
X23758484Y-52662439D01*
X23760721Y-52688010D01*
X23761200Y-52698992D01*
X23761200Y-53929253D01*
X23741198Y-53997374D01*
X23687542Y-54043867D01*
X23617268Y-54053971D01*
X23552688Y-54024477D01*
X23537557Y-54008889D01*
X23464689Y-53919543D01*
X23464686Y-53919540D01*
X23460794Y-53914768D01*
X23453897Y-53909062D01*
X23306202Y-53786878D01*
X23306197Y-53786875D01*
X23301453Y-53782950D01*
X23296034Y-53780020D01*
X23296031Y-53780018D01*
X23124963Y-53687522D01*
X23124958Y-53687520D01*
X23119543Y-53684592D01*
X22921994Y-53623440D01*
X22915869Y-53622796D01*
X22915868Y-53622796D01*
X22722457Y-53602468D01*
X22722455Y-53602468D01*
X22716328Y-53601824D01*
X22590160Y-53613306D01*
X22516522Y-53620007D01*
X22516521Y-53620007D01*
X22510381Y-53620566D01*
X22311997Y-53678954D01*
X22306532Y-53681811D01*
X22134192Y-53771908D01*
X22134188Y-53771911D01*
X22128732Y-53774763D01*
X21967566Y-53904343D01*
X21834639Y-54062760D01*
X21735013Y-54243978D01*
X21672484Y-54441096D01*
X21671798Y-54447213D01*
X21671797Y-54447217D01*
X21651263Y-54630283D01*
X21649432Y-54646606D01*
X21649948Y-54652749D01*
X21665397Y-54836716D01*
X21666737Y-54852678D01*
X21723738Y-55051466D01*
X21726556Y-55056948D01*
X21726557Y-55056952D01*
X21815445Y-55229909D01*
X21815448Y-55229913D01*
X21818265Y-55235395D01*
X21946717Y-55397461D01*
X21951410Y-55401455D01*
X21951411Y-55401456D01*
X22079498Y-55510466D01*
X22104202Y-55531491D01*
X22284720Y-55632380D01*
X22481397Y-55696284D01*
X22686740Y-55720770D01*
X22692875Y-55720298D01*
X22692877Y-55720298D01*
X22886787Y-55705377D01*
X22886791Y-55705376D01*
X22892929Y-55704904D01*
X23092109Y-55649292D01*
X23097613Y-55646512D01*
X23097615Y-55646511D01*
X23271193Y-55558831D01*
X23271195Y-55558830D01*
X23276694Y-55556052D01*
X23439653Y-55428734D01*
X23443679Y-55424070D01*
X23443682Y-55424067D01*
X23539819Y-55312691D01*
X23599472Y-55274194D01*
X23670468Y-55274059D01*
X23730267Y-55312329D01*
X23759883Y-55376853D01*
X23761200Y-55395022D01*
X23761200Y-56699253D01*
X23741198Y-56767374D01*
X23687542Y-56813867D01*
X23617268Y-56823971D01*
X23552688Y-56794477D01*
X23537557Y-56778889D01*
X23464689Y-56689543D01*
X23464686Y-56689540D01*
X23460794Y-56684768D01*
X23453897Y-56679062D01*
X23306202Y-56556878D01*
X23306197Y-56556875D01*
X23301453Y-56552950D01*
X23296034Y-56550020D01*
X23296031Y-56550018D01*
X23124963Y-56457522D01*
X23124958Y-56457520D01*
X23119543Y-56454592D01*
X22921994Y-56393440D01*
X22915869Y-56392796D01*
X22915868Y-56392796D01*
X22722457Y-56372468D01*
X22722455Y-56372468D01*
X22716328Y-56371824D01*
X22603608Y-56382082D01*
X22516522Y-56390007D01*
X22516521Y-56390007D01*
X22510381Y-56390566D01*
X22311997Y-56448954D01*
X22306532Y-56451811D01*
X22134192Y-56541908D01*
X22134188Y-56541911D01*
X22128732Y-56544763D01*
X21967566Y-56674343D01*
X21834639Y-56832760D01*
X21735013Y-57013978D01*
X21672484Y-57211096D01*
X21671798Y-57217213D01*
X21671797Y-57217217D01*
X21650119Y-57410481D01*
X21649432Y-57416606D01*
X21649948Y-57422749D01*
X21664722Y-57598677D01*
X21666737Y-57622678D01*
X21723738Y-57821466D01*
X21726556Y-57826948D01*
X21726557Y-57826952D01*
X21815445Y-57999909D01*
X21815448Y-57999913D01*
X21818265Y-58005395D01*
X21946717Y-58167461D01*
X21951410Y-58171455D01*
X21951411Y-58171456D01*
X22079102Y-58280129D01*
X22104202Y-58301491D01*
X22284720Y-58402380D01*
X22481397Y-58466284D01*
X22686740Y-58490770D01*
X22692875Y-58490298D01*
X22692877Y-58490298D01*
X22886787Y-58475377D01*
X22886791Y-58475376D01*
X22892929Y-58474904D01*
X23092109Y-58419292D01*
X23097613Y-58416512D01*
X23097615Y-58416511D01*
X23271193Y-58328831D01*
X23271195Y-58328830D01*
X23276694Y-58326052D01*
X23439653Y-58198734D01*
X23443679Y-58194070D01*
X23443682Y-58194067D01*
X23539819Y-58082691D01*
X23599472Y-58044194D01*
X23670468Y-58044059D01*
X23730267Y-58082329D01*
X23759883Y-58146853D01*
X23761200Y-58165022D01*
X23761200Y-59469253D01*
X23741198Y-59537374D01*
X23687542Y-59583867D01*
X23617268Y-59593971D01*
X23552688Y-59564477D01*
X23537557Y-59548889D01*
X23464689Y-59459543D01*
X23464686Y-59459540D01*
X23460794Y-59454768D01*
X23453897Y-59449062D01*
X23306202Y-59326878D01*
X23306197Y-59326875D01*
X23301453Y-59322950D01*
X23296034Y-59320020D01*
X23296031Y-59320018D01*
X23124963Y-59227522D01*
X23124958Y-59227520D01*
X23119543Y-59224592D01*
X22921994Y-59163440D01*
X22915869Y-59162796D01*
X22915868Y-59162796D01*
X22722457Y-59142468D01*
X22722455Y-59142468D01*
X22716328Y-59141824D01*
X22590160Y-59153306D01*
X22516522Y-59160007D01*
X22516521Y-59160007D01*
X22510381Y-59160566D01*
X22311997Y-59218954D01*
X22306532Y-59221811D01*
X22134192Y-59311908D01*
X22134188Y-59311911D01*
X22128732Y-59314763D01*
X21967566Y-59444343D01*
X21834639Y-59602760D01*
X21735013Y-59783978D01*
X21672484Y-59981096D01*
X21671798Y-59987213D01*
X21671797Y-59987217D01*
X21650119Y-60180481D01*
X21649432Y-60186606D01*
X21666737Y-60392678D01*
X21723738Y-60591466D01*
X21726556Y-60596948D01*
X21726557Y-60596952D01*
X21815445Y-60769909D01*
X21815448Y-60769913D01*
X21818265Y-60775395D01*
X21946717Y-60937461D01*
X21951410Y-60941455D01*
X21951411Y-60941456D01*
X22095686Y-61064243D01*
X22104202Y-61071491D01*
X22284720Y-61172380D01*
X22481397Y-61236284D01*
X22686740Y-61260770D01*
X22692875Y-61260298D01*
X22692877Y-61260298D01*
X22886787Y-61245377D01*
X22886791Y-61245376D01*
X22892929Y-61244904D01*
X23092109Y-61189292D01*
X23097613Y-61186512D01*
X23097615Y-61186511D01*
X23271193Y-61098831D01*
X23271195Y-61098830D01*
X23276694Y-61096052D01*
X23439653Y-60968734D01*
X23443679Y-60964070D01*
X23443682Y-60964067D01*
X23539819Y-60852691D01*
X23599472Y-60814194D01*
X23670468Y-60814059D01*
X23730267Y-60852329D01*
X23759883Y-60916853D01*
X23761200Y-60935022D01*
X23761200Y-61417221D01*
X23741198Y-61485342D01*
X23724295Y-61506316D01*
X23260958Y-61969653D01*
X23198646Y-62003679D01*
X23123554Y-61996761D01*
X23119543Y-61994592D01*
X22921994Y-61933440D01*
X22915869Y-61932796D01*
X22915868Y-61932796D01*
X22722457Y-61912468D01*
X22722455Y-61912468D01*
X22716328Y-61911824D01*
X22590160Y-61923306D01*
X22516522Y-61930007D01*
X22516521Y-61930007D01*
X22510381Y-61930566D01*
X22311997Y-61988954D01*
X22306532Y-61991811D01*
X22134192Y-62081908D01*
X22134188Y-62081911D01*
X22128732Y-62084763D01*
X21967566Y-62214343D01*
X21834639Y-62372760D01*
X21735013Y-62553978D01*
X21672484Y-62751096D01*
X21671798Y-62757213D01*
X21671797Y-62757217D01*
X21657918Y-62880951D01*
X21649432Y-62956606D01*
X17742500Y-62956606D01*
X17742500Y-49981282D01*
X64793605Y-49981282D01*
X64794769Y-49990184D01*
X64794769Y-49990187D01*
X64796554Y-50003833D01*
X64811414Y-50117473D01*
X64866732Y-50243192D01*
X64955111Y-50348332D01*
X65069447Y-50424440D01*
X65200549Y-50465399D01*
X65337876Y-50467916D01*
X65347109Y-50465399D01*
X65461727Y-50434151D01*
X65470391Y-50431789D01*
X65587439Y-50359921D01*
X65628711Y-50314325D01*
X65673584Y-50264750D01*
X65673585Y-50264749D01*
X65679612Y-50258090D01*
X65739499Y-50134483D01*
X65762286Y-49999036D01*
X65762431Y-49987200D01*
X65761584Y-49981282D01*
X65744232Y-49860123D01*
X65744232Y-49860121D01*
X65742959Y-49851236D01*
X65686110Y-49726203D01*
X65596453Y-49622151D01*
X65481196Y-49547444D01*
X65349603Y-49508090D01*
X65340627Y-49508035D01*
X65340626Y-49508035D01*
X65283080Y-49507684D01*
X65212255Y-49507251D01*
X65080192Y-49544995D01*
X65072605Y-49549782D01*
X65072603Y-49549783D01*
X65010850Y-49588746D01*
X64964031Y-49618287D01*
X64873109Y-49721236D01*
X64814736Y-49845566D01*
X64805027Y-49907924D01*
X64794986Y-49972409D01*
X64794986Y-49972413D01*
X64793605Y-49981282D01*
X17742500Y-49981282D01*
X17742500Y-48262387D01*
X22547652Y-48262387D01*
X22556479Y-48274005D01*
X22779212Y-48435830D01*
X22785892Y-48440070D01*
X23055503Y-48588290D01*
X23062638Y-48591647D01*
X23348701Y-48704908D01*
X23356227Y-48707353D01*
X23654210Y-48783862D01*
X23661981Y-48785345D01*
X23967209Y-48823903D01*
X23975100Y-48824400D01*
X24282762Y-48824400D01*
X24290653Y-48823903D01*
X24595881Y-48785345D01*
X24603652Y-48783862D01*
X24901635Y-48707353D01*
X24909161Y-48704908D01*
X25195224Y-48591647D01*
X25202359Y-48588290D01*
X25471970Y-48440070D01*
X25478650Y-48435830D01*
X25701754Y-48273736D01*
X25710177Y-48262813D01*
X25703273Y-48249952D01*
X24141743Y-46688422D01*
X24127799Y-46680808D01*
X24125966Y-46680939D01*
X24119351Y-46685190D01*
X22554265Y-48250276D01*
X22547652Y-48262387D01*
X17742500Y-48262387D01*
X17742500Y-46320358D01*
X21616221Y-46320358D01*
X21635538Y-46627394D01*
X21636531Y-46635255D01*
X21694177Y-46937446D01*
X21696148Y-46945123D01*
X21791215Y-47237709D01*
X21794130Y-47245072D01*
X21925120Y-47523441D01*
X21928932Y-47530374D01*
X22093782Y-47790136D01*
X22098426Y-47796529D01*
X22173428Y-47887190D01*
X22185945Y-47895645D01*
X22196683Y-47889438D01*
X23756909Y-46329212D01*
X23763287Y-46317532D01*
X24493339Y-46317532D01*
X24493470Y-46319365D01*
X24497721Y-46325980D01*
X26060076Y-47888335D01*
X26073338Y-47895577D01*
X26083443Y-47888388D01*
X26159436Y-47796529D01*
X26164080Y-47790136D01*
X26328930Y-47530374D01*
X26332742Y-47523441D01*
X26463732Y-47245072D01*
X26466647Y-47237709D01*
X26561714Y-46945123D01*
X26563685Y-46937446D01*
X26603242Y-46730082D01*
X42619405Y-46730082D01*
X42620569Y-46738984D01*
X42620569Y-46738987D01*
X42622354Y-46752633D01*
X42637214Y-46866273D01*
X42692532Y-46991992D01*
X42780911Y-47097132D01*
X42895247Y-47173240D01*
X43026349Y-47214199D01*
X43163676Y-47216716D01*
X43172909Y-47214199D01*
X43287527Y-47182951D01*
X43296191Y-47180589D01*
X43413239Y-47108721D01*
X43505412Y-47006890D01*
X43539058Y-46937446D01*
X43561385Y-46891362D01*
X43561385Y-46891361D01*
X43565299Y-46883283D01*
X43588086Y-46747836D01*
X43588231Y-46736000D01*
X43587384Y-46730082D01*
X43570032Y-46608923D01*
X43570032Y-46608921D01*
X43568759Y-46600036D01*
X43511910Y-46475003D01*
X43422253Y-46370951D01*
X43306996Y-46296244D01*
X43175403Y-46256890D01*
X43166427Y-46256835D01*
X43166426Y-46256835D01*
X43108880Y-46256484D01*
X43038055Y-46256051D01*
X42905992Y-46293795D01*
X42898405Y-46298582D01*
X42898403Y-46298583D01*
X42876438Y-46312442D01*
X42789831Y-46367087D01*
X42698909Y-46470036D01*
X42640536Y-46594366D01*
X42635394Y-46627394D01*
X42620786Y-46721209D01*
X42620786Y-46721213D01*
X42619405Y-46730082D01*
X26603242Y-46730082D01*
X26621331Y-46635255D01*
X26622324Y-46627394D01*
X26641641Y-46320358D01*
X26641641Y-46312442D01*
X26622324Y-46005406D01*
X26621331Y-45997545D01*
X26563685Y-45695354D01*
X26561714Y-45687677D01*
X26466647Y-45395091D01*
X26463732Y-45387728D01*
X26332742Y-45109359D01*
X26328930Y-45102426D01*
X26164080Y-44842664D01*
X26159436Y-44836271D01*
X26084434Y-44745610D01*
X26071917Y-44737155D01*
X26061179Y-44743362D01*
X24500953Y-46303588D01*
X24493339Y-46317532D01*
X23763287Y-46317532D01*
X23764523Y-46315268D01*
X23764392Y-46313435D01*
X23760141Y-46306820D01*
X22197786Y-44744465D01*
X22184524Y-44737223D01*
X22174419Y-44744412D01*
X22098426Y-44836271D01*
X22093782Y-44842664D01*
X21928932Y-45102426D01*
X21925120Y-45109359D01*
X21794130Y-45387728D01*
X21791215Y-45395091D01*
X21696148Y-45687677D01*
X21694177Y-45695354D01*
X21636531Y-45997545D01*
X21635538Y-46005406D01*
X21616221Y-46312442D01*
X21616221Y-46320358D01*
X17742500Y-46320358D01*
X17742500Y-44880931D01*
X17762502Y-44812810D01*
X17816158Y-44766317D01*
X17886432Y-44756213D01*
X17951012Y-44785707D01*
X17956422Y-44791184D01*
X17956547Y-44791052D01*
X17961488Y-44795757D01*
X17965894Y-44800971D01*
X17971318Y-44805118D01*
X17971319Y-44805119D01*
X18103821Y-44906425D01*
X18103825Y-44906428D01*
X18109242Y-44910569D01*
X18115422Y-44913451D01*
X18115424Y-44913452D01*
X18183066Y-44944994D01*
X18272780Y-44986828D01*
X18350984Y-45004309D01*
X18443835Y-45025064D01*
X18443841Y-45025065D01*
X18448879Y-45026191D01*
X18454406Y-45026500D01*
X18587077Y-45026500D01*
X18721389Y-45011909D01*
X18892409Y-44954355D01*
X19047080Y-44861419D01*
X19066913Y-44842664D01*
X19173229Y-44742126D01*
X19173231Y-44742124D01*
X19178187Y-44737437D01*
X19279612Y-44588195D01*
X19282147Y-44581858D01*
X19344089Y-44426992D01*
X19344090Y-44426987D01*
X19346623Y-44420655D01*
X19355011Y-44369987D01*
X22547685Y-44369987D01*
X22554589Y-44382848D01*
X24116119Y-45944378D01*
X24130063Y-45951992D01*
X24131896Y-45951861D01*
X24138511Y-45947610D01*
X25703597Y-44382524D01*
X25710210Y-44370413D01*
X25701383Y-44358795D01*
X25478650Y-44196970D01*
X25471970Y-44192730D01*
X25202359Y-44044510D01*
X25195224Y-44041153D01*
X24909161Y-43927892D01*
X24901635Y-43925447D01*
X24603652Y-43848938D01*
X24595881Y-43847455D01*
X24290653Y-43808897D01*
X24282762Y-43808400D01*
X23975100Y-43808400D01*
X23967209Y-43808897D01*
X23661981Y-43847455D01*
X23654210Y-43848938D01*
X23356227Y-43925447D01*
X23348701Y-43927892D01*
X23062638Y-44041153D01*
X23055503Y-44044510D01*
X22785892Y-44192730D01*
X22779212Y-44196970D01*
X22556108Y-44359064D01*
X22547685Y-44369987D01*
X19355011Y-44369987D01*
X19376094Y-44242633D01*
X19366651Y-44062436D01*
X19361714Y-44044510D01*
X19320545Y-43895052D01*
X19318732Y-43888470D01*
X19234576Y-43728852D01*
X19230174Y-43723643D01*
X19230172Y-43723640D01*
X19128922Y-43603828D01*
X19100230Y-43538887D01*
X19111203Y-43468744D01*
X19158356Y-43415667D01*
X19225160Y-43396500D01*
X79540500Y-43396500D01*
X79608621Y-43416502D01*
G37*
%TD.AperFunction*%
%TA.AperFunction,Conductor*%
G36*
X38047679Y-56365757D02*
G01*
X38106475Y-56405551D01*
X38134424Y-56470815D01*
X38122651Y-56540829D01*
X38098410Y-56574870D01*
X37751185Y-56922095D01*
X37688873Y-56956121D01*
X37662090Y-56959000D01*
X29407192Y-56959000D01*
X29396210Y-56958521D01*
X29392278Y-56958177D01*
X29359657Y-56955323D01*
X29349006Y-56958177D01*
X29349005Y-56958177D01*
X29324222Y-56964817D01*
X29313494Y-56967195D01*
X29288217Y-56971652D01*
X29288209Y-56971655D01*
X29277360Y-56973568D01*
X29267817Y-56979077D01*
X29264851Y-56980157D01*
X29261979Y-56981496D01*
X29251334Y-56984349D01*
X29221279Y-57005393D01*
X29212018Y-57011293D01*
X29189789Y-57024126D01*
X29189785Y-57024129D01*
X29180240Y-57029640D01*
X29173152Y-57038087D01*
X29156657Y-57057745D01*
X29149231Y-57065849D01*
X27753585Y-58461495D01*
X27691273Y-58495521D01*
X27664490Y-58498400D01*
X26647638Y-58498400D01*
X26579517Y-58478398D01*
X26531146Y-58420416D01*
X26530363Y-58418517D01*
X26528582Y-58412617D01*
X26464653Y-58292384D01*
X26434390Y-58235467D01*
X26434388Y-58235464D01*
X26431496Y-58230025D01*
X26427605Y-58225255D01*
X26427603Y-58225251D01*
X26304689Y-58074543D01*
X26304686Y-58074540D01*
X26300794Y-58069768D01*
X26293897Y-58064062D01*
X26146202Y-57941878D01*
X26146197Y-57941875D01*
X26141453Y-57937950D01*
X26136034Y-57935020D01*
X26136031Y-57935018D01*
X25964963Y-57842522D01*
X25964958Y-57842520D01*
X25959543Y-57839592D01*
X25761994Y-57778440D01*
X25755869Y-57777796D01*
X25755868Y-57777796D01*
X25562457Y-57757468D01*
X25562455Y-57757468D01*
X25556328Y-57756824D01*
X25430160Y-57768306D01*
X25356522Y-57775007D01*
X25356521Y-57775007D01*
X25350381Y-57775566D01*
X25151997Y-57833954D01*
X25146532Y-57836811D01*
X24974192Y-57926908D01*
X24974188Y-57926911D01*
X24968732Y-57929763D01*
X24807566Y-58059343D01*
X24674639Y-58217760D01*
X24633613Y-58292386D01*
X24583269Y-58342443D01*
X24513852Y-58357336D01*
X24447403Y-58332335D01*
X24405019Y-58275378D01*
X24397200Y-58231683D01*
X24397200Y-56633238D01*
X24417202Y-56565117D01*
X24470858Y-56518624D01*
X24541132Y-56508520D01*
X24605712Y-56538014D01*
X24635265Y-56575641D01*
X24658265Y-56620395D01*
X24786717Y-56782461D01*
X24791410Y-56786455D01*
X24791411Y-56786456D01*
X24887873Y-56868551D01*
X24944202Y-56916491D01*
X25124720Y-57017380D01*
X25321397Y-57081284D01*
X25526740Y-57105770D01*
X25532875Y-57105298D01*
X25532877Y-57105298D01*
X25726787Y-57090377D01*
X25726791Y-57090376D01*
X25732929Y-57089904D01*
X25932109Y-57034292D01*
X25937613Y-57031512D01*
X25937615Y-57031511D01*
X26111193Y-56943831D01*
X26111195Y-56943830D01*
X26116694Y-56941052D01*
X26279653Y-56813734D01*
X26283679Y-56809070D01*
X26283682Y-56809067D01*
X26410750Y-56661857D01*
X26410751Y-56661855D01*
X26414779Y-56657189D01*
X26516926Y-56477379D01*
X26525825Y-56450628D01*
X26566307Y-56392303D01*
X26631895Y-56365124D01*
X26645383Y-56364400D01*
X37914208Y-56364400D01*
X37925190Y-56364879D01*
X37961743Y-56368077D01*
X37972389Y-56365224D01*
X37972393Y-56365224D01*
X37976702Y-56364069D01*
X38047679Y-56365757D01*
G37*
%TD.AperFunction*%
%TA.AperFunction,Conductor*%
G36*
X37085240Y-52188013D02*
G01*
X37131733Y-52241669D01*
X37141837Y-52311943D01*
X37111560Y-52377419D01*
X37055380Y-52441031D01*
X37034709Y-52464436D01*
X37030895Y-52472559D01*
X37030894Y-52472561D01*
X37018849Y-52498217D01*
X36976336Y-52588766D01*
X36970103Y-52628800D01*
X36956586Y-52715609D01*
X36956586Y-52715613D01*
X36955205Y-52724482D01*
X36956369Y-52733384D01*
X36956369Y-52733387D01*
X36963009Y-52784162D01*
X36973014Y-52860673D01*
X37028332Y-52986392D01*
X37034110Y-52993265D01*
X37034110Y-52993266D01*
X37085716Y-53054659D01*
X37116711Y-53091532D01*
X37231047Y-53167640D01*
X37362149Y-53208599D01*
X37499476Y-53211116D01*
X37508709Y-53208599D01*
X37623327Y-53177351D01*
X37631991Y-53174989D01*
X37738624Y-53109516D01*
X37741391Y-53107817D01*
X37749039Y-53103121D01*
X37782603Y-53066040D01*
X37835184Y-53007950D01*
X37835185Y-53007949D01*
X37841212Y-53001290D01*
X37841866Y-52999939D01*
X37893643Y-52957052D01*
X37943426Y-52946800D01*
X38142242Y-52946800D01*
X38210363Y-52966802D01*
X38256856Y-53020458D01*
X38266960Y-53090732D01*
X38256298Y-53126347D01*
X38246336Y-53147566D01*
X38237250Y-53205922D01*
X38226586Y-53274409D01*
X38226586Y-53274413D01*
X38225205Y-53283282D01*
X38226369Y-53292184D01*
X38226369Y-53292187D01*
X38230071Y-53320493D01*
X38243014Y-53419473D01*
X38298332Y-53545192D01*
X38304110Y-53552065D01*
X38304110Y-53552066D01*
X38380931Y-53643456D01*
X38386711Y-53650332D01*
X38501047Y-53726440D01*
X38632149Y-53767399D01*
X38689224Y-53768445D01*
X38756966Y-53789692D01*
X38776009Y-53805329D01*
X38979031Y-54008351D01*
X38986457Y-54016455D01*
X39010040Y-54044560D01*
X39019587Y-54050072D01*
X39022134Y-54052209D01*
X39037658Y-54067733D01*
X39060840Y-54095360D01*
X39070385Y-54100871D01*
X39070389Y-54100874D01*
X39092610Y-54113703D01*
X39101860Y-54119594D01*
X39103927Y-54121041D01*
X39148265Y-54176488D01*
X39156176Y-54243653D01*
X39139605Y-54350082D01*
X39137591Y-54349768D01*
X39120182Y-54406477D01*
X39104122Y-54426158D01*
X37838785Y-55691495D01*
X37776473Y-55725521D01*
X37749690Y-55728400D01*
X26647638Y-55728400D01*
X26579517Y-55708398D01*
X26531146Y-55650416D01*
X26530363Y-55648517D01*
X26528582Y-55642617D01*
X26519224Y-55625017D01*
X26434390Y-55465467D01*
X26434388Y-55465464D01*
X26431496Y-55460025D01*
X26427605Y-55455255D01*
X26427603Y-55455251D01*
X26304689Y-55304543D01*
X26304686Y-55304540D01*
X26300794Y-55299768D01*
X26293897Y-55294062D01*
X26146202Y-55171878D01*
X26146197Y-55171875D01*
X26141453Y-55167950D01*
X26136034Y-55165020D01*
X26136031Y-55165018D01*
X25964963Y-55072522D01*
X25964958Y-55072520D01*
X25959543Y-55069592D01*
X25761994Y-55008440D01*
X25755869Y-55007796D01*
X25755868Y-55007796D01*
X25562457Y-54987468D01*
X25562455Y-54987468D01*
X25556328Y-54986824D01*
X25430160Y-54998306D01*
X25356522Y-55005007D01*
X25356521Y-55005007D01*
X25350381Y-55005566D01*
X25151997Y-55063954D01*
X25146532Y-55066811D01*
X24974192Y-55156908D01*
X24974188Y-55156911D01*
X24968732Y-55159763D01*
X24807566Y-55289343D01*
X24674639Y-55447760D01*
X24633613Y-55522386D01*
X24583269Y-55572443D01*
X24513852Y-55587336D01*
X24447403Y-55562335D01*
X24405019Y-55505378D01*
X24397200Y-55461683D01*
X24397200Y-54383195D01*
X24417202Y-54315074D01*
X24470858Y-54268581D01*
X24541132Y-54258477D01*
X24593202Y-54278430D01*
X24639310Y-54309238D01*
X24649630Y-54316134D01*
X24723864Y-54330900D01*
X25548797Y-54330900D01*
X26373997Y-54330899D01*
X26411087Y-54323522D01*
X26436057Y-54318556D01*
X26436059Y-54318555D01*
X26448232Y-54316134D01*
X26458552Y-54309239D01*
X26458553Y-54309238D01*
X26522099Y-54266777D01*
X26532415Y-54259884D01*
X26588665Y-54175701D01*
X26603431Y-54101467D01*
X26603430Y-52451334D01*
X26588665Y-52377099D01*
X26581771Y-52366781D01*
X26581769Y-52366777D01*
X26579922Y-52364014D01*
X26577747Y-52357068D01*
X26577020Y-52355313D01*
X26577177Y-52355248D01*
X26558706Y-52296261D01*
X26577488Y-52227794D01*
X26630305Y-52180351D01*
X26684686Y-52168011D01*
X37017119Y-52168011D01*
X37085240Y-52188013D01*
G37*
%TD.AperFunction*%
%TD*%
M02*
