M48
; DRILL file {KiCad (6.0.4-0)} date 2022 March 21, Monday 10:13:03
; FORMAT={-:-/ absolute / metric / decimal}
; #@! TF.CreationDate,2022-03-21T10:13:03+01:00
; #@! TF.GenerationSoftware,Kicad,Pcbnew,(6.0.4-0)
; #@! TF.FileFunction,Plated,1,4,PTH
FMAT,2
METRIC
; #@! TA.AperFunction,Plated,PTH,ViaDrill
T1C0.200
; #@! TA.AperFunction,Plated,PTH,ComponentDrill
T2C1.000
; #@! TA.AperFunction,Plated,PTH,ComponentDrill
T3C3.200
%
G90
G05
T1
X31.648Y-52.426
X31.75Y-55.423
X31.75Y-56.693
X35.001Y-67.412
X35.052Y-49.53
X35.306Y-46.05
X35.458Y-58.242
X35.814Y-61.214
X36.449Y-63.5
X37.44Y-52.73
X37.719Y-51.435
X38.71Y-53.289
X38.862Y-63.915
X39.624Y-54.356
X39.624Y-66.396
X40.31Y-69.012
X40.64Y-54.483
X42.393Y-67.894
X42.418Y-55.626
X43.104Y-46.736
X43.129Y-58.725
X43.383Y-55.626
X43.383Y-67.894
X44.704Y-55.626
X45.281Y-55.626
X45.415Y-65.532
X45.415Y-67.056
X45.847Y-65.532
X45.847Y-67.056
X46.482Y-65.532
X46.482Y-67.056
X46.634Y-51.714
X46.939Y-48.362
X46.939Y-65.532
X46.939Y-67.056
X47.041Y-50.749
X47.117Y-57.353
X47.117Y-59.766
X49.428Y-49.784
X49.454Y-65.532
X49.454Y-67.056
X49.911Y-65.532
X49.911Y-67.056
X50.546Y-65.532
X50.546Y-67.056
X51.003Y-65.532
X51.003Y-67.056
X52.121Y-50.597
X52.324Y-52.07
X53.086Y-56.388
X54.356Y-66.04
X56.642Y-51.562
X59.436Y-66.04
X59.436Y-66.802
X62.23Y-52.629
X62.281Y-53.848
X64.516Y-66.294
X65.278Y-49.987
X65.532Y-56.388
X65.662Y-55.248
X66.04Y-59.563
X66.396Y-52.121
X68.123Y-56.794
X68.71Y-55.248
X69.85Y-63.246
X69.901Y-61.62
X70.358Y-56.134
X70.866Y-50.14
X71.424Y-61.671
X71.534Y-63.085
X72.949Y-61.62
X73.312Y-63.085
X75.184Y-50.8
X75.184Y-51.816
X76.039Y-63.085
X77.724Y-53.848
T2
X22.709Y-54.661
X22.709Y-57.431
X22.709Y-60.201
X22.709Y-62.971
X25.549Y-53.276
X25.549Y-56.046
X25.549Y-58.816
X25.549Y-61.586
X25.549Y-64.356
T3
X24.129Y-46.316
X24.129Y-71.316
T0
M30
