%TF.GenerationSoftware,KiCad,Pcbnew,(6.0.4-0)*%
%TF.CreationDate,2022-03-21T10:12:57+01:00*%
%TF.ProjectId,IrDA_RS232,49724441-5f52-4533-9233-322e6b696361,rev?*%
%TF.SameCoordinates,Original*%
%TF.FileFunction,Copper,L3,Inr*%
%TF.FilePolarity,Positive*%
%FSLAX46Y46*%
G04 Gerber Fmt 4.6, Leading zero omitted, Abs format (unit mm)*
G04 Created by KiCad (PCBNEW (6.0.4-0)) date 2022-03-21 10:12:57*
%MOMM*%
%LPD*%
G01*
G04 APERTURE LIST*
%TA.AperFunction,ComponentPad*%
%ADD10C,4.000000*%
%TD*%
%TA.AperFunction,ComponentPad*%
%ADD11R,1.600000X1.600000*%
%TD*%
%TA.AperFunction,ComponentPad*%
%ADD12C,1.600000*%
%TD*%
%TA.AperFunction,ViaPad*%
%ADD13C,0.450000*%
%TD*%
G04 APERTURE END LIST*
D10*
%TO.N,GND*%
%TO.C,J1*%
X24128931Y-46316400D03*
X24128931Y-71316400D03*
D11*
%TO.N,/RS232_DCD*%
X25548931Y-53276400D03*
D12*
%TO.N,/RS232_RXD*%
X25548931Y-56046400D03*
%TO.N,/RS232_TXD*%
X25548931Y-58816400D03*
%TO.N,/RS232_DTR*%
X25548931Y-61586400D03*
%TO.N,GND*%
X25548931Y-64356400D03*
%TO.N,/RS232_DSR*%
X22708931Y-54661400D03*
%TO.N,/RS232_RTS*%
X22708931Y-57431400D03*
%TO.N,/RS232_CTS*%
X22708931Y-60201400D03*
%TO.N,/RS232_RING*%
X22708931Y-62971400D03*
%TD*%
D13*
%TO.N,GND*%
X31750000Y-56692800D03*
X31750000Y-55422800D03*
X31648400Y-52425600D03*
X72948800Y-61620400D03*
X69900800Y-61620400D03*
X68122800Y-56794400D03*
X70866000Y-50139600D03*
%TO.N,+5V*%
X66395600Y-52120800D03*
%TO.N,/RS232_RING*%
X46634400Y-51714400D03*
%TO.N,+5V*%
X47040800Y-50749200D03*
%TO.N,GND*%
X46939200Y-48361600D03*
X49428400Y-49784000D03*
X52120800Y-50596800D03*
%TO.N,+5V*%
X65278000Y-49987200D03*
%TO.N,/MCP_TX*%
X38709600Y-53289200D03*
X62280800Y-53848000D03*
%TO.N,/MCP_RX*%
X37439600Y-52730400D03*
X62230000Y-52628800D03*
%TO.N,+5V*%
X65661600Y-55247600D03*
X43383200Y-67894200D03*
X50546000Y-65532000D03*
X59436000Y-66802000D03*
X40309800Y-69011800D03*
X49911000Y-65532000D03*
X49453800Y-65532000D03*
X76039500Y-63085500D03*
X49911000Y-67056000D03*
X49453800Y-67056000D03*
X51003200Y-67056000D03*
X50546000Y-67056000D03*
X51003200Y-65532000D03*
X43129200Y-58724800D03*
X43103800Y-46736000D03*
X68709600Y-55247600D03*
X64516000Y-66294000D03*
X75184000Y-51816000D03*
X71534500Y-63085500D03*
X73312500Y-63085500D03*
X69850000Y-63246000D03*
X43383200Y-55626000D03*
X53086000Y-56388000D03*
%TO.N,GND*%
X52324000Y-52070000D03*
X46939200Y-67056000D03*
X42418000Y-55626000D03*
X56642000Y-51562000D03*
X70358000Y-56134000D03*
X46939200Y-65532000D03*
X35052000Y-49530000D03*
X45847000Y-65532000D03*
X47117000Y-59766200D03*
X75184000Y-50800000D03*
X66040000Y-59563000D03*
X46482000Y-65532000D03*
X54356000Y-66040000D03*
X45847000Y-67056000D03*
X46482000Y-67056000D03*
X35458400Y-58242200D03*
X59436000Y-66040000D03*
X35306000Y-46050200D03*
X65532000Y-56388000D03*
X77724000Y-53848000D03*
X45415200Y-67056000D03*
X42392600Y-67894200D03*
X45415200Y-65532000D03*
X71424500Y-61671500D03*
X37719000Y-51435000D03*
X47117000Y-57353200D03*
%TO.N,/RS232_RXD*%
X39624000Y-54356000D03*
%TO.N,/RS232_TXD*%
X40640000Y-54483000D03*
%TO.N,/RS232_DTR*%
X35814000Y-61214000D03*
%TO.N,/RS232_DSR*%
X39624000Y-66395600D03*
X35001200Y-67411600D03*
%TO.N,/MCP_DSR*%
X44704000Y-55626000D03*
X36449000Y-63500000D03*
%TO.N,/MCP_DTR*%
X45280503Y-55626000D03*
X38862000Y-63915000D03*
%TD*%
%TA.AperFunction,Conductor*%
%TO.N,+5V*%
G36*
X79570621Y-43454502D02*
G01*
X79617114Y-43508158D01*
X79628500Y-43560500D01*
X79628500Y-66872175D01*
X79608498Y-66940296D01*
X79554842Y-66986789D01*
X79484568Y-66996893D01*
X79426170Y-66968468D01*
X79424247Y-66970903D01*
X79419538Y-66967184D01*
X79415208Y-66963039D01*
X79305910Y-66892466D01*
X79246394Y-66854037D01*
X79246391Y-66854036D01*
X79241357Y-66850785D01*
X79049416Y-66773430D01*
X79043535Y-66772282D01*
X79043530Y-66772280D01*
X78850756Y-66734634D01*
X78850753Y-66734634D01*
X78846310Y-66733766D01*
X78840871Y-66733500D01*
X78688296Y-66733500D01*
X78533993Y-66748222D01*
X78528239Y-66749910D01*
X78341173Y-66804789D01*
X78341171Y-66804790D01*
X78335420Y-66806477D01*
X78330087Y-66809223D01*
X78330086Y-66809224D01*
X78156775Y-66898484D01*
X78156772Y-66898486D01*
X78151444Y-66901230D01*
X77988706Y-67029063D01*
X77984775Y-67033593D01*
X77984774Y-67033594D01*
X77953191Y-67069990D01*
X77853076Y-67185363D01*
X77749448Y-67364490D01*
X77681562Y-67559981D01*
X77680702Y-67565914D01*
X77680701Y-67565917D01*
X77653534Y-67753292D01*
X77651868Y-67764781D01*
X77661436Y-67971502D01*
X77662840Y-67977327D01*
X77662840Y-67977328D01*
X77704199Y-68148941D01*
X77709921Y-68172685D01*
X77795574Y-68361069D01*
X77799040Y-68365955D01*
X77809429Y-68380601D01*
X77832526Y-68447736D01*
X77815661Y-68516700D01*
X77764189Y-68565599D01*
X77706658Y-68579500D01*
X44712623Y-68579500D01*
X44711853Y-68579498D01*
X44711037Y-68579493D01*
X44634279Y-68579024D01*
X44611918Y-68585415D01*
X44605847Y-68587150D01*
X44589085Y-68590728D01*
X44559813Y-68594920D01*
X44551645Y-68598634D01*
X44551644Y-68598634D01*
X44536438Y-68605548D01*
X44518914Y-68611996D01*
X44494229Y-68619051D01*
X44486635Y-68623843D01*
X44486632Y-68623844D01*
X44469220Y-68634830D01*
X44454137Y-68642969D01*
X44427218Y-68655208D01*
X44420416Y-68661069D01*
X44407765Y-68671970D01*
X44392761Y-68683073D01*
X44371042Y-68696776D01*
X44365103Y-68703501D01*
X44365099Y-68703504D01*
X44351468Y-68718938D01*
X44339276Y-68730982D01*
X44323673Y-68744427D01*
X44323671Y-68744430D01*
X44316873Y-68750287D01*
X44311993Y-68757816D01*
X44311992Y-68757817D01*
X44302906Y-68771835D01*
X44291615Y-68786709D01*
X44280569Y-68799217D01*
X44274622Y-68805951D01*
X44262058Y-68832711D01*
X44253737Y-68847691D01*
X44242529Y-68864983D01*
X44242527Y-68864988D01*
X44237648Y-68872515D01*
X44235078Y-68881108D01*
X44235076Y-68881113D01*
X44230289Y-68897120D01*
X44223628Y-68914564D01*
X44212719Y-68937800D01*
X44211338Y-68946667D01*
X44211338Y-68946668D01*
X44208170Y-68967015D01*
X44204387Y-68983732D01*
X44198485Y-69003466D01*
X44198484Y-69003472D01*
X44195914Y-69012066D01*
X44195859Y-69021037D01*
X44195859Y-69021038D01*
X44195704Y-69046497D01*
X44195671Y-69047289D01*
X44195500Y-69048386D01*
X44195500Y-69079377D01*
X44195498Y-69080147D01*
X44195024Y-69157721D01*
X44195408Y-69159065D01*
X44195500Y-69160410D01*
X44195500Y-71501500D01*
X44175498Y-71569621D01*
X44121842Y-71616114D01*
X44069500Y-71627500D01*
X31504623Y-71627500D01*
X31503853Y-71627498D01*
X31503037Y-71627493D01*
X31426279Y-71627024D01*
X31410898Y-71631420D01*
X31397847Y-71635150D01*
X31381085Y-71638728D01*
X31351813Y-71642920D01*
X31343645Y-71646634D01*
X31343644Y-71646634D01*
X31328438Y-71653548D01*
X31310914Y-71659996D01*
X31286229Y-71667051D01*
X31278635Y-71671843D01*
X31278632Y-71671844D01*
X31261220Y-71682830D01*
X31246137Y-71690969D01*
X31219218Y-71703208D01*
X31212416Y-71709069D01*
X31199765Y-71719970D01*
X31184761Y-71731073D01*
X31163042Y-71744776D01*
X31157103Y-71751501D01*
X31157099Y-71751504D01*
X31143468Y-71766938D01*
X31131276Y-71778982D01*
X31115673Y-71792427D01*
X31115671Y-71792430D01*
X31108873Y-71798287D01*
X31103993Y-71805816D01*
X31103992Y-71805817D01*
X31094906Y-71819835D01*
X31083615Y-71834709D01*
X31072569Y-71847217D01*
X31066622Y-71853951D01*
X31054058Y-71880711D01*
X31045737Y-71895691D01*
X31034529Y-71912983D01*
X31034527Y-71912988D01*
X31029648Y-71920515D01*
X31027078Y-71929108D01*
X31027076Y-71929113D01*
X31022289Y-71945120D01*
X31015628Y-71962564D01*
X31004719Y-71985800D01*
X31003338Y-71994667D01*
X31003338Y-71994668D01*
X31000170Y-72015015D01*
X30996387Y-72031732D01*
X30990485Y-72051466D01*
X30990484Y-72051472D01*
X30987914Y-72060066D01*
X30987859Y-72069037D01*
X30987859Y-72069038D01*
X30987704Y-72094497D01*
X30987671Y-72095289D01*
X30987500Y-72096386D01*
X30987500Y-72127377D01*
X30987498Y-72128147D01*
X30987024Y-72205721D01*
X30987408Y-72207065D01*
X30987500Y-72208410D01*
X30987500Y-74295500D01*
X30967498Y-74363621D01*
X30913842Y-74410114D01*
X30861500Y-74421500D01*
X17906500Y-74421500D01*
X17838379Y-74401498D01*
X17791886Y-74347842D01*
X17780500Y-74295500D01*
X17780500Y-71316400D01*
X21615471Y-71316400D01*
X21635290Y-71631420D01*
X21694436Y-71941472D01*
X21791975Y-72241666D01*
X21793662Y-72245252D01*
X21793664Y-72245256D01*
X21924681Y-72523683D01*
X21924685Y-72523690D01*
X21926369Y-72527269D01*
X22095499Y-72793775D01*
X22296698Y-73036982D01*
X22526791Y-73253054D01*
X22782152Y-73438584D01*
X23058752Y-73590647D01*
X23062421Y-73592100D01*
X23062426Y-73592102D01*
X23348559Y-73705390D01*
X23352229Y-73706843D01*
X23657956Y-73785340D01*
X23971110Y-73824900D01*
X24286752Y-73824900D01*
X24599906Y-73785340D01*
X24905633Y-73706843D01*
X24909303Y-73705390D01*
X25195436Y-73592102D01*
X25195441Y-73592100D01*
X25199110Y-73590647D01*
X25475710Y-73438584D01*
X25731071Y-73253054D01*
X25961164Y-73036982D01*
X26162363Y-72793775D01*
X26331493Y-72527269D01*
X26333177Y-72523690D01*
X26333181Y-72523683D01*
X26464198Y-72245256D01*
X26464200Y-72245252D01*
X26465887Y-72241666D01*
X26563426Y-71941472D01*
X26622572Y-71631420D01*
X26642391Y-71316400D01*
X26622572Y-71001380D01*
X26563426Y-70691328D01*
X26465887Y-70391134D01*
X26464198Y-70387544D01*
X26333181Y-70109117D01*
X26333177Y-70109110D01*
X26331493Y-70105531D01*
X26162363Y-69839025D01*
X25961164Y-69595818D01*
X25731071Y-69379746D01*
X25475710Y-69194216D01*
X25414218Y-69160410D01*
X25202579Y-69044060D01*
X25202578Y-69044059D01*
X25199110Y-69042153D01*
X25195441Y-69040700D01*
X25195436Y-69040698D01*
X24909303Y-68927410D01*
X24909302Y-68927410D01*
X24905633Y-68925957D01*
X24599906Y-68847460D01*
X24286752Y-68807900D01*
X23971110Y-68807900D01*
X23657956Y-68847460D01*
X23352229Y-68925957D01*
X23348560Y-68927410D01*
X23348559Y-68927410D01*
X23062426Y-69040698D01*
X23062421Y-69040700D01*
X23058752Y-69042153D01*
X23055284Y-69044059D01*
X23055283Y-69044060D01*
X22843645Y-69160410D01*
X22782152Y-69194216D01*
X22526791Y-69379746D01*
X22296698Y-69595818D01*
X22095499Y-69839025D01*
X21926369Y-70105531D01*
X21924685Y-70109110D01*
X21924681Y-70109117D01*
X21793664Y-70387544D01*
X21791975Y-70391134D01*
X21694436Y-70691328D01*
X21635290Y-71001380D01*
X21615471Y-71316400D01*
X17780500Y-71316400D01*
X17780500Y-67401294D01*
X34263131Y-67401294D01*
X34279189Y-67565068D01*
X34331132Y-67721215D01*
X34343970Y-67742413D01*
X34374814Y-67793341D01*
X34416379Y-67861973D01*
X34530691Y-67980347D01*
X34668389Y-68070454D01*
X34822628Y-68127815D01*
X34829609Y-68128746D01*
X34829611Y-68128747D01*
X34978761Y-68148648D01*
X34978765Y-68148648D01*
X34985742Y-68149579D01*
X34992753Y-68148941D01*
X34992757Y-68148941D01*
X35142603Y-68135304D01*
X35142604Y-68135304D01*
X35149624Y-68134665D01*
X35178262Y-68125360D01*
X35299430Y-68085990D01*
X35299433Y-68085989D01*
X35306129Y-68083813D01*
X35447479Y-67999551D01*
X35566649Y-67886068D01*
X35568094Y-67883894D01*
X41654531Y-67883894D01*
X41670589Y-68047668D01*
X41722532Y-68203815D01*
X41807779Y-68344573D01*
X41922091Y-68462947D01*
X42059789Y-68553054D01*
X42214028Y-68610415D01*
X42221009Y-68611346D01*
X42221011Y-68611347D01*
X42370161Y-68631248D01*
X42370165Y-68631248D01*
X42377142Y-68632179D01*
X42384153Y-68631541D01*
X42384157Y-68631541D01*
X42534003Y-68617904D01*
X42534004Y-68617904D01*
X42541024Y-68617265D01*
X42598364Y-68598634D01*
X42690830Y-68568590D01*
X42690833Y-68568589D01*
X42697529Y-68566413D01*
X42838879Y-68482151D01*
X42958049Y-68368668D01*
X42974058Y-68344573D01*
X43045214Y-68237475D01*
X43045215Y-68237473D01*
X43049115Y-68231603D01*
X43107551Y-68077768D01*
X43120700Y-67984205D01*
X43129902Y-67918734D01*
X43129903Y-67918727D01*
X43130453Y-67914810D01*
X43130741Y-67894200D01*
X43112398Y-67730666D01*
X43106598Y-67714009D01*
X43060598Y-67581917D01*
X43058280Y-67575260D01*
X43051912Y-67565068D01*
X42974809Y-67441679D01*
X42971076Y-67435705D01*
X42905985Y-67370158D01*
X42860086Y-67323937D01*
X42860082Y-67323934D01*
X42855122Y-67318939D01*
X42716180Y-67230763D01*
X42618807Y-67196090D01*
X42567789Y-67177923D01*
X42567787Y-67177922D01*
X42561155Y-67175561D01*
X42554169Y-67174728D01*
X42554165Y-67174727D01*
X42439671Y-67161075D01*
X42397753Y-67156077D01*
X42390750Y-67156813D01*
X42390749Y-67156813D01*
X42347535Y-67161355D01*
X42234095Y-67173278D01*
X42227427Y-67175548D01*
X42084982Y-67224040D01*
X42084979Y-67224041D01*
X42078315Y-67226310D01*
X41938155Y-67312537D01*
X41926514Y-67323937D01*
X41841017Y-67407662D01*
X41820582Y-67427673D01*
X41731438Y-67565997D01*
X41729027Y-67572620D01*
X41729026Y-67572623D01*
X41677566Y-67714009D01*
X41677565Y-67714014D01*
X41675156Y-67720632D01*
X41654531Y-67883894D01*
X35568094Y-67883894D01*
X35570550Y-67880197D01*
X35653814Y-67754875D01*
X35653815Y-67754873D01*
X35657715Y-67749003D01*
X35716151Y-67595168D01*
X35729477Y-67500350D01*
X35738502Y-67436134D01*
X35738503Y-67436127D01*
X35739053Y-67432210D01*
X35739341Y-67411600D01*
X35720998Y-67248066D01*
X35715198Y-67231409D01*
X35694698Y-67172542D01*
X35666880Y-67092660D01*
X35641915Y-67052707D01*
X35583409Y-66959079D01*
X35579676Y-66953105D01*
X35512851Y-66885812D01*
X35468686Y-66841337D01*
X35468682Y-66841334D01*
X35463722Y-66836339D01*
X35324780Y-66748163D01*
X35223821Y-66712213D01*
X35176389Y-66695323D01*
X35176387Y-66695322D01*
X35169755Y-66692961D01*
X35162769Y-66692128D01*
X35162765Y-66692127D01*
X35048271Y-66678475D01*
X35006353Y-66673477D01*
X34999350Y-66674213D01*
X34999349Y-66674213D01*
X34956135Y-66678755D01*
X34842695Y-66690678D01*
X34836027Y-66692948D01*
X34693582Y-66741440D01*
X34693579Y-66741441D01*
X34686915Y-66743710D01*
X34640475Y-66772280D01*
X34580424Y-66809224D01*
X34546755Y-66829937D01*
X34429182Y-66945073D01*
X34340038Y-67083397D01*
X34337627Y-67090020D01*
X34337626Y-67090023D01*
X34286166Y-67231409D01*
X34286165Y-67231414D01*
X34283756Y-67238032D01*
X34263131Y-67401294D01*
X17780500Y-67401294D01*
X17780500Y-66385294D01*
X38885931Y-66385294D01*
X38901989Y-66549068D01*
X38953932Y-66705215D01*
X38957581Y-66711240D01*
X39031059Y-66832565D01*
X39039179Y-66845973D01*
X39153491Y-66964347D01*
X39291189Y-67054454D01*
X39445428Y-67111815D01*
X39452409Y-67112746D01*
X39452411Y-67112747D01*
X39601561Y-67132648D01*
X39601565Y-67132648D01*
X39608542Y-67133579D01*
X39615553Y-67132941D01*
X39615557Y-67132941D01*
X39765403Y-67119304D01*
X39765404Y-67119304D01*
X39772424Y-67118665D01*
X39801062Y-67109360D01*
X39922230Y-67069990D01*
X39922233Y-67069989D01*
X39928929Y-67067813D01*
X39966034Y-67045694D01*
X44677131Y-67045694D01*
X44693189Y-67209468D01*
X44745132Y-67365615D01*
X44748781Y-67371640D01*
X44784554Y-67430707D01*
X44830379Y-67506373D01*
X44944691Y-67624747D01*
X45082389Y-67714854D01*
X45236628Y-67772215D01*
X45243609Y-67773146D01*
X45243611Y-67773147D01*
X45392761Y-67793048D01*
X45392765Y-67793048D01*
X45399742Y-67793979D01*
X45406753Y-67793341D01*
X45406757Y-67793341D01*
X45556606Y-67779704D01*
X45556609Y-67779703D01*
X45563624Y-67779065D01*
X45570327Y-67776887D01*
X45588105Y-67771111D01*
X45657523Y-67768687D01*
X45661828Y-67769760D01*
X45668428Y-67772215D01*
X45675407Y-67773146D01*
X45675410Y-67773147D01*
X45824561Y-67793048D01*
X45824565Y-67793048D01*
X45831542Y-67793979D01*
X45838553Y-67793341D01*
X45838557Y-67793341D01*
X45988403Y-67779704D01*
X45988404Y-67779704D01*
X45995424Y-67779065D01*
X46127908Y-67736018D01*
X46198874Y-67733990D01*
X46210763Y-67737754D01*
X46296820Y-67769758D01*
X46296824Y-67769759D01*
X46303428Y-67772215D01*
X46310409Y-67773146D01*
X46310411Y-67773147D01*
X46459561Y-67793048D01*
X46459565Y-67793048D01*
X46466542Y-67793979D01*
X46473553Y-67793341D01*
X46473557Y-67793341D01*
X46623403Y-67779704D01*
X46623404Y-67779704D01*
X46630424Y-67779065D01*
X46668015Y-67766851D01*
X46738981Y-67764823D01*
X46750870Y-67768587D01*
X46754020Y-67769758D01*
X46754024Y-67769759D01*
X46760628Y-67772215D01*
X46767609Y-67773146D01*
X46767611Y-67773147D01*
X46916761Y-67793048D01*
X46916765Y-67793048D01*
X46923742Y-67793979D01*
X46930753Y-67793341D01*
X46930757Y-67793341D01*
X47080603Y-67779704D01*
X47080604Y-67779704D01*
X47087624Y-67779065D01*
X47119872Y-67768587D01*
X47237430Y-67730390D01*
X47237433Y-67730389D01*
X47244129Y-67728213D01*
X47385479Y-67643951D01*
X47504649Y-67530468D01*
X47520658Y-67506373D01*
X47591814Y-67399275D01*
X47591815Y-67399273D01*
X47595715Y-67393403D01*
X47654151Y-67239568D01*
X47662815Y-67177923D01*
X47676502Y-67080534D01*
X47676503Y-67080527D01*
X47677053Y-67076610D01*
X47677341Y-67056000D01*
X47658998Y-66892466D01*
X47653198Y-66875809D01*
X47630010Y-66809224D01*
X47604880Y-66737060D01*
X47517676Y-66597505D01*
X47440042Y-66519327D01*
X47406686Y-66485737D01*
X47406682Y-66485734D01*
X47401722Y-66480739D01*
X47395773Y-66476964D01*
X47395771Y-66476962D01*
X47293800Y-66412249D01*
X47273635Y-66399452D01*
X47226836Y-66346063D01*
X47216331Y-66275848D01*
X47245455Y-66211100D01*
X47276631Y-66184838D01*
X47379433Y-66123555D01*
X47385479Y-66119951D01*
X47480259Y-66029694D01*
X53617931Y-66029694D01*
X53633989Y-66193468D01*
X53685932Y-66349615D01*
X53689581Y-66355640D01*
X53711943Y-66392563D01*
X53771179Y-66490373D01*
X53885491Y-66608747D01*
X54023189Y-66698854D01*
X54177428Y-66756215D01*
X54184409Y-66757146D01*
X54184411Y-66757147D01*
X54333561Y-66777048D01*
X54333565Y-66777048D01*
X54340542Y-66777979D01*
X54347553Y-66777341D01*
X54347557Y-66777341D01*
X54497403Y-66763704D01*
X54497404Y-66763704D01*
X54504424Y-66763065D01*
X54551860Y-66747652D01*
X54654230Y-66714390D01*
X54654233Y-66714389D01*
X54660929Y-66712213D01*
X54802279Y-66627951D01*
X54921449Y-66514468D01*
X54940538Y-66485737D01*
X55008614Y-66383275D01*
X55008615Y-66383273D01*
X55012515Y-66377403D01*
X55070951Y-66223568D01*
X55088212Y-66100747D01*
X55093302Y-66064534D01*
X55093303Y-66064527D01*
X55093853Y-66060610D01*
X55094141Y-66040000D01*
X55092985Y-66029694D01*
X58697931Y-66029694D01*
X58713989Y-66193468D01*
X58765932Y-66349615D01*
X58769581Y-66355640D01*
X58791943Y-66392563D01*
X58851179Y-66490373D01*
X58965491Y-66608747D01*
X59103189Y-66698854D01*
X59257428Y-66756215D01*
X59264409Y-66757146D01*
X59264411Y-66757147D01*
X59413561Y-66777048D01*
X59413565Y-66777048D01*
X59420542Y-66777979D01*
X59427553Y-66777341D01*
X59427557Y-66777341D01*
X59577403Y-66763704D01*
X59577404Y-66763704D01*
X59584424Y-66763065D01*
X59631860Y-66747652D01*
X59734230Y-66714390D01*
X59734233Y-66714389D01*
X59740929Y-66712213D01*
X59882279Y-66627951D01*
X60001449Y-66514468D01*
X60020538Y-66485737D01*
X60088614Y-66383275D01*
X60088615Y-66383273D01*
X60092515Y-66377403D01*
X60150951Y-66223568D01*
X60168212Y-66100747D01*
X60173302Y-66064534D01*
X60173303Y-66064527D01*
X60173853Y-66060610D01*
X60174141Y-66040000D01*
X60155798Y-65876466D01*
X60153339Y-65869403D01*
X60103998Y-65727717D01*
X60101680Y-65721060D01*
X60014476Y-65581505D01*
X59924368Y-65490766D01*
X59903486Y-65469737D01*
X59903482Y-65469734D01*
X59898522Y-65464739D01*
X59759580Y-65376563D01*
X59690063Y-65351809D01*
X59611189Y-65323723D01*
X59611187Y-65323722D01*
X59604555Y-65321361D01*
X59597569Y-65320528D01*
X59597565Y-65320527D01*
X59483071Y-65306875D01*
X59441153Y-65301877D01*
X59434150Y-65302613D01*
X59434149Y-65302613D01*
X59390935Y-65307155D01*
X59277495Y-65319078D01*
X59270827Y-65321348D01*
X59128382Y-65369840D01*
X59128379Y-65369841D01*
X59121715Y-65372110D01*
X58981555Y-65458337D01*
X58969914Y-65469737D01*
X58881280Y-65556534D01*
X58863982Y-65573473D01*
X58774838Y-65711797D01*
X58772427Y-65718420D01*
X58772426Y-65718423D01*
X58720966Y-65859809D01*
X58720965Y-65859814D01*
X58718556Y-65866432D01*
X58697931Y-66029694D01*
X55092985Y-66029694D01*
X55075798Y-65876466D01*
X55073339Y-65869403D01*
X55023998Y-65727717D01*
X55021680Y-65721060D01*
X54934476Y-65581505D01*
X54844368Y-65490766D01*
X54823486Y-65469737D01*
X54823482Y-65469734D01*
X54818522Y-65464739D01*
X54679580Y-65376563D01*
X54610063Y-65351809D01*
X54531189Y-65323723D01*
X54531187Y-65323722D01*
X54524555Y-65321361D01*
X54517569Y-65320528D01*
X54517565Y-65320527D01*
X54403071Y-65306875D01*
X54361153Y-65301877D01*
X54354150Y-65302613D01*
X54354149Y-65302613D01*
X54310935Y-65307155D01*
X54197495Y-65319078D01*
X54190827Y-65321348D01*
X54048382Y-65369840D01*
X54048379Y-65369841D01*
X54041715Y-65372110D01*
X53901555Y-65458337D01*
X53889914Y-65469737D01*
X53801280Y-65556534D01*
X53783982Y-65573473D01*
X53694838Y-65711797D01*
X53692427Y-65718420D01*
X53692426Y-65718423D01*
X53640966Y-65859809D01*
X53640965Y-65859814D01*
X53638556Y-65866432D01*
X53617931Y-66029694D01*
X47480259Y-66029694D01*
X47504649Y-66006468D01*
X47520658Y-65982373D01*
X47591814Y-65875275D01*
X47591815Y-65875273D01*
X47595715Y-65869403D01*
X47654151Y-65715568D01*
X47674121Y-65573473D01*
X47676502Y-65556534D01*
X47676503Y-65556527D01*
X47677053Y-65552610D01*
X47677341Y-65532000D01*
X47658998Y-65368466D01*
X47655598Y-65358701D01*
X47607198Y-65219717D01*
X47604880Y-65213060D01*
X47517676Y-65073505D01*
X47452787Y-65008162D01*
X47406686Y-64961737D01*
X47406682Y-64961734D01*
X47401722Y-64956739D01*
X47262780Y-64868563D01*
X47213647Y-64851068D01*
X47114389Y-64815723D01*
X47114387Y-64815722D01*
X47107755Y-64813361D01*
X47100769Y-64812528D01*
X47100765Y-64812527D01*
X46986271Y-64798875D01*
X46944353Y-64793877D01*
X46937350Y-64794613D01*
X46937349Y-64794613D01*
X46787703Y-64810341D01*
X46787699Y-64810342D01*
X46780695Y-64811078D01*
X46752421Y-64820703D01*
X46681490Y-64823721D01*
X46669551Y-64820125D01*
X46657186Y-64815722D01*
X46657185Y-64815722D01*
X46650555Y-64813361D01*
X46487153Y-64793877D01*
X46480150Y-64794613D01*
X46480149Y-64794613D01*
X46436935Y-64799155D01*
X46323495Y-64811078D01*
X46316824Y-64813349D01*
X46204322Y-64851647D01*
X46133390Y-64854665D01*
X46121451Y-64851068D01*
X46022193Y-64815724D01*
X46022187Y-64815723D01*
X46015555Y-64813361D01*
X46008569Y-64812528D01*
X46008565Y-64812527D01*
X45894071Y-64798875D01*
X45852153Y-64793877D01*
X45845150Y-64794613D01*
X45845149Y-64794613D01*
X45801935Y-64799155D01*
X45688495Y-64811078D01*
X45681832Y-64813346D01*
X45681829Y-64813347D01*
X45678544Y-64814466D01*
X45673208Y-64816282D01*
X45602278Y-64819302D01*
X45590438Y-64815735D01*
X45590391Y-64815724D01*
X45583755Y-64813361D01*
X45576769Y-64812528D01*
X45576765Y-64812527D01*
X45462271Y-64798875D01*
X45420353Y-64793877D01*
X45413350Y-64794613D01*
X45413349Y-64794613D01*
X45370135Y-64799155D01*
X45256695Y-64811078D01*
X45250027Y-64813348D01*
X45107582Y-64861840D01*
X45107579Y-64861841D01*
X45100915Y-64864110D01*
X44960755Y-64950337D01*
X44949114Y-64961737D01*
X44896614Y-65013149D01*
X44843182Y-65065473D01*
X44754038Y-65203797D01*
X44751627Y-65210420D01*
X44751626Y-65210423D01*
X44700166Y-65351809D01*
X44700165Y-65351814D01*
X44697756Y-65358432D01*
X44677131Y-65521694D01*
X44693189Y-65685468D01*
X44745132Y-65841615D01*
X44830379Y-65982373D01*
X44835270Y-65987438D01*
X44835271Y-65987439D01*
X44889855Y-66043962D01*
X44944691Y-66100747D01*
X44950583Y-66104602D01*
X44950587Y-66104606D01*
X45080602Y-66189685D01*
X45126651Y-66243722D01*
X45136174Y-66314077D01*
X45106149Y-66378412D01*
X45077634Y-66402433D01*
X44960755Y-66474337D01*
X44843182Y-66589473D01*
X44754038Y-66727797D01*
X44751627Y-66734420D01*
X44751626Y-66734423D01*
X44700166Y-66875809D01*
X44700165Y-66875814D01*
X44697756Y-66882432D01*
X44677131Y-67045694D01*
X39966034Y-67045694D01*
X40070279Y-66983551D01*
X40189449Y-66870068D01*
X40202261Y-66850785D01*
X40276614Y-66738875D01*
X40276615Y-66738873D01*
X40280515Y-66733003D01*
X40338951Y-66579168D01*
X40361853Y-66416210D01*
X40361995Y-66406030D01*
X40362086Y-66399562D01*
X40362086Y-66399556D01*
X40362141Y-66395600D01*
X40343798Y-66232066D01*
X40337998Y-66215409D01*
X40319709Y-66162892D01*
X40289680Y-66076660D01*
X40264715Y-66036707D01*
X40206209Y-65943079D01*
X40202476Y-65937105D01*
X40135245Y-65869403D01*
X40091486Y-65825337D01*
X40091482Y-65825334D01*
X40086522Y-65820339D01*
X39947580Y-65732163D01*
X39873741Y-65705870D01*
X39799189Y-65679323D01*
X39799187Y-65679322D01*
X39792555Y-65676961D01*
X39785569Y-65676128D01*
X39785565Y-65676127D01*
X39671071Y-65662475D01*
X39629153Y-65657477D01*
X39622150Y-65658213D01*
X39622149Y-65658213D01*
X39578935Y-65662755D01*
X39465495Y-65674678D01*
X39458827Y-65676948D01*
X39316382Y-65725440D01*
X39316379Y-65725441D01*
X39309715Y-65727710D01*
X39169555Y-65813937D01*
X39051982Y-65929073D01*
X38962838Y-66067397D01*
X38960427Y-66074020D01*
X38960426Y-66074023D01*
X38908966Y-66215409D01*
X38908965Y-66215414D01*
X38906556Y-66222032D01*
X38885931Y-66385294D01*
X17780500Y-66385294D01*
X17780500Y-64356400D01*
X24235433Y-64356400D01*
X24255388Y-64584487D01*
X24256812Y-64589800D01*
X24256812Y-64589802D01*
X24273741Y-64652979D01*
X24314647Y-64805643D01*
X24316970Y-64810624D01*
X24316970Y-64810625D01*
X24409082Y-65008162D01*
X24409085Y-65008167D01*
X24411408Y-65013149D01*
X24542733Y-65200700D01*
X24704631Y-65362598D01*
X24709139Y-65365755D01*
X24709142Y-65365757D01*
X24724575Y-65376563D01*
X24892182Y-65493923D01*
X24897164Y-65496246D01*
X24897169Y-65496249D01*
X25080003Y-65581505D01*
X25099688Y-65590684D01*
X25104996Y-65592106D01*
X25104998Y-65592107D01*
X25315529Y-65648519D01*
X25315531Y-65648519D01*
X25320844Y-65649943D01*
X25548931Y-65669898D01*
X25777018Y-65649943D01*
X25782331Y-65648519D01*
X25782333Y-65648519D01*
X25992864Y-65592107D01*
X25992866Y-65592106D01*
X25998174Y-65590684D01*
X26017859Y-65581505D01*
X26200693Y-65496249D01*
X26200698Y-65496246D01*
X26205680Y-65493923D01*
X26373287Y-65376563D01*
X26388720Y-65365757D01*
X26388723Y-65365755D01*
X26393231Y-65362598D01*
X26555129Y-65200700D01*
X26686454Y-65013149D01*
X26688777Y-65008167D01*
X26688780Y-65008162D01*
X26780892Y-64810625D01*
X26780892Y-64810624D01*
X26783215Y-64805643D01*
X26824122Y-64652979D01*
X26841050Y-64589802D01*
X26841050Y-64589800D01*
X26842474Y-64584487D01*
X26862429Y-64356400D01*
X26842474Y-64128313D01*
X26837902Y-64111249D01*
X26784638Y-63912467D01*
X26784637Y-63912465D01*
X26783215Y-63907157D01*
X26753427Y-63843275D01*
X26688780Y-63704638D01*
X26688777Y-63704633D01*
X26686454Y-63699651D01*
X26603282Y-63580870D01*
X26558288Y-63516611D01*
X26558286Y-63516608D01*
X26555129Y-63512100D01*
X26532723Y-63489694D01*
X35710931Y-63489694D01*
X35726989Y-63653468D01*
X35778932Y-63809615D01*
X35782581Y-63815640D01*
X35857615Y-63939534D01*
X35864179Y-63950373D01*
X35869070Y-63955438D01*
X35869071Y-63955439D01*
X35887447Y-63974468D01*
X35978491Y-64068747D01*
X36116189Y-64158854D01*
X36270428Y-64216215D01*
X36277409Y-64217146D01*
X36277411Y-64217147D01*
X36426561Y-64237048D01*
X36426565Y-64237048D01*
X36433542Y-64237979D01*
X36440553Y-64237341D01*
X36440557Y-64237341D01*
X36590403Y-64223704D01*
X36590404Y-64223704D01*
X36597424Y-64223065D01*
X36658066Y-64203361D01*
X36747230Y-64174390D01*
X36747233Y-64174389D01*
X36753929Y-64172213D01*
X36895279Y-64087951D01*
X37014449Y-63974468D01*
X37030458Y-63950373D01*
X37060807Y-63904694D01*
X38123931Y-63904694D01*
X38139989Y-64068468D01*
X38191932Y-64224615D01*
X38195581Y-64230640D01*
X38271745Y-64356400D01*
X38277179Y-64365373D01*
X38391491Y-64483747D01*
X38529189Y-64573854D01*
X38683428Y-64631215D01*
X38690409Y-64632146D01*
X38690411Y-64632147D01*
X38839561Y-64652048D01*
X38839565Y-64652048D01*
X38846542Y-64652979D01*
X38853553Y-64652341D01*
X38853557Y-64652341D01*
X39003403Y-64638704D01*
X39003404Y-64638704D01*
X39010424Y-64638065D01*
X39039062Y-64628760D01*
X39160230Y-64589390D01*
X39160233Y-64589389D01*
X39166929Y-64587213D01*
X39308279Y-64502951D01*
X39427449Y-64389468D01*
X39445782Y-64361875D01*
X39514614Y-64258275D01*
X39514615Y-64258273D01*
X39518515Y-64252403D01*
X39576951Y-64098568D01*
X39595217Y-63968597D01*
X39599302Y-63939534D01*
X39599303Y-63939527D01*
X39599853Y-63935610D01*
X39600141Y-63915000D01*
X39581798Y-63751466D01*
X39575998Y-63734809D01*
X39557709Y-63682292D01*
X39527680Y-63596060D01*
X39482986Y-63524534D01*
X39444209Y-63462479D01*
X39440476Y-63456505D01*
X39382499Y-63398122D01*
X39329486Y-63344737D01*
X39329482Y-63344734D01*
X39324522Y-63339739D01*
X39185580Y-63251563D01*
X39102653Y-63222034D01*
X39037189Y-63198723D01*
X39037187Y-63198722D01*
X39030555Y-63196361D01*
X39023569Y-63195528D01*
X39023565Y-63195527D01*
X38909071Y-63181875D01*
X38867153Y-63176877D01*
X38860150Y-63177613D01*
X38860149Y-63177613D01*
X38827354Y-63181060D01*
X38703495Y-63194078D01*
X38696827Y-63196348D01*
X38554382Y-63244840D01*
X38554379Y-63244841D01*
X38547715Y-63247110D01*
X38407555Y-63333337D01*
X38397213Y-63343465D01*
X38313314Y-63425625D01*
X38289982Y-63448473D01*
X38200838Y-63586797D01*
X38198427Y-63593420D01*
X38198426Y-63593423D01*
X38146966Y-63734809D01*
X38146965Y-63734814D01*
X38144556Y-63741432D01*
X38123931Y-63904694D01*
X37060807Y-63904694D01*
X37101614Y-63843275D01*
X37101615Y-63843273D01*
X37105515Y-63837403D01*
X37163951Y-63683568D01*
X37186853Y-63520610D01*
X37187141Y-63500000D01*
X37168798Y-63336466D01*
X37162998Y-63319809D01*
X37137681Y-63247110D01*
X37114680Y-63181060D01*
X37027476Y-63041505D01*
X36969499Y-62983122D01*
X36916486Y-62929737D01*
X36916482Y-62929734D01*
X36911522Y-62924739D01*
X36772580Y-62836563D01*
X36721463Y-62818361D01*
X36624189Y-62783723D01*
X36624187Y-62783722D01*
X36617555Y-62781361D01*
X36610569Y-62780528D01*
X36610565Y-62780527D01*
X36496071Y-62766875D01*
X36454153Y-62761877D01*
X36447150Y-62762613D01*
X36447149Y-62762613D01*
X36403935Y-62767155D01*
X36290495Y-62779078D01*
X36283827Y-62781348D01*
X36141382Y-62829840D01*
X36141379Y-62829841D01*
X36134715Y-62832110D01*
X35994555Y-62918337D01*
X35876982Y-63033473D01*
X35787838Y-63171797D01*
X35785427Y-63178420D01*
X35785426Y-63178423D01*
X35733966Y-63319809D01*
X35733965Y-63319814D01*
X35731556Y-63326432D01*
X35710931Y-63489694D01*
X26532723Y-63489694D01*
X26393231Y-63350202D01*
X26388723Y-63347045D01*
X26388720Y-63347043D01*
X26251272Y-63250801D01*
X26205680Y-63218877D01*
X26200698Y-63216554D01*
X26200693Y-63216551D01*
X26003156Y-63124439D01*
X26003155Y-63124439D01*
X25998174Y-63122116D01*
X25992866Y-63120694D01*
X25992864Y-63120693D01*
X25889912Y-63093107D01*
X25829289Y-63056155D01*
X25798268Y-62992294D01*
X25806696Y-62921800D01*
X25851899Y-62867053D01*
X25889912Y-62849693D01*
X25992864Y-62822107D01*
X25992866Y-62822106D01*
X25998174Y-62820684D01*
X26077438Y-62783723D01*
X26200693Y-62726249D01*
X26200698Y-62726246D01*
X26205680Y-62723923D01*
X26310542Y-62650498D01*
X26388720Y-62595757D01*
X26388723Y-62595755D01*
X26393231Y-62592598D01*
X26555129Y-62430700D01*
X26686454Y-62243149D01*
X26688777Y-62238167D01*
X26688780Y-62238162D01*
X26780892Y-62040625D01*
X26780892Y-62040624D01*
X26783215Y-62035643D01*
X26793711Y-61996474D01*
X26841050Y-61819802D01*
X26841050Y-61819800D01*
X26842474Y-61814487D01*
X26862429Y-61586400D01*
X26842474Y-61358313D01*
X26841025Y-61352905D01*
X26801044Y-61203694D01*
X35075931Y-61203694D01*
X35091989Y-61367468D01*
X35143932Y-61523615D01*
X35147581Y-61529640D01*
X35215030Y-61641010D01*
X35229179Y-61664373D01*
X35343491Y-61782747D01*
X35481189Y-61872854D01*
X35635428Y-61930215D01*
X35642409Y-61931146D01*
X35642411Y-61931147D01*
X35791561Y-61951048D01*
X35791565Y-61951048D01*
X35798542Y-61951979D01*
X35805553Y-61951341D01*
X35805557Y-61951341D01*
X35955403Y-61937704D01*
X35955404Y-61937704D01*
X35962424Y-61937065D01*
X36004699Y-61923329D01*
X36112230Y-61888390D01*
X36112233Y-61888389D01*
X36118929Y-61886213D01*
X36260279Y-61801951D01*
X36379449Y-61688468D01*
X36397570Y-61661194D01*
X36431521Y-61610094D01*
X69162731Y-61610094D01*
X69178789Y-61773868D01*
X69230732Y-61930015D01*
X69234381Y-61936040D01*
X69297721Y-62040625D01*
X69315979Y-62070773D01*
X69320870Y-62075838D01*
X69320871Y-62075839D01*
X69366610Y-62123203D01*
X69430291Y-62189147D01*
X69567989Y-62279254D01*
X69722228Y-62336615D01*
X69729209Y-62337546D01*
X69729211Y-62337547D01*
X69878361Y-62357448D01*
X69878365Y-62357448D01*
X69885342Y-62358379D01*
X69892353Y-62357741D01*
X69892357Y-62357741D01*
X70042203Y-62344104D01*
X70042204Y-62344104D01*
X70049224Y-62343465D01*
X70077862Y-62334160D01*
X70199030Y-62294790D01*
X70199033Y-62294789D01*
X70205729Y-62292613D01*
X70347079Y-62208351D01*
X70466249Y-62094868D01*
X70543177Y-61979082D01*
X70597534Y-61933413D01*
X70667953Y-61924381D01*
X70732077Y-61954855D01*
X70755900Y-61983539D01*
X70826267Y-62099727D01*
X70839679Y-62121873D01*
X70844570Y-62126938D01*
X70844571Y-62126939D01*
X70849083Y-62131611D01*
X70953991Y-62240247D01*
X71091689Y-62330354D01*
X71245928Y-62387715D01*
X71252909Y-62388646D01*
X71252911Y-62388647D01*
X71402061Y-62408548D01*
X71402065Y-62408548D01*
X71409042Y-62409479D01*
X71416053Y-62408841D01*
X71416057Y-62408841D01*
X71565903Y-62395204D01*
X71565904Y-62395204D01*
X71572924Y-62394565D01*
X71601562Y-62385260D01*
X71722730Y-62345890D01*
X71722733Y-62345889D01*
X71729429Y-62343713D01*
X71870779Y-62259451D01*
X71989949Y-62145968D01*
X72005958Y-62121873D01*
X72077114Y-62014775D01*
X72077115Y-62014773D01*
X72081015Y-62008903D01*
X72083516Y-62002318D01*
X72083519Y-62002313D01*
X72083907Y-62001290D01*
X72084332Y-62000729D01*
X72086736Y-61996052D01*
X72087558Y-61996474D01*
X72126798Y-61944714D01*
X72193468Y-61920308D01*
X72262749Y-61935820D01*
X72309469Y-61980767D01*
X72321558Y-62000729D01*
X72345721Y-62040625D01*
X72363979Y-62070773D01*
X72368870Y-62075838D01*
X72368871Y-62075839D01*
X72414610Y-62123203D01*
X72478291Y-62189147D01*
X72615989Y-62279254D01*
X72770228Y-62336615D01*
X72777209Y-62337546D01*
X72777211Y-62337547D01*
X72926361Y-62357448D01*
X72926365Y-62357448D01*
X72933342Y-62358379D01*
X72940353Y-62357741D01*
X72940357Y-62357741D01*
X73090203Y-62344104D01*
X73090204Y-62344104D01*
X73097224Y-62343465D01*
X73125862Y-62334160D01*
X73247030Y-62294790D01*
X73247033Y-62294789D01*
X73253729Y-62292613D01*
X73395079Y-62208351D01*
X73514249Y-62094868D01*
X73530258Y-62070773D01*
X73601414Y-61963675D01*
X73601415Y-61963673D01*
X73605315Y-61957803D01*
X73663751Y-61803968D01*
X73677223Y-61708107D01*
X73686102Y-61644934D01*
X73686103Y-61644927D01*
X73686653Y-61641010D01*
X73686941Y-61620400D01*
X73668598Y-61456866D01*
X73662798Y-61440209D01*
X73638589Y-61370692D01*
X73614480Y-61301460D01*
X73562305Y-61217962D01*
X73531009Y-61167879D01*
X73527276Y-61161905D01*
X73452043Y-61086145D01*
X73416286Y-61050137D01*
X73416282Y-61050134D01*
X73411322Y-61045139D01*
X73272380Y-60956963D01*
X73183019Y-60925143D01*
X73123989Y-60904123D01*
X73123987Y-60904122D01*
X73117355Y-60901761D01*
X73110369Y-60900928D01*
X73110365Y-60900927D01*
X72983473Y-60885797D01*
X72953953Y-60882277D01*
X72946950Y-60883013D01*
X72946949Y-60883013D01*
X72920462Y-60885797D01*
X72790295Y-60899478D01*
X72783627Y-60901748D01*
X72641182Y-60950240D01*
X72641179Y-60950241D01*
X72634515Y-60952510D01*
X72494355Y-61038737D01*
X72376782Y-61153873D01*
X72287638Y-61292197D01*
X72285227Y-61298820D01*
X72284254Y-61300781D01*
X72236049Y-61352905D01*
X72167317Y-61370692D01*
X72099879Y-61348496D01*
X72064540Y-61311528D01*
X72006709Y-61218979D01*
X72002976Y-61213005D01*
X71944255Y-61153873D01*
X71891986Y-61101237D01*
X71891982Y-61101234D01*
X71887022Y-61096239D01*
X71748080Y-61008063D01*
X71604575Y-60956963D01*
X71599689Y-60955223D01*
X71599687Y-60955222D01*
X71593055Y-60952861D01*
X71586069Y-60952028D01*
X71586065Y-60952027D01*
X71471571Y-60938375D01*
X71429653Y-60933377D01*
X71422650Y-60934113D01*
X71422649Y-60934113D01*
X71379435Y-60938655D01*
X71265995Y-60950578D01*
X71259327Y-60952848D01*
X71116882Y-61001340D01*
X71116879Y-61001341D01*
X71110215Y-61003610D01*
X70970055Y-61089837D01*
X70852482Y-61204973D01*
X70794152Y-61295484D01*
X70783551Y-61311933D01*
X70729837Y-61358358D01*
X70659550Y-61368373D01*
X70595007Y-61338798D01*
X70566530Y-61301428D01*
X70566480Y-61301460D01*
X70566141Y-61300917D01*
X70566139Y-61300915D01*
X70479276Y-61161905D01*
X70404043Y-61086145D01*
X70368286Y-61050137D01*
X70368282Y-61050134D01*
X70363322Y-61045139D01*
X70224380Y-60956963D01*
X70135019Y-60925143D01*
X70075989Y-60904123D01*
X70075987Y-60904122D01*
X70069355Y-60901761D01*
X70062369Y-60900928D01*
X70062365Y-60900927D01*
X69935473Y-60885797D01*
X69905953Y-60882277D01*
X69898950Y-60883013D01*
X69898949Y-60883013D01*
X69872462Y-60885797D01*
X69742295Y-60899478D01*
X69735627Y-60901748D01*
X69593182Y-60950240D01*
X69593179Y-60950241D01*
X69586515Y-60952510D01*
X69446355Y-61038737D01*
X69328782Y-61153873D01*
X69239638Y-61292197D01*
X69237227Y-61298820D01*
X69237226Y-61298823D01*
X69185766Y-61440209D01*
X69185765Y-61440214D01*
X69183356Y-61446832D01*
X69162731Y-61610094D01*
X36431521Y-61610094D01*
X36466614Y-61557275D01*
X36466615Y-61557273D01*
X36470515Y-61551403D01*
X36528951Y-61397568D01*
X36541043Y-61311528D01*
X36551302Y-61238534D01*
X36551303Y-61238527D01*
X36551853Y-61234610D01*
X36551995Y-61224430D01*
X36552086Y-61217962D01*
X36552086Y-61217956D01*
X36552141Y-61214000D01*
X36533798Y-61050466D01*
X36530568Y-61041189D01*
X36501237Y-60956963D01*
X36479680Y-60895060D01*
X36472214Y-60883111D01*
X36396209Y-60761479D01*
X36392476Y-60755505D01*
X36293291Y-60655625D01*
X36281486Y-60643737D01*
X36281482Y-60643734D01*
X36276522Y-60638739D01*
X36137580Y-60550563D01*
X36007319Y-60504179D01*
X35989189Y-60497723D01*
X35989187Y-60497722D01*
X35982555Y-60495361D01*
X35975569Y-60494528D01*
X35975565Y-60494527D01*
X35853395Y-60479960D01*
X35819153Y-60475877D01*
X35812150Y-60476613D01*
X35812149Y-60476613D01*
X35768935Y-60481155D01*
X35655495Y-60493078D01*
X35648827Y-60495348D01*
X35506382Y-60543840D01*
X35506379Y-60543841D01*
X35499715Y-60546110D01*
X35359555Y-60632337D01*
X35347914Y-60643737D01*
X35247469Y-60742100D01*
X35241982Y-60747473D01*
X35152838Y-60885797D01*
X35150427Y-60892420D01*
X35150426Y-60892423D01*
X35098966Y-61033809D01*
X35098965Y-61033814D01*
X35096556Y-61040432D01*
X35075931Y-61203694D01*
X26801044Y-61203694D01*
X26784638Y-61142467D01*
X26784637Y-61142465D01*
X26783215Y-61137157D01*
X26780892Y-61132175D01*
X26688780Y-60934638D01*
X26688777Y-60934633D01*
X26686454Y-60929651D01*
X26613029Y-60824789D01*
X26558288Y-60746611D01*
X26558286Y-60746608D01*
X26555129Y-60742100D01*
X26393231Y-60580202D01*
X26388723Y-60577045D01*
X26388720Y-60577043D01*
X26283748Y-60503541D01*
X26205680Y-60448877D01*
X26200698Y-60446554D01*
X26200693Y-60446551D01*
X26003156Y-60354439D01*
X26003155Y-60354439D01*
X25998174Y-60352116D01*
X25992866Y-60350694D01*
X25992864Y-60350693D01*
X25889912Y-60323107D01*
X25829289Y-60286155D01*
X25798268Y-60222294D01*
X25806696Y-60151800D01*
X25851899Y-60097053D01*
X25889912Y-60079693D01*
X25992864Y-60052107D01*
X25992866Y-60052106D01*
X25998174Y-60050684D01*
X26026516Y-60037468D01*
X26200693Y-59956249D01*
X26200698Y-59956246D01*
X26205680Y-59953923D01*
X26331348Y-59865929D01*
X26388720Y-59825757D01*
X26388723Y-59825755D01*
X26393231Y-59822598D01*
X26459935Y-59755894D01*
X46378931Y-59755894D01*
X46394989Y-59919668D01*
X46446932Y-60075815D01*
X46450581Y-60081840D01*
X46526306Y-60206875D01*
X46532179Y-60216573D01*
X46537070Y-60221638D01*
X46537071Y-60221639D01*
X46546697Y-60231607D01*
X46646491Y-60334947D01*
X46784189Y-60425054D01*
X46938428Y-60482415D01*
X46945409Y-60483346D01*
X46945411Y-60483347D01*
X47094561Y-60503248D01*
X47094565Y-60503248D01*
X47101542Y-60504179D01*
X47108553Y-60503541D01*
X47108557Y-60503541D01*
X47258403Y-60489904D01*
X47258404Y-60489904D01*
X47265424Y-60489265D01*
X47306628Y-60475877D01*
X47415230Y-60440590D01*
X47415233Y-60440589D01*
X47421929Y-60438413D01*
X47563279Y-60354151D01*
X47682449Y-60240668D01*
X47688469Y-60231607D01*
X47769614Y-60109475D01*
X47769615Y-60109473D01*
X47773515Y-60103603D01*
X47831951Y-59949768D01*
X47843734Y-59865929D01*
X47854302Y-59790734D01*
X47854303Y-59790727D01*
X47854853Y-59786810D01*
X47855141Y-59766200D01*
X47836798Y-59602666D01*
X47831529Y-59587534D01*
X47819396Y-59552694D01*
X65301931Y-59552694D01*
X65317989Y-59716468D01*
X65369932Y-59872615D01*
X65373581Y-59878640D01*
X65430918Y-59973313D01*
X65455179Y-60013373D01*
X65569491Y-60131747D01*
X65707189Y-60221854D01*
X65861428Y-60279215D01*
X65868409Y-60280146D01*
X65868411Y-60280147D01*
X66017561Y-60300048D01*
X66017565Y-60300048D01*
X66024542Y-60300979D01*
X66031553Y-60300341D01*
X66031557Y-60300341D01*
X66181403Y-60286704D01*
X66181404Y-60286704D01*
X66188424Y-60286065D01*
X66228935Y-60272902D01*
X66338230Y-60237390D01*
X66338233Y-60237389D01*
X66344929Y-60235213D01*
X66486279Y-60150951D01*
X66605449Y-60037468D01*
X66621458Y-60013373D01*
X66692614Y-59906275D01*
X66692615Y-59906273D01*
X66696515Y-59900403D01*
X66754951Y-59746568D01*
X66767653Y-59656189D01*
X66777302Y-59587534D01*
X66777303Y-59587527D01*
X66777853Y-59583610D01*
X66778141Y-59563000D01*
X66759798Y-59399466D01*
X66753998Y-59382809D01*
X66707998Y-59250717D01*
X66705680Y-59244060D01*
X66618476Y-59104505D01*
X66558875Y-59044487D01*
X66507486Y-58992737D01*
X66507482Y-58992734D01*
X66502522Y-58987739D01*
X66363580Y-58899563D01*
X66314447Y-58882068D01*
X66215189Y-58846723D01*
X66215187Y-58846722D01*
X66208555Y-58844361D01*
X66201569Y-58843528D01*
X66201565Y-58843527D01*
X66087071Y-58829875D01*
X66045153Y-58824877D01*
X66038150Y-58825613D01*
X66038149Y-58825613D01*
X65994974Y-58830151D01*
X65881495Y-58842078D01*
X65874827Y-58844348D01*
X65732382Y-58892840D01*
X65732379Y-58892841D01*
X65725715Y-58895110D01*
X65585555Y-58981337D01*
X65467982Y-59096473D01*
X65378838Y-59234797D01*
X65376427Y-59241420D01*
X65376426Y-59241423D01*
X65324966Y-59382809D01*
X65324965Y-59382814D01*
X65322556Y-59389432D01*
X65301931Y-59552694D01*
X47819396Y-59552694D01*
X47784998Y-59453917D01*
X47782680Y-59447260D01*
X47757189Y-59406465D01*
X47699209Y-59313679D01*
X47695476Y-59307705D01*
X47623075Y-59234797D01*
X47584486Y-59195937D01*
X47584482Y-59195934D01*
X47579522Y-59190939D01*
X47440580Y-59102763D01*
X47391447Y-59085268D01*
X47292189Y-59049923D01*
X47292187Y-59049922D01*
X47285555Y-59047561D01*
X47278569Y-59046728D01*
X47278565Y-59046727D01*
X47164071Y-59033075D01*
X47122153Y-59028077D01*
X47115150Y-59028813D01*
X47115149Y-59028813D01*
X47071935Y-59033355D01*
X46958495Y-59045278D01*
X46951827Y-59047548D01*
X46809382Y-59096040D01*
X46809379Y-59096041D01*
X46802715Y-59098310D01*
X46662555Y-59184537D01*
X46544982Y-59299673D01*
X46455838Y-59437997D01*
X46453427Y-59444620D01*
X46453426Y-59444623D01*
X46401966Y-59586009D01*
X46401965Y-59586014D01*
X46399556Y-59592632D01*
X46378931Y-59755894D01*
X26459935Y-59755894D01*
X26555129Y-59660700D01*
X26686454Y-59473149D01*
X26688777Y-59468167D01*
X26688780Y-59468162D01*
X26780892Y-59270625D01*
X26780892Y-59270624D01*
X26783215Y-59265643D01*
X26787215Y-59250717D01*
X26841050Y-59049802D01*
X26841050Y-59049800D01*
X26842474Y-59044487D01*
X26862429Y-58816400D01*
X26842474Y-58588313D01*
X26840140Y-58579603D01*
X26784638Y-58372467D01*
X26784637Y-58372465D01*
X26783215Y-58367157D01*
X26780892Y-58362175D01*
X26720142Y-58231894D01*
X34720331Y-58231894D01*
X34736389Y-58395668D01*
X34788332Y-58551815D01*
X34873579Y-58692573D01*
X34878470Y-58697638D01*
X34878471Y-58697639D01*
X34896847Y-58716668D01*
X34987891Y-58810947D01*
X35125589Y-58901054D01*
X35279828Y-58958415D01*
X35286809Y-58959346D01*
X35286811Y-58959347D01*
X35435961Y-58979248D01*
X35435965Y-58979248D01*
X35442942Y-58980179D01*
X35449953Y-58979541D01*
X35449957Y-58979541D01*
X35599803Y-58965904D01*
X35599804Y-58965904D01*
X35606824Y-58965265D01*
X35635462Y-58955960D01*
X35756630Y-58916590D01*
X35756633Y-58916589D01*
X35763329Y-58914413D01*
X35904679Y-58830151D01*
X36023849Y-58716668D01*
X36036492Y-58697639D01*
X36111014Y-58585475D01*
X36111015Y-58585473D01*
X36114915Y-58579603D01*
X36173351Y-58425768D01*
X36193894Y-58279597D01*
X36195702Y-58266734D01*
X36195703Y-58266727D01*
X36196253Y-58262810D01*
X36196541Y-58242200D01*
X36178198Y-58078666D01*
X36174977Y-58069415D01*
X36130310Y-57941151D01*
X36124080Y-57923260D01*
X36067384Y-57832527D01*
X36040609Y-57789679D01*
X36036876Y-57783705D01*
X35950253Y-57696475D01*
X35925886Y-57671937D01*
X35925882Y-57671934D01*
X35920922Y-57666939D01*
X35781980Y-57578763D01*
X35664045Y-57536768D01*
X35633589Y-57525923D01*
X35633587Y-57525922D01*
X35626955Y-57523561D01*
X35619969Y-57522728D01*
X35619965Y-57522727D01*
X35485282Y-57506668D01*
X35463553Y-57504077D01*
X35456550Y-57504813D01*
X35456549Y-57504813D01*
X35413335Y-57509355D01*
X35299895Y-57521278D01*
X35293227Y-57523548D01*
X35150782Y-57572040D01*
X35150779Y-57572041D01*
X35144115Y-57574310D01*
X35003955Y-57660537D01*
X34886382Y-57775673D01*
X34797238Y-57913997D01*
X34794827Y-57920620D01*
X34794826Y-57920623D01*
X34743366Y-58062009D01*
X34743365Y-58062014D01*
X34740956Y-58068632D01*
X34720331Y-58231894D01*
X26720142Y-58231894D01*
X26688780Y-58164638D01*
X26688777Y-58164633D01*
X26686454Y-58159651D01*
X26583105Y-58012054D01*
X26558288Y-57976611D01*
X26558286Y-57976608D01*
X26555129Y-57972100D01*
X26393231Y-57810202D01*
X26388723Y-57807045D01*
X26388720Y-57807043D01*
X26222426Y-57690603D01*
X26205680Y-57678877D01*
X26200698Y-57676554D01*
X26200693Y-57676551D01*
X26003156Y-57584439D01*
X26003155Y-57584439D01*
X25998174Y-57582116D01*
X25992866Y-57580694D01*
X25992864Y-57580693D01*
X25889912Y-57553107D01*
X25829289Y-57516155D01*
X25798268Y-57452294D01*
X25806696Y-57381800D01*
X25851899Y-57327053D01*
X25889912Y-57309693D01*
X25992864Y-57282107D01*
X25992866Y-57282106D01*
X25998174Y-57280684D01*
X26008442Y-57275896D01*
X26200693Y-57186249D01*
X26200698Y-57186246D01*
X26205680Y-57183923D01*
X26312842Y-57108887D01*
X26388720Y-57055757D01*
X26388723Y-57055755D01*
X26393231Y-57052598D01*
X26555129Y-56890700D01*
X26565165Y-56876368D01*
X26625317Y-56790462D01*
X26686454Y-56703149D01*
X26688777Y-56698167D01*
X26688780Y-56698162D01*
X26696086Y-56682494D01*
X31011931Y-56682494D01*
X31027989Y-56846268D01*
X31079932Y-57002415D01*
X31083581Y-57008440D01*
X31137415Y-57097329D01*
X31165179Y-57143173D01*
X31279491Y-57261547D01*
X31417189Y-57351654D01*
X31571428Y-57409015D01*
X31578409Y-57409946D01*
X31578411Y-57409947D01*
X31727561Y-57429848D01*
X31727565Y-57429848D01*
X31734542Y-57430779D01*
X31741553Y-57430141D01*
X31741557Y-57430141D01*
X31891403Y-57416504D01*
X31891404Y-57416504D01*
X31898424Y-57415865D01*
X32001569Y-57382351D01*
X32048230Y-57367190D01*
X32048233Y-57367189D01*
X32054929Y-57365013D01*
X32092034Y-57342894D01*
X46378931Y-57342894D01*
X46394989Y-57506668D01*
X46446932Y-57662815D01*
X46532179Y-57803573D01*
X46537070Y-57808638D01*
X46537071Y-57808639D01*
X46542344Y-57814099D01*
X46646491Y-57921947D01*
X46784189Y-58012054D01*
X46938428Y-58069415D01*
X46945409Y-58070346D01*
X46945411Y-58070347D01*
X47094561Y-58090248D01*
X47094565Y-58090248D01*
X47101542Y-58091179D01*
X47108553Y-58090541D01*
X47108557Y-58090541D01*
X47258403Y-58076904D01*
X47258404Y-58076904D01*
X47265424Y-58076265D01*
X47309299Y-58062009D01*
X47415230Y-58027590D01*
X47415233Y-58027589D01*
X47421929Y-58025413D01*
X47563279Y-57941151D01*
X47682449Y-57827668D01*
X47686350Y-57821797D01*
X47769614Y-57696475D01*
X47769615Y-57696473D01*
X47773515Y-57690603D01*
X47831951Y-57536768D01*
X47843823Y-57452294D01*
X47854302Y-57377734D01*
X47854303Y-57377727D01*
X47854853Y-57373810D01*
X47855026Y-57361407D01*
X47855086Y-57357162D01*
X47855086Y-57357156D01*
X47855141Y-57353200D01*
X47836798Y-57189666D01*
X47830998Y-57173009D01*
X47787709Y-57048701D01*
X47782680Y-57034260D01*
X47753441Y-56987467D01*
X47699209Y-56900679D01*
X47695476Y-56894705D01*
X47620232Y-56818934D01*
X47584486Y-56782937D01*
X47584482Y-56782934D01*
X47579522Y-56777939D01*
X47440580Y-56689763D01*
X47294834Y-56637865D01*
X47292189Y-56636923D01*
X47292187Y-56636922D01*
X47285555Y-56634561D01*
X47278569Y-56633728D01*
X47278565Y-56633727D01*
X47164071Y-56620075D01*
X47122153Y-56615077D01*
X47115150Y-56615813D01*
X47115149Y-56615813D01*
X47071935Y-56620355D01*
X46958495Y-56632278D01*
X46951827Y-56634548D01*
X46809382Y-56683040D01*
X46809379Y-56683041D01*
X46802715Y-56685310D01*
X46662555Y-56771537D01*
X46627145Y-56806213D01*
X46560639Y-56871341D01*
X46544982Y-56886673D01*
X46455838Y-57024997D01*
X46453427Y-57031620D01*
X46453426Y-57031623D01*
X46401966Y-57173009D01*
X46401965Y-57173014D01*
X46399556Y-57179632D01*
X46378931Y-57342894D01*
X32092034Y-57342894D01*
X32196279Y-57280751D01*
X32315449Y-57167268D01*
X32335111Y-57137675D01*
X32402614Y-57036075D01*
X32402615Y-57036073D01*
X32406515Y-57030203D01*
X32464951Y-56876368D01*
X32477024Y-56790462D01*
X32487302Y-56717334D01*
X32487303Y-56717327D01*
X32487853Y-56713410D01*
X32488141Y-56692800D01*
X32469798Y-56529266D01*
X32463998Y-56512609D01*
X32417998Y-56380517D01*
X32417015Y-56377694D01*
X64793931Y-56377694D01*
X64809989Y-56541468D01*
X64861932Y-56697615D01*
X64865581Y-56703640D01*
X64933030Y-56815010D01*
X64947179Y-56838373D01*
X64952070Y-56843438D01*
X64952071Y-56843439D01*
X64978733Y-56871048D01*
X65061491Y-56956747D01*
X65199189Y-57046854D01*
X65353428Y-57104215D01*
X65360409Y-57105146D01*
X65360411Y-57105147D01*
X65509561Y-57125048D01*
X65509565Y-57125048D01*
X65516542Y-57125979D01*
X65523553Y-57125341D01*
X65523557Y-57125341D01*
X65673403Y-57111704D01*
X65673404Y-57111704D01*
X65680424Y-57111065D01*
X65722699Y-57097329D01*
X65830230Y-57062390D01*
X65830233Y-57062389D01*
X65836929Y-57060213D01*
X65978279Y-56975951D01*
X66097449Y-56862468D01*
X66107221Y-56847760D01*
X66149521Y-56784094D01*
X67384731Y-56784094D01*
X67400789Y-56947868D01*
X67452732Y-57104015D01*
X67456381Y-57110040D01*
X67516189Y-57208793D01*
X67537979Y-57244773D01*
X67652291Y-57363147D01*
X67789989Y-57453254D01*
X67944228Y-57510615D01*
X67951209Y-57511546D01*
X67951211Y-57511547D01*
X68100361Y-57531448D01*
X68100365Y-57531448D01*
X68107342Y-57532379D01*
X68114353Y-57531741D01*
X68114357Y-57531741D01*
X68264203Y-57518104D01*
X68264204Y-57518104D01*
X68271224Y-57517465D01*
X68299862Y-57508160D01*
X68421030Y-57468790D01*
X68421033Y-57468789D01*
X68427729Y-57466613D01*
X68569079Y-57382351D01*
X68688249Y-57268868D01*
X68693113Y-57261547D01*
X68775414Y-57137675D01*
X68775415Y-57137673D01*
X68779315Y-57131803D01*
X68837751Y-56977968D01*
X68852647Y-56871979D01*
X68860102Y-56818934D01*
X68860103Y-56818927D01*
X68860653Y-56815010D01*
X68860941Y-56794400D01*
X68842598Y-56630866D01*
X68836798Y-56614209D01*
X68811466Y-56541468D01*
X68788480Y-56475460D01*
X68736305Y-56391962D01*
X68705009Y-56341879D01*
X68701276Y-56335905D01*
X68634843Y-56269007D01*
X68590286Y-56224137D01*
X68590282Y-56224134D01*
X68585322Y-56219139D01*
X68446380Y-56130963D01*
X68425966Y-56123694D01*
X69619931Y-56123694D01*
X69635989Y-56287468D01*
X69687932Y-56443615D01*
X69691581Y-56449640D01*
X69769413Y-56578154D01*
X69773179Y-56584373D01*
X69778070Y-56589438D01*
X69778071Y-56589439D01*
X69790778Y-56602597D01*
X69887491Y-56702747D01*
X70025189Y-56792854D01*
X70179428Y-56850215D01*
X70186409Y-56851146D01*
X70186411Y-56851147D01*
X70335561Y-56871048D01*
X70335565Y-56871048D01*
X70342542Y-56871979D01*
X70349553Y-56871341D01*
X70349557Y-56871341D01*
X70499403Y-56857704D01*
X70499404Y-56857704D01*
X70506424Y-56857065D01*
X70535062Y-56847760D01*
X70656230Y-56808390D01*
X70656233Y-56808389D01*
X70662929Y-56806213D01*
X70804279Y-56721951D01*
X70923449Y-56608468D01*
X70940235Y-56583203D01*
X71010614Y-56477275D01*
X71010615Y-56477273D01*
X71014515Y-56471403D01*
X71072951Y-56317568D01*
X71085782Y-56226273D01*
X71095302Y-56158534D01*
X71095303Y-56158527D01*
X71095853Y-56154610D01*
X71096141Y-56134000D01*
X71077798Y-55970466D01*
X71075339Y-55963403D01*
X71025998Y-55821717D01*
X71023680Y-55815060D01*
X71019872Y-55808965D01*
X70940209Y-55681479D01*
X70936476Y-55675505D01*
X70863946Y-55602467D01*
X70825486Y-55563737D01*
X70825482Y-55563734D01*
X70820522Y-55558739D01*
X70681580Y-55470563D01*
X70630662Y-55452432D01*
X70533189Y-55417723D01*
X70533187Y-55417722D01*
X70526555Y-55415361D01*
X70519569Y-55414528D01*
X70519565Y-55414527D01*
X70405071Y-55400875D01*
X70363153Y-55395877D01*
X70356150Y-55396613D01*
X70356149Y-55396613D01*
X70312935Y-55401155D01*
X70199495Y-55413078D01*
X70192827Y-55415348D01*
X70050382Y-55463840D01*
X70050379Y-55463841D01*
X70043715Y-55466110D01*
X69903555Y-55552337D01*
X69872291Y-55582953D01*
X69803280Y-55650534D01*
X69785982Y-55667473D01*
X69696838Y-55805797D01*
X69694427Y-55812420D01*
X69694426Y-55812423D01*
X69642966Y-55953809D01*
X69642965Y-55953814D01*
X69640556Y-55960432D01*
X69619931Y-56123694D01*
X68425966Y-56123694D01*
X68374386Y-56105327D01*
X68297989Y-56078123D01*
X68297987Y-56078122D01*
X68291355Y-56075761D01*
X68284369Y-56074928D01*
X68284365Y-56074927D01*
X68144759Y-56058281D01*
X68127953Y-56056277D01*
X68120950Y-56057013D01*
X68120949Y-56057013D01*
X68094462Y-56059797D01*
X67964295Y-56073478D01*
X67957627Y-56075748D01*
X67815182Y-56124240D01*
X67815179Y-56124241D01*
X67808515Y-56126510D01*
X67762839Y-56154610D01*
X67689971Y-56199439D01*
X67668355Y-56212737D01*
X67640230Y-56240279D01*
X67585498Y-56293877D01*
X67550782Y-56327873D01*
X67461638Y-56466197D01*
X67459227Y-56472820D01*
X67459226Y-56472823D01*
X67407766Y-56614209D01*
X67407765Y-56614214D01*
X67405356Y-56620832D01*
X67384731Y-56784094D01*
X66149521Y-56784094D01*
X66184614Y-56731275D01*
X66184615Y-56731273D01*
X66188515Y-56725403D01*
X66246951Y-56571568D01*
X66256921Y-56500625D01*
X66269302Y-56412534D01*
X66269303Y-56412527D01*
X66269853Y-56408610D01*
X66270141Y-56388000D01*
X66251798Y-56224466D01*
X66249392Y-56217555D01*
X66219148Y-56130707D01*
X66197680Y-56069060D01*
X66190214Y-56057111D01*
X66114209Y-55935479D01*
X66110476Y-55929505D01*
X66048555Y-55867150D01*
X65999486Y-55817737D01*
X65999482Y-55817734D01*
X65994522Y-55812739D01*
X65855580Y-55724563D01*
X65806447Y-55707068D01*
X65707189Y-55671723D01*
X65707187Y-55671722D01*
X65700555Y-55669361D01*
X65693569Y-55668528D01*
X65693565Y-55668527D01*
X65579071Y-55654875D01*
X65537153Y-55649877D01*
X65530150Y-55650613D01*
X65530149Y-55650613D01*
X65486935Y-55655155D01*
X65373495Y-55667078D01*
X65366827Y-55669348D01*
X65224382Y-55717840D01*
X65224379Y-55717841D01*
X65217715Y-55720110D01*
X65077555Y-55806337D01*
X65059730Y-55823793D01*
X64990695Y-55891397D01*
X64959982Y-55921473D01*
X64870838Y-56059797D01*
X64868427Y-56066420D01*
X64868426Y-56066423D01*
X64816966Y-56207809D01*
X64816965Y-56207814D01*
X64814556Y-56214432D01*
X64793931Y-56377694D01*
X32417015Y-56377694D01*
X32415680Y-56373860D01*
X32400187Y-56349065D01*
X32332209Y-56240279D01*
X32328476Y-56234305D01*
X32320500Y-56226273D01*
X32240788Y-56146002D01*
X32206981Y-56083571D01*
X32212293Y-56012773D01*
X32243302Y-55965972D01*
X32254884Y-55954943D01*
X32315449Y-55897268D01*
X32331458Y-55873173D01*
X32402614Y-55766075D01*
X32402615Y-55766073D01*
X32406515Y-55760203D01*
X32461408Y-55615694D01*
X41679931Y-55615694D01*
X41695989Y-55779468D01*
X41747932Y-55935615D01*
X41764761Y-55963403D01*
X41827681Y-56067294D01*
X41833179Y-56076373D01*
X41838070Y-56081438D01*
X41838071Y-56081439D01*
X41889543Y-56134740D01*
X41947491Y-56194747D01*
X42085189Y-56284854D01*
X42239428Y-56342215D01*
X42246409Y-56343146D01*
X42246411Y-56343147D01*
X42395561Y-56363048D01*
X42395565Y-56363048D01*
X42402542Y-56363979D01*
X42409553Y-56363341D01*
X42409557Y-56363341D01*
X42559403Y-56349704D01*
X42559404Y-56349704D01*
X42566424Y-56349065D01*
X42643092Y-56324154D01*
X42716230Y-56300390D01*
X42716233Y-56300389D01*
X42722929Y-56298213D01*
X42864279Y-56213951D01*
X42983449Y-56100468D01*
X42987350Y-56094597D01*
X43070614Y-55969275D01*
X43070615Y-55969273D01*
X43074515Y-55963403D01*
X43132951Y-55809568D01*
X43145230Y-55722198D01*
X43155302Y-55650534D01*
X43155303Y-55650527D01*
X43155853Y-55646610D01*
X43156141Y-55626000D01*
X43154985Y-55615694D01*
X43965931Y-55615694D01*
X43981989Y-55779468D01*
X44033932Y-55935615D01*
X44050761Y-55963403D01*
X44113681Y-56067294D01*
X44119179Y-56076373D01*
X44124070Y-56081438D01*
X44124071Y-56081439D01*
X44175543Y-56134740D01*
X44233491Y-56194747D01*
X44371189Y-56284854D01*
X44525428Y-56342215D01*
X44532409Y-56343146D01*
X44532411Y-56343147D01*
X44681561Y-56363048D01*
X44681565Y-56363048D01*
X44688542Y-56363979D01*
X44695553Y-56363341D01*
X44695557Y-56363341D01*
X44845403Y-56349704D01*
X44845404Y-56349704D01*
X44852424Y-56349065D01*
X44953688Y-56316162D01*
X45024655Y-56314134D01*
X45036532Y-56317893D01*
X45101931Y-56342215D01*
X45108916Y-56343147D01*
X45258064Y-56363048D01*
X45258068Y-56363048D01*
X45265045Y-56363979D01*
X45272056Y-56363341D01*
X45272060Y-56363341D01*
X45421906Y-56349704D01*
X45421907Y-56349704D01*
X45428927Y-56349065D01*
X45505595Y-56324154D01*
X45578733Y-56300390D01*
X45578736Y-56300389D01*
X45585432Y-56298213D01*
X45726782Y-56213951D01*
X45845952Y-56100468D01*
X45849853Y-56094597D01*
X45933117Y-55969275D01*
X45933118Y-55969273D01*
X45937018Y-55963403D01*
X45995454Y-55809568D01*
X46007733Y-55722198D01*
X46017805Y-55650534D01*
X46017806Y-55650527D01*
X46018356Y-55646610D01*
X46018644Y-55626000D01*
X46000301Y-55462466D01*
X45995032Y-55447334D01*
X45951614Y-55322657D01*
X45946183Y-55307060D01*
X45920692Y-55266265D01*
X45862712Y-55173479D01*
X45858979Y-55167505D01*
X45786578Y-55094597D01*
X45747989Y-55055737D01*
X45747985Y-55055734D01*
X45743025Y-55050739D01*
X45604083Y-54962563D01*
X45508718Y-54928605D01*
X45455692Y-54909723D01*
X45455690Y-54909722D01*
X45449058Y-54907361D01*
X45442072Y-54906528D01*
X45442068Y-54906527D01*
X45327574Y-54892875D01*
X45285656Y-54887877D01*
X45278653Y-54888613D01*
X45278652Y-54888613D01*
X45129006Y-54904341D01*
X45129002Y-54904342D01*
X45121998Y-54905078D01*
X45032731Y-54935467D01*
X44961799Y-54938485D01*
X44949859Y-54934888D01*
X44879189Y-54909723D01*
X44879187Y-54909722D01*
X44872555Y-54907361D01*
X44865569Y-54906528D01*
X44865565Y-54906527D01*
X44751071Y-54892875D01*
X44709153Y-54887877D01*
X44702150Y-54888613D01*
X44702149Y-54888613D01*
X44658935Y-54893155D01*
X44545495Y-54905078D01*
X44538827Y-54907348D01*
X44396382Y-54955840D01*
X44396379Y-54955841D01*
X44389715Y-54958110D01*
X44326604Y-54996936D01*
X44272226Y-55030390D01*
X44249555Y-55044337D01*
X44204284Y-55088670D01*
X44153916Y-55137994D01*
X44131982Y-55159473D01*
X44042838Y-55297797D01*
X44040427Y-55304420D01*
X44040426Y-55304423D01*
X43988966Y-55445809D01*
X43988965Y-55445814D01*
X43986556Y-55452432D01*
X43965931Y-55615694D01*
X43154985Y-55615694D01*
X43137798Y-55462466D01*
X43132529Y-55447334D01*
X43089111Y-55322657D01*
X43083680Y-55307060D01*
X43058189Y-55266265D01*
X43000209Y-55173479D01*
X42996476Y-55167505D01*
X42924075Y-55094597D01*
X42885486Y-55055737D01*
X42885482Y-55055734D01*
X42880522Y-55050739D01*
X42741580Y-54962563D01*
X42646215Y-54928605D01*
X42593189Y-54909723D01*
X42593187Y-54909722D01*
X42586555Y-54907361D01*
X42579569Y-54906528D01*
X42579565Y-54906527D01*
X42465071Y-54892875D01*
X42423153Y-54887877D01*
X42416150Y-54888613D01*
X42416149Y-54888613D01*
X42372935Y-54893155D01*
X42259495Y-54905078D01*
X42252827Y-54907348D01*
X42110382Y-54955840D01*
X42110379Y-54955841D01*
X42103715Y-54958110D01*
X42040604Y-54996936D01*
X41986226Y-55030390D01*
X41963555Y-55044337D01*
X41918284Y-55088670D01*
X41867916Y-55137994D01*
X41845982Y-55159473D01*
X41756838Y-55297797D01*
X41754427Y-55304420D01*
X41754426Y-55304423D01*
X41702966Y-55445809D01*
X41702965Y-55445814D01*
X41700556Y-55452432D01*
X41679931Y-55615694D01*
X32461408Y-55615694D01*
X32464951Y-55606368D01*
X32484144Y-55469801D01*
X32487302Y-55447334D01*
X32487303Y-55447327D01*
X32487853Y-55443410D01*
X32488141Y-55422800D01*
X32469798Y-55259266D01*
X32463998Y-55242609D01*
X32417998Y-55110517D01*
X32415680Y-55103860D01*
X32400187Y-55079065D01*
X32332209Y-54970279D01*
X32328476Y-54964305D01*
X32259456Y-54894802D01*
X32217486Y-54852537D01*
X32217482Y-54852534D01*
X32212522Y-54847539D01*
X32073580Y-54759363D01*
X31934675Y-54709901D01*
X31925189Y-54706523D01*
X31925187Y-54706522D01*
X31918555Y-54704161D01*
X31911569Y-54703328D01*
X31911565Y-54703327D01*
X31797071Y-54689675D01*
X31755153Y-54684677D01*
X31748150Y-54685413D01*
X31748149Y-54685413D01*
X31704935Y-54689955D01*
X31591495Y-54701878D01*
X31584827Y-54704148D01*
X31442382Y-54752640D01*
X31442379Y-54752641D01*
X31435715Y-54754910D01*
X31295555Y-54841137D01*
X31283914Y-54852537D01*
X31188678Y-54945799D01*
X31177982Y-54956273D01*
X31088838Y-55094597D01*
X31086427Y-55101220D01*
X31086426Y-55101223D01*
X31034966Y-55242609D01*
X31034965Y-55242614D01*
X31032556Y-55249232D01*
X31011931Y-55412494D01*
X31027989Y-55576268D01*
X31079932Y-55732415D01*
X31165179Y-55873173D01*
X31170070Y-55878238D01*
X31170071Y-55878239D01*
X31259736Y-55971090D01*
X31292668Y-56033987D01*
X31286368Y-56104703D01*
X31257257Y-56148640D01*
X31183017Y-56221341D01*
X31183011Y-56221348D01*
X31177982Y-56226273D01*
X31088838Y-56364597D01*
X31086427Y-56371220D01*
X31086426Y-56371223D01*
X31034966Y-56512609D01*
X31034965Y-56512614D01*
X31032556Y-56519232D01*
X31011931Y-56682494D01*
X26696086Y-56682494D01*
X26780892Y-56500625D01*
X26780892Y-56500624D01*
X26783215Y-56495643D01*
X26790225Y-56469484D01*
X26841050Y-56279802D01*
X26841050Y-56279800D01*
X26842474Y-56274487D01*
X26862429Y-56046400D01*
X26842474Y-55818313D01*
X26841050Y-55812998D01*
X26784638Y-55602467D01*
X26784637Y-55602465D01*
X26783215Y-55597157D01*
X26776592Y-55582953D01*
X26688780Y-55394638D01*
X26688777Y-55394633D01*
X26686454Y-55389651D01*
X26583494Y-55242609D01*
X26558288Y-55206611D01*
X26558286Y-55206608D01*
X26555129Y-55202100D01*
X26393231Y-55040202D01*
X26388723Y-55037045D01*
X26388720Y-55037043D01*
X26233854Y-54928605D01*
X26205680Y-54908877D01*
X26200698Y-54906554D01*
X26200693Y-54906551D01*
X26026008Y-54825095D01*
X25972723Y-54778178D01*
X25953262Y-54709901D01*
X25973804Y-54641941D01*
X26027826Y-54595875D01*
X26079258Y-54584900D01*
X26397065Y-54584900D01*
X26459247Y-54578145D01*
X26595636Y-54527015D01*
X26712192Y-54439661D01*
X26799546Y-54323105D01*
X26850676Y-54186716D01*
X26857431Y-54124534D01*
X26857431Y-52428266D01*
X26856022Y-52415294D01*
X30910331Y-52415294D01*
X30926389Y-52579068D01*
X30978332Y-52735215D01*
X30981981Y-52741240D01*
X31022014Y-52807341D01*
X31063579Y-52875973D01*
X31177891Y-52994347D01*
X31315589Y-53084454D01*
X31469828Y-53141815D01*
X31476809Y-53142746D01*
X31476811Y-53142747D01*
X31625961Y-53162648D01*
X31625965Y-53162648D01*
X31632942Y-53163579D01*
X31639953Y-53162941D01*
X31639957Y-53162941D01*
X31789803Y-53149304D01*
X31789804Y-53149304D01*
X31796824Y-53148665D01*
X31858802Y-53128527D01*
X31946630Y-53099990D01*
X31946633Y-53099989D01*
X31953329Y-53097813D01*
X32094679Y-53013551D01*
X32213849Y-52900068D01*
X32220171Y-52890553D01*
X32301014Y-52768875D01*
X32301015Y-52768873D01*
X32304915Y-52763003D01*
X32321214Y-52720094D01*
X36701531Y-52720094D01*
X36717589Y-52883868D01*
X36769532Y-53040015D01*
X36773181Y-53046040D01*
X36847782Y-53169219D01*
X36854779Y-53180773D01*
X36859670Y-53185838D01*
X36859671Y-53185839D01*
X36911439Y-53239446D01*
X36969091Y-53299147D01*
X37106789Y-53389254D01*
X37261028Y-53446615D01*
X37268009Y-53447546D01*
X37268011Y-53447547D01*
X37417161Y-53467448D01*
X37417165Y-53467448D01*
X37424142Y-53468379D01*
X37431153Y-53467741D01*
X37431157Y-53467741D01*
X37581003Y-53454104D01*
X37581004Y-53454104D01*
X37588024Y-53453465D01*
X37616662Y-53444160D01*
X37737830Y-53404790D01*
X37737833Y-53404789D01*
X37744529Y-53402613D01*
X37750580Y-53399006D01*
X37750582Y-53399005D01*
X37802239Y-53368212D01*
X37870994Y-53350512D01*
X37938404Y-53372794D01*
X37983065Y-53427984D01*
X37987565Y-53442423D01*
X37987589Y-53442668D01*
X38039532Y-53598815D01*
X38051522Y-53618613D01*
X38073682Y-53655202D01*
X38124779Y-53739573D01*
X38239091Y-53857947D01*
X38376789Y-53948054D01*
X38531028Y-54005415D01*
X38538009Y-54006346D01*
X38538011Y-54006347D01*
X38687161Y-54026248D01*
X38687165Y-54026248D01*
X38694142Y-54027179D01*
X38701153Y-54026541D01*
X38701156Y-54026541D01*
X38735847Y-54023384D01*
X38775300Y-54019793D01*
X38844952Y-54033538D01*
X38896117Y-54082759D01*
X38912548Y-54151828D01*
X38909186Y-54174902D01*
X38908967Y-54175809D01*
X38906556Y-54182432D01*
X38885931Y-54345694D01*
X38901989Y-54509468D01*
X38953932Y-54665615D01*
X38965922Y-54685413D01*
X39008012Y-54754910D01*
X39039179Y-54806373D01*
X39044070Y-54811438D01*
X39044071Y-54811439D01*
X39058398Y-54826275D01*
X39153491Y-54924747D01*
X39291189Y-55014854D01*
X39445428Y-55072215D01*
X39452409Y-55073146D01*
X39452411Y-55073147D01*
X39601561Y-55093048D01*
X39601565Y-55093048D01*
X39608542Y-55093979D01*
X39615553Y-55093341D01*
X39615557Y-55093341D01*
X39765403Y-55079704D01*
X39765404Y-55079704D01*
X39772424Y-55079065D01*
X39844626Y-55055605D01*
X39922230Y-55030390D01*
X39922233Y-55030389D01*
X39928929Y-55028213D01*
X39934980Y-55024606D01*
X39934982Y-55024605D01*
X39981398Y-54996936D01*
X40050153Y-54979236D01*
X40117562Y-55001518D01*
X40136551Y-55017638D01*
X40164592Y-55046675D01*
X40164597Y-55046679D01*
X40169491Y-55051747D01*
X40307189Y-55141854D01*
X40461428Y-55199215D01*
X40468409Y-55200146D01*
X40468411Y-55200147D01*
X40617561Y-55220048D01*
X40617565Y-55220048D01*
X40624542Y-55220979D01*
X40631553Y-55220341D01*
X40631557Y-55220341D01*
X40781403Y-55206704D01*
X40781404Y-55206704D01*
X40788424Y-55206065D01*
X40888713Y-55173479D01*
X40938230Y-55157390D01*
X40938233Y-55157389D01*
X40944929Y-55155213D01*
X41086279Y-55070951D01*
X41205449Y-54957468D01*
X41209350Y-54951597D01*
X41292614Y-54826275D01*
X41292615Y-54826273D01*
X41296515Y-54820403D01*
X41354951Y-54666568D01*
X41366429Y-54584900D01*
X41377302Y-54507534D01*
X41377303Y-54507527D01*
X41377853Y-54503610D01*
X41378141Y-54483000D01*
X41359798Y-54319466D01*
X41305680Y-54164060D01*
X41218476Y-54024505D01*
X41142557Y-53948054D01*
X41107486Y-53912737D01*
X41107482Y-53912734D01*
X41102522Y-53907739D01*
X40963580Y-53819563D01*
X40854550Y-53780739D01*
X40815189Y-53766723D01*
X40815187Y-53766722D01*
X40808555Y-53764361D01*
X40801569Y-53763528D01*
X40801565Y-53763527D01*
X40687071Y-53749875D01*
X40645153Y-53744877D01*
X40638150Y-53745613D01*
X40638149Y-53745613D01*
X40594935Y-53750155D01*
X40481495Y-53762078D01*
X40474827Y-53764348D01*
X40332382Y-53812840D01*
X40332379Y-53812841D01*
X40325715Y-53815110D01*
X40283479Y-53841094D01*
X40214981Y-53859752D01*
X40147267Y-53838414D01*
X40128052Y-53822560D01*
X40091486Y-53785737D01*
X40091482Y-53785734D01*
X40086522Y-53780739D01*
X39947580Y-53692563D01*
X39878063Y-53667809D01*
X39799189Y-53639723D01*
X39799187Y-53639722D01*
X39792555Y-53637361D01*
X39785569Y-53636528D01*
X39785565Y-53636527D01*
X39671071Y-53622875D01*
X39629153Y-53617877D01*
X39622150Y-53618613D01*
X39622149Y-53618613D01*
X39560049Y-53625140D01*
X39490211Y-53612368D01*
X39438364Y-53563866D01*
X39420970Y-53495033D01*
X39424006Y-53474203D01*
X39424551Y-53472768D01*
X39436549Y-53387396D01*
X39446902Y-53313734D01*
X39446903Y-53313727D01*
X39447453Y-53309810D01*
X39447741Y-53289200D01*
X39429398Y-53125666D01*
X39415047Y-53084454D01*
X39397243Y-53033329D01*
X39375280Y-52970260D01*
X39288076Y-52830705D01*
X39214301Y-52756413D01*
X39177086Y-52718937D01*
X39177082Y-52718934D01*
X39172122Y-52713939D01*
X39033180Y-52625763D01*
X38941022Y-52592947D01*
X38884789Y-52572923D01*
X38884787Y-52572922D01*
X38878155Y-52570561D01*
X38871169Y-52569728D01*
X38871165Y-52569727D01*
X38756671Y-52556075D01*
X38714753Y-52551077D01*
X38707750Y-52551813D01*
X38707749Y-52551813D01*
X38664535Y-52556355D01*
X38551095Y-52568278D01*
X38544427Y-52570548D01*
X38401982Y-52619040D01*
X38401979Y-52619041D01*
X38395315Y-52621310D01*
X38366972Y-52638747D01*
X38348374Y-52650188D01*
X38279873Y-52668846D01*
X38212159Y-52647507D01*
X38166731Y-52592947D01*
X38160023Y-52572435D01*
X38159398Y-52566866D01*
X38153598Y-52550209D01*
X38135309Y-52497692D01*
X38105280Y-52411460D01*
X38072303Y-52358685D01*
X38021811Y-52277882D01*
X38021810Y-52277881D01*
X38018076Y-52271905D01*
X38018430Y-52271684D01*
X37993389Y-52209825D01*
X38006556Y-52140060D01*
X38054253Y-52089136D01*
X38079708Y-52073962D01*
X38165279Y-52022951D01*
X38284449Y-51909468D01*
X38288465Y-51903424D01*
X38371614Y-51778275D01*
X38371615Y-51778273D01*
X38375515Y-51772403D01*
X38401463Y-51704094D01*
X45896331Y-51704094D01*
X45912389Y-51867868D01*
X45964332Y-52024015D01*
X45967981Y-52030040D01*
X46040401Y-52149618D01*
X46049579Y-52164773D01*
X46163891Y-52283147D01*
X46301589Y-52373254D01*
X46455828Y-52430615D01*
X46462809Y-52431546D01*
X46462811Y-52431547D01*
X46611961Y-52451448D01*
X46611965Y-52451448D01*
X46618942Y-52452379D01*
X46625953Y-52451741D01*
X46625957Y-52451741D01*
X46775803Y-52438104D01*
X46775804Y-52438104D01*
X46782824Y-52437465D01*
X46811462Y-52428160D01*
X46932630Y-52388790D01*
X46932633Y-52388789D01*
X46939329Y-52386613D01*
X47080679Y-52302351D01*
X47199849Y-52188868D01*
X47208213Y-52176279D01*
X47287014Y-52057675D01*
X47287015Y-52057673D01*
X47290915Y-52051803D01*
X47349351Y-51897968D01*
X47368544Y-51761401D01*
X47371702Y-51738934D01*
X47371703Y-51738927D01*
X47372253Y-51735010D01*
X47372541Y-51714400D01*
X47354198Y-51550866D01*
X47348398Y-51534209D01*
X47313849Y-51435000D01*
X47300080Y-51395460D01*
X47295689Y-51388432D01*
X47216609Y-51261879D01*
X47212876Y-51255905D01*
X47142217Y-51184751D01*
X47101886Y-51144137D01*
X47101882Y-51144134D01*
X47096922Y-51139139D01*
X46957980Y-51050963D01*
X46908847Y-51033468D01*
X46809589Y-50998123D01*
X46809587Y-50998122D01*
X46802955Y-50995761D01*
X46795969Y-50994928D01*
X46795965Y-50994927D01*
X46673602Y-50980337D01*
X46639553Y-50976277D01*
X46632550Y-50977013D01*
X46632549Y-50977013D01*
X46600924Y-50980337D01*
X46475895Y-50993478D01*
X46469227Y-50995748D01*
X46326782Y-51044240D01*
X46326779Y-51044241D01*
X46320115Y-51046510D01*
X46179955Y-51132737D01*
X46169194Y-51143275D01*
X46069990Y-51240423D01*
X46062382Y-51247873D01*
X45973238Y-51386197D01*
X45970827Y-51392820D01*
X45970826Y-51392823D01*
X45919366Y-51534209D01*
X45919365Y-51534214D01*
X45916956Y-51540832D01*
X45896331Y-51704094D01*
X38401463Y-51704094D01*
X38433951Y-51618568D01*
X38448681Y-51513760D01*
X38456302Y-51459534D01*
X38456303Y-51459527D01*
X38456853Y-51455610D01*
X38457141Y-51435000D01*
X38438798Y-51271466D01*
X38435460Y-51261879D01*
X38408601Y-51184751D01*
X38384680Y-51116060D01*
X38341635Y-51047173D01*
X38301209Y-50982479D01*
X38297476Y-50976505D01*
X38233857Y-50912440D01*
X38186486Y-50864737D01*
X38186482Y-50864734D01*
X38181522Y-50859739D01*
X38042580Y-50771563D01*
X37963093Y-50743259D01*
X37894189Y-50718723D01*
X37894187Y-50718722D01*
X37887555Y-50716361D01*
X37880569Y-50715528D01*
X37880565Y-50715527D01*
X37766071Y-50701875D01*
X37724153Y-50696877D01*
X37717150Y-50697613D01*
X37717149Y-50697613D01*
X37673935Y-50702155D01*
X37560495Y-50714078D01*
X37553827Y-50716348D01*
X37411382Y-50764840D01*
X37411379Y-50764841D01*
X37404715Y-50767110D01*
X37264555Y-50853337D01*
X37239800Y-50877579D01*
X37162305Y-50953468D01*
X37146982Y-50968473D01*
X37057838Y-51106797D01*
X37055427Y-51113420D01*
X37055426Y-51113423D01*
X37003966Y-51254809D01*
X37003965Y-51254814D01*
X37001556Y-51261432D01*
X36980931Y-51424694D01*
X36996989Y-51588468D01*
X37048932Y-51744615D01*
X37134179Y-51885373D01*
X37139066Y-51890434D01*
X37139181Y-51890583D01*
X37164897Y-51956759D01*
X37150753Y-52026332D01*
X37105374Y-52074777D01*
X36985155Y-52148737D01*
X36957030Y-52176279D01*
X36879674Y-52252032D01*
X36867582Y-52263873D01*
X36778438Y-52402197D01*
X36776027Y-52408820D01*
X36776026Y-52408823D01*
X36724566Y-52550209D01*
X36724565Y-52550214D01*
X36722156Y-52556832D01*
X36701531Y-52720094D01*
X32321214Y-52720094D01*
X32363351Y-52609168D01*
X32376677Y-52514350D01*
X32385702Y-52450134D01*
X32385703Y-52450127D01*
X32386253Y-52446210D01*
X32386541Y-52425600D01*
X32368198Y-52262066D01*
X32362398Y-52245409D01*
X32330449Y-52153666D01*
X32314080Y-52106660D01*
X32289115Y-52066707D01*
X32230609Y-51973079D01*
X32226876Y-51967105D01*
X32158220Y-51897968D01*
X32115886Y-51855337D01*
X32115882Y-51855334D01*
X32110922Y-51850339D01*
X31971980Y-51762163D01*
X31914786Y-51741797D01*
X31823589Y-51709323D01*
X31823587Y-51709322D01*
X31816955Y-51706961D01*
X31809969Y-51706128D01*
X31809965Y-51706127D01*
X31695471Y-51692475D01*
X31653553Y-51687477D01*
X31646550Y-51688213D01*
X31646549Y-51688213D01*
X31603335Y-51692755D01*
X31489895Y-51704678D01*
X31483227Y-51706948D01*
X31340782Y-51755440D01*
X31340779Y-51755441D01*
X31334115Y-51757710D01*
X31193955Y-51843937D01*
X31076382Y-51959073D01*
X30987238Y-52097397D01*
X30984827Y-52104020D01*
X30984826Y-52104023D01*
X30933366Y-52245409D01*
X30933365Y-52245414D01*
X30930956Y-52252032D01*
X30910331Y-52415294D01*
X26856022Y-52415294D01*
X26850676Y-52366084D01*
X26799546Y-52229695D01*
X26712192Y-52113139D01*
X26595636Y-52025785D01*
X26459247Y-51974655D01*
X26397065Y-51967900D01*
X24700797Y-51967900D01*
X24638615Y-51974655D01*
X24502226Y-52025785D01*
X24385670Y-52113139D01*
X24298316Y-52229695D01*
X24247186Y-52366084D01*
X24240431Y-52428266D01*
X24240431Y-54124534D01*
X24247186Y-54186716D01*
X24298316Y-54323105D01*
X24385670Y-54439661D01*
X24502226Y-54527015D01*
X24638615Y-54578145D01*
X24700797Y-54584900D01*
X25018604Y-54584900D01*
X25086725Y-54604902D01*
X25133218Y-54658558D01*
X25143322Y-54728832D01*
X25113828Y-54793412D01*
X25071854Y-54825095D01*
X24897169Y-54906551D01*
X24897164Y-54906554D01*
X24892182Y-54908877D01*
X24864008Y-54928605D01*
X24709142Y-55037043D01*
X24709139Y-55037045D01*
X24704631Y-55040202D01*
X24542733Y-55202100D01*
X24539576Y-55206608D01*
X24539574Y-55206611D01*
X24514368Y-55242609D01*
X24411408Y-55389651D01*
X24409085Y-55394633D01*
X24409082Y-55394638D01*
X24321270Y-55582953D01*
X24314647Y-55597157D01*
X24313225Y-55602465D01*
X24313224Y-55602467D01*
X24256812Y-55812998D01*
X24255388Y-55818313D01*
X24235433Y-56046400D01*
X24255388Y-56274487D01*
X24256812Y-56279800D01*
X24256812Y-56279802D01*
X24307638Y-56469484D01*
X24314647Y-56495643D01*
X24316970Y-56500624D01*
X24316970Y-56500625D01*
X24409082Y-56698162D01*
X24409085Y-56698167D01*
X24411408Y-56703149D01*
X24472545Y-56790462D01*
X24532698Y-56876368D01*
X24542733Y-56890700D01*
X24704631Y-57052598D01*
X24709139Y-57055755D01*
X24709142Y-57055757D01*
X24785020Y-57108887D01*
X24892182Y-57183923D01*
X24897164Y-57186246D01*
X24897169Y-57186249D01*
X25089420Y-57275896D01*
X25099688Y-57280684D01*
X25104996Y-57282106D01*
X25104998Y-57282107D01*
X25207950Y-57309693D01*
X25268573Y-57346645D01*
X25299594Y-57410506D01*
X25291166Y-57481000D01*
X25245963Y-57535747D01*
X25207950Y-57553107D01*
X25104998Y-57580693D01*
X25104996Y-57580694D01*
X25099688Y-57582116D01*
X25094707Y-57584439D01*
X25094706Y-57584439D01*
X24897169Y-57676551D01*
X24897164Y-57676554D01*
X24892182Y-57678877D01*
X24875436Y-57690603D01*
X24709142Y-57807043D01*
X24709139Y-57807045D01*
X24704631Y-57810202D01*
X24542733Y-57972100D01*
X24539576Y-57976608D01*
X24539574Y-57976611D01*
X24514757Y-58012054D01*
X24411408Y-58159651D01*
X24409085Y-58164633D01*
X24409082Y-58164638D01*
X24316970Y-58362175D01*
X24314647Y-58367157D01*
X24313225Y-58372465D01*
X24313224Y-58372467D01*
X24257722Y-58579603D01*
X24255388Y-58588313D01*
X24235433Y-58816400D01*
X24255388Y-59044487D01*
X24256812Y-59049800D01*
X24256812Y-59049802D01*
X24310648Y-59250717D01*
X24314647Y-59265643D01*
X24316970Y-59270624D01*
X24316970Y-59270625D01*
X24409082Y-59468162D01*
X24409085Y-59468167D01*
X24411408Y-59473149D01*
X24542733Y-59660700D01*
X24704631Y-59822598D01*
X24709139Y-59825755D01*
X24709142Y-59825757D01*
X24766514Y-59865929D01*
X24892182Y-59953923D01*
X24897164Y-59956246D01*
X24897169Y-59956249D01*
X25071346Y-60037468D01*
X25099688Y-60050684D01*
X25104996Y-60052106D01*
X25104998Y-60052107D01*
X25207950Y-60079693D01*
X25268573Y-60116645D01*
X25299594Y-60180506D01*
X25291166Y-60251000D01*
X25245963Y-60305747D01*
X25207950Y-60323107D01*
X25104998Y-60350693D01*
X25104996Y-60350694D01*
X25099688Y-60352116D01*
X25094707Y-60354439D01*
X25094706Y-60354439D01*
X24897169Y-60446551D01*
X24897164Y-60446554D01*
X24892182Y-60448877D01*
X24814114Y-60503541D01*
X24709142Y-60577043D01*
X24709139Y-60577045D01*
X24704631Y-60580202D01*
X24542733Y-60742100D01*
X24539576Y-60746608D01*
X24539574Y-60746611D01*
X24484833Y-60824789D01*
X24411408Y-60929651D01*
X24409085Y-60934633D01*
X24409082Y-60934638D01*
X24316970Y-61132175D01*
X24314647Y-61137157D01*
X24313225Y-61142465D01*
X24313224Y-61142467D01*
X24256837Y-61352905D01*
X24255388Y-61358313D01*
X24235433Y-61586400D01*
X24255388Y-61814487D01*
X24256812Y-61819800D01*
X24256812Y-61819802D01*
X24304152Y-61996474D01*
X24314647Y-62035643D01*
X24316970Y-62040624D01*
X24316970Y-62040625D01*
X24409082Y-62238162D01*
X24409085Y-62238167D01*
X24411408Y-62243149D01*
X24542733Y-62430700D01*
X24704631Y-62592598D01*
X24709139Y-62595755D01*
X24709142Y-62595757D01*
X24787320Y-62650498D01*
X24892182Y-62723923D01*
X24897164Y-62726246D01*
X24897169Y-62726249D01*
X25020424Y-62783723D01*
X25099688Y-62820684D01*
X25104996Y-62822106D01*
X25104998Y-62822107D01*
X25207950Y-62849693D01*
X25268573Y-62886645D01*
X25299594Y-62950506D01*
X25291166Y-63021000D01*
X25245963Y-63075747D01*
X25207950Y-63093107D01*
X25104998Y-63120693D01*
X25104996Y-63120694D01*
X25099688Y-63122116D01*
X25094707Y-63124439D01*
X25094706Y-63124439D01*
X24897169Y-63216551D01*
X24897164Y-63216554D01*
X24892182Y-63218877D01*
X24846590Y-63250801D01*
X24709142Y-63347043D01*
X24709139Y-63347045D01*
X24704631Y-63350202D01*
X24542733Y-63512100D01*
X24539576Y-63516608D01*
X24539574Y-63516611D01*
X24494580Y-63580870D01*
X24411408Y-63699651D01*
X24409085Y-63704633D01*
X24409082Y-63704638D01*
X24344435Y-63843275D01*
X24314647Y-63907157D01*
X24313225Y-63912465D01*
X24313224Y-63912467D01*
X24259960Y-64111249D01*
X24255388Y-64128313D01*
X24235433Y-64356400D01*
X17780500Y-64356400D01*
X17780500Y-62971400D01*
X21395433Y-62971400D01*
X21415388Y-63199487D01*
X21416812Y-63204800D01*
X21416812Y-63204802D01*
X21451277Y-63333424D01*
X21474647Y-63420643D01*
X21476970Y-63425624D01*
X21476970Y-63425625D01*
X21569082Y-63623162D01*
X21569085Y-63623167D01*
X21571408Y-63628149D01*
X21624966Y-63704638D01*
X21693791Y-63802929D01*
X21702733Y-63815700D01*
X21864631Y-63977598D01*
X21869139Y-63980755D01*
X21869142Y-63980757D01*
X21947320Y-64035498D01*
X22052182Y-64108923D01*
X22057164Y-64111246D01*
X22057169Y-64111249D01*
X22192577Y-64174390D01*
X22259688Y-64205684D01*
X22264996Y-64207106D01*
X22264998Y-64207107D01*
X22475529Y-64263519D01*
X22475531Y-64263519D01*
X22480844Y-64264943D01*
X22708931Y-64284898D01*
X22937018Y-64264943D01*
X22942331Y-64263519D01*
X22942333Y-64263519D01*
X23152864Y-64207107D01*
X23152866Y-64207106D01*
X23158174Y-64205684D01*
X23225285Y-64174390D01*
X23360693Y-64111249D01*
X23360698Y-64111246D01*
X23365680Y-64108923D01*
X23470542Y-64035498D01*
X23548720Y-63980757D01*
X23548723Y-63980755D01*
X23553231Y-63977598D01*
X23715129Y-63815700D01*
X23724072Y-63802929D01*
X23792896Y-63704638D01*
X23846454Y-63628149D01*
X23848777Y-63623167D01*
X23848780Y-63623162D01*
X23940892Y-63425625D01*
X23940892Y-63425624D01*
X23943215Y-63420643D01*
X23966586Y-63333424D01*
X24001050Y-63204802D01*
X24001050Y-63204800D01*
X24002474Y-63199487D01*
X24022429Y-62971400D01*
X24002474Y-62743313D01*
X23997902Y-62726249D01*
X23944638Y-62527467D01*
X23944637Y-62527465D01*
X23943215Y-62522157D01*
X23940892Y-62517175D01*
X23848780Y-62319638D01*
X23848777Y-62319633D01*
X23846454Y-62314651D01*
X23715129Y-62127100D01*
X23553231Y-61965202D01*
X23548723Y-61962045D01*
X23548720Y-61962043D01*
X23424852Y-61875310D01*
X23365680Y-61833877D01*
X23360698Y-61831554D01*
X23360693Y-61831551D01*
X23163156Y-61739439D01*
X23163155Y-61739439D01*
X23158174Y-61737116D01*
X23152866Y-61735694D01*
X23152864Y-61735693D01*
X23049912Y-61708107D01*
X22989289Y-61671155D01*
X22958268Y-61607294D01*
X22966696Y-61536800D01*
X23011899Y-61482053D01*
X23049912Y-61464693D01*
X23152864Y-61437107D01*
X23152866Y-61437106D01*
X23158174Y-61435684D01*
X23290129Y-61374153D01*
X23360693Y-61341249D01*
X23360698Y-61341246D01*
X23365680Y-61338923D01*
X23520311Y-61230649D01*
X23548720Y-61210757D01*
X23548723Y-61210755D01*
X23553231Y-61207598D01*
X23715129Y-61045700D01*
X23723456Y-61033809D01*
X23780145Y-60952848D01*
X23846454Y-60858149D01*
X23848777Y-60853167D01*
X23848780Y-60853162D01*
X23940892Y-60655625D01*
X23940892Y-60655624D01*
X23943215Y-60650643D01*
X23945066Y-60643737D01*
X24001050Y-60434802D01*
X24001050Y-60434800D01*
X24002474Y-60429487D01*
X24022429Y-60201400D01*
X24002474Y-59973313D01*
X23997902Y-59956249D01*
X23944638Y-59757467D01*
X23944637Y-59757465D01*
X23943215Y-59752157D01*
X23923305Y-59709459D01*
X23848780Y-59549638D01*
X23848777Y-59549633D01*
X23846454Y-59544651D01*
X23715129Y-59357100D01*
X23553231Y-59195202D01*
X23548723Y-59192045D01*
X23548720Y-59192043D01*
X23426609Y-59106540D01*
X23365680Y-59063877D01*
X23360698Y-59061554D01*
X23360693Y-59061551D01*
X23163156Y-58969439D01*
X23163155Y-58969439D01*
X23158174Y-58967116D01*
X23152866Y-58965694D01*
X23152864Y-58965693D01*
X23049912Y-58938107D01*
X22989289Y-58901155D01*
X22958268Y-58837294D01*
X22966696Y-58766800D01*
X23011899Y-58712053D01*
X23049912Y-58694693D01*
X23152864Y-58667107D01*
X23152866Y-58667106D01*
X23158174Y-58665684D01*
X23163156Y-58663361D01*
X23360693Y-58571249D01*
X23360698Y-58571246D01*
X23365680Y-58568923D01*
X23470542Y-58495498D01*
X23548720Y-58440757D01*
X23548723Y-58440755D01*
X23553231Y-58437598D01*
X23715129Y-58275700D01*
X23726929Y-58258849D01*
X23792896Y-58164638D01*
X23846454Y-58088149D01*
X23848777Y-58083167D01*
X23848780Y-58083162D01*
X23940892Y-57885625D01*
X23940892Y-57885624D01*
X23943215Y-57880643D01*
X23994137Y-57690603D01*
X24001050Y-57664802D01*
X24001050Y-57664800D01*
X24002474Y-57659487D01*
X24022429Y-57431400D01*
X24002474Y-57203313D01*
X23997902Y-57186249D01*
X23944638Y-56987467D01*
X23944637Y-56987465D01*
X23943215Y-56982157D01*
X23923958Y-56940859D01*
X23848780Y-56779638D01*
X23848777Y-56779633D01*
X23846454Y-56774651D01*
X23746248Y-56631542D01*
X23718288Y-56591611D01*
X23718286Y-56591608D01*
X23715129Y-56587100D01*
X23553231Y-56425202D01*
X23548723Y-56422045D01*
X23548720Y-56422043D01*
X23441386Y-56346887D01*
X23365680Y-56293877D01*
X23360698Y-56291554D01*
X23360693Y-56291551D01*
X23163156Y-56199439D01*
X23163155Y-56199439D01*
X23158174Y-56197116D01*
X23152866Y-56195694D01*
X23152864Y-56195693D01*
X23049912Y-56168107D01*
X22989289Y-56131155D01*
X22958268Y-56067294D01*
X22966696Y-55996800D01*
X23011899Y-55942053D01*
X23049912Y-55924693D01*
X23152864Y-55897107D01*
X23152866Y-55897106D01*
X23158174Y-55895684D01*
X23167368Y-55891397D01*
X23360693Y-55801249D01*
X23360698Y-55801246D01*
X23365680Y-55798923D01*
X23547340Y-55671723D01*
X23548720Y-55670757D01*
X23548723Y-55670755D01*
X23553231Y-55667598D01*
X23715129Y-55505700D01*
X23755998Y-55447334D01*
X23792896Y-55394638D01*
X23846454Y-55318149D01*
X23848777Y-55313167D01*
X23848780Y-55313162D01*
X23940892Y-55115625D01*
X23940892Y-55115624D01*
X23943215Y-55110643D01*
X23951677Y-55079065D01*
X24001050Y-54894802D01*
X24001050Y-54894800D01*
X24002474Y-54889487D01*
X24022429Y-54661400D01*
X24002474Y-54433313D01*
X23980876Y-54352707D01*
X23944638Y-54217467D01*
X23944637Y-54217465D01*
X23943215Y-54212157D01*
X23933478Y-54191275D01*
X23848780Y-54009638D01*
X23848777Y-54009633D01*
X23846454Y-54004651D01*
X23768570Y-53893422D01*
X23718288Y-53821611D01*
X23718286Y-53821608D01*
X23715129Y-53817100D01*
X23553231Y-53655202D01*
X23548723Y-53652045D01*
X23548720Y-53652043D01*
X23382589Y-53535717D01*
X23365680Y-53523877D01*
X23360698Y-53521554D01*
X23360693Y-53521551D01*
X23163156Y-53429439D01*
X23163155Y-53429439D01*
X23158174Y-53427116D01*
X23152866Y-53425694D01*
X23152864Y-53425693D01*
X22942333Y-53369281D01*
X22942331Y-53369281D01*
X22937018Y-53367857D01*
X22708931Y-53347902D01*
X22480844Y-53367857D01*
X22475531Y-53369281D01*
X22475529Y-53369281D01*
X22264998Y-53425693D01*
X22264996Y-53425694D01*
X22259688Y-53427116D01*
X22254707Y-53429439D01*
X22254706Y-53429439D01*
X22057169Y-53521551D01*
X22057164Y-53521554D01*
X22052182Y-53523877D01*
X22035273Y-53535717D01*
X21869142Y-53652043D01*
X21869139Y-53652045D01*
X21864631Y-53655202D01*
X21702733Y-53817100D01*
X21699576Y-53821608D01*
X21699574Y-53821611D01*
X21649292Y-53893422D01*
X21571408Y-54004651D01*
X21569085Y-54009633D01*
X21569082Y-54009638D01*
X21484384Y-54191275D01*
X21474647Y-54212157D01*
X21473225Y-54217465D01*
X21473224Y-54217467D01*
X21436986Y-54352707D01*
X21415388Y-54433313D01*
X21395433Y-54661400D01*
X21415388Y-54889487D01*
X21416812Y-54894800D01*
X21416812Y-54894802D01*
X21466186Y-55079065D01*
X21474647Y-55110643D01*
X21476970Y-55115624D01*
X21476970Y-55115625D01*
X21569082Y-55313162D01*
X21569085Y-55313167D01*
X21571408Y-55318149D01*
X21624966Y-55394638D01*
X21661865Y-55447334D01*
X21702733Y-55505700D01*
X21864631Y-55667598D01*
X21869139Y-55670755D01*
X21869142Y-55670757D01*
X21870522Y-55671723D01*
X22052182Y-55798923D01*
X22057164Y-55801246D01*
X22057169Y-55801249D01*
X22250494Y-55891397D01*
X22259688Y-55895684D01*
X22264996Y-55897106D01*
X22264998Y-55897107D01*
X22367950Y-55924693D01*
X22428573Y-55961645D01*
X22459594Y-56025506D01*
X22451166Y-56096000D01*
X22405963Y-56150747D01*
X22367950Y-56168107D01*
X22264998Y-56195693D01*
X22264996Y-56195694D01*
X22259688Y-56197116D01*
X22254707Y-56199439D01*
X22254706Y-56199439D01*
X22057169Y-56291551D01*
X22057164Y-56291554D01*
X22052182Y-56293877D01*
X21976476Y-56346887D01*
X21869142Y-56422043D01*
X21869139Y-56422045D01*
X21864631Y-56425202D01*
X21702733Y-56587100D01*
X21699576Y-56591608D01*
X21699574Y-56591611D01*
X21671614Y-56631542D01*
X21571408Y-56774651D01*
X21569085Y-56779633D01*
X21569082Y-56779638D01*
X21493904Y-56940859D01*
X21474647Y-56982157D01*
X21473225Y-56987465D01*
X21473224Y-56987467D01*
X21419960Y-57186249D01*
X21415388Y-57203313D01*
X21395433Y-57431400D01*
X21415388Y-57659487D01*
X21416812Y-57664800D01*
X21416812Y-57664802D01*
X21423726Y-57690603D01*
X21474647Y-57880643D01*
X21476970Y-57885624D01*
X21476970Y-57885625D01*
X21569082Y-58083162D01*
X21569085Y-58083167D01*
X21571408Y-58088149D01*
X21624966Y-58164638D01*
X21690934Y-58258849D01*
X21702733Y-58275700D01*
X21864631Y-58437598D01*
X21869139Y-58440755D01*
X21869142Y-58440757D01*
X21947320Y-58495498D01*
X22052182Y-58568923D01*
X22057164Y-58571246D01*
X22057169Y-58571249D01*
X22254706Y-58663361D01*
X22259688Y-58665684D01*
X22264996Y-58667106D01*
X22264998Y-58667107D01*
X22367950Y-58694693D01*
X22428573Y-58731645D01*
X22459594Y-58795506D01*
X22451166Y-58866000D01*
X22405963Y-58920747D01*
X22367950Y-58938107D01*
X22264998Y-58965693D01*
X22264996Y-58965694D01*
X22259688Y-58967116D01*
X22254707Y-58969439D01*
X22254706Y-58969439D01*
X22057169Y-59061551D01*
X22057164Y-59061554D01*
X22052182Y-59063877D01*
X21991253Y-59106540D01*
X21869142Y-59192043D01*
X21869139Y-59192045D01*
X21864631Y-59195202D01*
X21702733Y-59357100D01*
X21571408Y-59544651D01*
X21569085Y-59549633D01*
X21569082Y-59549638D01*
X21494557Y-59709459D01*
X21474647Y-59752157D01*
X21473225Y-59757465D01*
X21473224Y-59757467D01*
X21419960Y-59956249D01*
X21415388Y-59973313D01*
X21395433Y-60201400D01*
X21415388Y-60429487D01*
X21416812Y-60434800D01*
X21416812Y-60434802D01*
X21472797Y-60643737D01*
X21474647Y-60650643D01*
X21476970Y-60655624D01*
X21476970Y-60655625D01*
X21569082Y-60853162D01*
X21569085Y-60853167D01*
X21571408Y-60858149D01*
X21637717Y-60952848D01*
X21694407Y-61033809D01*
X21702733Y-61045700D01*
X21864631Y-61207598D01*
X21869139Y-61210755D01*
X21869142Y-61210757D01*
X21897551Y-61230649D01*
X22052182Y-61338923D01*
X22057164Y-61341246D01*
X22057169Y-61341249D01*
X22127733Y-61374153D01*
X22259688Y-61435684D01*
X22264996Y-61437106D01*
X22264998Y-61437107D01*
X22367950Y-61464693D01*
X22428573Y-61501645D01*
X22459594Y-61565506D01*
X22451166Y-61636000D01*
X22405963Y-61690747D01*
X22367950Y-61708107D01*
X22264998Y-61735693D01*
X22264996Y-61735694D01*
X22259688Y-61737116D01*
X22254707Y-61739439D01*
X22254706Y-61739439D01*
X22057169Y-61831551D01*
X22057164Y-61831554D01*
X22052182Y-61833877D01*
X21993010Y-61875310D01*
X21869142Y-61962043D01*
X21869139Y-61962045D01*
X21864631Y-61965202D01*
X21702733Y-62127100D01*
X21571408Y-62314651D01*
X21569085Y-62319633D01*
X21569082Y-62319638D01*
X21476970Y-62517175D01*
X21474647Y-62522157D01*
X21473225Y-62527465D01*
X21473224Y-62527467D01*
X21419960Y-62726249D01*
X21415388Y-62743313D01*
X21395433Y-62971400D01*
X17780500Y-62971400D01*
X17780500Y-50586494D01*
X51382731Y-50586494D01*
X51398789Y-50750268D01*
X51450732Y-50906415D01*
X51454381Y-50912440D01*
X51504835Y-50995748D01*
X51535979Y-51047173D01*
X51650291Y-51165547D01*
X51787989Y-51255654D01*
X51794593Y-51258110D01*
X51794595Y-51258111D01*
X51834577Y-51272980D01*
X51891454Y-51315472D01*
X51916328Y-51381969D01*
X51901303Y-51451357D01*
X51870384Y-51487827D01*
X51869555Y-51488337D01*
X51822712Y-51534209D01*
X51767305Y-51588468D01*
X51751982Y-51603473D01*
X51662838Y-51741797D01*
X51660427Y-51748420D01*
X51660426Y-51748423D01*
X51608966Y-51889809D01*
X51608965Y-51889814D01*
X51606556Y-51896432D01*
X51585931Y-52059694D01*
X51601989Y-52223468D01*
X51653932Y-52379615D01*
X51657581Y-52385640D01*
X51697614Y-52451741D01*
X51739179Y-52520373D01*
X51853491Y-52638747D01*
X51991189Y-52728854D01*
X52145428Y-52786215D01*
X52152409Y-52787146D01*
X52152411Y-52787147D01*
X52301561Y-52807048D01*
X52301565Y-52807048D01*
X52308542Y-52807979D01*
X52315553Y-52807341D01*
X52315557Y-52807341D01*
X52465403Y-52793704D01*
X52465404Y-52793704D01*
X52472424Y-52793065D01*
X52501062Y-52783760D01*
X52622230Y-52744390D01*
X52622233Y-52744389D01*
X52628929Y-52742213D01*
X52770279Y-52657951D01*
X52811713Y-52618494D01*
X61491931Y-52618494D01*
X61507989Y-52782268D01*
X61559932Y-52938415D01*
X61563581Y-52944440D01*
X61617415Y-53033329D01*
X61645179Y-53079173D01*
X61650070Y-53084238D01*
X61650071Y-53084239D01*
X61739213Y-53176549D01*
X61772145Y-53239446D01*
X61765845Y-53310163D01*
X61736734Y-53354099D01*
X61713817Y-53376541D01*
X61713813Y-53376546D01*
X61708782Y-53381473D01*
X61619638Y-53519797D01*
X61617227Y-53526420D01*
X61617226Y-53526423D01*
X61565766Y-53667809D01*
X61565765Y-53667814D01*
X61563356Y-53674432D01*
X61542731Y-53837694D01*
X61558789Y-54001468D01*
X61610732Y-54157615D01*
X61695979Y-54298373D01*
X61700870Y-54303438D01*
X61700871Y-54303439D01*
X61767361Y-54372291D01*
X61810291Y-54416747D01*
X61947989Y-54506854D01*
X62102228Y-54564215D01*
X62109209Y-54565146D01*
X62109211Y-54565147D01*
X62258361Y-54585048D01*
X62258365Y-54585048D01*
X62265342Y-54585979D01*
X62272353Y-54585341D01*
X62272357Y-54585341D01*
X62422203Y-54571704D01*
X62422204Y-54571704D01*
X62429224Y-54571065D01*
X62457862Y-54561760D01*
X62579030Y-54522390D01*
X62579033Y-54522389D01*
X62585729Y-54520213D01*
X62727079Y-54435951D01*
X62846249Y-54322468D01*
X62851412Y-54314697D01*
X62933414Y-54191275D01*
X62933415Y-54191273D01*
X62937315Y-54185403D01*
X62995751Y-54031568D01*
X63007488Y-53948054D01*
X63018102Y-53872534D01*
X63018103Y-53872527D01*
X63018653Y-53868610D01*
X63018941Y-53848000D01*
X63017785Y-53837694D01*
X76985931Y-53837694D01*
X77001989Y-54001468D01*
X77053932Y-54157615D01*
X77139179Y-54298373D01*
X77144070Y-54303438D01*
X77144071Y-54303439D01*
X77210561Y-54372291D01*
X77253491Y-54416747D01*
X77391189Y-54506854D01*
X77545428Y-54564215D01*
X77552409Y-54565146D01*
X77552411Y-54565147D01*
X77701561Y-54585048D01*
X77701565Y-54585048D01*
X77708542Y-54585979D01*
X77715553Y-54585341D01*
X77715557Y-54585341D01*
X77865403Y-54571704D01*
X77865404Y-54571704D01*
X77872424Y-54571065D01*
X77901062Y-54561760D01*
X78022230Y-54522390D01*
X78022233Y-54522389D01*
X78028929Y-54520213D01*
X78170279Y-54435951D01*
X78289449Y-54322468D01*
X78294612Y-54314697D01*
X78376614Y-54191275D01*
X78376615Y-54191273D01*
X78380515Y-54185403D01*
X78438951Y-54031568D01*
X78450688Y-53948054D01*
X78461302Y-53872534D01*
X78461303Y-53872527D01*
X78461853Y-53868610D01*
X78462141Y-53848000D01*
X78443798Y-53684466D01*
X78437998Y-53667809D01*
X78391998Y-53535717D01*
X78389680Y-53529060D01*
X78368418Y-53495033D01*
X78306209Y-53395479D01*
X78302476Y-53389505D01*
X78223686Y-53310163D01*
X78191486Y-53277737D01*
X78191482Y-53277734D01*
X78186522Y-53272739D01*
X78047580Y-53184563D01*
X77988650Y-53163579D01*
X77899189Y-53131723D01*
X77899187Y-53131722D01*
X77892555Y-53129361D01*
X77885569Y-53128528D01*
X77885565Y-53128527D01*
X77771071Y-53114875D01*
X77729153Y-53109877D01*
X77722150Y-53110613D01*
X77722149Y-53110613D01*
X77678935Y-53115155D01*
X77565495Y-53127078D01*
X77558827Y-53129348D01*
X77416382Y-53177840D01*
X77416379Y-53177841D01*
X77409715Y-53180110D01*
X77381372Y-53197547D01*
X77289274Y-53254206D01*
X77269555Y-53266337D01*
X77246208Y-53289200D01*
X77160845Y-53372794D01*
X77151982Y-53381473D01*
X77062838Y-53519797D01*
X77060427Y-53526420D01*
X77060426Y-53526423D01*
X77008966Y-53667809D01*
X77008965Y-53667814D01*
X77006556Y-53674432D01*
X76985931Y-53837694D01*
X63017785Y-53837694D01*
X63000598Y-53684466D01*
X62994798Y-53667809D01*
X62948798Y-53535717D01*
X62946480Y-53529060D01*
X62925218Y-53495033D01*
X62863009Y-53395479D01*
X62859276Y-53389505D01*
X62837303Y-53367378D01*
X62772825Y-53302448D01*
X62739018Y-53240017D01*
X62744330Y-53169219D01*
X62775340Y-53122417D01*
X62778916Y-53119012D01*
X62795449Y-53103268D01*
X62801469Y-53094207D01*
X62882614Y-52972075D01*
X62882615Y-52972073D01*
X62886515Y-52966203D01*
X62944951Y-52812368D01*
X62956934Y-52727107D01*
X62967302Y-52653334D01*
X62967303Y-52653327D01*
X62967853Y-52649410D01*
X62968141Y-52628800D01*
X62949798Y-52465266D01*
X62944529Y-52450134D01*
X62897998Y-52316517D01*
X62895680Y-52309860D01*
X62880187Y-52285065D01*
X62812209Y-52176279D01*
X62808476Y-52170305D01*
X62733232Y-52094534D01*
X62697486Y-52058537D01*
X62697482Y-52058534D01*
X62692522Y-52053539D01*
X62553580Y-51965363D01*
X62504447Y-51947868D01*
X62405189Y-51912523D01*
X62405187Y-51912522D01*
X62398555Y-51910161D01*
X62391569Y-51909328D01*
X62391565Y-51909327D01*
X62277071Y-51895675D01*
X62235153Y-51890677D01*
X62228150Y-51891413D01*
X62228149Y-51891413D01*
X62184935Y-51895955D01*
X62071495Y-51907878D01*
X62064827Y-51910148D01*
X61922382Y-51958640D01*
X61922379Y-51958641D01*
X61915715Y-51960910D01*
X61818858Y-52020497D01*
X61809011Y-52026555D01*
X61775555Y-52047137D01*
X61755571Y-52066707D01*
X61666885Y-52153555D01*
X61657982Y-52162273D01*
X61568838Y-52300597D01*
X61566427Y-52307220D01*
X61566426Y-52307223D01*
X61514966Y-52448609D01*
X61514965Y-52448614D01*
X61512556Y-52455232D01*
X61491931Y-52618494D01*
X52811713Y-52618494D01*
X52889449Y-52544468D01*
X52905458Y-52520373D01*
X52976614Y-52413275D01*
X52976615Y-52413273D01*
X52980515Y-52407403D01*
X53038951Y-52253568D01*
X53054203Y-52145045D01*
X53061302Y-52094534D01*
X53061303Y-52094527D01*
X53061853Y-52090610D01*
X53061995Y-52080430D01*
X53062086Y-52073962D01*
X53062086Y-52073956D01*
X53062141Y-52070000D01*
X53043798Y-51906466D01*
X53041339Y-51899403D01*
X52994862Y-51765940D01*
X52989680Y-51751060D01*
X52964715Y-51711107D01*
X52906209Y-51617479D01*
X52902476Y-51611505D01*
X52843081Y-51551694D01*
X55903931Y-51551694D01*
X55919989Y-51715468D01*
X55971932Y-51871615D01*
X55983668Y-51890993D01*
X56026012Y-51960910D01*
X56057179Y-52012373D01*
X56062070Y-52017438D01*
X56062071Y-52017439D01*
X56116655Y-52073962D01*
X56171491Y-52130747D01*
X56309189Y-52220854D01*
X56463428Y-52278215D01*
X56470409Y-52279146D01*
X56470411Y-52279147D01*
X56619561Y-52299048D01*
X56619565Y-52299048D01*
X56626542Y-52299979D01*
X56633553Y-52299341D01*
X56633557Y-52299341D01*
X56783403Y-52285704D01*
X56783404Y-52285704D01*
X56790424Y-52285065D01*
X56819449Y-52275634D01*
X56940230Y-52236390D01*
X56940233Y-52236389D01*
X56946929Y-52234213D01*
X57088279Y-52149951D01*
X57207449Y-52036468D01*
X57211720Y-52030040D01*
X57294614Y-51905275D01*
X57294615Y-51905273D01*
X57298515Y-51899403D01*
X57356951Y-51745568D01*
X57373874Y-51625154D01*
X57379302Y-51586534D01*
X57379303Y-51586527D01*
X57379853Y-51582610D01*
X57380141Y-51562000D01*
X57361798Y-51398466D01*
X57359392Y-51391555D01*
X57312153Y-51255905D01*
X57307680Y-51243060D01*
X57256078Y-51160479D01*
X57224209Y-51109479D01*
X57220476Y-51103505D01*
X57158555Y-51041150D01*
X57109486Y-50991737D01*
X57109482Y-50991734D01*
X57104522Y-50986739D01*
X56965580Y-50898563D01*
X56906650Y-50877579D01*
X56817189Y-50845723D01*
X56817187Y-50845722D01*
X56810555Y-50843361D01*
X56803569Y-50842528D01*
X56803565Y-50842527D01*
X56689071Y-50828875D01*
X56647153Y-50823877D01*
X56640150Y-50824613D01*
X56640149Y-50824613D01*
X56596935Y-50829155D01*
X56483495Y-50841078D01*
X56476827Y-50843348D01*
X56334382Y-50891840D01*
X56334379Y-50891841D01*
X56327715Y-50894110D01*
X56307714Y-50906415D01*
X56206840Y-50968473D01*
X56187555Y-50980337D01*
X56174136Y-50993478D01*
X56100695Y-51065397D01*
X56069982Y-51095473D01*
X55980838Y-51233797D01*
X55978427Y-51240420D01*
X55978426Y-51240423D01*
X55926966Y-51381809D01*
X55926965Y-51381814D01*
X55924556Y-51388432D01*
X55903931Y-51551694D01*
X52843081Y-51551694D01*
X52835651Y-51544212D01*
X52791486Y-51499737D01*
X52791482Y-51499734D01*
X52786522Y-51494739D01*
X52647580Y-51406563D01*
X52612397Y-51394035D01*
X52554934Y-51352340D01*
X52529134Y-51286197D01*
X52543190Y-51216606D01*
X52567773Y-51184090D01*
X52610633Y-51143275D01*
X52686249Y-51071268D01*
X52690150Y-51065397D01*
X52773414Y-50940075D01*
X52773415Y-50940073D01*
X52777315Y-50934203D01*
X52835751Y-50780368D01*
X52844415Y-50718723D01*
X52858102Y-50621334D01*
X52858103Y-50621327D01*
X52858653Y-50617410D01*
X52858941Y-50596800D01*
X52840598Y-50433266D01*
X52834798Y-50416609D01*
X52812558Y-50352747D01*
X52786480Y-50277860D01*
X52774363Y-50258468D01*
X52703009Y-50144279D01*
X52699276Y-50138305D01*
X52690328Y-50129294D01*
X70127931Y-50129294D01*
X70143989Y-50293068D01*
X70195932Y-50449215D01*
X70199581Y-50455240D01*
X70239614Y-50521341D01*
X70281179Y-50589973D01*
X70286070Y-50595038D01*
X70286071Y-50595039D01*
X70309139Y-50618927D01*
X70395491Y-50708347D01*
X70533189Y-50798454D01*
X70687428Y-50855815D01*
X70694409Y-50856746D01*
X70694411Y-50856747D01*
X70843561Y-50876648D01*
X70843565Y-50876648D01*
X70850542Y-50877579D01*
X70857553Y-50876941D01*
X70857557Y-50876941D01*
X71007403Y-50863304D01*
X71007404Y-50863304D01*
X71014424Y-50862665D01*
X71076402Y-50842527D01*
X71164230Y-50813990D01*
X71164233Y-50813989D01*
X71170929Y-50811813D01*
X71208034Y-50789694D01*
X74445931Y-50789694D01*
X74461989Y-50953468D01*
X74513932Y-51109615D01*
X74517581Y-51115640D01*
X74585551Y-51227870D01*
X74599179Y-51250373D01*
X74604070Y-51255438D01*
X74604071Y-51255439D01*
X74616778Y-51268597D01*
X74713491Y-51368747D01*
X74851189Y-51458854D01*
X75005428Y-51516215D01*
X75012409Y-51517146D01*
X75012411Y-51517147D01*
X75161561Y-51537048D01*
X75161565Y-51537048D01*
X75168542Y-51537979D01*
X75175553Y-51537341D01*
X75175557Y-51537341D01*
X75325403Y-51523704D01*
X75325404Y-51523704D01*
X75332424Y-51523065D01*
X75419602Y-51494739D01*
X75482230Y-51474390D01*
X75482233Y-51474389D01*
X75488929Y-51472213D01*
X75630279Y-51387951D01*
X75749449Y-51274468D01*
X75753465Y-51268424D01*
X75836614Y-51143275D01*
X75836615Y-51143273D01*
X75840515Y-51137403D01*
X75898951Y-50983568D01*
X75911230Y-50896198D01*
X75921302Y-50824534D01*
X75921303Y-50824527D01*
X75921853Y-50820610D01*
X75922141Y-50800000D01*
X75903798Y-50636466D01*
X75898529Y-50621334D01*
X75856350Y-50500215D01*
X75849680Y-50481060D01*
X75824189Y-50440265D01*
X75766209Y-50347479D01*
X75762476Y-50341505D01*
X75690075Y-50268597D01*
X75651486Y-50229737D01*
X75651482Y-50229734D01*
X75646522Y-50224739D01*
X75507580Y-50136563D01*
X75412215Y-50102605D01*
X75359189Y-50083723D01*
X75359187Y-50083722D01*
X75352555Y-50081361D01*
X75345569Y-50080528D01*
X75345565Y-50080527D01*
X75231071Y-50066875D01*
X75189153Y-50061877D01*
X75182150Y-50062613D01*
X75182149Y-50062613D01*
X75138935Y-50067155D01*
X75025495Y-50079078D01*
X75018827Y-50081348D01*
X74876382Y-50129840D01*
X74876379Y-50129841D01*
X74869715Y-50132110D01*
X74849935Y-50144279D01*
X74752226Y-50204390D01*
X74729555Y-50218337D01*
X74611982Y-50333473D01*
X74522838Y-50471797D01*
X74520427Y-50478420D01*
X74520426Y-50478423D01*
X74468966Y-50619809D01*
X74468965Y-50619814D01*
X74466556Y-50626432D01*
X74445931Y-50789694D01*
X71208034Y-50789694D01*
X71312279Y-50727551D01*
X71431449Y-50614068D01*
X71445110Y-50593507D01*
X71518614Y-50482875D01*
X71518615Y-50482873D01*
X71522515Y-50477003D01*
X71580951Y-50323168D01*
X71598457Y-50198607D01*
X71603302Y-50164134D01*
X71603303Y-50164127D01*
X71603853Y-50160210D01*
X71604141Y-50139600D01*
X71585798Y-49976066D01*
X71579998Y-49959409D01*
X71551699Y-49878148D01*
X71531680Y-49820660D01*
X71506715Y-49780707D01*
X71448209Y-49687079D01*
X71444476Y-49681105D01*
X71377651Y-49613812D01*
X71333486Y-49569337D01*
X71333482Y-49569334D01*
X71328522Y-49564339D01*
X71189580Y-49476163D01*
X71115741Y-49449870D01*
X71041189Y-49423323D01*
X71041187Y-49423322D01*
X71034555Y-49420961D01*
X71027569Y-49420128D01*
X71027565Y-49420127D01*
X70913071Y-49406475D01*
X70871153Y-49401477D01*
X70864150Y-49402213D01*
X70864149Y-49402213D01*
X70820935Y-49406755D01*
X70707495Y-49418678D01*
X70700827Y-49420948D01*
X70558382Y-49469440D01*
X70558379Y-49469441D01*
X70551715Y-49471710D01*
X70411555Y-49557937D01*
X70293982Y-49673073D01*
X70204838Y-49811397D01*
X70202427Y-49818020D01*
X70202426Y-49818023D01*
X70150966Y-49959409D01*
X70150965Y-49959414D01*
X70148556Y-49966032D01*
X70127931Y-50129294D01*
X52690328Y-50129294D01*
X52624208Y-50062711D01*
X52588286Y-50026537D01*
X52588282Y-50026534D01*
X52583322Y-50021539D01*
X52444380Y-49933363D01*
X52395247Y-49915868D01*
X52295989Y-49880523D01*
X52295987Y-49880522D01*
X52289355Y-49878161D01*
X52282369Y-49877328D01*
X52282365Y-49877327D01*
X52167871Y-49863675D01*
X52125953Y-49858677D01*
X52118950Y-49859413D01*
X52118949Y-49859413D01*
X52075735Y-49863955D01*
X51962295Y-49875878D01*
X51955627Y-49878148D01*
X51813182Y-49926640D01*
X51813179Y-49926641D01*
X51806515Y-49928910D01*
X51666355Y-50015137D01*
X51654714Y-50026537D01*
X51556924Y-50122300D01*
X51548782Y-50130273D01*
X51459638Y-50268597D01*
X51457227Y-50275220D01*
X51457226Y-50275223D01*
X51405766Y-50416609D01*
X51405765Y-50416614D01*
X51403356Y-50423232D01*
X51382731Y-50586494D01*
X17780500Y-50586494D01*
X17780500Y-49519694D01*
X34313931Y-49519694D01*
X34329989Y-49683468D01*
X34381932Y-49839615D01*
X34393922Y-49859413D01*
X34463413Y-49974154D01*
X34467179Y-49980373D01*
X34581491Y-50098747D01*
X34719189Y-50188854D01*
X34873428Y-50246215D01*
X34880409Y-50247146D01*
X34880411Y-50247147D01*
X35029561Y-50267048D01*
X35029565Y-50267048D01*
X35036542Y-50267979D01*
X35043553Y-50267341D01*
X35043557Y-50267341D01*
X35193403Y-50253704D01*
X35193404Y-50253704D01*
X35200424Y-50253065D01*
X35272220Y-50229737D01*
X35350230Y-50204390D01*
X35350233Y-50204389D01*
X35356929Y-50202213D01*
X35498279Y-50117951D01*
X35617449Y-50004468D01*
X35633458Y-49980373D01*
X35704614Y-49873275D01*
X35704615Y-49873273D01*
X35708515Y-49867403D01*
X35744111Y-49773694D01*
X48690331Y-49773694D01*
X48706389Y-49937468D01*
X48758332Y-50093615D01*
X48761981Y-50099640D01*
X48835459Y-50220965D01*
X48843579Y-50234373D01*
X48848470Y-50239438D01*
X48848471Y-50239439D01*
X48862247Y-50253704D01*
X48957891Y-50352747D01*
X49095589Y-50442854D01*
X49249828Y-50500215D01*
X49256809Y-50501146D01*
X49256811Y-50501147D01*
X49405961Y-50521048D01*
X49405965Y-50521048D01*
X49412942Y-50521979D01*
X49419953Y-50521341D01*
X49419957Y-50521341D01*
X49569803Y-50507704D01*
X49569804Y-50507704D01*
X49576824Y-50507065D01*
X49651273Y-50482875D01*
X49726630Y-50458390D01*
X49726633Y-50458389D01*
X49733329Y-50456213D01*
X49874679Y-50371951D01*
X49993849Y-50258468D01*
X50012938Y-50229737D01*
X50081014Y-50127275D01*
X50081015Y-50127273D01*
X50084915Y-50121403D01*
X50143351Y-49967568D01*
X50155918Y-49878148D01*
X50165702Y-49808534D01*
X50165703Y-49808527D01*
X50166253Y-49804610D01*
X50166541Y-49784000D01*
X50148198Y-49620466D01*
X50142398Y-49603809D01*
X50115323Y-49526062D01*
X50094080Y-49465060D01*
X50028314Y-49359812D01*
X50010609Y-49331479D01*
X50006876Y-49325505D01*
X49899838Y-49217717D01*
X49895886Y-49213737D01*
X49895882Y-49213734D01*
X49890922Y-49208739D01*
X49751980Y-49120563D01*
X49693050Y-49099579D01*
X49603589Y-49067723D01*
X49603587Y-49067722D01*
X49596955Y-49065361D01*
X49589969Y-49064528D01*
X49589965Y-49064527D01*
X49475471Y-49050875D01*
X49433553Y-49045877D01*
X49426550Y-49046613D01*
X49426549Y-49046613D01*
X49383335Y-49051155D01*
X49269895Y-49063078D01*
X49263227Y-49065348D01*
X49120782Y-49113840D01*
X49120779Y-49113841D01*
X49114115Y-49116110D01*
X48973955Y-49202337D01*
X48856382Y-49317473D01*
X48767238Y-49455797D01*
X48764827Y-49462420D01*
X48764826Y-49462423D01*
X48713366Y-49603809D01*
X48713365Y-49603814D01*
X48710956Y-49610432D01*
X48690331Y-49773694D01*
X35744111Y-49773694D01*
X35766951Y-49713568D01*
X35779052Y-49627465D01*
X35789302Y-49554534D01*
X35789303Y-49554527D01*
X35789853Y-49550610D01*
X35790141Y-49530000D01*
X35771798Y-49366466D01*
X35765998Y-49349809D01*
X35719998Y-49217717D01*
X35717680Y-49211060D01*
X35713872Y-49204965D01*
X35634209Y-49077479D01*
X35630476Y-49071505D01*
X35572499Y-49013122D01*
X35519486Y-48959737D01*
X35519482Y-48959734D01*
X35514522Y-48954739D01*
X35375580Y-48866563D01*
X35258577Y-48824900D01*
X35227189Y-48813723D01*
X35227187Y-48813722D01*
X35220555Y-48811361D01*
X35213569Y-48810528D01*
X35213565Y-48810527D01*
X35099071Y-48796875D01*
X35057153Y-48791877D01*
X35050150Y-48792613D01*
X35050149Y-48792613D01*
X35006935Y-48797155D01*
X34893495Y-48809078D01*
X34886827Y-48811348D01*
X34744382Y-48859840D01*
X34744379Y-48859841D01*
X34737715Y-48862110D01*
X34597555Y-48948337D01*
X34585914Y-48959737D01*
X34521404Y-49022910D01*
X34479982Y-49063473D01*
X34390838Y-49201797D01*
X34388427Y-49208420D01*
X34388426Y-49208423D01*
X34336966Y-49349809D01*
X34336965Y-49349814D01*
X34334556Y-49356432D01*
X34313931Y-49519694D01*
X17780500Y-49519694D01*
X17780500Y-46316400D01*
X21615471Y-46316400D01*
X21635290Y-46631420D01*
X21694436Y-46941472D01*
X21791975Y-47241666D01*
X21793662Y-47245252D01*
X21793664Y-47245256D01*
X21924681Y-47523683D01*
X21924685Y-47523690D01*
X21926369Y-47527269D01*
X22095499Y-47793775D01*
X22296698Y-48036982D01*
X22526791Y-48253054D01*
X22782152Y-48438584D01*
X23058752Y-48590647D01*
X23062421Y-48592100D01*
X23062426Y-48592102D01*
X23315783Y-48692413D01*
X23352229Y-48706843D01*
X23657956Y-48785340D01*
X23971110Y-48824900D01*
X24286752Y-48824900D01*
X24599906Y-48785340D01*
X24905633Y-48706843D01*
X24942079Y-48692413D01*
X25195436Y-48592102D01*
X25195441Y-48592100D01*
X25199110Y-48590647D01*
X25475710Y-48438584D01*
X25595855Y-48351294D01*
X46201131Y-48351294D01*
X46217189Y-48515068D01*
X46269132Y-48671215D01*
X46354379Y-48811973D01*
X46359270Y-48817038D01*
X46359271Y-48817039D01*
X46404812Y-48864198D01*
X46468691Y-48930347D01*
X46606389Y-49020454D01*
X46760628Y-49077815D01*
X46767609Y-49078746D01*
X46767611Y-49078747D01*
X46916761Y-49098648D01*
X46916765Y-49098648D01*
X46923742Y-49099579D01*
X46930753Y-49098941D01*
X46930757Y-49098941D01*
X47080603Y-49085304D01*
X47080604Y-49085304D01*
X47087624Y-49084665D01*
X47152846Y-49063473D01*
X47237430Y-49035990D01*
X47237433Y-49035989D01*
X47244129Y-49033813D01*
X47385479Y-48949551D01*
X47504649Y-48836068D01*
X47512069Y-48824900D01*
X47591814Y-48704875D01*
X47591815Y-48704873D01*
X47595715Y-48699003D01*
X47654151Y-48545168D01*
X47669130Y-48438584D01*
X47676502Y-48386134D01*
X47676503Y-48386127D01*
X47677053Y-48382210D01*
X47677341Y-48361600D01*
X47658998Y-48198066D01*
X47653198Y-48181409D01*
X47607198Y-48049317D01*
X47604880Y-48042660D01*
X47517676Y-47903105D01*
X47459699Y-47844722D01*
X47406686Y-47791337D01*
X47406682Y-47791334D01*
X47401722Y-47786339D01*
X47262780Y-47698163D01*
X47213647Y-47680668D01*
X47114389Y-47645323D01*
X47114387Y-47645322D01*
X47107755Y-47642961D01*
X47100769Y-47642128D01*
X47100765Y-47642127D01*
X46986271Y-47628475D01*
X46944353Y-47623477D01*
X46937350Y-47624213D01*
X46937349Y-47624213D01*
X46894135Y-47628755D01*
X46780695Y-47640678D01*
X46774027Y-47642948D01*
X46631582Y-47691440D01*
X46631579Y-47691441D01*
X46624915Y-47693710D01*
X46484755Y-47779937D01*
X46367182Y-47895073D01*
X46278038Y-48033397D01*
X46275627Y-48040020D01*
X46275626Y-48040023D01*
X46224166Y-48181409D01*
X46224165Y-48181414D01*
X46221756Y-48188032D01*
X46201131Y-48351294D01*
X25595855Y-48351294D01*
X25731071Y-48253054D01*
X25961164Y-48036982D01*
X26162363Y-47793775D01*
X26331493Y-47527269D01*
X26333177Y-47523690D01*
X26333181Y-47523683D01*
X26464198Y-47245256D01*
X26464200Y-47245252D01*
X26465887Y-47241666D01*
X26563426Y-46941472D01*
X26622572Y-46631420D01*
X26642391Y-46316400D01*
X26624995Y-46039894D01*
X34567931Y-46039894D01*
X34583989Y-46203668D01*
X34635932Y-46359815D01*
X34721179Y-46500573D01*
X34835491Y-46618947D01*
X34973189Y-46709054D01*
X35127428Y-46766415D01*
X35134409Y-46767346D01*
X35134411Y-46767347D01*
X35283561Y-46787248D01*
X35283565Y-46787248D01*
X35290542Y-46788179D01*
X35297553Y-46787541D01*
X35297557Y-46787541D01*
X35447403Y-46773904D01*
X35447404Y-46773904D01*
X35454424Y-46773265D01*
X35483062Y-46763960D01*
X35604230Y-46724590D01*
X35604233Y-46724589D01*
X35610929Y-46722413D01*
X35752279Y-46638151D01*
X35871449Y-46524668D01*
X35887458Y-46500573D01*
X35958614Y-46393475D01*
X35958615Y-46393473D01*
X35962515Y-46387603D01*
X36020951Y-46233768D01*
X36043853Y-46070810D01*
X36044141Y-46050200D01*
X36025798Y-45886666D01*
X36019998Y-45870009D01*
X35973998Y-45737917D01*
X35971680Y-45731260D01*
X35884476Y-45591705D01*
X35826499Y-45533322D01*
X35773486Y-45479937D01*
X35773482Y-45479934D01*
X35768522Y-45474939D01*
X35629580Y-45386763D01*
X35580447Y-45369268D01*
X35481189Y-45333923D01*
X35481187Y-45333922D01*
X35474555Y-45331561D01*
X35467569Y-45330728D01*
X35467565Y-45330727D01*
X35353071Y-45317075D01*
X35311153Y-45312077D01*
X35304150Y-45312813D01*
X35304149Y-45312813D01*
X35260935Y-45317355D01*
X35147495Y-45329278D01*
X35140827Y-45331548D01*
X34998382Y-45380040D01*
X34998379Y-45380041D01*
X34991715Y-45382310D01*
X34851555Y-45468537D01*
X34733982Y-45583673D01*
X34644838Y-45721997D01*
X34642427Y-45728620D01*
X34642426Y-45728623D01*
X34590966Y-45870009D01*
X34590965Y-45870014D01*
X34588556Y-45876632D01*
X34567931Y-46039894D01*
X26624995Y-46039894D01*
X26622572Y-46001380D01*
X26563426Y-45691328D01*
X26465887Y-45391134D01*
X26463472Y-45386001D01*
X26333181Y-45109117D01*
X26333177Y-45109110D01*
X26331493Y-45105531D01*
X26162363Y-44839025D01*
X25961164Y-44595818D01*
X25731071Y-44379746D01*
X25475710Y-44194216D01*
X25199110Y-44042153D01*
X25195441Y-44040700D01*
X25195436Y-44040698D01*
X24909303Y-43927410D01*
X24909302Y-43927410D01*
X24905633Y-43925957D01*
X24599906Y-43847460D01*
X24286752Y-43807900D01*
X23971110Y-43807900D01*
X23657956Y-43847460D01*
X23352229Y-43925957D01*
X23348560Y-43927410D01*
X23348559Y-43927410D01*
X23062426Y-44040698D01*
X23062421Y-44040700D01*
X23058752Y-44042153D01*
X22782152Y-44194216D01*
X22526791Y-44379746D01*
X22296698Y-44595818D01*
X22095499Y-44839025D01*
X21926369Y-45105531D01*
X21924685Y-45109110D01*
X21924681Y-45109117D01*
X21794390Y-45386001D01*
X21791975Y-45391134D01*
X21694436Y-45691328D01*
X21635290Y-46001380D01*
X21615471Y-46316400D01*
X17780500Y-46316400D01*
X17780500Y-45226584D01*
X17800502Y-45158463D01*
X17854158Y-45111970D01*
X17924432Y-45101866D01*
X17974847Y-45120732D01*
X18035601Y-45159960D01*
X18035606Y-45159962D01*
X18040643Y-45163215D01*
X18232584Y-45240570D01*
X18238465Y-45241718D01*
X18238470Y-45241720D01*
X18431244Y-45279366D01*
X18431247Y-45279366D01*
X18435690Y-45280234D01*
X18441129Y-45280500D01*
X18593704Y-45280500D01*
X18748007Y-45265778D01*
X18753761Y-45264090D01*
X18940827Y-45209211D01*
X18940829Y-45209210D01*
X18946580Y-45207523D01*
X19028257Y-45165457D01*
X19125225Y-45115516D01*
X19125228Y-45115514D01*
X19130556Y-45112770D01*
X19293294Y-44984937D01*
X19428924Y-44828637D01*
X19532552Y-44649510D01*
X19600438Y-44454019D01*
X19611545Y-44377418D01*
X19629271Y-44255159D01*
X19629271Y-44255156D01*
X19630132Y-44249219D01*
X19620564Y-44042498D01*
X19589681Y-43914354D01*
X19573485Y-43847148D01*
X19573484Y-43847146D01*
X19572079Y-43841315D01*
X19486426Y-43652931D01*
X19472571Y-43633399D01*
X19449474Y-43566264D01*
X19466339Y-43497300D01*
X19517811Y-43448401D01*
X19575342Y-43434500D01*
X79502500Y-43434500D01*
X79570621Y-43454502D01*
G37*
%TD.AperFunction*%
%TD*%
M02*
