%TF.GenerationSoftware,KiCad,Pcbnew,(6.0.4-0)*%
%TF.CreationDate,2022-03-21T10:12:57+01:00*%
%TF.ProjectId,IrDA_RS232,49724441-5f52-4533-9233-322e6b696361,rev?*%
%TF.SameCoordinates,Original*%
%TF.FileFunction,Copper,L2,Inr*%
%TF.FilePolarity,Positive*%
%FSLAX46Y46*%
G04 Gerber Fmt 4.6, Leading zero omitted, Abs format (unit mm)*
G04 Created by KiCad (PCBNEW (6.0.4-0)) date 2022-03-21 10:12:57*
%MOMM*%
%LPD*%
G01*
G04 APERTURE LIST*
%TA.AperFunction,ComponentPad*%
%ADD10C,4.000000*%
%TD*%
%TA.AperFunction,ComponentPad*%
%ADD11R,1.600000X1.600000*%
%TD*%
%TA.AperFunction,ComponentPad*%
%ADD12C,1.600000*%
%TD*%
%TA.AperFunction,ViaPad*%
%ADD13C,0.450000*%
%TD*%
G04 APERTURE END LIST*
D10*
%TO.N,GND*%
%TO.C,J1*%
X24128931Y-46316400D03*
X24128931Y-71316400D03*
D11*
%TO.N,/RS232_DCD*%
X25548931Y-53276400D03*
D12*
%TO.N,/RS232_RXD*%
X25548931Y-56046400D03*
%TO.N,/RS232_TXD*%
X25548931Y-58816400D03*
%TO.N,/RS232_DTR*%
X25548931Y-61586400D03*
%TO.N,GND*%
X25548931Y-64356400D03*
%TO.N,/RS232_DSR*%
X22708931Y-54661400D03*
%TO.N,/RS232_RTS*%
X22708931Y-57431400D03*
%TO.N,/RS232_CTS*%
X22708931Y-60201400D03*
%TO.N,/RS232_RING*%
X22708931Y-62971400D03*
%TD*%
D13*
%TO.N,GND*%
X31750000Y-56692800D03*
X31750000Y-55422800D03*
X31648400Y-52425600D03*
X72948800Y-61620400D03*
X69900800Y-61620400D03*
X68122800Y-56794400D03*
X70866000Y-50139600D03*
%TO.N,+5V*%
X66395600Y-52120800D03*
%TO.N,/RS232_RING*%
X46634400Y-51714400D03*
%TO.N,+5V*%
X47040800Y-50749200D03*
%TO.N,GND*%
X46939200Y-48361600D03*
X49428400Y-49784000D03*
X52120800Y-50596800D03*
%TO.N,+5V*%
X65278000Y-49987200D03*
%TO.N,/MCP_TX*%
X38709600Y-53289200D03*
X62280800Y-53848000D03*
%TO.N,/MCP_RX*%
X37439600Y-52730400D03*
X62230000Y-52628800D03*
%TO.N,+5V*%
X65661600Y-55247600D03*
X43383200Y-67894200D03*
X50546000Y-65532000D03*
X59436000Y-66802000D03*
X40309800Y-69011800D03*
X49911000Y-65532000D03*
X49453800Y-65532000D03*
X76039500Y-63085500D03*
X49911000Y-67056000D03*
X49453800Y-67056000D03*
X51003200Y-67056000D03*
X50546000Y-67056000D03*
X51003200Y-65532000D03*
X43129200Y-58724800D03*
X43103800Y-46736000D03*
X68709600Y-55247600D03*
X64516000Y-66294000D03*
X75184000Y-51816000D03*
X71534500Y-63085500D03*
X73312500Y-63085500D03*
X69850000Y-63246000D03*
X43383200Y-55626000D03*
X53086000Y-56388000D03*
%TO.N,GND*%
X52324000Y-52070000D03*
X46939200Y-67056000D03*
X42418000Y-55626000D03*
X56642000Y-51562000D03*
X70358000Y-56134000D03*
X46939200Y-65532000D03*
X35052000Y-49530000D03*
X45847000Y-65532000D03*
X47117000Y-59766200D03*
X75184000Y-50800000D03*
X66040000Y-59563000D03*
X46482000Y-65532000D03*
X54356000Y-66040000D03*
X45847000Y-67056000D03*
X46482000Y-67056000D03*
X35458400Y-58242200D03*
X59436000Y-66040000D03*
X35306000Y-46050200D03*
X65532000Y-56388000D03*
X77724000Y-53848000D03*
X45415200Y-67056000D03*
X42392600Y-67894200D03*
X45415200Y-65532000D03*
X71424500Y-61671500D03*
X37719000Y-51435000D03*
X47117000Y-57353200D03*
%TO.N,/RS232_RXD*%
X39624000Y-54356000D03*
%TO.N,/RS232_TXD*%
X40640000Y-54483000D03*
%TO.N,/RS232_DTR*%
X35814000Y-61214000D03*
%TO.N,/RS232_DSR*%
X39624000Y-66395600D03*
X35001200Y-67411600D03*
%TO.N,/MCP_DSR*%
X44704000Y-55626000D03*
X36449000Y-63500000D03*
%TO.N,/MCP_DTR*%
X45280503Y-55626000D03*
X38862000Y-63915000D03*
%TD*%
%TA.AperFunction,Conductor*%
%TO.N,GND*%
G36*
X79570621Y-43454502D02*
G01*
X79617114Y-43508158D01*
X79628500Y-43560500D01*
X79628500Y-66872175D01*
X79608498Y-66940296D01*
X79554842Y-66986789D01*
X79484568Y-66996893D01*
X79426170Y-66968468D01*
X79424247Y-66970903D01*
X79419538Y-66967184D01*
X79415208Y-66963039D01*
X79305910Y-66892466D01*
X79246394Y-66854037D01*
X79246391Y-66854036D01*
X79241357Y-66850785D01*
X79049416Y-66773430D01*
X79043535Y-66772282D01*
X79043530Y-66772280D01*
X78850756Y-66734634D01*
X78850753Y-66734634D01*
X78846310Y-66733766D01*
X78840871Y-66733500D01*
X78688296Y-66733500D01*
X78533993Y-66748222D01*
X78528239Y-66749910D01*
X78341173Y-66804789D01*
X78341171Y-66804790D01*
X78335420Y-66806477D01*
X78330087Y-66809223D01*
X78330086Y-66809224D01*
X78156775Y-66898484D01*
X78156772Y-66898486D01*
X78151444Y-66901230D01*
X77988706Y-67029063D01*
X77984775Y-67033593D01*
X77984774Y-67033594D01*
X77953191Y-67069990D01*
X77853076Y-67185363D01*
X77749448Y-67364490D01*
X77681562Y-67559981D01*
X77680702Y-67565914D01*
X77680701Y-67565917D01*
X77653534Y-67753292D01*
X77651868Y-67764781D01*
X77661436Y-67971502D01*
X77662840Y-67977327D01*
X77662840Y-67977328D01*
X77704199Y-68148941D01*
X77709921Y-68172685D01*
X77795574Y-68361069D01*
X77799040Y-68365955D01*
X77809429Y-68380601D01*
X77832526Y-68447736D01*
X77815661Y-68516700D01*
X77764189Y-68565599D01*
X77706658Y-68579500D01*
X44712623Y-68579500D01*
X44711853Y-68579498D01*
X44711037Y-68579493D01*
X44634279Y-68579024D01*
X44611918Y-68585415D01*
X44605847Y-68587150D01*
X44589085Y-68590728D01*
X44559813Y-68594920D01*
X44551645Y-68598634D01*
X44551644Y-68598634D01*
X44536438Y-68605548D01*
X44518914Y-68611996D01*
X44494229Y-68619051D01*
X44486635Y-68623843D01*
X44486632Y-68623844D01*
X44469220Y-68634830D01*
X44454137Y-68642969D01*
X44427218Y-68655208D01*
X44420416Y-68661069D01*
X44407765Y-68671970D01*
X44392761Y-68683073D01*
X44371042Y-68696776D01*
X44365103Y-68703501D01*
X44365099Y-68703504D01*
X44351468Y-68718938D01*
X44339276Y-68730982D01*
X44323673Y-68744427D01*
X44323671Y-68744430D01*
X44316873Y-68750287D01*
X44311993Y-68757816D01*
X44311992Y-68757817D01*
X44302906Y-68771835D01*
X44291615Y-68786709D01*
X44280569Y-68799217D01*
X44274622Y-68805951D01*
X44262575Y-68831609D01*
X44262058Y-68832711D01*
X44253737Y-68847691D01*
X44242529Y-68864983D01*
X44242527Y-68864988D01*
X44237648Y-68872515D01*
X44235078Y-68881108D01*
X44235076Y-68881113D01*
X44230289Y-68897120D01*
X44223628Y-68914564D01*
X44217371Y-68927892D01*
X44212719Y-68937800D01*
X44211338Y-68946667D01*
X44211338Y-68946668D01*
X44208170Y-68967015D01*
X44204387Y-68983732D01*
X44198485Y-69003466D01*
X44198484Y-69003472D01*
X44195914Y-69012066D01*
X44195737Y-69041153D01*
X44195704Y-69046497D01*
X44195671Y-69047289D01*
X44195500Y-69048386D01*
X44195500Y-69079377D01*
X44195498Y-69080147D01*
X44195024Y-69157721D01*
X44195408Y-69159065D01*
X44195500Y-69160410D01*
X44195500Y-71501500D01*
X44175498Y-71569621D01*
X44121842Y-71616114D01*
X44069500Y-71627500D01*
X31504623Y-71627500D01*
X31503853Y-71627498D01*
X31503037Y-71627493D01*
X31426279Y-71627024D01*
X31403918Y-71633415D01*
X31397847Y-71635150D01*
X31381085Y-71638728D01*
X31351813Y-71642920D01*
X31343645Y-71646634D01*
X31343644Y-71646634D01*
X31328438Y-71653548D01*
X31310914Y-71659996D01*
X31286229Y-71667051D01*
X31278635Y-71671843D01*
X31278632Y-71671844D01*
X31261220Y-71682830D01*
X31246137Y-71690969D01*
X31219218Y-71703208D01*
X31212416Y-71709069D01*
X31199765Y-71719970D01*
X31184761Y-71731073D01*
X31163042Y-71744776D01*
X31157103Y-71751501D01*
X31157099Y-71751504D01*
X31143468Y-71766938D01*
X31131276Y-71778982D01*
X31115673Y-71792427D01*
X31115671Y-71792430D01*
X31108873Y-71798287D01*
X31103993Y-71805816D01*
X31103992Y-71805817D01*
X31094906Y-71819835D01*
X31083615Y-71834709D01*
X31072569Y-71847217D01*
X31066622Y-71853951D01*
X31054058Y-71880711D01*
X31045737Y-71895691D01*
X31034529Y-71912983D01*
X31034527Y-71912988D01*
X31029648Y-71920515D01*
X31027078Y-71929108D01*
X31027076Y-71929113D01*
X31022289Y-71945120D01*
X31015628Y-71962564D01*
X31004719Y-71985800D01*
X31003338Y-71994667D01*
X31003338Y-71994668D01*
X31000170Y-72015015D01*
X30996387Y-72031732D01*
X30990485Y-72051466D01*
X30990484Y-72051472D01*
X30987914Y-72060066D01*
X30987859Y-72069037D01*
X30987859Y-72069038D01*
X30987704Y-72094497D01*
X30987671Y-72095289D01*
X30987500Y-72096386D01*
X30987500Y-72127377D01*
X30987498Y-72128147D01*
X30987024Y-72205721D01*
X30987408Y-72207065D01*
X30987500Y-72208410D01*
X30987500Y-74295500D01*
X30967498Y-74363621D01*
X30913842Y-74410114D01*
X30861500Y-74421500D01*
X17906500Y-74421500D01*
X17838379Y-74401498D01*
X17791886Y-74347842D01*
X17780500Y-74295500D01*
X17780500Y-73262387D01*
X22547652Y-73262387D01*
X22556479Y-73274005D01*
X22779212Y-73435830D01*
X22785892Y-73440070D01*
X23055503Y-73588290D01*
X23062638Y-73591647D01*
X23348701Y-73704908D01*
X23356227Y-73707353D01*
X23654210Y-73783862D01*
X23661981Y-73785345D01*
X23967209Y-73823903D01*
X23975100Y-73824400D01*
X24282762Y-73824400D01*
X24290653Y-73823903D01*
X24595881Y-73785345D01*
X24603652Y-73783862D01*
X24901635Y-73707353D01*
X24909161Y-73704908D01*
X25195224Y-73591647D01*
X25202359Y-73588290D01*
X25471970Y-73440070D01*
X25478650Y-73435830D01*
X25701754Y-73273736D01*
X25710177Y-73262813D01*
X25703273Y-73249952D01*
X24141743Y-71688422D01*
X24127799Y-71680808D01*
X24125966Y-71680939D01*
X24119351Y-71685190D01*
X22554265Y-73250276D01*
X22547652Y-73262387D01*
X17780500Y-73262387D01*
X17780500Y-71320358D01*
X21616221Y-71320358D01*
X21635538Y-71627394D01*
X21636531Y-71635255D01*
X21694177Y-71937446D01*
X21696147Y-71945120D01*
X21791215Y-72237709D01*
X21794130Y-72245072D01*
X21925120Y-72523441D01*
X21928932Y-72530374D01*
X22093782Y-72790136D01*
X22098426Y-72796529D01*
X22173428Y-72887190D01*
X22185945Y-72895645D01*
X22196683Y-72889438D01*
X23756909Y-71329212D01*
X23763287Y-71317532D01*
X24493339Y-71317532D01*
X24493470Y-71319365D01*
X24497721Y-71325980D01*
X26060076Y-72888335D01*
X26073338Y-72895577D01*
X26083443Y-72888388D01*
X26159436Y-72796529D01*
X26164080Y-72790136D01*
X26328930Y-72530374D01*
X26332742Y-72523441D01*
X26463732Y-72245072D01*
X26466647Y-72237709D01*
X26561715Y-71945120D01*
X26563685Y-71937446D01*
X26621331Y-71635255D01*
X26622324Y-71627394D01*
X26641641Y-71320358D01*
X26641641Y-71312442D01*
X26622324Y-71005406D01*
X26621331Y-70997545D01*
X26563685Y-70695354D01*
X26561714Y-70687677D01*
X26466647Y-70395091D01*
X26463732Y-70387728D01*
X26332742Y-70109359D01*
X26328930Y-70102426D01*
X26164080Y-69842664D01*
X26159436Y-69836271D01*
X26084434Y-69745610D01*
X26071917Y-69737155D01*
X26061179Y-69743362D01*
X24500953Y-71303588D01*
X24493339Y-71317532D01*
X23763287Y-71317532D01*
X23764523Y-71315268D01*
X23764392Y-71313435D01*
X23760141Y-71306820D01*
X22197786Y-69744465D01*
X22184524Y-69737223D01*
X22174419Y-69744412D01*
X22098426Y-69836271D01*
X22093782Y-69842664D01*
X21928932Y-70102426D01*
X21925120Y-70109359D01*
X21794130Y-70387728D01*
X21791215Y-70395091D01*
X21696148Y-70687677D01*
X21694177Y-70695354D01*
X21636531Y-70997545D01*
X21635538Y-71005406D01*
X21616221Y-71312442D01*
X21616221Y-71320358D01*
X17780500Y-71320358D01*
X17780500Y-69369987D01*
X22547685Y-69369987D01*
X22554589Y-69382848D01*
X24116119Y-70944378D01*
X24130063Y-70951992D01*
X24131896Y-70951861D01*
X24138511Y-70947610D01*
X25703597Y-69382524D01*
X25710210Y-69370413D01*
X25701383Y-69358795D01*
X25478650Y-69196970D01*
X25471970Y-69192730D01*
X25202359Y-69044510D01*
X25195224Y-69041153D01*
X25095057Y-69001494D01*
X39571731Y-69001494D01*
X39587789Y-69165268D01*
X39639732Y-69321415D01*
X39643381Y-69327440D01*
X39676938Y-69382848D01*
X39724979Y-69462173D01*
X39839291Y-69580547D01*
X39976989Y-69670654D01*
X40131228Y-69728015D01*
X40138209Y-69728946D01*
X40138211Y-69728947D01*
X40287361Y-69748848D01*
X40287365Y-69748848D01*
X40294342Y-69749779D01*
X40301353Y-69749141D01*
X40301357Y-69749141D01*
X40451203Y-69735504D01*
X40451204Y-69735504D01*
X40458224Y-69734865D01*
X40486862Y-69725560D01*
X40608030Y-69686190D01*
X40608033Y-69686189D01*
X40614729Y-69684013D01*
X40756079Y-69599751D01*
X40875249Y-69486268D01*
X40891258Y-69462173D01*
X40962414Y-69355075D01*
X40962415Y-69355073D01*
X40966315Y-69349203D01*
X41024751Y-69195368D01*
X41040990Y-69079820D01*
X41047102Y-69036334D01*
X41047103Y-69036327D01*
X41047653Y-69032410D01*
X41047812Y-69021038D01*
X41047886Y-69015762D01*
X41047886Y-69015756D01*
X41047941Y-69011800D01*
X41029598Y-68848266D01*
X41023798Y-68831609D01*
X40988755Y-68730982D01*
X40975480Y-68692860D01*
X40966245Y-68678080D01*
X40892009Y-68559279D01*
X40888276Y-68553305D01*
X40802378Y-68466805D01*
X40777286Y-68441537D01*
X40777282Y-68441534D01*
X40772322Y-68436539D01*
X40633380Y-68348363D01*
X40584247Y-68330868D01*
X40484989Y-68295523D01*
X40484987Y-68295522D01*
X40478355Y-68293161D01*
X40471369Y-68292328D01*
X40471365Y-68292327D01*
X40356871Y-68278675D01*
X40314953Y-68273677D01*
X40307950Y-68274413D01*
X40307949Y-68274413D01*
X40264735Y-68278955D01*
X40151295Y-68290878D01*
X40144627Y-68293148D01*
X40002182Y-68341640D01*
X40002179Y-68341641D01*
X39995515Y-68343910D01*
X39855355Y-68430137D01*
X39737782Y-68545273D01*
X39648638Y-68683597D01*
X39646227Y-68690220D01*
X39646226Y-68690223D01*
X39594766Y-68831609D01*
X39594765Y-68831614D01*
X39592356Y-68838232D01*
X39571731Y-69001494D01*
X25095057Y-69001494D01*
X24909161Y-68927892D01*
X24901635Y-68925447D01*
X24603652Y-68848938D01*
X24595881Y-68847455D01*
X24290653Y-68808897D01*
X24282762Y-68808400D01*
X23975100Y-68808400D01*
X23967209Y-68808897D01*
X23661981Y-68847455D01*
X23654210Y-68848938D01*
X23356227Y-68925447D01*
X23348701Y-68927892D01*
X23062638Y-69041153D01*
X23055503Y-69044510D01*
X22785892Y-69192730D01*
X22779212Y-69196970D01*
X22556108Y-69359064D01*
X22547685Y-69369987D01*
X17780500Y-69369987D01*
X17780500Y-67401294D01*
X34263131Y-67401294D01*
X34279189Y-67565068D01*
X34331132Y-67721215D01*
X34343970Y-67742413D01*
X34374814Y-67793341D01*
X34416379Y-67861973D01*
X34530691Y-67980347D01*
X34668389Y-68070454D01*
X34822628Y-68127815D01*
X34829609Y-68128746D01*
X34829611Y-68128747D01*
X34978761Y-68148648D01*
X34978765Y-68148648D01*
X34985742Y-68149579D01*
X34992753Y-68148941D01*
X34992757Y-68148941D01*
X35142603Y-68135304D01*
X35142604Y-68135304D01*
X35149624Y-68134665D01*
X35178262Y-68125360D01*
X35299430Y-68085990D01*
X35299433Y-68085989D01*
X35306129Y-68083813D01*
X35447479Y-67999551D01*
X35566649Y-67886068D01*
X35568094Y-67883894D01*
X42645131Y-67883894D01*
X42661189Y-68047668D01*
X42713132Y-68203815D01*
X42716781Y-68209840D01*
X42767235Y-68293148D01*
X42798379Y-68344573D01*
X42912691Y-68462947D01*
X43050389Y-68553054D01*
X43204628Y-68610415D01*
X43211609Y-68611346D01*
X43211611Y-68611347D01*
X43360761Y-68631248D01*
X43360765Y-68631248D01*
X43367742Y-68632179D01*
X43374753Y-68631541D01*
X43374757Y-68631541D01*
X43524603Y-68617904D01*
X43524604Y-68617904D01*
X43531624Y-68617265D01*
X43588964Y-68598634D01*
X43681430Y-68568590D01*
X43681433Y-68568589D01*
X43688129Y-68566413D01*
X43829479Y-68482151D01*
X43948649Y-68368668D01*
X43957322Y-68355614D01*
X44035814Y-68237475D01*
X44035815Y-68237473D01*
X44039715Y-68231603D01*
X44098151Y-68077768D01*
X44111300Y-67984205D01*
X44120502Y-67918734D01*
X44120503Y-67918727D01*
X44121053Y-67914810D01*
X44121341Y-67894200D01*
X44102998Y-67730666D01*
X44097198Y-67714009D01*
X44051198Y-67581917D01*
X44048880Y-67575260D01*
X44042512Y-67565068D01*
X43965409Y-67441679D01*
X43961676Y-67435705D01*
X43892137Y-67365679D01*
X43850686Y-67323937D01*
X43850682Y-67323934D01*
X43845722Y-67318939D01*
X43706780Y-67230763D01*
X43609407Y-67196090D01*
X43558389Y-67177923D01*
X43558387Y-67177922D01*
X43551755Y-67175561D01*
X43544769Y-67174728D01*
X43544765Y-67174727D01*
X43430271Y-67161075D01*
X43388353Y-67156077D01*
X43381350Y-67156813D01*
X43381349Y-67156813D01*
X43338135Y-67161355D01*
X43224695Y-67173278D01*
X43218027Y-67175548D01*
X43075582Y-67224040D01*
X43075579Y-67224041D01*
X43068915Y-67226310D01*
X42928755Y-67312537D01*
X42917114Y-67323937D01*
X42831617Y-67407662D01*
X42811182Y-67427673D01*
X42722038Y-67565997D01*
X42719627Y-67572620D01*
X42719626Y-67572623D01*
X42668166Y-67714009D01*
X42668165Y-67714014D01*
X42665756Y-67720632D01*
X42645131Y-67883894D01*
X35568094Y-67883894D01*
X35570550Y-67880197D01*
X35653814Y-67754875D01*
X35653815Y-67754873D01*
X35657715Y-67749003D01*
X35716151Y-67595168D01*
X35733657Y-67470607D01*
X35738502Y-67436134D01*
X35738503Y-67436127D01*
X35739053Y-67432210D01*
X35739341Y-67411600D01*
X35720998Y-67248066D01*
X35715198Y-67231409D01*
X35694698Y-67172542D01*
X35666880Y-67092660D01*
X35641915Y-67052707D01*
X35583409Y-66959079D01*
X35579676Y-66953105D01*
X35512596Y-66885555D01*
X35468686Y-66841337D01*
X35468682Y-66841334D01*
X35463722Y-66836339D01*
X35324780Y-66748163D01*
X35250941Y-66721870D01*
X35176389Y-66695323D01*
X35176387Y-66695322D01*
X35169755Y-66692961D01*
X35162769Y-66692128D01*
X35162765Y-66692127D01*
X35048271Y-66678475D01*
X35006353Y-66673477D01*
X34999350Y-66674213D01*
X34999349Y-66674213D01*
X34956135Y-66678755D01*
X34842695Y-66690678D01*
X34836027Y-66692948D01*
X34693582Y-66741440D01*
X34693579Y-66741441D01*
X34686915Y-66743710D01*
X34638606Y-66773430D01*
X34580424Y-66809224D01*
X34546755Y-66829937D01*
X34429182Y-66945073D01*
X34340038Y-67083397D01*
X34337627Y-67090020D01*
X34337626Y-67090023D01*
X34286166Y-67231409D01*
X34286165Y-67231414D01*
X34283756Y-67238032D01*
X34263131Y-67401294D01*
X17780500Y-67401294D01*
X17780500Y-66385294D01*
X38885931Y-66385294D01*
X38901989Y-66549068D01*
X38953932Y-66705215D01*
X38957581Y-66711240D01*
X39031059Y-66832565D01*
X39039179Y-66845973D01*
X39153491Y-66964347D01*
X39291189Y-67054454D01*
X39445428Y-67111815D01*
X39452409Y-67112746D01*
X39452411Y-67112747D01*
X39601561Y-67132648D01*
X39601565Y-67132648D01*
X39608542Y-67133579D01*
X39615553Y-67132941D01*
X39615557Y-67132941D01*
X39765403Y-67119304D01*
X39765404Y-67119304D01*
X39772424Y-67118665D01*
X39801062Y-67109360D01*
X39922230Y-67069990D01*
X39922233Y-67069989D01*
X39928929Y-67067813D01*
X39966034Y-67045694D01*
X48715731Y-67045694D01*
X48731789Y-67209468D01*
X48783732Y-67365615D01*
X48787381Y-67371640D01*
X48823154Y-67430707D01*
X48868979Y-67506373D01*
X48873870Y-67511438D01*
X48873871Y-67511439D01*
X48887647Y-67525704D01*
X48983291Y-67624747D01*
X49120989Y-67714854D01*
X49275228Y-67772215D01*
X49282209Y-67773146D01*
X49282211Y-67773147D01*
X49431361Y-67793048D01*
X49431365Y-67793048D01*
X49438342Y-67793979D01*
X49445353Y-67793341D01*
X49445357Y-67793341D01*
X49595203Y-67779704D01*
X49595204Y-67779704D01*
X49602224Y-67779065D01*
X49639815Y-67766851D01*
X49710781Y-67764823D01*
X49722670Y-67768587D01*
X49725820Y-67769758D01*
X49725824Y-67769759D01*
X49732428Y-67772215D01*
X49739409Y-67773146D01*
X49739411Y-67773147D01*
X49888561Y-67793048D01*
X49888565Y-67793048D01*
X49895542Y-67793979D01*
X49902553Y-67793341D01*
X49902557Y-67793341D01*
X50052403Y-67779704D01*
X50052404Y-67779704D01*
X50059424Y-67779065D01*
X50191908Y-67736018D01*
X50262874Y-67733990D01*
X50274763Y-67737754D01*
X50360820Y-67769758D01*
X50360824Y-67769759D01*
X50367428Y-67772215D01*
X50374409Y-67773146D01*
X50374411Y-67773147D01*
X50523561Y-67793048D01*
X50523565Y-67793048D01*
X50530542Y-67793979D01*
X50537553Y-67793341D01*
X50537557Y-67793341D01*
X50687403Y-67779704D01*
X50687404Y-67779704D01*
X50694424Y-67779065D01*
X50732015Y-67766851D01*
X50802981Y-67764823D01*
X50814870Y-67768587D01*
X50818020Y-67769758D01*
X50818024Y-67769759D01*
X50824628Y-67772215D01*
X50831609Y-67773146D01*
X50831611Y-67773147D01*
X50980761Y-67793048D01*
X50980765Y-67793048D01*
X50987742Y-67793979D01*
X50994753Y-67793341D01*
X50994757Y-67793341D01*
X51144603Y-67779704D01*
X51144604Y-67779704D01*
X51151624Y-67779065D01*
X51183872Y-67768587D01*
X51301430Y-67730390D01*
X51301433Y-67730389D01*
X51308129Y-67728213D01*
X51449479Y-67643951D01*
X51568649Y-67530468D01*
X51584658Y-67506373D01*
X51655814Y-67399275D01*
X51655815Y-67399273D01*
X51659715Y-67393403D01*
X51718151Y-67239568D01*
X51726815Y-67177923D01*
X51740502Y-67080534D01*
X51740503Y-67080527D01*
X51741053Y-67076610D01*
X51741341Y-67056000D01*
X51722998Y-66892466D01*
X51720592Y-66885555D01*
X51694010Y-66809224D01*
X51687905Y-66791694D01*
X58697931Y-66791694D01*
X58713989Y-66955468D01*
X58765932Y-67111615D01*
X58769581Y-67117640D01*
X58847413Y-67246154D01*
X58851179Y-67252373D01*
X58965491Y-67370747D01*
X59103189Y-67460854D01*
X59257428Y-67518215D01*
X59264409Y-67519146D01*
X59264411Y-67519147D01*
X59413561Y-67539048D01*
X59413565Y-67539048D01*
X59420542Y-67539979D01*
X59427553Y-67539341D01*
X59427557Y-67539341D01*
X59577403Y-67525704D01*
X59577404Y-67525704D01*
X59584424Y-67525065D01*
X59641952Y-67506373D01*
X59734230Y-67476390D01*
X59734233Y-67476389D01*
X59740929Y-67474213D01*
X59882279Y-67389951D01*
X60001449Y-67276468D01*
X60017458Y-67252373D01*
X60088614Y-67145275D01*
X60088615Y-67145273D01*
X60092515Y-67139403D01*
X60150951Y-66985568D01*
X60163190Y-66898484D01*
X60173302Y-66826534D01*
X60173303Y-66826527D01*
X60173853Y-66822610D01*
X60174040Y-66809224D01*
X60174086Y-66805962D01*
X60174086Y-66805956D01*
X60174141Y-66802000D01*
X60155798Y-66638466D01*
X60153339Y-66631403D01*
X60103998Y-66489717D01*
X60101680Y-66483060D01*
X60049505Y-66399562D01*
X60018209Y-66349479D01*
X60014476Y-66343505D01*
X59955081Y-66283694D01*
X63777931Y-66283694D01*
X63793989Y-66447468D01*
X63845932Y-66603615D01*
X63849581Y-66609640D01*
X63925281Y-66734634D01*
X63931179Y-66744373D01*
X63936070Y-66749438D01*
X63936071Y-66749439D01*
X63989522Y-66804789D01*
X64045491Y-66862747D01*
X64183189Y-66952854D01*
X64337428Y-67010215D01*
X64344409Y-67011146D01*
X64344411Y-67011147D01*
X64493561Y-67031048D01*
X64493565Y-67031048D01*
X64500542Y-67031979D01*
X64507553Y-67031341D01*
X64507557Y-67031341D01*
X64657403Y-67017704D01*
X64657404Y-67017704D01*
X64664424Y-67017065D01*
X64693062Y-67007760D01*
X64814230Y-66968390D01*
X64814233Y-66968389D01*
X64820929Y-66966213D01*
X64962279Y-66881951D01*
X65081449Y-66768468D01*
X65085350Y-66762597D01*
X65168614Y-66637275D01*
X65168615Y-66637273D01*
X65172515Y-66631403D01*
X65230951Y-66477568D01*
X65243218Y-66390284D01*
X65253302Y-66318534D01*
X65253303Y-66318527D01*
X65253853Y-66314610D01*
X65254141Y-66294000D01*
X65235798Y-66130466D01*
X65233392Y-66123555D01*
X65185991Y-65987439D01*
X65181680Y-65975060D01*
X65094476Y-65835505D01*
X65036499Y-65777122D01*
X64983486Y-65723737D01*
X64983482Y-65723734D01*
X64978522Y-65718739D01*
X64839580Y-65630563D01*
X64790447Y-65613068D01*
X64691189Y-65577723D01*
X64691187Y-65577722D01*
X64684555Y-65575361D01*
X64677569Y-65574528D01*
X64677565Y-65574527D01*
X64563071Y-65560875D01*
X64521153Y-65555877D01*
X64514150Y-65556613D01*
X64514149Y-65556613D01*
X64470935Y-65561155D01*
X64357495Y-65573078D01*
X64350827Y-65575348D01*
X64208382Y-65623840D01*
X64208379Y-65623841D01*
X64201715Y-65626110D01*
X64061555Y-65712337D01*
X63999066Y-65773531D01*
X63957805Y-65813937D01*
X63943982Y-65827473D01*
X63854838Y-65965797D01*
X63852427Y-65972420D01*
X63852426Y-65972423D01*
X63800966Y-66113809D01*
X63800965Y-66113814D01*
X63798556Y-66120432D01*
X63777931Y-66283694D01*
X59955081Y-66283694D01*
X59948136Y-66276700D01*
X59903486Y-66231737D01*
X59903482Y-66231734D01*
X59898522Y-66226739D01*
X59759580Y-66138563D01*
X59664218Y-66104606D01*
X59611189Y-66085723D01*
X59611187Y-66085722D01*
X59604555Y-66083361D01*
X59597569Y-66082528D01*
X59597565Y-66082527D01*
X59470673Y-66067397D01*
X59441153Y-66063877D01*
X59434150Y-66064613D01*
X59434149Y-66064613D01*
X59407662Y-66067397D01*
X59277495Y-66081078D01*
X59270827Y-66083348D01*
X59128382Y-66131840D01*
X59128379Y-66131841D01*
X59121715Y-66134110D01*
X59039258Y-66184838D01*
X58996570Y-66211100D01*
X58981555Y-66220337D01*
X58969914Y-66231737D01*
X58881280Y-66318534D01*
X58863982Y-66335473D01*
X58774838Y-66473797D01*
X58772427Y-66480420D01*
X58772426Y-66480423D01*
X58720966Y-66621809D01*
X58720965Y-66621814D01*
X58718556Y-66628432D01*
X58697931Y-66791694D01*
X51687905Y-66791694D01*
X51668880Y-66737060D01*
X51603114Y-66631812D01*
X51585409Y-66603479D01*
X51581676Y-66597505D01*
X51474638Y-66489717D01*
X51470686Y-66485737D01*
X51470682Y-66485734D01*
X51465722Y-66480739D01*
X51459773Y-66476964D01*
X51459771Y-66476962D01*
X51357800Y-66412249D01*
X51337635Y-66399452D01*
X51290836Y-66346063D01*
X51280331Y-66275848D01*
X51309455Y-66211100D01*
X51340631Y-66184838D01*
X51418257Y-66138563D01*
X51449479Y-66119951D01*
X51568649Y-66006468D01*
X51585094Y-65981717D01*
X51655814Y-65875275D01*
X51655815Y-65875273D01*
X51659715Y-65869403D01*
X51718151Y-65715568D01*
X51730430Y-65628198D01*
X51740502Y-65556534D01*
X51740503Y-65556527D01*
X51741053Y-65552610D01*
X51741341Y-65532000D01*
X51722998Y-65368466D01*
X51717198Y-65351809D01*
X51671198Y-65219717D01*
X51668880Y-65213060D01*
X51581676Y-65073505D01*
X51516538Y-65007911D01*
X51470686Y-64961737D01*
X51470682Y-64961734D01*
X51465722Y-64956739D01*
X51326780Y-64868563D01*
X51277647Y-64851068D01*
X51178389Y-64815723D01*
X51178387Y-64815722D01*
X51171755Y-64813361D01*
X51164769Y-64812528D01*
X51164765Y-64812527D01*
X51050271Y-64798875D01*
X51008353Y-64793877D01*
X51001350Y-64794613D01*
X51001349Y-64794613D01*
X50851703Y-64810341D01*
X50851699Y-64810342D01*
X50844695Y-64811078D01*
X50816421Y-64820703D01*
X50745490Y-64823721D01*
X50733551Y-64820125D01*
X50721186Y-64815722D01*
X50721185Y-64815722D01*
X50714555Y-64813361D01*
X50551153Y-64793877D01*
X50544150Y-64794613D01*
X50544149Y-64794613D01*
X50500935Y-64799155D01*
X50387495Y-64811078D01*
X50380824Y-64813349D01*
X50268322Y-64851647D01*
X50197390Y-64854665D01*
X50185451Y-64851068D01*
X50086193Y-64815724D01*
X50086187Y-64815723D01*
X50079555Y-64813361D01*
X50072569Y-64812528D01*
X50072565Y-64812527D01*
X49958071Y-64798875D01*
X49916153Y-64793877D01*
X49909150Y-64794613D01*
X49909149Y-64794613D01*
X49759503Y-64810341D01*
X49759499Y-64810342D01*
X49752495Y-64811078D01*
X49724221Y-64820703D01*
X49653290Y-64823721D01*
X49641351Y-64820125D01*
X49628986Y-64815722D01*
X49628985Y-64815722D01*
X49622355Y-64813361D01*
X49458953Y-64793877D01*
X49451950Y-64794613D01*
X49451949Y-64794613D01*
X49408735Y-64799155D01*
X49295295Y-64811078D01*
X49288627Y-64813348D01*
X49146182Y-64861840D01*
X49146179Y-64861841D01*
X49139515Y-64864110D01*
X48999355Y-64950337D01*
X48881782Y-65065473D01*
X48792638Y-65203797D01*
X48790227Y-65210420D01*
X48790226Y-65210423D01*
X48738766Y-65351809D01*
X48738765Y-65351814D01*
X48736356Y-65358432D01*
X48715731Y-65521694D01*
X48731789Y-65685468D01*
X48783732Y-65841615D01*
X48787381Y-65847640D01*
X48855351Y-65959870D01*
X48868979Y-65982373D01*
X48983291Y-66100747D01*
X48989183Y-66104602D01*
X48989187Y-66104606D01*
X49119202Y-66189685D01*
X49165251Y-66243722D01*
X49174774Y-66314077D01*
X49144749Y-66378412D01*
X49116234Y-66402433D01*
X48999355Y-66474337D01*
X48881782Y-66589473D01*
X48792638Y-66727797D01*
X48790227Y-66734420D01*
X48790226Y-66734423D01*
X48738766Y-66875809D01*
X48738765Y-66875814D01*
X48736356Y-66882432D01*
X48715731Y-67045694D01*
X39966034Y-67045694D01*
X40070279Y-66983551D01*
X40189449Y-66870068D01*
X40194313Y-66862747D01*
X40276614Y-66738875D01*
X40276615Y-66738873D01*
X40280515Y-66733003D01*
X40338951Y-66579168D01*
X40347507Y-66518289D01*
X40361302Y-66420134D01*
X40361303Y-66420127D01*
X40361853Y-66416210D01*
X40361995Y-66406030D01*
X40362086Y-66399562D01*
X40362086Y-66399556D01*
X40362141Y-66395600D01*
X40343798Y-66232066D01*
X40337998Y-66215409D01*
X40311237Y-66138563D01*
X40289680Y-66076660D01*
X40282214Y-66064711D01*
X40206209Y-65943079D01*
X40202476Y-65937105D01*
X40128701Y-65862813D01*
X40091486Y-65825337D01*
X40091482Y-65825334D01*
X40086522Y-65820339D01*
X39947580Y-65732163D01*
X39881388Y-65708593D01*
X39799189Y-65679323D01*
X39799187Y-65679322D01*
X39792555Y-65676961D01*
X39785569Y-65676128D01*
X39785565Y-65676127D01*
X39671071Y-65662475D01*
X39629153Y-65657477D01*
X39622150Y-65658213D01*
X39622149Y-65658213D01*
X39578935Y-65662755D01*
X39465495Y-65674678D01*
X39458827Y-65676948D01*
X39316382Y-65725440D01*
X39316379Y-65725441D01*
X39309715Y-65727710D01*
X39169555Y-65813937D01*
X39051982Y-65929073D01*
X38962838Y-66067397D01*
X38960427Y-66074020D01*
X38960426Y-66074023D01*
X38908966Y-66215409D01*
X38908965Y-66215414D01*
X38906556Y-66222032D01*
X38885931Y-66385294D01*
X17780500Y-66385294D01*
X17780500Y-65442462D01*
X24827424Y-65442462D01*
X24836720Y-65454477D01*
X24887925Y-65490331D01*
X24897420Y-65495814D01*
X25094878Y-65587890D01*
X25105170Y-65591636D01*
X25315619Y-65648025D01*
X25326412Y-65649928D01*
X25543456Y-65668917D01*
X25554406Y-65668917D01*
X25771450Y-65649928D01*
X25782243Y-65648025D01*
X25992692Y-65591636D01*
X26002984Y-65587890D01*
X26200442Y-65495814D01*
X26209937Y-65490331D01*
X26261979Y-65453891D01*
X26270355Y-65443412D01*
X26263287Y-65429966D01*
X25561743Y-64728422D01*
X25547799Y-64720808D01*
X25545966Y-64720939D01*
X25539351Y-64725190D01*
X24833854Y-65430687D01*
X24827424Y-65442462D01*
X17780500Y-65442462D01*
X17780500Y-64361875D01*
X24236414Y-64361875D01*
X24255403Y-64578919D01*
X24257306Y-64589712D01*
X24313695Y-64800161D01*
X24317441Y-64810453D01*
X24409517Y-65007911D01*
X24415000Y-65017406D01*
X24451440Y-65069448D01*
X24461919Y-65077824D01*
X24475365Y-65070756D01*
X25176909Y-64369212D01*
X25183287Y-64357532D01*
X25913339Y-64357532D01*
X25913470Y-64359365D01*
X25917721Y-64365980D01*
X26623218Y-65071477D01*
X26634993Y-65077907D01*
X26647008Y-65068611D01*
X26682862Y-65017406D01*
X26688345Y-65007911D01*
X26780421Y-64810453D01*
X26784167Y-64800161D01*
X26840556Y-64589712D01*
X26842459Y-64578919D01*
X26861448Y-64361875D01*
X26861448Y-64350925D01*
X26842459Y-64133881D01*
X26840556Y-64123088D01*
X26784167Y-63912639D01*
X26780421Y-63902347D01*
X26688345Y-63704889D01*
X26682862Y-63695394D01*
X26646422Y-63643352D01*
X26635943Y-63634976D01*
X26622497Y-63642044D01*
X25920953Y-64343588D01*
X25913339Y-64357532D01*
X25183287Y-64357532D01*
X25184523Y-64355268D01*
X25184392Y-64353435D01*
X25180141Y-64346820D01*
X24474644Y-63641323D01*
X24462869Y-63634893D01*
X24450854Y-63644189D01*
X24415000Y-63695394D01*
X24409517Y-63704889D01*
X24317441Y-63902347D01*
X24313695Y-63912639D01*
X24257306Y-64123088D01*
X24255403Y-64133881D01*
X24236414Y-64350925D01*
X24236414Y-64361875D01*
X17780500Y-64361875D01*
X17780500Y-62971400D01*
X21395433Y-62971400D01*
X21415388Y-63199487D01*
X21416812Y-63204800D01*
X21416812Y-63204802D01*
X21451277Y-63333424D01*
X21474647Y-63420643D01*
X21476970Y-63425624D01*
X21476970Y-63425625D01*
X21569082Y-63623162D01*
X21569085Y-63623167D01*
X21571408Y-63628149D01*
X21625142Y-63704889D01*
X21693791Y-63802929D01*
X21702733Y-63815700D01*
X21864631Y-63977598D01*
X21869139Y-63980755D01*
X21869142Y-63980757D01*
X21947320Y-64035498D01*
X22052182Y-64108923D01*
X22057164Y-64111246D01*
X22057169Y-64111249D01*
X22192577Y-64174390D01*
X22259688Y-64205684D01*
X22264996Y-64207106D01*
X22264998Y-64207107D01*
X22475529Y-64263519D01*
X22475531Y-64263519D01*
X22480844Y-64264943D01*
X22708931Y-64284898D01*
X22937018Y-64264943D01*
X22942331Y-64263519D01*
X22942333Y-64263519D01*
X23152864Y-64207107D01*
X23152866Y-64207106D01*
X23158174Y-64205684D01*
X23225285Y-64174390D01*
X23360693Y-64111249D01*
X23360698Y-64111246D01*
X23365680Y-64108923D01*
X23470542Y-64035498D01*
X23548720Y-63980757D01*
X23548723Y-63980755D01*
X23553231Y-63977598D01*
X23715129Y-63815700D01*
X23724072Y-63802929D01*
X23792720Y-63704889D01*
X23846454Y-63628149D01*
X23848777Y-63623167D01*
X23848780Y-63623162D01*
X23940892Y-63425625D01*
X23940892Y-63425624D01*
X23943215Y-63420643D01*
X23966586Y-63333424D01*
X24001050Y-63204802D01*
X24001050Y-63204800D01*
X24002474Y-63199487D01*
X24022429Y-62971400D01*
X24002474Y-62743313D01*
X23997902Y-62726249D01*
X23944638Y-62527467D01*
X23944637Y-62527465D01*
X23943215Y-62522157D01*
X23936945Y-62508711D01*
X23848780Y-62319638D01*
X23848777Y-62319633D01*
X23846454Y-62314651D01*
X23715129Y-62127100D01*
X23553231Y-61965202D01*
X23548723Y-61962045D01*
X23548720Y-61962043D01*
X23424852Y-61875310D01*
X23365680Y-61833877D01*
X23360698Y-61831554D01*
X23360693Y-61831551D01*
X23163156Y-61739439D01*
X23163155Y-61739439D01*
X23158174Y-61737116D01*
X23152866Y-61735694D01*
X23152864Y-61735693D01*
X23049912Y-61708107D01*
X22989289Y-61671155D01*
X22958268Y-61607294D01*
X22960766Y-61586400D01*
X24235433Y-61586400D01*
X24255388Y-61814487D01*
X24256812Y-61819800D01*
X24256812Y-61819802D01*
X24285740Y-61927760D01*
X24314647Y-62035643D01*
X24316970Y-62040624D01*
X24316970Y-62040625D01*
X24409082Y-62238162D01*
X24409085Y-62238167D01*
X24411408Y-62243149D01*
X24464966Y-62319638D01*
X24536152Y-62421301D01*
X24542733Y-62430700D01*
X24704631Y-62592598D01*
X24709139Y-62595755D01*
X24709142Y-62595757D01*
X24742298Y-62618973D01*
X24892182Y-62723923D01*
X24897164Y-62726246D01*
X24897169Y-62726249D01*
X25041346Y-62793479D01*
X25099688Y-62820684D01*
X25104995Y-62822106D01*
X25208917Y-62849952D01*
X25269539Y-62886904D01*
X25300561Y-62950765D01*
X25292132Y-63021259D01*
X25246929Y-63076006D01*
X25208916Y-63093366D01*
X25105170Y-63121164D01*
X25094878Y-63124910D01*
X24897420Y-63216986D01*
X24887925Y-63222469D01*
X24835883Y-63258909D01*
X24827507Y-63269388D01*
X24834575Y-63282834D01*
X25536119Y-63984378D01*
X25550063Y-63991992D01*
X25551896Y-63991861D01*
X25558511Y-63987610D01*
X26056427Y-63489694D01*
X35710931Y-63489694D01*
X35726989Y-63653468D01*
X35778932Y-63809615D01*
X35782581Y-63815640D01*
X35857615Y-63939534D01*
X35864179Y-63950373D01*
X35869070Y-63955438D01*
X35869071Y-63955439D01*
X35887447Y-63974468D01*
X35978491Y-64068747D01*
X36116189Y-64158854D01*
X36270428Y-64216215D01*
X36277409Y-64217146D01*
X36277411Y-64217147D01*
X36426561Y-64237048D01*
X36426565Y-64237048D01*
X36433542Y-64237979D01*
X36440553Y-64237341D01*
X36440557Y-64237341D01*
X36590403Y-64223704D01*
X36590404Y-64223704D01*
X36597424Y-64223065D01*
X36658066Y-64203361D01*
X36747230Y-64174390D01*
X36747233Y-64174389D01*
X36753929Y-64172213D01*
X36895279Y-64087951D01*
X37014449Y-63974468D01*
X37030458Y-63950373D01*
X37060807Y-63904694D01*
X38123931Y-63904694D01*
X38139989Y-64068468D01*
X38191932Y-64224615D01*
X38277179Y-64365373D01*
X38391491Y-64483747D01*
X38529189Y-64573854D01*
X38683428Y-64631215D01*
X38690409Y-64632146D01*
X38690411Y-64632147D01*
X38839561Y-64652048D01*
X38839565Y-64652048D01*
X38846542Y-64652979D01*
X38853553Y-64652341D01*
X38853557Y-64652341D01*
X39003403Y-64638704D01*
X39003404Y-64638704D01*
X39010424Y-64638065D01*
X39039062Y-64628760D01*
X39160230Y-64589390D01*
X39160233Y-64589389D01*
X39166929Y-64587213D01*
X39308279Y-64502951D01*
X39427449Y-64389468D01*
X39440907Y-64369212D01*
X39514614Y-64258275D01*
X39514615Y-64258273D01*
X39518515Y-64252403D01*
X39576951Y-64098568D01*
X39592999Y-63984378D01*
X39599302Y-63939534D01*
X39599303Y-63939527D01*
X39599853Y-63935610D01*
X39600141Y-63915000D01*
X39581798Y-63751466D01*
X39579322Y-63744354D01*
X39555885Y-63677055D01*
X39527680Y-63596060D01*
X39508164Y-63564827D01*
X39444209Y-63462479D01*
X39440476Y-63456505D01*
X39376875Y-63392459D01*
X39329486Y-63344737D01*
X39329482Y-63344734D01*
X39324522Y-63339739D01*
X39185580Y-63251563D01*
X39141015Y-63235694D01*
X69111931Y-63235694D01*
X69127989Y-63399468D01*
X69179932Y-63555615D01*
X69183581Y-63561640D01*
X69261413Y-63690154D01*
X69265179Y-63696373D01*
X69270070Y-63701438D01*
X69270071Y-63701439D01*
X69311956Y-63744812D01*
X69379491Y-63814747D01*
X69517189Y-63904854D01*
X69671428Y-63962215D01*
X69678409Y-63963146D01*
X69678411Y-63963147D01*
X69827561Y-63983048D01*
X69827565Y-63983048D01*
X69834542Y-63983979D01*
X69841553Y-63983341D01*
X69841557Y-63983341D01*
X69991403Y-63969704D01*
X69991404Y-63969704D01*
X69998424Y-63969065D01*
X70055952Y-63950373D01*
X70148230Y-63920390D01*
X70148233Y-63920389D01*
X70154929Y-63918213D01*
X70296279Y-63833951D01*
X70415449Y-63720468D01*
X70432108Y-63695394D01*
X70502614Y-63589275D01*
X70502615Y-63589273D01*
X70506515Y-63583403D01*
X70564951Y-63429568D01*
X70565931Y-63422597D01*
X70565932Y-63422592D01*
X70582537Y-63304434D01*
X70611825Y-63239760D01*
X70671429Y-63201186D01*
X70742425Y-63200961D01*
X70802273Y-63239154D01*
X70826869Y-63282197D01*
X70852134Y-63358147D01*
X70864432Y-63395115D01*
X70881073Y-63422592D01*
X70942812Y-63524534D01*
X70949679Y-63535873D01*
X70954570Y-63540938D01*
X70954571Y-63540939D01*
X71002030Y-63590084D01*
X71063991Y-63654247D01*
X71201689Y-63744354D01*
X71355928Y-63801715D01*
X71362909Y-63802646D01*
X71362911Y-63802647D01*
X71512061Y-63822548D01*
X71512065Y-63822548D01*
X71519042Y-63823479D01*
X71526053Y-63822841D01*
X71526057Y-63822841D01*
X71675903Y-63809204D01*
X71675904Y-63809204D01*
X71682924Y-63808565D01*
X71711562Y-63799260D01*
X71832730Y-63759890D01*
X71832733Y-63759889D01*
X71839429Y-63757713D01*
X71980779Y-63673451D01*
X72099949Y-63559968D01*
X72103850Y-63554097D01*
X72187114Y-63428775D01*
X72187115Y-63428773D01*
X72191015Y-63422903D01*
X72249451Y-63269068D01*
X72260000Y-63194007D01*
X72271802Y-63110034D01*
X72271803Y-63110027D01*
X72272353Y-63106110D01*
X72272531Y-63093366D01*
X72272586Y-63089462D01*
X72272586Y-63089456D01*
X72272641Y-63085500D01*
X72271485Y-63075194D01*
X72574431Y-63075194D01*
X72590489Y-63238968D01*
X72642432Y-63395115D01*
X72659073Y-63422592D01*
X72720812Y-63524534D01*
X72727679Y-63535873D01*
X72732570Y-63540938D01*
X72732571Y-63540939D01*
X72780030Y-63590084D01*
X72841991Y-63654247D01*
X72979689Y-63744354D01*
X73133928Y-63801715D01*
X73140909Y-63802646D01*
X73140911Y-63802647D01*
X73290061Y-63822548D01*
X73290065Y-63822548D01*
X73297042Y-63823479D01*
X73304053Y-63822841D01*
X73304057Y-63822841D01*
X73453903Y-63809204D01*
X73453904Y-63809204D01*
X73460924Y-63808565D01*
X73489562Y-63799260D01*
X73610730Y-63759890D01*
X73610733Y-63759889D01*
X73617429Y-63757713D01*
X73758779Y-63673451D01*
X73877949Y-63559968D01*
X73881850Y-63554097D01*
X73965114Y-63428775D01*
X73965115Y-63428773D01*
X73969015Y-63422903D01*
X74027451Y-63269068D01*
X74038000Y-63194007D01*
X74049802Y-63110034D01*
X74049803Y-63110027D01*
X74050353Y-63106110D01*
X74050531Y-63093366D01*
X74050586Y-63089462D01*
X74050586Y-63089456D01*
X74050641Y-63085500D01*
X74049485Y-63075194D01*
X75301431Y-63075194D01*
X75317489Y-63238968D01*
X75369432Y-63395115D01*
X75386073Y-63422592D01*
X75447812Y-63524534D01*
X75454679Y-63535873D01*
X75459570Y-63540938D01*
X75459571Y-63540939D01*
X75507030Y-63590084D01*
X75568991Y-63654247D01*
X75706689Y-63744354D01*
X75860928Y-63801715D01*
X75867909Y-63802646D01*
X75867911Y-63802647D01*
X76017061Y-63822548D01*
X76017065Y-63822548D01*
X76024042Y-63823479D01*
X76031053Y-63822841D01*
X76031057Y-63822841D01*
X76180903Y-63809204D01*
X76180904Y-63809204D01*
X76187924Y-63808565D01*
X76216562Y-63799260D01*
X76337730Y-63759890D01*
X76337733Y-63759889D01*
X76344429Y-63757713D01*
X76485779Y-63673451D01*
X76604949Y-63559968D01*
X76608850Y-63554097D01*
X76692114Y-63428775D01*
X76692115Y-63428773D01*
X76696015Y-63422903D01*
X76754451Y-63269068D01*
X76765000Y-63194007D01*
X76776802Y-63110034D01*
X76776803Y-63110027D01*
X76777353Y-63106110D01*
X76777531Y-63093366D01*
X76777586Y-63089462D01*
X76777586Y-63089456D01*
X76777641Y-63085500D01*
X76759298Y-62921966D01*
X76753498Y-62905309D01*
X76707498Y-62773217D01*
X76705180Y-62766560D01*
X76687333Y-62737998D01*
X76621709Y-62632979D01*
X76617976Y-62627005D01*
X76521371Y-62529723D01*
X76506986Y-62515237D01*
X76506982Y-62515234D01*
X76502022Y-62510239D01*
X76363080Y-62422063D01*
X76313947Y-62404568D01*
X76214689Y-62369223D01*
X76214687Y-62369222D01*
X76208055Y-62366861D01*
X76201069Y-62366028D01*
X76201065Y-62366027D01*
X76086571Y-62352375D01*
X76044653Y-62347377D01*
X76037650Y-62348113D01*
X76037649Y-62348113D01*
X75994435Y-62352655D01*
X75880995Y-62364578D01*
X75874327Y-62366848D01*
X75731882Y-62415340D01*
X75731879Y-62415341D01*
X75725215Y-62417610D01*
X75585055Y-62503837D01*
X75467482Y-62618973D01*
X75378338Y-62757297D01*
X75375927Y-62763920D01*
X75375926Y-62763923D01*
X75324466Y-62905309D01*
X75324465Y-62905314D01*
X75322056Y-62911932D01*
X75301431Y-63075194D01*
X74049485Y-63075194D01*
X74032298Y-62921966D01*
X74026498Y-62905309D01*
X73980498Y-62773217D01*
X73978180Y-62766560D01*
X73960333Y-62737998D01*
X73894709Y-62632979D01*
X73890976Y-62627005D01*
X73794371Y-62529723D01*
X73779986Y-62515237D01*
X73779982Y-62515234D01*
X73775022Y-62510239D01*
X73636080Y-62422063D01*
X73586947Y-62404568D01*
X73487689Y-62369223D01*
X73487687Y-62369222D01*
X73481055Y-62366861D01*
X73474069Y-62366028D01*
X73474065Y-62366027D01*
X73359571Y-62352375D01*
X73317653Y-62347377D01*
X73310650Y-62348113D01*
X73310649Y-62348113D01*
X73267435Y-62352655D01*
X73153995Y-62364578D01*
X73147327Y-62366848D01*
X73004882Y-62415340D01*
X73004879Y-62415341D01*
X72998215Y-62417610D01*
X72858055Y-62503837D01*
X72740482Y-62618973D01*
X72651338Y-62757297D01*
X72648927Y-62763920D01*
X72648926Y-62763923D01*
X72597466Y-62905309D01*
X72597465Y-62905314D01*
X72595056Y-62911932D01*
X72574431Y-63075194D01*
X72271485Y-63075194D01*
X72254298Y-62921966D01*
X72248498Y-62905309D01*
X72202498Y-62773217D01*
X72200180Y-62766560D01*
X72182333Y-62737998D01*
X72116709Y-62632979D01*
X72112976Y-62627005D01*
X72016371Y-62529723D01*
X72001986Y-62515237D01*
X72001982Y-62515234D01*
X71997022Y-62510239D01*
X71858080Y-62422063D01*
X71808947Y-62404568D01*
X71709689Y-62369223D01*
X71709687Y-62369222D01*
X71703055Y-62366861D01*
X71696069Y-62366028D01*
X71696065Y-62366027D01*
X71581571Y-62352375D01*
X71539653Y-62347377D01*
X71532650Y-62348113D01*
X71532649Y-62348113D01*
X71489435Y-62352655D01*
X71375995Y-62364578D01*
X71369327Y-62366848D01*
X71226882Y-62415340D01*
X71226879Y-62415341D01*
X71220215Y-62417610D01*
X71080055Y-62503837D01*
X70962482Y-62618973D01*
X70873338Y-62757297D01*
X70870927Y-62763920D01*
X70870926Y-62763923D01*
X70819466Y-62905309D01*
X70819465Y-62905314D01*
X70817056Y-62911932D01*
X70802756Y-63025128D01*
X70774376Y-63090199D01*
X70715316Y-63129601D01*
X70644330Y-63130818D01*
X70583955Y-63093463D01*
X70558760Y-63050768D01*
X70523935Y-62950765D01*
X70515680Y-62927060D01*
X70511872Y-62920965D01*
X70432209Y-62793479D01*
X70428476Y-62787505D01*
X70362201Y-62720766D01*
X70317486Y-62675737D01*
X70317482Y-62675734D01*
X70312522Y-62670739D01*
X70173580Y-62582563D01*
X70124447Y-62565068D01*
X70025189Y-62529723D01*
X70025187Y-62529722D01*
X70018555Y-62527361D01*
X70011569Y-62526528D01*
X70011565Y-62526527D01*
X69897071Y-62512875D01*
X69855153Y-62507877D01*
X69848150Y-62508613D01*
X69848149Y-62508613D01*
X69804935Y-62513155D01*
X69691495Y-62525078D01*
X69684827Y-62527348D01*
X69542382Y-62575840D01*
X69542379Y-62575841D01*
X69535715Y-62578110D01*
X69395555Y-62664337D01*
X69277982Y-62779473D01*
X69188838Y-62917797D01*
X69186427Y-62924420D01*
X69186426Y-62924423D01*
X69134966Y-63065809D01*
X69134965Y-63065814D01*
X69132556Y-63072432D01*
X69111931Y-63235694D01*
X39141015Y-63235694D01*
X39088477Y-63216986D01*
X39037189Y-63198723D01*
X39037187Y-63198722D01*
X39030555Y-63196361D01*
X39023569Y-63195528D01*
X39023565Y-63195527D01*
X38909071Y-63181875D01*
X38867153Y-63176877D01*
X38860150Y-63177613D01*
X38860149Y-63177613D01*
X38827354Y-63181060D01*
X38703495Y-63194078D01*
X38696827Y-63196348D01*
X38554382Y-63244840D01*
X38554379Y-63244841D01*
X38547715Y-63247110D01*
X38407555Y-63333337D01*
X38397213Y-63343465D01*
X38313314Y-63425625D01*
X38289982Y-63448473D01*
X38200838Y-63586797D01*
X38198427Y-63593420D01*
X38198426Y-63593423D01*
X38146966Y-63734809D01*
X38146965Y-63734814D01*
X38144556Y-63741432D01*
X38123931Y-63904694D01*
X37060807Y-63904694D01*
X37101614Y-63843275D01*
X37101615Y-63843273D01*
X37105515Y-63837403D01*
X37163951Y-63683568D01*
X37181322Y-63559968D01*
X37186302Y-63524534D01*
X37186303Y-63524527D01*
X37186853Y-63520610D01*
X37187141Y-63500000D01*
X37168798Y-63336466D01*
X37162998Y-63319809D01*
X37137174Y-63245653D01*
X37114680Y-63181060D01*
X37079594Y-63124910D01*
X37031209Y-63047479D01*
X37027476Y-63041505D01*
X36969499Y-62983122D01*
X36916486Y-62929737D01*
X36916482Y-62929734D01*
X36911522Y-62924739D01*
X36772580Y-62836563D01*
X36721463Y-62818361D01*
X36624189Y-62783723D01*
X36624187Y-62783722D01*
X36617555Y-62781361D01*
X36610569Y-62780528D01*
X36610565Y-62780527D01*
X36493427Y-62766560D01*
X36454153Y-62761877D01*
X36447150Y-62762613D01*
X36447149Y-62762613D01*
X36409597Y-62766560D01*
X36290495Y-62779078D01*
X36283827Y-62781348D01*
X36141382Y-62829840D01*
X36141379Y-62829841D01*
X36134715Y-62832110D01*
X35994555Y-62918337D01*
X35961441Y-62950765D01*
X35885509Y-63025123D01*
X35876982Y-63033473D01*
X35787838Y-63171797D01*
X35785427Y-63178420D01*
X35785426Y-63178423D01*
X35733966Y-63319809D01*
X35733965Y-63319814D01*
X35731556Y-63326432D01*
X35710931Y-63489694D01*
X26056427Y-63489694D01*
X26264008Y-63282113D01*
X26270438Y-63270338D01*
X26261142Y-63258323D01*
X26209937Y-63222469D01*
X26200442Y-63216986D01*
X26002984Y-63124910D01*
X25992692Y-63121164D01*
X25888946Y-63093366D01*
X25828323Y-63056415D01*
X25797302Y-62992554D01*
X25805730Y-62922060D01*
X25850933Y-62867312D01*
X25888945Y-62849952D01*
X25992867Y-62822106D01*
X25998174Y-62820684D01*
X26056516Y-62793479D01*
X26200693Y-62726249D01*
X26200698Y-62726246D01*
X26205680Y-62723923D01*
X26355564Y-62618973D01*
X26388720Y-62595757D01*
X26388723Y-62595755D01*
X26393231Y-62592598D01*
X26555129Y-62430700D01*
X26561711Y-62421301D01*
X26632896Y-62319638D01*
X26686454Y-62243149D01*
X26688777Y-62238167D01*
X26688780Y-62238162D01*
X26780892Y-62040625D01*
X26780892Y-62040624D01*
X26783215Y-62035643D01*
X26812123Y-61927760D01*
X26841050Y-61819802D01*
X26841050Y-61819800D01*
X26842474Y-61814487D01*
X26862429Y-61586400D01*
X26842474Y-61358313D01*
X26837902Y-61341249D01*
X26801044Y-61203694D01*
X35075931Y-61203694D01*
X35091989Y-61367468D01*
X35143932Y-61523615D01*
X35147581Y-61529640D01*
X35211996Y-61636000D01*
X35229179Y-61664373D01*
X35343491Y-61782747D01*
X35481189Y-61872854D01*
X35635428Y-61930215D01*
X35642409Y-61931146D01*
X35642411Y-61931147D01*
X35791561Y-61951048D01*
X35791565Y-61951048D01*
X35798542Y-61951979D01*
X35805553Y-61951341D01*
X35805557Y-61951341D01*
X35955403Y-61937704D01*
X35955404Y-61937704D01*
X35962424Y-61937065D01*
X35991062Y-61927760D01*
X36112230Y-61888390D01*
X36112233Y-61888389D01*
X36118929Y-61886213D01*
X36260279Y-61801951D01*
X36379449Y-61688468D01*
X36395458Y-61664373D01*
X36466614Y-61557275D01*
X36466615Y-61557273D01*
X36470515Y-61551403D01*
X36528951Y-61397568D01*
X36551853Y-61234610D01*
X36552141Y-61214000D01*
X36533798Y-61050466D01*
X36530568Y-61041189D01*
X36481998Y-60901717D01*
X36479680Y-60895060D01*
X36456616Y-60858149D01*
X36396209Y-60761479D01*
X36392476Y-60755505D01*
X36293291Y-60655625D01*
X36281486Y-60643737D01*
X36281482Y-60643734D01*
X36276522Y-60638739D01*
X36137580Y-60550563D01*
X36088447Y-60533068D01*
X35989189Y-60497723D01*
X35989187Y-60497722D01*
X35982555Y-60495361D01*
X35975569Y-60494528D01*
X35975565Y-60494527D01*
X35861071Y-60480875D01*
X35819153Y-60475877D01*
X35812150Y-60476613D01*
X35812149Y-60476613D01*
X35768935Y-60481155D01*
X35655495Y-60493078D01*
X35648827Y-60495348D01*
X35506382Y-60543840D01*
X35506379Y-60543841D01*
X35499715Y-60546110D01*
X35359555Y-60632337D01*
X35347914Y-60643737D01*
X35247469Y-60742100D01*
X35241982Y-60747473D01*
X35152838Y-60885797D01*
X35150427Y-60892420D01*
X35150426Y-60892423D01*
X35098966Y-61033809D01*
X35098965Y-61033814D01*
X35096556Y-61040432D01*
X35075931Y-61203694D01*
X26801044Y-61203694D01*
X26784638Y-61142467D01*
X26784637Y-61142465D01*
X26783215Y-61137157D01*
X26780892Y-61132175D01*
X26688780Y-60934638D01*
X26688777Y-60934633D01*
X26686454Y-60929651D01*
X26613029Y-60824789D01*
X26558288Y-60746611D01*
X26558286Y-60746608D01*
X26555129Y-60742100D01*
X26393231Y-60580202D01*
X26388723Y-60577045D01*
X26388720Y-60577043D01*
X26245291Y-60476613D01*
X26205680Y-60448877D01*
X26200698Y-60446554D01*
X26200693Y-60446551D01*
X26003156Y-60354439D01*
X26003155Y-60354439D01*
X25998174Y-60352116D01*
X25992866Y-60350694D01*
X25992864Y-60350693D01*
X25889912Y-60323107D01*
X25829289Y-60286155D01*
X25798268Y-60222294D01*
X25806696Y-60151800D01*
X25851899Y-60097053D01*
X25889912Y-60079693D01*
X25992864Y-60052107D01*
X25992866Y-60052106D01*
X25998174Y-60050684D01*
X26003156Y-60048361D01*
X26200693Y-59956249D01*
X26200698Y-59956246D01*
X26205680Y-59953923D01*
X26310542Y-59880498D01*
X26388720Y-59825757D01*
X26388723Y-59825755D01*
X26393231Y-59822598D01*
X26555129Y-59660700D01*
X26686454Y-59473149D01*
X26688777Y-59468167D01*
X26688780Y-59468162D01*
X26780892Y-59270625D01*
X26780892Y-59270624D01*
X26783215Y-59265643D01*
X26802574Y-59193397D01*
X26841050Y-59049802D01*
X26841050Y-59049800D01*
X26842474Y-59044487D01*
X26862429Y-58816400D01*
X26853513Y-58714494D01*
X42391131Y-58714494D01*
X42407189Y-58878268D01*
X42459132Y-59034415D01*
X42544379Y-59175173D01*
X42658691Y-59293547D01*
X42796389Y-59383654D01*
X42950628Y-59441015D01*
X42957609Y-59441946D01*
X42957611Y-59441947D01*
X43106761Y-59461848D01*
X43106765Y-59461848D01*
X43113742Y-59462779D01*
X43120753Y-59462141D01*
X43120757Y-59462141D01*
X43270603Y-59448504D01*
X43270604Y-59448504D01*
X43277624Y-59447865D01*
X43306262Y-59438560D01*
X43427430Y-59399190D01*
X43427433Y-59399189D01*
X43434129Y-59397013D01*
X43575479Y-59312751D01*
X43694649Y-59199268D01*
X43698550Y-59193397D01*
X43781814Y-59068075D01*
X43781815Y-59068073D01*
X43785715Y-59062203D01*
X43844151Y-58908368D01*
X43867053Y-58745410D01*
X43867195Y-58735230D01*
X43867286Y-58728762D01*
X43867286Y-58728756D01*
X43867341Y-58724800D01*
X43848998Y-58561266D01*
X43843198Y-58544609D01*
X43797198Y-58412517D01*
X43794880Y-58405860D01*
X43767583Y-58362175D01*
X43711409Y-58272279D01*
X43707676Y-58266305D01*
X43649699Y-58207922D01*
X43596686Y-58154537D01*
X43596682Y-58154534D01*
X43591722Y-58149539D01*
X43452780Y-58061363D01*
X43403647Y-58043868D01*
X43304389Y-58008523D01*
X43304387Y-58008522D01*
X43297755Y-58006161D01*
X43290769Y-58005328D01*
X43290765Y-58005327D01*
X43176271Y-57991675D01*
X43134353Y-57986677D01*
X43127350Y-57987413D01*
X43127349Y-57987413D01*
X43084135Y-57991955D01*
X42970695Y-58003878D01*
X42964027Y-58006148D01*
X42821582Y-58054640D01*
X42821579Y-58054641D01*
X42814915Y-58056910D01*
X42674755Y-58143137D01*
X42557182Y-58258273D01*
X42468038Y-58396597D01*
X42465627Y-58403220D01*
X42465626Y-58403223D01*
X42414166Y-58544609D01*
X42414165Y-58544614D01*
X42411756Y-58551232D01*
X42391131Y-58714494D01*
X26853513Y-58714494D01*
X26842474Y-58588313D01*
X26837902Y-58571249D01*
X26784638Y-58372467D01*
X26784637Y-58372465D01*
X26783215Y-58367157D01*
X26780892Y-58362175D01*
X26688780Y-58164638D01*
X26688777Y-58164633D01*
X26686454Y-58159651D01*
X26565920Y-57987511D01*
X26558288Y-57976611D01*
X26558286Y-57976608D01*
X26555129Y-57972100D01*
X26393231Y-57810202D01*
X26388723Y-57807045D01*
X26388720Y-57807043D01*
X26310542Y-57752302D01*
X26205680Y-57678877D01*
X26200698Y-57676554D01*
X26200693Y-57676551D01*
X26003156Y-57584439D01*
X26003155Y-57584439D01*
X25998174Y-57582116D01*
X25992866Y-57580694D01*
X25992864Y-57580693D01*
X25889912Y-57553107D01*
X25829289Y-57516155D01*
X25798268Y-57452294D01*
X25806696Y-57381800D01*
X25851899Y-57327053D01*
X25889912Y-57309693D01*
X25992864Y-57282107D01*
X25992866Y-57282106D01*
X25998174Y-57280684D01*
X26003156Y-57278361D01*
X26200693Y-57186249D01*
X26200698Y-57186246D01*
X26205680Y-57183923D01*
X26312842Y-57108887D01*
X26388720Y-57055757D01*
X26388723Y-57055755D01*
X26393231Y-57052598D01*
X26555129Y-56890700D01*
X26574898Y-56862468D01*
X26632896Y-56779638D01*
X26686454Y-56703149D01*
X26688777Y-56698167D01*
X26688780Y-56698162D01*
X26780892Y-56500625D01*
X26780892Y-56500624D01*
X26783215Y-56495643D01*
X26810997Y-56391962D01*
X26814820Y-56377694D01*
X52347931Y-56377694D01*
X52363989Y-56541468D01*
X52415932Y-56697615D01*
X52501179Y-56838373D01*
X52615491Y-56956747D01*
X52753189Y-57046854D01*
X52907428Y-57104215D01*
X52914409Y-57105146D01*
X52914411Y-57105147D01*
X53063561Y-57125048D01*
X53063565Y-57125048D01*
X53070542Y-57125979D01*
X53077553Y-57125341D01*
X53077557Y-57125341D01*
X53227403Y-57111704D01*
X53227404Y-57111704D01*
X53234424Y-57111065D01*
X53263062Y-57101760D01*
X53384230Y-57062390D01*
X53384233Y-57062389D01*
X53390929Y-57060213D01*
X53532279Y-56975951D01*
X53651449Y-56862468D01*
X53667458Y-56838373D01*
X53738614Y-56731275D01*
X53738615Y-56731273D01*
X53742515Y-56725403D01*
X53800951Y-56571568D01*
X53810921Y-56500625D01*
X53823302Y-56412534D01*
X53823303Y-56412527D01*
X53823853Y-56408610D01*
X53824141Y-56388000D01*
X53805798Y-56224466D01*
X53803392Y-56217555D01*
X53773304Y-56131155D01*
X53751680Y-56069060D01*
X53737521Y-56046400D01*
X53668209Y-55935479D01*
X53664476Y-55929505D01*
X53606499Y-55871122D01*
X53553486Y-55817737D01*
X53553482Y-55817734D01*
X53548522Y-55812739D01*
X53409580Y-55724563D01*
X53334907Y-55697973D01*
X53261189Y-55671723D01*
X53261187Y-55671722D01*
X53254555Y-55669361D01*
X53247569Y-55668528D01*
X53247565Y-55668527D01*
X53133071Y-55654875D01*
X53091153Y-55649877D01*
X53084150Y-55650613D01*
X53084149Y-55650613D01*
X53040935Y-55655155D01*
X52927495Y-55667078D01*
X52920827Y-55669348D01*
X52778382Y-55717840D01*
X52778379Y-55717841D01*
X52771715Y-55720110D01*
X52631555Y-55806337D01*
X52569066Y-55867531D01*
X52533261Y-55902594D01*
X52513982Y-55921473D01*
X52424838Y-56059797D01*
X52422427Y-56066420D01*
X52422426Y-56066423D01*
X52370966Y-56207809D01*
X52370965Y-56207814D01*
X52368556Y-56214432D01*
X52347931Y-56377694D01*
X26814820Y-56377694D01*
X26841050Y-56279802D01*
X26841050Y-56279800D01*
X26842474Y-56274487D01*
X26862429Y-56046400D01*
X26842474Y-55818313D01*
X26841050Y-55812998D01*
X26788182Y-55615694D01*
X42645131Y-55615694D01*
X42661189Y-55779468D01*
X42713132Y-55935615D01*
X42729961Y-55963403D01*
X42792881Y-56067294D01*
X42798379Y-56076373D01*
X42803270Y-56081438D01*
X42803271Y-56081439D01*
X42820924Y-56099719D01*
X42912691Y-56194747D01*
X43050389Y-56284854D01*
X43204628Y-56342215D01*
X43211609Y-56343146D01*
X43211611Y-56343147D01*
X43360761Y-56363048D01*
X43360765Y-56363048D01*
X43367742Y-56363979D01*
X43374753Y-56363341D01*
X43374757Y-56363341D01*
X43524603Y-56349704D01*
X43524604Y-56349704D01*
X43531624Y-56349065D01*
X43560262Y-56339760D01*
X43681430Y-56300390D01*
X43681433Y-56300389D01*
X43688129Y-56298213D01*
X43829479Y-56213951D01*
X43948649Y-56100468D01*
X43949855Y-56098652D01*
X44007361Y-56060392D01*
X44078349Y-56059264D01*
X44135412Y-56093183D01*
X44228593Y-56189676D01*
X44228597Y-56189679D01*
X44233491Y-56194747D01*
X44371189Y-56284854D01*
X44525428Y-56342215D01*
X44532409Y-56343146D01*
X44532411Y-56343147D01*
X44681561Y-56363048D01*
X44681565Y-56363048D01*
X44688542Y-56363979D01*
X44695553Y-56363341D01*
X44695557Y-56363341D01*
X44845403Y-56349704D01*
X44845404Y-56349704D01*
X44852424Y-56349065D01*
X44953688Y-56316162D01*
X45024655Y-56314134D01*
X45036532Y-56317893D01*
X45101931Y-56342215D01*
X45108916Y-56343147D01*
X45258064Y-56363048D01*
X45258068Y-56363048D01*
X45265045Y-56363979D01*
X45272056Y-56363341D01*
X45272060Y-56363341D01*
X45421906Y-56349704D01*
X45421907Y-56349704D01*
X45428927Y-56349065D01*
X45457565Y-56339760D01*
X45578733Y-56300390D01*
X45578736Y-56300389D01*
X45585432Y-56298213D01*
X45726782Y-56213951D01*
X45845952Y-56100468D01*
X45862397Y-56075717D01*
X45933117Y-55969275D01*
X45933118Y-55969273D01*
X45937018Y-55963403D01*
X45995454Y-55809568D01*
X46007751Y-55722068D01*
X46017805Y-55650534D01*
X46017806Y-55650527D01*
X46018356Y-55646610D01*
X46018644Y-55626000D01*
X46000301Y-55462466D01*
X45994501Y-55445809D01*
X45951614Y-55322657D01*
X45946183Y-55307060D01*
X45906971Y-55244307D01*
X45902589Y-55237294D01*
X64923531Y-55237294D01*
X64939589Y-55401068D01*
X64991532Y-55557215D01*
X64995181Y-55563240D01*
X65058946Y-55668527D01*
X65076779Y-55697973D01*
X65081670Y-55703038D01*
X65081671Y-55703039D01*
X65104739Y-55726927D01*
X65191091Y-55816347D01*
X65328789Y-55906454D01*
X65483028Y-55963815D01*
X65490009Y-55964746D01*
X65490011Y-55964747D01*
X65639161Y-55984648D01*
X65639165Y-55984648D01*
X65646142Y-55985579D01*
X65653153Y-55984941D01*
X65653157Y-55984941D01*
X65803003Y-55971304D01*
X65803004Y-55971304D01*
X65810024Y-55970665D01*
X65833055Y-55963182D01*
X65959830Y-55921990D01*
X65959833Y-55921989D01*
X65966529Y-55919813D01*
X66107879Y-55835551D01*
X66227049Y-55722068D01*
X66243058Y-55697973D01*
X66314214Y-55590875D01*
X66314215Y-55590873D01*
X66318115Y-55585003D01*
X66376551Y-55431168D01*
X66392435Y-55318149D01*
X66398902Y-55272134D01*
X66398903Y-55272127D01*
X66399453Y-55268210D01*
X66399741Y-55247600D01*
X66398585Y-55237294D01*
X67971531Y-55237294D01*
X67987589Y-55401068D01*
X68039532Y-55557215D01*
X68043181Y-55563240D01*
X68106946Y-55668527D01*
X68124779Y-55697973D01*
X68129670Y-55703038D01*
X68129671Y-55703039D01*
X68152739Y-55726927D01*
X68239091Y-55816347D01*
X68376789Y-55906454D01*
X68531028Y-55963815D01*
X68538009Y-55964746D01*
X68538011Y-55964747D01*
X68687161Y-55984648D01*
X68687165Y-55984648D01*
X68694142Y-55985579D01*
X68701153Y-55984941D01*
X68701157Y-55984941D01*
X68851003Y-55971304D01*
X68851004Y-55971304D01*
X68858024Y-55970665D01*
X68881055Y-55963182D01*
X69007830Y-55921990D01*
X69007833Y-55921989D01*
X69014529Y-55919813D01*
X69155879Y-55835551D01*
X69275049Y-55722068D01*
X69291058Y-55697973D01*
X69362214Y-55590875D01*
X69362215Y-55590873D01*
X69366115Y-55585003D01*
X69424551Y-55431168D01*
X69440435Y-55318149D01*
X69446902Y-55272134D01*
X69446903Y-55272127D01*
X69447453Y-55268210D01*
X69447741Y-55247600D01*
X69429398Y-55084066D01*
X69423598Y-55067409D01*
X69392892Y-54979236D01*
X69375280Y-54928660D01*
X69360085Y-54904342D01*
X69291809Y-54795079D01*
X69288076Y-54789105D01*
X69209423Y-54709901D01*
X69177086Y-54677337D01*
X69177082Y-54677334D01*
X69172122Y-54672339D01*
X69033180Y-54584163D01*
X68970265Y-54561760D01*
X68884789Y-54531323D01*
X68884787Y-54531322D01*
X68878155Y-54528961D01*
X68871169Y-54528128D01*
X68871165Y-54528127D01*
X68756671Y-54514475D01*
X68714753Y-54509477D01*
X68707750Y-54510213D01*
X68707749Y-54510213D01*
X68664535Y-54514755D01*
X68551095Y-54526678D01*
X68544427Y-54528948D01*
X68401982Y-54577440D01*
X68401979Y-54577441D01*
X68395315Y-54579710D01*
X68255155Y-54665937D01*
X68137582Y-54781073D01*
X68048438Y-54919397D01*
X68046027Y-54926020D01*
X68046026Y-54926023D01*
X67994566Y-55067409D01*
X67994565Y-55067414D01*
X67992156Y-55074032D01*
X67971531Y-55237294D01*
X66398585Y-55237294D01*
X66381398Y-55084066D01*
X66375598Y-55067409D01*
X66344892Y-54979236D01*
X66327280Y-54928660D01*
X66312085Y-54904342D01*
X66243809Y-54795079D01*
X66240076Y-54789105D01*
X66161423Y-54709901D01*
X66129086Y-54677337D01*
X66129082Y-54677334D01*
X66124122Y-54672339D01*
X65985180Y-54584163D01*
X65922265Y-54561760D01*
X65836789Y-54531323D01*
X65836787Y-54531322D01*
X65830155Y-54528961D01*
X65823169Y-54528128D01*
X65823165Y-54528127D01*
X65708671Y-54514475D01*
X65666753Y-54509477D01*
X65659750Y-54510213D01*
X65659749Y-54510213D01*
X65616535Y-54514755D01*
X65503095Y-54526678D01*
X65496427Y-54528948D01*
X65353982Y-54577440D01*
X65353979Y-54577441D01*
X65347315Y-54579710D01*
X65207155Y-54665937D01*
X65089582Y-54781073D01*
X65000438Y-54919397D01*
X64998027Y-54926020D01*
X64998026Y-54926023D01*
X64946566Y-55067409D01*
X64946565Y-55067414D01*
X64944156Y-55074032D01*
X64923531Y-55237294D01*
X45902589Y-55237294D01*
X45862712Y-55173479D01*
X45858979Y-55167505D01*
X45797239Y-55105333D01*
X45747989Y-55055737D01*
X45747985Y-55055734D01*
X45743025Y-55050739D01*
X45604083Y-54962563D01*
X45527989Y-54935467D01*
X45455692Y-54909723D01*
X45455690Y-54909722D01*
X45449058Y-54907361D01*
X45442072Y-54906528D01*
X45442068Y-54906527D01*
X45327574Y-54892875D01*
X45285656Y-54887877D01*
X45278653Y-54888613D01*
X45278652Y-54888613D01*
X45129006Y-54904341D01*
X45129002Y-54904342D01*
X45121998Y-54905078D01*
X45032731Y-54935467D01*
X44961799Y-54938485D01*
X44949859Y-54934888D01*
X44879189Y-54909723D01*
X44879187Y-54909722D01*
X44872555Y-54907361D01*
X44865569Y-54906528D01*
X44865565Y-54906527D01*
X44751071Y-54892875D01*
X44709153Y-54887877D01*
X44702150Y-54888613D01*
X44702149Y-54888613D01*
X44658935Y-54893155D01*
X44545495Y-54905078D01*
X44538827Y-54907348D01*
X44396382Y-54955840D01*
X44396379Y-54955841D01*
X44389715Y-54958110D01*
X44326604Y-54996936D01*
X44272226Y-55030390D01*
X44249555Y-55044337D01*
X44131982Y-55159473D01*
X44129983Y-55157431D01*
X44082046Y-55190306D01*
X44011081Y-55192432D01*
X43953539Y-55159311D01*
X43850686Y-55055737D01*
X43850682Y-55055734D01*
X43845722Y-55050739D01*
X43706780Y-54962563D01*
X43630686Y-54935467D01*
X43558389Y-54909723D01*
X43558387Y-54909722D01*
X43551755Y-54907361D01*
X43544769Y-54906528D01*
X43544765Y-54906527D01*
X43430271Y-54892875D01*
X43388353Y-54887877D01*
X43381350Y-54888613D01*
X43381349Y-54888613D01*
X43338135Y-54893155D01*
X43224695Y-54905078D01*
X43218027Y-54907348D01*
X43075582Y-54955840D01*
X43075579Y-54955841D01*
X43068915Y-54958110D01*
X43005804Y-54996936D01*
X42951426Y-55030390D01*
X42928755Y-55044337D01*
X42888185Y-55084066D01*
X42833116Y-55137994D01*
X42811182Y-55159473D01*
X42722038Y-55297797D01*
X42719627Y-55304420D01*
X42719626Y-55304423D01*
X42668166Y-55445809D01*
X42668165Y-55445814D01*
X42665756Y-55452432D01*
X42645131Y-55615694D01*
X26788182Y-55615694D01*
X26784638Y-55602467D01*
X26784637Y-55602465D01*
X26783215Y-55597157D01*
X26774475Y-55578413D01*
X26688780Y-55394638D01*
X26688777Y-55394633D01*
X26686454Y-55389651D01*
X26613029Y-55284789D01*
X26558288Y-55206611D01*
X26558286Y-55206608D01*
X26555129Y-55202100D01*
X26393231Y-55040202D01*
X26388723Y-55037045D01*
X26388720Y-55037043D01*
X26242827Y-54934888D01*
X26205680Y-54908877D01*
X26200698Y-54906554D01*
X26200693Y-54906551D01*
X26026008Y-54825095D01*
X25972723Y-54778178D01*
X25953262Y-54709901D01*
X25973804Y-54641941D01*
X26027826Y-54595875D01*
X26079258Y-54584900D01*
X26397065Y-54584900D01*
X26459247Y-54578145D01*
X26595636Y-54527015D01*
X26712192Y-54439661D01*
X26799546Y-54323105D01*
X26850676Y-54186716D01*
X26857431Y-54124534D01*
X26857431Y-52720094D01*
X36701531Y-52720094D01*
X36717589Y-52883868D01*
X36769532Y-53040015D01*
X36773181Y-53046040D01*
X36847782Y-53169219D01*
X36854779Y-53180773D01*
X36859670Y-53185838D01*
X36859671Y-53185839D01*
X36911439Y-53239446D01*
X36969091Y-53299147D01*
X37106789Y-53389254D01*
X37261028Y-53446615D01*
X37268009Y-53447546D01*
X37268011Y-53447547D01*
X37417161Y-53467448D01*
X37417165Y-53467448D01*
X37424142Y-53468379D01*
X37431153Y-53467741D01*
X37431157Y-53467741D01*
X37581003Y-53454104D01*
X37581004Y-53454104D01*
X37588024Y-53453465D01*
X37616662Y-53444160D01*
X37737830Y-53404790D01*
X37737833Y-53404789D01*
X37744529Y-53402613D01*
X37750580Y-53399006D01*
X37750582Y-53399005D01*
X37802239Y-53368212D01*
X37870994Y-53350512D01*
X37938404Y-53372794D01*
X37983065Y-53427984D01*
X37987565Y-53442423D01*
X37987589Y-53442668D01*
X38039532Y-53598815D01*
X38051522Y-53618613D01*
X38073682Y-53655202D01*
X38124779Y-53739573D01*
X38239091Y-53857947D01*
X38376789Y-53948054D01*
X38531028Y-54005415D01*
X38538009Y-54006346D01*
X38538011Y-54006347D01*
X38687161Y-54026248D01*
X38687165Y-54026248D01*
X38694142Y-54027179D01*
X38701153Y-54026541D01*
X38701156Y-54026541D01*
X38735847Y-54023384D01*
X38775300Y-54019793D01*
X38844952Y-54033538D01*
X38896117Y-54082759D01*
X38912548Y-54151828D01*
X38909186Y-54174902D01*
X38908967Y-54175809D01*
X38906556Y-54182432D01*
X38885931Y-54345694D01*
X38901989Y-54509468D01*
X38953932Y-54665615D01*
X38957581Y-54671640D01*
X39027444Y-54786996D01*
X39039179Y-54806373D01*
X39044070Y-54811438D01*
X39044071Y-54811439D01*
X39058398Y-54826275D01*
X39153491Y-54924747D01*
X39291189Y-55014854D01*
X39445428Y-55072215D01*
X39452409Y-55073146D01*
X39452411Y-55073147D01*
X39601561Y-55093048D01*
X39601565Y-55093048D01*
X39608542Y-55093979D01*
X39615553Y-55093341D01*
X39615557Y-55093341D01*
X39765403Y-55079704D01*
X39765404Y-55079704D01*
X39772424Y-55079065D01*
X39844626Y-55055605D01*
X39922230Y-55030390D01*
X39922233Y-55030389D01*
X39928929Y-55028213D01*
X39934980Y-55024606D01*
X39934982Y-55024605D01*
X39981398Y-54996936D01*
X40050153Y-54979236D01*
X40117562Y-55001518D01*
X40136551Y-55017638D01*
X40164592Y-55046675D01*
X40164597Y-55046679D01*
X40169491Y-55051747D01*
X40307189Y-55141854D01*
X40461428Y-55199215D01*
X40468409Y-55200146D01*
X40468411Y-55200147D01*
X40617561Y-55220048D01*
X40617565Y-55220048D01*
X40624542Y-55220979D01*
X40631553Y-55220341D01*
X40631557Y-55220341D01*
X40781403Y-55206704D01*
X40781404Y-55206704D01*
X40788424Y-55206065D01*
X40888713Y-55173479D01*
X40938230Y-55157390D01*
X40938233Y-55157389D01*
X40944929Y-55155213D01*
X41086279Y-55070951D01*
X41205449Y-54957468D01*
X41213202Y-54945799D01*
X41292614Y-54826275D01*
X41292615Y-54826273D01*
X41296515Y-54820403D01*
X41354951Y-54666568D01*
X41366429Y-54584900D01*
X41377302Y-54507534D01*
X41377303Y-54507527D01*
X41377853Y-54503610D01*
X41378141Y-54483000D01*
X41359798Y-54319466D01*
X41305680Y-54164060D01*
X41218476Y-54024505D01*
X41142557Y-53948054D01*
X41107486Y-53912737D01*
X41107482Y-53912734D01*
X41102522Y-53907739D01*
X40963580Y-53819563D01*
X40854550Y-53780739D01*
X40815189Y-53766723D01*
X40815187Y-53766722D01*
X40808555Y-53764361D01*
X40801569Y-53763528D01*
X40801565Y-53763527D01*
X40687071Y-53749875D01*
X40645153Y-53744877D01*
X40638150Y-53745613D01*
X40638149Y-53745613D01*
X40594935Y-53750155D01*
X40481495Y-53762078D01*
X40474827Y-53764348D01*
X40332382Y-53812840D01*
X40332379Y-53812841D01*
X40325715Y-53815110D01*
X40283479Y-53841094D01*
X40214981Y-53859752D01*
X40147267Y-53838414D01*
X40128052Y-53822560D01*
X40091486Y-53785737D01*
X40091482Y-53785734D01*
X40086522Y-53780739D01*
X39947580Y-53692563D01*
X39878063Y-53667809D01*
X39799189Y-53639723D01*
X39799187Y-53639722D01*
X39792555Y-53637361D01*
X39785569Y-53636528D01*
X39785565Y-53636527D01*
X39671071Y-53622875D01*
X39629153Y-53617877D01*
X39622150Y-53618613D01*
X39622149Y-53618613D01*
X39560049Y-53625140D01*
X39490211Y-53612368D01*
X39438364Y-53563866D01*
X39420970Y-53495033D01*
X39424006Y-53474203D01*
X39424551Y-53472768D01*
X39436549Y-53387396D01*
X39446902Y-53313734D01*
X39446903Y-53313727D01*
X39447453Y-53309810D01*
X39447741Y-53289200D01*
X39429398Y-53125666D01*
X39413208Y-53079173D01*
X39377598Y-52976917D01*
X39375280Y-52970260D01*
X39288076Y-52830705D01*
X39230099Y-52772322D01*
X39177086Y-52718937D01*
X39177082Y-52718934D01*
X39172122Y-52713939D01*
X39033180Y-52625763D01*
X39012766Y-52618494D01*
X61491931Y-52618494D01*
X61507989Y-52782268D01*
X61559932Y-52938415D01*
X61563581Y-52944440D01*
X61617415Y-53033329D01*
X61645179Y-53079173D01*
X61650070Y-53084238D01*
X61650071Y-53084239D01*
X61739213Y-53176549D01*
X61772145Y-53239446D01*
X61765845Y-53310163D01*
X61736734Y-53354099D01*
X61713817Y-53376541D01*
X61713811Y-53376548D01*
X61708782Y-53381473D01*
X61619638Y-53519797D01*
X61617227Y-53526420D01*
X61617226Y-53526423D01*
X61565766Y-53667809D01*
X61565765Y-53667814D01*
X61563356Y-53674432D01*
X61542731Y-53837694D01*
X61558789Y-54001468D01*
X61610732Y-54157615D01*
X61695979Y-54298373D01*
X61700870Y-54303438D01*
X61700871Y-54303439D01*
X61767361Y-54372291D01*
X61810291Y-54416747D01*
X61947989Y-54506854D01*
X62102228Y-54564215D01*
X62109209Y-54565146D01*
X62109211Y-54565147D01*
X62258361Y-54585048D01*
X62258365Y-54585048D01*
X62265342Y-54585979D01*
X62272353Y-54585341D01*
X62272357Y-54585341D01*
X62422203Y-54571704D01*
X62422204Y-54571704D01*
X62429224Y-54571065D01*
X62457862Y-54561760D01*
X62579030Y-54522390D01*
X62579033Y-54522389D01*
X62585729Y-54520213D01*
X62727079Y-54435951D01*
X62846249Y-54322468D01*
X62851412Y-54314697D01*
X62933414Y-54191275D01*
X62933415Y-54191273D01*
X62937315Y-54185403D01*
X62995751Y-54031568D01*
X63007488Y-53948054D01*
X63018102Y-53872534D01*
X63018103Y-53872527D01*
X63018653Y-53868610D01*
X63018941Y-53848000D01*
X63000598Y-53684466D01*
X62994798Y-53667809D01*
X62948798Y-53535717D01*
X62946480Y-53529060D01*
X62925218Y-53495033D01*
X62863009Y-53395479D01*
X62859276Y-53389505D01*
X62837303Y-53367378D01*
X62772825Y-53302448D01*
X62739018Y-53240017D01*
X62744330Y-53169219D01*
X62775340Y-53122417D01*
X62778916Y-53119012D01*
X62795449Y-53103268D01*
X62811458Y-53079173D01*
X62882614Y-52972075D01*
X62882615Y-52972073D01*
X62886515Y-52966203D01*
X62944951Y-52812368D01*
X62962212Y-52689547D01*
X62967302Y-52653334D01*
X62967303Y-52653327D01*
X62967853Y-52649410D01*
X62968141Y-52628800D01*
X62949798Y-52465266D01*
X62947339Y-52458203D01*
X62921152Y-52383007D01*
X62895680Y-52309860D01*
X62883563Y-52290468D01*
X62812209Y-52176279D01*
X62808476Y-52170305D01*
X62749081Y-52110494D01*
X65657531Y-52110494D01*
X65673589Y-52274268D01*
X65725532Y-52430415D01*
X65729181Y-52436440D01*
X65804141Y-52560212D01*
X65810779Y-52571173D01*
X65815670Y-52576238D01*
X65815671Y-52576239D01*
X65867143Y-52629540D01*
X65925091Y-52689547D01*
X66062789Y-52779654D01*
X66217028Y-52837015D01*
X66224009Y-52837946D01*
X66224011Y-52837947D01*
X66373161Y-52857848D01*
X66373165Y-52857848D01*
X66380142Y-52858779D01*
X66387153Y-52858141D01*
X66387157Y-52858141D01*
X66537003Y-52844504D01*
X66537004Y-52844504D01*
X66544024Y-52843865D01*
X66620692Y-52818954D01*
X66693830Y-52795190D01*
X66693833Y-52795189D01*
X66700529Y-52793013D01*
X66841879Y-52708751D01*
X66961049Y-52595268D01*
X66977314Y-52570788D01*
X67048214Y-52464075D01*
X67048215Y-52464073D01*
X67052115Y-52458203D01*
X67110551Y-52304368D01*
X67119864Y-52238103D01*
X67132902Y-52145334D01*
X67132903Y-52145327D01*
X67133453Y-52141410D01*
X67133741Y-52120800D01*
X67115398Y-51957266D01*
X67109598Y-51940609D01*
X67063598Y-51808517D01*
X67062615Y-51805694D01*
X74445931Y-51805694D01*
X74461989Y-51969468D01*
X74513932Y-52125615D01*
X74517581Y-52131640D01*
X74555183Y-52193727D01*
X74599179Y-52266373D01*
X74604070Y-52271438D01*
X74604071Y-52271439D01*
X74629234Y-52297496D01*
X74713491Y-52384747D01*
X74851189Y-52474854D01*
X75005428Y-52532215D01*
X75012409Y-52533146D01*
X75012411Y-52533147D01*
X75161561Y-52553048D01*
X75161565Y-52553048D01*
X75168542Y-52553979D01*
X75175553Y-52553341D01*
X75175557Y-52553341D01*
X75325403Y-52539704D01*
X75325404Y-52539704D01*
X75332424Y-52539065D01*
X75361062Y-52529760D01*
X75482230Y-52490390D01*
X75482233Y-52490389D01*
X75488929Y-52488213D01*
X75630279Y-52403951D01*
X75749449Y-52290468D01*
X75755771Y-52280953D01*
X75836614Y-52159275D01*
X75836615Y-52159273D01*
X75840515Y-52153403D01*
X75898951Y-51999568D01*
X75911518Y-51910148D01*
X75921302Y-51840534D01*
X75921303Y-51840527D01*
X75921853Y-51836610D01*
X75922141Y-51816000D01*
X75903798Y-51652466D01*
X75897998Y-51635809D01*
X75879709Y-51583292D01*
X75849680Y-51497060D01*
X75824875Y-51457363D01*
X75766209Y-51363479D01*
X75762476Y-51357505D01*
X75704499Y-51299122D01*
X75651486Y-51245737D01*
X75651482Y-51245734D01*
X75646522Y-51240739D01*
X75507580Y-51152563D01*
X75441528Y-51129043D01*
X75359189Y-51099723D01*
X75359187Y-51099722D01*
X75352555Y-51097361D01*
X75345569Y-51096528D01*
X75345565Y-51096527D01*
X75231071Y-51082875D01*
X75189153Y-51077877D01*
X75182150Y-51078613D01*
X75182149Y-51078613D01*
X75138935Y-51083155D01*
X75025495Y-51095078D01*
X75018827Y-51097348D01*
X74876382Y-51145840D01*
X74876379Y-51145841D01*
X74869715Y-51148110D01*
X74729555Y-51234337D01*
X74709684Y-51253796D01*
X74620885Y-51340755D01*
X74611982Y-51349473D01*
X74522838Y-51487797D01*
X74520427Y-51494420D01*
X74520426Y-51494423D01*
X74468966Y-51635809D01*
X74468965Y-51635814D01*
X74466556Y-51642432D01*
X74445931Y-51805694D01*
X67062615Y-51805694D01*
X67061280Y-51801860D01*
X67009105Y-51718362D01*
X66977809Y-51668279D01*
X66974076Y-51662305D01*
X66916099Y-51603922D01*
X66863086Y-51550537D01*
X66863082Y-51550534D01*
X66858122Y-51545539D01*
X66719180Y-51457363D01*
X66670047Y-51439868D01*
X66570789Y-51404523D01*
X66570787Y-51404522D01*
X66564155Y-51402161D01*
X66557169Y-51401328D01*
X66557165Y-51401327D01*
X66430273Y-51386197D01*
X66400753Y-51382677D01*
X66393750Y-51383413D01*
X66393749Y-51383413D01*
X66367262Y-51386197D01*
X66237095Y-51399878D01*
X66230427Y-51402148D01*
X66087982Y-51450640D01*
X66087979Y-51450641D01*
X66081315Y-51452910D01*
X65941155Y-51539137D01*
X65932284Y-51547824D01*
X65835674Y-51642432D01*
X65823582Y-51654273D01*
X65734438Y-51792597D01*
X65732027Y-51799220D01*
X65732026Y-51799223D01*
X65680566Y-51940609D01*
X65680565Y-51940614D01*
X65678156Y-51947232D01*
X65657531Y-52110494D01*
X62749081Y-52110494D01*
X62742136Y-52103500D01*
X62697486Y-52058537D01*
X62697482Y-52058534D01*
X62692522Y-52053539D01*
X62553580Y-51965363D01*
X62484063Y-51940609D01*
X62405189Y-51912523D01*
X62405187Y-51912522D01*
X62398555Y-51910161D01*
X62391569Y-51909328D01*
X62391565Y-51909327D01*
X62277071Y-51895675D01*
X62235153Y-51890677D01*
X62228150Y-51891413D01*
X62228149Y-51891413D01*
X62184935Y-51895955D01*
X62071495Y-51907878D01*
X62064827Y-51910148D01*
X61922382Y-51958640D01*
X61922379Y-51958641D01*
X61915715Y-51960910D01*
X61775555Y-52047137D01*
X61717999Y-52103500D01*
X61667040Y-52153403D01*
X61657982Y-52162273D01*
X61568838Y-52300597D01*
X61566427Y-52307220D01*
X61566426Y-52307223D01*
X61514966Y-52448609D01*
X61514965Y-52448614D01*
X61512556Y-52455232D01*
X61491931Y-52618494D01*
X39012766Y-52618494D01*
X38894101Y-52576239D01*
X38884789Y-52572923D01*
X38884787Y-52572922D01*
X38878155Y-52570561D01*
X38871169Y-52569728D01*
X38871165Y-52569727D01*
X38756671Y-52556075D01*
X38714753Y-52551077D01*
X38707750Y-52551813D01*
X38707749Y-52551813D01*
X38664535Y-52556355D01*
X38551095Y-52568278D01*
X38544427Y-52570548D01*
X38401982Y-52619040D01*
X38401979Y-52619041D01*
X38395315Y-52621310D01*
X38376700Y-52632762D01*
X38348374Y-52650188D01*
X38279873Y-52668846D01*
X38212159Y-52647507D01*
X38166731Y-52592947D01*
X38160023Y-52572435D01*
X38159398Y-52566866D01*
X38153598Y-52550209D01*
X38127356Y-52474854D01*
X38105280Y-52411460D01*
X38072303Y-52358685D01*
X38021809Y-52277879D01*
X38018076Y-52271905D01*
X37940442Y-52193727D01*
X37907086Y-52160137D01*
X37907082Y-52160134D01*
X37902122Y-52155139D01*
X37763180Y-52066963D01*
X37662665Y-52031171D01*
X37614789Y-52014123D01*
X37614787Y-52014122D01*
X37608155Y-52011761D01*
X37601169Y-52010928D01*
X37601165Y-52010927D01*
X37486671Y-51997275D01*
X37444753Y-51992277D01*
X37437750Y-51993013D01*
X37437749Y-51993013D01*
X37394535Y-51997555D01*
X37281095Y-52009478D01*
X37274427Y-52011748D01*
X37131982Y-52060240D01*
X37131979Y-52060241D01*
X37125315Y-52062510D01*
X36985155Y-52148737D01*
X36957030Y-52176279D01*
X36909822Y-52222509D01*
X36867582Y-52263873D01*
X36778438Y-52402197D01*
X36776027Y-52408820D01*
X36776026Y-52408823D01*
X36724566Y-52550209D01*
X36724565Y-52550214D01*
X36722156Y-52556832D01*
X36701531Y-52720094D01*
X26857431Y-52720094D01*
X26857431Y-52428266D01*
X26850676Y-52366084D01*
X26799546Y-52229695D01*
X26712192Y-52113139D01*
X26595636Y-52025785D01*
X26459247Y-51974655D01*
X26397065Y-51967900D01*
X24700797Y-51967900D01*
X24638615Y-51974655D01*
X24502226Y-52025785D01*
X24385670Y-52113139D01*
X24298316Y-52229695D01*
X24247186Y-52366084D01*
X24240431Y-52428266D01*
X24240431Y-54124534D01*
X24247186Y-54186716D01*
X24298316Y-54323105D01*
X24385670Y-54439661D01*
X24502226Y-54527015D01*
X24638615Y-54578145D01*
X24700797Y-54584900D01*
X25018604Y-54584900D01*
X25086725Y-54604902D01*
X25133218Y-54658558D01*
X25143322Y-54728832D01*
X25113828Y-54793412D01*
X25071854Y-54825095D01*
X24897169Y-54906551D01*
X24897164Y-54906554D01*
X24892182Y-54908877D01*
X24855035Y-54934888D01*
X24709142Y-55037043D01*
X24709139Y-55037045D01*
X24704631Y-55040202D01*
X24542733Y-55202100D01*
X24539576Y-55206608D01*
X24539574Y-55206611D01*
X24484833Y-55284789D01*
X24411408Y-55389651D01*
X24409085Y-55394633D01*
X24409082Y-55394638D01*
X24323387Y-55578413D01*
X24314647Y-55597157D01*
X24313225Y-55602465D01*
X24313224Y-55602467D01*
X24256812Y-55812998D01*
X24255388Y-55818313D01*
X24235433Y-56046400D01*
X24255388Y-56274487D01*
X24256812Y-56279800D01*
X24256812Y-56279802D01*
X24286866Y-56391962D01*
X24314647Y-56495643D01*
X24316970Y-56500624D01*
X24316970Y-56500625D01*
X24409082Y-56698162D01*
X24409085Y-56698167D01*
X24411408Y-56703149D01*
X24464966Y-56779638D01*
X24522965Y-56862468D01*
X24542733Y-56890700D01*
X24704631Y-57052598D01*
X24709139Y-57055755D01*
X24709142Y-57055757D01*
X24785020Y-57108887D01*
X24892182Y-57183923D01*
X24897164Y-57186246D01*
X24897169Y-57186249D01*
X25094706Y-57278361D01*
X25099688Y-57280684D01*
X25104996Y-57282106D01*
X25104998Y-57282107D01*
X25207950Y-57309693D01*
X25268573Y-57346645D01*
X25299594Y-57410506D01*
X25291166Y-57481000D01*
X25245963Y-57535747D01*
X25207950Y-57553107D01*
X25104998Y-57580693D01*
X25104996Y-57580694D01*
X25099688Y-57582116D01*
X25094707Y-57584439D01*
X25094706Y-57584439D01*
X24897169Y-57676551D01*
X24897164Y-57676554D01*
X24892182Y-57678877D01*
X24787320Y-57752302D01*
X24709142Y-57807043D01*
X24709139Y-57807045D01*
X24704631Y-57810202D01*
X24542733Y-57972100D01*
X24539576Y-57976608D01*
X24539574Y-57976611D01*
X24531942Y-57987511D01*
X24411408Y-58159651D01*
X24409085Y-58164633D01*
X24409082Y-58164638D01*
X24316970Y-58362175D01*
X24314647Y-58367157D01*
X24313225Y-58372465D01*
X24313224Y-58372467D01*
X24259960Y-58571249D01*
X24255388Y-58588313D01*
X24235433Y-58816400D01*
X24255388Y-59044487D01*
X24256812Y-59049800D01*
X24256812Y-59049802D01*
X24295289Y-59193397D01*
X24314647Y-59265643D01*
X24316970Y-59270624D01*
X24316970Y-59270625D01*
X24409082Y-59468162D01*
X24409085Y-59468167D01*
X24411408Y-59473149D01*
X24542733Y-59660700D01*
X24704631Y-59822598D01*
X24709139Y-59825755D01*
X24709142Y-59825757D01*
X24787320Y-59880498D01*
X24892182Y-59953923D01*
X24897164Y-59956246D01*
X24897169Y-59956249D01*
X25094706Y-60048361D01*
X25099688Y-60050684D01*
X25104996Y-60052106D01*
X25104998Y-60052107D01*
X25207950Y-60079693D01*
X25268573Y-60116645D01*
X25299594Y-60180506D01*
X25291166Y-60251000D01*
X25245963Y-60305747D01*
X25207950Y-60323107D01*
X25104998Y-60350693D01*
X25104996Y-60350694D01*
X25099688Y-60352116D01*
X25094707Y-60354439D01*
X25094706Y-60354439D01*
X24897169Y-60446551D01*
X24897164Y-60446554D01*
X24892182Y-60448877D01*
X24852571Y-60476613D01*
X24709142Y-60577043D01*
X24709139Y-60577045D01*
X24704631Y-60580202D01*
X24542733Y-60742100D01*
X24539576Y-60746608D01*
X24539574Y-60746611D01*
X24484833Y-60824789D01*
X24411408Y-60929651D01*
X24409085Y-60934633D01*
X24409082Y-60934638D01*
X24316970Y-61132175D01*
X24314647Y-61137157D01*
X24313225Y-61142465D01*
X24313224Y-61142467D01*
X24259960Y-61341249D01*
X24255388Y-61358313D01*
X24235433Y-61586400D01*
X22960766Y-61586400D01*
X22966696Y-61536800D01*
X23011899Y-61482053D01*
X23049912Y-61464693D01*
X23152864Y-61437107D01*
X23152866Y-61437106D01*
X23158174Y-61435684D01*
X23290129Y-61374153D01*
X23360693Y-61341249D01*
X23360698Y-61341246D01*
X23365680Y-61338923D01*
X23544088Y-61214000D01*
X23548720Y-61210757D01*
X23548723Y-61210755D01*
X23553231Y-61207598D01*
X23715129Y-61045700D01*
X23723456Y-61033809D01*
X23792896Y-60934638D01*
X23846454Y-60858149D01*
X23848777Y-60853167D01*
X23848780Y-60853162D01*
X23940892Y-60655625D01*
X23940892Y-60655624D01*
X23943215Y-60650643D01*
X23945066Y-60643737D01*
X24001050Y-60434802D01*
X24001050Y-60434800D01*
X24002474Y-60429487D01*
X24022429Y-60201400D01*
X24002474Y-59973313D01*
X23997902Y-59956249D01*
X23944638Y-59757467D01*
X23944637Y-59757465D01*
X23943215Y-59752157D01*
X23940892Y-59747175D01*
X23848780Y-59549638D01*
X23848777Y-59549633D01*
X23846454Y-59544651D01*
X23744601Y-59399190D01*
X23718288Y-59361611D01*
X23718286Y-59361608D01*
X23715129Y-59357100D01*
X23553231Y-59195202D01*
X23548723Y-59192045D01*
X23548720Y-59192043D01*
X23371675Y-59068075D01*
X23365680Y-59063877D01*
X23360698Y-59061554D01*
X23360693Y-59061551D01*
X23163156Y-58969439D01*
X23163155Y-58969439D01*
X23158174Y-58967116D01*
X23152866Y-58965694D01*
X23152864Y-58965693D01*
X23049912Y-58938107D01*
X22989289Y-58901155D01*
X22958268Y-58837294D01*
X22966696Y-58766800D01*
X23011899Y-58712053D01*
X23049912Y-58694693D01*
X23152864Y-58667107D01*
X23152866Y-58667106D01*
X23158174Y-58665684D01*
X23163156Y-58663361D01*
X23360693Y-58571249D01*
X23360698Y-58571246D01*
X23365680Y-58568923D01*
X23470542Y-58495498D01*
X23548720Y-58440757D01*
X23548723Y-58440755D01*
X23553231Y-58437598D01*
X23715129Y-58275700D01*
X23721708Y-58266305D01*
X23792896Y-58164638D01*
X23846454Y-58088149D01*
X23848777Y-58083167D01*
X23848780Y-58083162D01*
X23940892Y-57885625D01*
X23940892Y-57885624D01*
X23943215Y-57880643D01*
X23997279Y-57678877D01*
X24001050Y-57664802D01*
X24001050Y-57664800D01*
X24002474Y-57659487D01*
X24022429Y-57431400D01*
X24002474Y-57203313D01*
X23997902Y-57186249D01*
X23944638Y-56987467D01*
X23944637Y-56987465D01*
X23943215Y-56982157D01*
X23929003Y-56951679D01*
X23848780Y-56779638D01*
X23848777Y-56779633D01*
X23846454Y-56774651D01*
X23715129Y-56587100D01*
X23553231Y-56425202D01*
X23548723Y-56422045D01*
X23548720Y-56422043D01*
X23441386Y-56346887D01*
X23365680Y-56293877D01*
X23360698Y-56291554D01*
X23360693Y-56291551D01*
X23163156Y-56199439D01*
X23163155Y-56199439D01*
X23158174Y-56197116D01*
X23152866Y-56195694D01*
X23152864Y-56195693D01*
X23049912Y-56168107D01*
X22989289Y-56131155D01*
X22958268Y-56067294D01*
X22966696Y-55996800D01*
X23011899Y-55942053D01*
X23049912Y-55924693D01*
X23152864Y-55897107D01*
X23152866Y-55897106D01*
X23158174Y-55895684D01*
X23279402Y-55839155D01*
X23360693Y-55801249D01*
X23360698Y-55801246D01*
X23365680Y-55798923D01*
X23547340Y-55671723D01*
X23548720Y-55670757D01*
X23548723Y-55670755D01*
X23553231Y-55667598D01*
X23715129Y-55505700D01*
X23762706Y-55437754D01*
X23793301Y-55394059D01*
X23846454Y-55318149D01*
X23848777Y-55313167D01*
X23848780Y-55313162D01*
X23940892Y-55115625D01*
X23940892Y-55115624D01*
X23943215Y-55110643D01*
X23950337Y-55084066D01*
X24001050Y-54894802D01*
X24001050Y-54894800D01*
X24002474Y-54889487D01*
X24022429Y-54661400D01*
X24002474Y-54433313D01*
X23980876Y-54352707D01*
X23944638Y-54217467D01*
X23944637Y-54217465D01*
X23943215Y-54212157D01*
X23933478Y-54191275D01*
X23848780Y-54009638D01*
X23848777Y-54009633D01*
X23846454Y-54004651D01*
X23768570Y-53893422D01*
X23718288Y-53821611D01*
X23718286Y-53821608D01*
X23715129Y-53817100D01*
X23553231Y-53655202D01*
X23548723Y-53652045D01*
X23548720Y-53652043D01*
X23382589Y-53535717D01*
X23365680Y-53523877D01*
X23360698Y-53521554D01*
X23360693Y-53521551D01*
X23163156Y-53429439D01*
X23163155Y-53429439D01*
X23158174Y-53427116D01*
X23152866Y-53425694D01*
X23152864Y-53425693D01*
X22942333Y-53369281D01*
X22942331Y-53369281D01*
X22937018Y-53367857D01*
X22708931Y-53347902D01*
X22480844Y-53367857D01*
X22475531Y-53369281D01*
X22475529Y-53369281D01*
X22264998Y-53425693D01*
X22264996Y-53425694D01*
X22259688Y-53427116D01*
X22254707Y-53429439D01*
X22254706Y-53429439D01*
X22057169Y-53521551D01*
X22057164Y-53521554D01*
X22052182Y-53523877D01*
X22035273Y-53535717D01*
X21869142Y-53652043D01*
X21869139Y-53652045D01*
X21864631Y-53655202D01*
X21702733Y-53817100D01*
X21699576Y-53821608D01*
X21699574Y-53821611D01*
X21649292Y-53893422D01*
X21571408Y-54004651D01*
X21569085Y-54009633D01*
X21569082Y-54009638D01*
X21484384Y-54191275D01*
X21474647Y-54212157D01*
X21473225Y-54217465D01*
X21473224Y-54217467D01*
X21436986Y-54352707D01*
X21415388Y-54433313D01*
X21395433Y-54661400D01*
X21415388Y-54889487D01*
X21416812Y-54894800D01*
X21416812Y-54894802D01*
X21467526Y-55084066D01*
X21474647Y-55110643D01*
X21476970Y-55115624D01*
X21476970Y-55115625D01*
X21569082Y-55313162D01*
X21569085Y-55313167D01*
X21571408Y-55318149D01*
X21624561Y-55394059D01*
X21655157Y-55437754D01*
X21702733Y-55505700D01*
X21864631Y-55667598D01*
X21869139Y-55670755D01*
X21869142Y-55670757D01*
X21870522Y-55671723D01*
X22052182Y-55798923D01*
X22057164Y-55801246D01*
X22057169Y-55801249D01*
X22138460Y-55839155D01*
X22259688Y-55895684D01*
X22264996Y-55897106D01*
X22264998Y-55897107D01*
X22367950Y-55924693D01*
X22428573Y-55961645D01*
X22459594Y-56025506D01*
X22451166Y-56096000D01*
X22405963Y-56150747D01*
X22367950Y-56168107D01*
X22264998Y-56195693D01*
X22264996Y-56195694D01*
X22259688Y-56197116D01*
X22254707Y-56199439D01*
X22254706Y-56199439D01*
X22057169Y-56291551D01*
X22057164Y-56291554D01*
X22052182Y-56293877D01*
X21976476Y-56346887D01*
X21869142Y-56422043D01*
X21869139Y-56422045D01*
X21864631Y-56425202D01*
X21702733Y-56587100D01*
X21571408Y-56774651D01*
X21569085Y-56779633D01*
X21569082Y-56779638D01*
X21488859Y-56951679D01*
X21474647Y-56982157D01*
X21473225Y-56987465D01*
X21473224Y-56987467D01*
X21419960Y-57186249D01*
X21415388Y-57203313D01*
X21395433Y-57431400D01*
X21415388Y-57659487D01*
X21416812Y-57664800D01*
X21416812Y-57664802D01*
X21420584Y-57678877D01*
X21474647Y-57880643D01*
X21476970Y-57885624D01*
X21476970Y-57885625D01*
X21569082Y-58083162D01*
X21569085Y-58083167D01*
X21571408Y-58088149D01*
X21624966Y-58164638D01*
X21696155Y-58266305D01*
X21702733Y-58275700D01*
X21864631Y-58437598D01*
X21869139Y-58440755D01*
X21869142Y-58440757D01*
X21947320Y-58495498D01*
X22052182Y-58568923D01*
X22057164Y-58571246D01*
X22057169Y-58571249D01*
X22254706Y-58663361D01*
X22259688Y-58665684D01*
X22264996Y-58667106D01*
X22264998Y-58667107D01*
X22367950Y-58694693D01*
X22428573Y-58731645D01*
X22459594Y-58795506D01*
X22451166Y-58866000D01*
X22405963Y-58920747D01*
X22367950Y-58938107D01*
X22264998Y-58965693D01*
X22264996Y-58965694D01*
X22259688Y-58967116D01*
X22254707Y-58969439D01*
X22254706Y-58969439D01*
X22057169Y-59061551D01*
X22057164Y-59061554D01*
X22052182Y-59063877D01*
X22046187Y-59068075D01*
X21869142Y-59192043D01*
X21869139Y-59192045D01*
X21864631Y-59195202D01*
X21702733Y-59357100D01*
X21699576Y-59361608D01*
X21699574Y-59361611D01*
X21673261Y-59399190D01*
X21571408Y-59544651D01*
X21569085Y-59549633D01*
X21569082Y-59549638D01*
X21476970Y-59747175D01*
X21474647Y-59752157D01*
X21473225Y-59757465D01*
X21473224Y-59757467D01*
X21419960Y-59956249D01*
X21415388Y-59973313D01*
X21395433Y-60201400D01*
X21415388Y-60429487D01*
X21416812Y-60434800D01*
X21416812Y-60434802D01*
X21472797Y-60643737D01*
X21474647Y-60650643D01*
X21476970Y-60655624D01*
X21476970Y-60655625D01*
X21569082Y-60853162D01*
X21569085Y-60853167D01*
X21571408Y-60858149D01*
X21624966Y-60934638D01*
X21694407Y-61033809D01*
X21702733Y-61045700D01*
X21864631Y-61207598D01*
X21869139Y-61210755D01*
X21869142Y-61210757D01*
X21873774Y-61214000D01*
X22052182Y-61338923D01*
X22057164Y-61341246D01*
X22057169Y-61341249D01*
X22127733Y-61374153D01*
X22259688Y-61435684D01*
X22264996Y-61437106D01*
X22264998Y-61437107D01*
X22367950Y-61464693D01*
X22428573Y-61501645D01*
X22459594Y-61565506D01*
X22451166Y-61636000D01*
X22405963Y-61690747D01*
X22367950Y-61708107D01*
X22264998Y-61735693D01*
X22264996Y-61735694D01*
X22259688Y-61737116D01*
X22254707Y-61739439D01*
X22254706Y-61739439D01*
X22057169Y-61831551D01*
X22057164Y-61831554D01*
X22052182Y-61833877D01*
X21993010Y-61875310D01*
X21869142Y-61962043D01*
X21869139Y-61962045D01*
X21864631Y-61965202D01*
X21702733Y-62127100D01*
X21571408Y-62314651D01*
X21569085Y-62319633D01*
X21569082Y-62319638D01*
X21480917Y-62508711D01*
X21474647Y-62522157D01*
X21473225Y-62527465D01*
X21473224Y-62527467D01*
X21419960Y-62726249D01*
X21415388Y-62743313D01*
X21395433Y-62971400D01*
X17780500Y-62971400D01*
X17780500Y-51704094D01*
X45896331Y-51704094D01*
X45912389Y-51867868D01*
X45964332Y-52024015D01*
X45967981Y-52030040D01*
X46041459Y-52151365D01*
X46049579Y-52164773D01*
X46163891Y-52283147D01*
X46301589Y-52373254D01*
X46455828Y-52430615D01*
X46462809Y-52431546D01*
X46462811Y-52431547D01*
X46611961Y-52451448D01*
X46611965Y-52451448D01*
X46618942Y-52452379D01*
X46625953Y-52451741D01*
X46625957Y-52451741D01*
X46775803Y-52438104D01*
X46775804Y-52438104D01*
X46782824Y-52437465D01*
X46842371Y-52418117D01*
X46932630Y-52388790D01*
X46932633Y-52388789D01*
X46939329Y-52386613D01*
X47080679Y-52302351D01*
X47199849Y-52188868D01*
X47208213Y-52176279D01*
X47287014Y-52057675D01*
X47287015Y-52057673D01*
X47290915Y-52051803D01*
X47349351Y-51897968D01*
X47361424Y-51812062D01*
X47371702Y-51738934D01*
X47371703Y-51738927D01*
X47372253Y-51735010D01*
X47372541Y-51714400D01*
X47354198Y-51550866D01*
X47349206Y-51536531D01*
X47345694Y-51465621D01*
X47381076Y-51404070D01*
X47403680Y-51386867D01*
X47410709Y-51382677D01*
X47487079Y-51337151D01*
X47606249Y-51223668D01*
X47650982Y-51156340D01*
X47693414Y-51092475D01*
X47693415Y-51092473D01*
X47697315Y-51086603D01*
X47755751Y-50932768D01*
X47778653Y-50769810D01*
X47778941Y-50749200D01*
X47760598Y-50585666D01*
X47758192Y-50578755D01*
X47710791Y-50442639D01*
X47706480Y-50430260D01*
X47619276Y-50290705D01*
X47561299Y-50232322D01*
X47508286Y-50178937D01*
X47508282Y-50178934D01*
X47503322Y-50173939D01*
X47364380Y-50085763D01*
X47315247Y-50068268D01*
X47215989Y-50032923D01*
X47215987Y-50032922D01*
X47209355Y-50030561D01*
X47202369Y-50029728D01*
X47202365Y-50029727D01*
X47087871Y-50016075D01*
X47045953Y-50011077D01*
X47038950Y-50011813D01*
X47038949Y-50011813D01*
X46995735Y-50016355D01*
X46882295Y-50028278D01*
X46875627Y-50030548D01*
X46733182Y-50079040D01*
X46733179Y-50079041D01*
X46726515Y-50081310D01*
X46586355Y-50167537D01*
X46468782Y-50282673D01*
X46379638Y-50420997D01*
X46377227Y-50427620D01*
X46377226Y-50427623D01*
X46325766Y-50569009D01*
X46325765Y-50569014D01*
X46323356Y-50575632D01*
X46302731Y-50738894D01*
X46318789Y-50902668D01*
X46327213Y-50927992D01*
X46329735Y-50998942D01*
X46293497Y-51059994D01*
X46273677Y-51075078D01*
X46185959Y-51129043D01*
X46185957Y-51129044D01*
X46179955Y-51132737D01*
X46117466Y-51193931D01*
X46076205Y-51234337D01*
X46062382Y-51247873D01*
X45973238Y-51386197D01*
X45970827Y-51392820D01*
X45970826Y-51392823D01*
X45919366Y-51534209D01*
X45919365Y-51534214D01*
X45916956Y-51540832D01*
X45896331Y-51704094D01*
X17780500Y-51704094D01*
X17780500Y-49976894D01*
X64539931Y-49976894D01*
X64555989Y-50140668D01*
X64607932Y-50296815D01*
X64611581Y-50302840D01*
X64679551Y-50415070D01*
X64693179Y-50437573D01*
X64807491Y-50555947D01*
X64945189Y-50646054D01*
X65099428Y-50703415D01*
X65106409Y-50704346D01*
X65106411Y-50704347D01*
X65255561Y-50724248D01*
X65255565Y-50724248D01*
X65262542Y-50725179D01*
X65269553Y-50724541D01*
X65269557Y-50724541D01*
X65419403Y-50710904D01*
X65419404Y-50710904D01*
X65426424Y-50710265D01*
X65455062Y-50700960D01*
X65576230Y-50661590D01*
X65576233Y-50661589D01*
X65582929Y-50659413D01*
X65724279Y-50575151D01*
X65843449Y-50461668D01*
X65859894Y-50436917D01*
X65930614Y-50330475D01*
X65930615Y-50330473D01*
X65934515Y-50324603D01*
X65992951Y-50170768D01*
X66005230Y-50083398D01*
X66015302Y-50011734D01*
X66015303Y-50011727D01*
X66015853Y-50007810D01*
X66016141Y-49987200D01*
X65997798Y-49823666D01*
X65991998Y-49807009D01*
X65945998Y-49674917D01*
X65943680Y-49668260D01*
X65856476Y-49528705D01*
X65798499Y-49470322D01*
X65745486Y-49416937D01*
X65745482Y-49416934D01*
X65740522Y-49411939D01*
X65601580Y-49323763D01*
X65552447Y-49306268D01*
X65453189Y-49270923D01*
X65453187Y-49270922D01*
X65446555Y-49268561D01*
X65439569Y-49267728D01*
X65439565Y-49267727D01*
X65325071Y-49254075D01*
X65283153Y-49249077D01*
X65276150Y-49249813D01*
X65276149Y-49249813D01*
X65232935Y-49254355D01*
X65119495Y-49266278D01*
X65112827Y-49268548D01*
X64970382Y-49317040D01*
X64970379Y-49317041D01*
X64963715Y-49319310D01*
X64823555Y-49405537D01*
X64705982Y-49520673D01*
X64616838Y-49658997D01*
X64614427Y-49665620D01*
X64614426Y-49665623D01*
X64562966Y-49807009D01*
X64562965Y-49807014D01*
X64560556Y-49813632D01*
X64539931Y-49976894D01*
X17780500Y-49976894D01*
X17780500Y-48262387D01*
X22547652Y-48262387D01*
X22556479Y-48274005D01*
X22779212Y-48435830D01*
X22785892Y-48440070D01*
X23055503Y-48588290D01*
X23062638Y-48591647D01*
X23348701Y-48704908D01*
X23356227Y-48707353D01*
X23654210Y-48783862D01*
X23661981Y-48785345D01*
X23967209Y-48823903D01*
X23975100Y-48824400D01*
X24282762Y-48824400D01*
X24290653Y-48823903D01*
X24595881Y-48785345D01*
X24603652Y-48783862D01*
X24901635Y-48707353D01*
X24909161Y-48704908D01*
X25195224Y-48591647D01*
X25202359Y-48588290D01*
X25471970Y-48440070D01*
X25478650Y-48435830D01*
X25701754Y-48273736D01*
X25710177Y-48262813D01*
X25703273Y-48249952D01*
X24141743Y-46688422D01*
X24127799Y-46680808D01*
X24125966Y-46680939D01*
X24119351Y-46685190D01*
X22554265Y-48250276D01*
X22547652Y-48262387D01*
X17780500Y-48262387D01*
X17780500Y-46320358D01*
X21616221Y-46320358D01*
X21635538Y-46627394D01*
X21636531Y-46635255D01*
X21694177Y-46937446D01*
X21696148Y-46945123D01*
X21791215Y-47237709D01*
X21794130Y-47245072D01*
X21925120Y-47523441D01*
X21928932Y-47530374D01*
X22093782Y-47790136D01*
X22098426Y-47796529D01*
X22173428Y-47887190D01*
X22185945Y-47895645D01*
X22196683Y-47889438D01*
X23756909Y-46329212D01*
X23763287Y-46317532D01*
X24493339Y-46317532D01*
X24493470Y-46319365D01*
X24497721Y-46325980D01*
X26060076Y-47888335D01*
X26073338Y-47895577D01*
X26083443Y-47888388D01*
X26159436Y-47796529D01*
X26164080Y-47790136D01*
X26328930Y-47530374D01*
X26332742Y-47523441D01*
X26463732Y-47245072D01*
X26466647Y-47237709D01*
X26561714Y-46945123D01*
X26563685Y-46937446D01*
X26604079Y-46725694D01*
X42365731Y-46725694D01*
X42381789Y-46889468D01*
X42433732Y-47045615D01*
X42518979Y-47186373D01*
X42633291Y-47304747D01*
X42770989Y-47394854D01*
X42925228Y-47452215D01*
X42932209Y-47453146D01*
X42932211Y-47453147D01*
X43081361Y-47473048D01*
X43081365Y-47473048D01*
X43088342Y-47473979D01*
X43095353Y-47473341D01*
X43095357Y-47473341D01*
X43245203Y-47459704D01*
X43245204Y-47459704D01*
X43252224Y-47459065D01*
X43280862Y-47449760D01*
X43402030Y-47410390D01*
X43402033Y-47410389D01*
X43408729Y-47408213D01*
X43550079Y-47323951D01*
X43669249Y-47210468D01*
X43685258Y-47186373D01*
X43756414Y-47079275D01*
X43756415Y-47079273D01*
X43760315Y-47073403D01*
X43818751Y-46919568D01*
X43841653Y-46756610D01*
X43841941Y-46736000D01*
X43823598Y-46572466D01*
X43817798Y-46555809D01*
X43771798Y-46423717D01*
X43769480Y-46417060D01*
X43682276Y-46277505D01*
X43624299Y-46219122D01*
X43571286Y-46165737D01*
X43571282Y-46165734D01*
X43566322Y-46160739D01*
X43427380Y-46072563D01*
X43378247Y-46055068D01*
X43278989Y-46019723D01*
X43278987Y-46019722D01*
X43272355Y-46017361D01*
X43265369Y-46016528D01*
X43265365Y-46016527D01*
X43150871Y-46002875D01*
X43108953Y-45997877D01*
X43101950Y-45998613D01*
X43101949Y-45998613D01*
X43058735Y-46003155D01*
X42945295Y-46015078D01*
X42938627Y-46017348D01*
X42796182Y-46065840D01*
X42796179Y-46065841D01*
X42789515Y-46068110D01*
X42649355Y-46154337D01*
X42531782Y-46269473D01*
X42442638Y-46407797D01*
X42440227Y-46414420D01*
X42440226Y-46414423D01*
X42388766Y-46555809D01*
X42388765Y-46555814D01*
X42386356Y-46562432D01*
X42365731Y-46725694D01*
X26604079Y-46725694D01*
X26621331Y-46635255D01*
X26622324Y-46627394D01*
X26641641Y-46320358D01*
X26641641Y-46312442D01*
X26622324Y-46005406D01*
X26621331Y-45997545D01*
X26563685Y-45695354D01*
X26561714Y-45687677D01*
X26466647Y-45395091D01*
X26463732Y-45387728D01*
X26332742Y-45109359D01*
X26328930Y-45102426D01*
X26164080Y-44842664D01*
X26159436Y-44836271D01*
X26084434Y-44745610D01*
X26071917Y-44737155D01*
X26061179Y-44743362D01*
X24500953Y-46303588D01*
X24493339Y-46317532D01*
X23763287Y-46317532D01*
X23764523Y-46315268D01*
X23764392Y-46313435D01*
X23760141Y-46306820D01*
X22197786Y-44744465D01*
X22184524Y-44737223D01*
X22174419Y-44744412D01*
X22098426Y-44836271D01*
X22093782Y-44842664D01*
X21928932Y-45102426D01*
X21925120Y-45109359D01*
X21794130Y-45387728D01*
X21791215Y-45395091D01*
X21696148Y-45687677D01*
X21694177Y-45695354D01*
X21636531Y-45997545D01*
X21635538Y-46005406D01*
X21616221Y-46312442D01*
X21616221Y-46320358D01*
X17780500Y-46320358D01*
X17780500Y-45226584D01*
X17800502Y-45158463D01*
X17854158Y-45111970D01*
X17924432Y-45101866D01*
X17974847Y-45120732D01*
X18035601Y-45159960D01*
X18035606Y-45159962D01*
X18040643Y-45163215D01*
X18232584Y-45240570D01*
X18238465Y-45241718D01*
X18238470Y-45241720D01*
X18431244Y-45279366D01*
X18431247Y-45279366D01*
X18435690Y-45280234D01*
X18441129Y-45280500D01*
X18593704Y-45280500D01*
X18748007Y-45265778D01*
X18753761Y-45264090D01*
X18940827Y-45209211D01*
X18940829Y-45209210D01*
X18946580Y-45207523D01*
X19028257Y-45165457D01*
X19125225Y-45115516D01*
X19125228Y-45115514D01*
X19130556Y-45112770D01*
X19293294Y-44984937D01*
X19428924Y-44828637D01*
X19532552Y-44649510D01*
X19600438Y-44454019D01*
X19612622Y-44369987D01*
X22547685Y-44369987D01*
X22554589Y-44382848D01*
X24116119Y-45944378D01*
X24130063Y-45951992D01*
X24131896Y-45951861D01*
X24138511Y-45947610D01*
X25703597Y-44382524D01*
X25710210Y-44370413D01*
X25701383Y-44358795D01*
X25478650Y-44196970D01*
X25471970Y-44192730D01*
X25202359Y-44044510D01*
X25195224Y-44041153D01*
X24909161Y-43927892D01*
X24901635Y-43925447D01*
X24603652Y-43848938D01*
X24595881Y-43847455D01*
X24290653Y-43808897D01*
X24282762Y-43808400D01*
X23975100Y-43808400D01*
X23967209Y-43808897D01*
X23661981Y-43847455D01*
X23654210Y-43848938D01*
X23356227Y-43925447D01*
X23348701Y-43927892D01*
X23062638Y-44041153D01*
X23055503Y-44044510D01*
X22785892Y-44192730D01*
X22779212Y-44196970D01*
X22556108Y-44359064D01*
X22547685Y-44369987D01*
X19612622Y-44369987D01*
X19630132Y-44249219D01*
X19620564Y-44042498D01*
X19572079Y-43841315D01*
X19557340Y-43808897D01*
X19488906Y-43658386D01*
X19486426Y-43652931D01*
X19472571Y-43633399D01*
X19449474Y-43566264D01*
X19466339Y-43497300D01*
X19517811Y-43448401D01*
X19575342Y-43434500D01*
X79502500Y-43434500D01*
X79570621Y-43454502D01*
G37*
%TD.AperFunction*%
%TD*%
M02*
