%TF.GenerationSoftware,KiCad,Pcbnew,(6.0.4-0)*%
%TF.CreationDate,2022-03-21T10:12:57+01:00*%
%TF.ProjectId,IrDA_RS232,49724441-5f52-4533-9233-322e6b696361,rev?*%
%TF.SameCoordinates,Original*%
%TF.FileFunction,Legend,Top*%
%TF.FilePolarity,Positive*%
%FSLAX46Y46*%
G04 Gerber Fmt 4.6, Leading zero omitted, Abs format (unit mm)*
G04 Created by KiCad (PCBNEW (6.0.4-0)) date 2022-03-21 10:12:57*
%MOMM*%
%LPD*%
G01*
G04 APERTURE LIST*
%ADD10C,0.300000*%
%ADD11C,0.150000*%
%ADD12C,0.120000*%
G04 APERTURE END LIST*
D10*
X65936000Y-62230000D02*
G75*
G03*
X65936000Y-62230000I-150000J0D01*
G01*
X44854000Y-47244000D02*
G75*
G03*
X44854000Y-47244000I-150000J0D01*
G01*
X75334000Y-58166000D02*
G75*
G03*
X75334000Y-58166000I-150000J0D01*
G01*
X27328000Y-52324000D02*
G75*
G03*
X27328000Y-52324000I-150000J0D01*
G01*
X44854000Y-59436000D02*
G75*
G03*
X44854000Y-59436000I-150000J0D01*
G01*
X47563428Y-47331142D02*
X47563428Y-44331142D01*
X48992000Y-47331142D02*
X48992000Y-45331142D01*
X48992000Y-45902571D02*
X49134857Y-45616857D01*
X49277714Y-45474000D01*
X49563428Y-45331142D01*
X49849142Y-45331142D01*
X50849142Y-47331142D02*
X50849142Y-44331142D01*
X51563428Y-44331142D01*
X51992000Y-44474000D01*
X52277714Y-44759714D01*
X52420571Y-45045428D01*
X52563428Y-45616857D01*
X52563428Y-46045428D01*
X52420571Y-46616857D01*
X52277714Y-46902571D01*
X51992000Y-47188285D01*
X51563428Y-47331142D01*
X50849142Y-47331142D01*
X53706285Y-46474000D02*
X55134857Y-46474000D01*
X53420571Y-47331142D02*
X54420571Y-44331142D01*
X55420571Y-47331142D01*
X58277714Y-45331142D02*
X59420571Y-45331142D01*
X58706285Y-44331142D02*
X58706285Y-46902571D01*
X58849142Y-47188285D01*
X59134857Y-47331142D01*
X59420571Y-47331142D01*
X60849142Y-47331142D02*
X60563428Y-47188285D01*
X60420571Y-47045428D01*
X60277714Y-46759714D01*
X60277714Y-45902571D01*
X60420571Y-45616857D01*
X60563428Y-45474000D01*
X60849142Y-45331142D01*
X61277714Y-45331142D01*
X61563428Y-45474000D01*
X61706285Y-45616857D01*
X61849142Y-45902571D01*
X61849142Y-46759714D01*
X61706285Y-47045428D01*
X61563428Y-47188285D01*
X61277714Y-47331142D01*
X60849142Y-47331142D01*
X67134857Y-47331142D02*
X66134857Y-45902571D01*
X65420571Y-47331142D02*
X65420571Y-44331142D01*
X66563428Y-44331142D01*
X66849142Y-44474000D01*
X66992000Y-44616857D01*
X67134857Y-44902571D01*
X67134857Y-45331142D01*
X66992000Y-45616857D01*
X66849142Y-45759714D01*
X66563428Y-45902571D01*
X65420571Y-45902571D01*
X68277714Y-47188285D02*
X68706285Y-47331142D01*
X69420571Y-47331142D01*
X69706285Y-47188285D01*
X69849142Y-47045428D01*
X69992000Y-46759714D01*
X69992000Y-46474000D01*
X69849142Y-46188285D01*
X69706285Y-46045428D01*
X69420571Y-45902571D01*
X68849142Y-45759714D01*
X68563428Y-45616857D01*
X68420571Y-45474000D01*
X68277714Y-45188285D01*
X68277714Y-44902571D01*
X68420571Y-44616857D01*
X68563428Y-44474000D01*
X68849142Y-44331142D01*
X69563428Y-44331142D01*
X69992000Y-44474000D01*
X71134857Y-44616857D02*
X71277714Y-44474000D01*
X71563428Y-44331142D01*
X72277714Y-44331142D01*
X72563428Y-44474000D01*
X72706285Y-44616857D01*
X72849142Y-44902571D01*
X72849142Y-45188285D01*
X72706285Y-45616857D01*
X70992000Y-47331142D01*
X72849142Y-47331142D01*
X73849142Y-44331142D02*
X75706285Y-44331142D01*
X74706285Y-45474000D01*
X75134857Y-45474000D01*
X75420571Y-45616857D01*
X75563428Y-45759714D01*
X75706285Y-46045428D01*
X75706285Y-46759714D01*
X75563428Y-47045428D01*
X75420571Y-47188285D01*
X75134857Y-47331142D01*
X74277714Y-47331142D01*
X73992000Y-47188285D01*
X73849142Y-47045428D01*
X76849142Y-44616857D02*
X76992000Y-44474000D01*
X77277714Y-44331142D01*
X77992000Y-44331142D01*
X78277714Y-44474000D01*
X78420571Y-44616857D01*
X78563428Y-44902571D01*
X78563428Y-45188285D01*
X78420571Y-45616857D01*
X76706285Y-47331142D01*
X78563428Y-47331142D01*
D11*
X58126380Y-61007047D02*
X58840666Y-61007047D01*
X58983523Y-61054666D01*
X59078761Y-61149904D01*
X59126380Y-61292761D01*
X59126380Y-61388000D01*
X59126380Y-60054666D02*
X59126380Y-60530857D01*
X58126380Y-60530857D01*
X59031142Y-59149904D02*
X59078761Y-59197523D01*
X59126380Y-59340380D01*
X59126380Y-59435619D01*
X59078761Y-59578476D01*
X58983523Y-59673714D01*
X58888285Y-59721333D01*
X58697809Y-59768952D01*
X58554952Y-59768952D01*
X58364476Y-59721333D01*
X58269238Y-59673714D01*
X58174000Y-59578476D01*
X58126380Y-59435619D01*
X58126380Y-59340380D01*
X58174000Y-59197523D01*
X58221619Y-59149904D01*
X58126380Y-58435619D02*
X58840666Y-58435619D01*
X58983523Y-58483238D01*
X59078761Y-58578476D01*
X59126380Y-58721333D01*
X59126380Y-58816571D01*
X59126380Y-57483238D02*
X59126380Y-57959428D01*
X58126380Y-57959428D01*
X59031142Y-56578476D02*
X59078761Y-56626095D01*
X59126380Y-56768952D01*
X59126380Y-56864190D01*
X59078761Y-57007047D01*
X58983523Y-57102285D01*
X58888285Y-57149904D01*
X58697809Y-57197523D01*
X58554952Y-57197523D01*
X58364476Y-57149904D01*
X58269238Y-57102285D01*
X58174000Y-57007047D01*
X58126380Y-56864190D01*
X58126380Y-56768952D01*
X58174000Y-56626095D01*
X58221619Y-56578476D01*
X58126380Y-55864190D02*
X58840666Y-55864190D01*
X58983523Y-55911809D01*
X59078761Y-56007047D01*
X59126380Y-56149904D01*
X59126380Y-56245142D01*
X59126380Y-54911809D02*
X59126380Y-55388000D01*
X58126380Y-55388000D01*
X59031142Y-54007047D02*
X59078761Y-54054666D01*
X59126380Y-54197523D01*
X59126380Y-54292761D01*
X59078761Y-54435619D01*
X58983523Y-54530857D01*
X58888285Y-54578476D01*
X58697809Y-54626095D01*
X58554952Y-54626095D01*
X58364476Y-54578476D01*
X58269238Y-54530857D01*
X58174000Y-54435619D01*
X58126380Y-54292761D01*
X58126380Y-54197523D01*
X58174000Y-54054666D01*
X58221619Y-54007047D01*
X58126380Y-53292761D02*
X58840666Y-53292761D01*
X58983523Y-53340380D01*
X59078761Y-53435619D01*
X59126380Y-53578476D01*
X59126380Y-53673714D01*
X59126380Y-52340380D02*
X59126380Y-52816571D01*
X58126380Y-52816571D01*
X59031142Y-51435619D02*
X59078761Y-51483238D01*
X59126380Y-51626095D01*
X59126380Y-51721333D01*
X59078761Y-51864190D01*
X58983523Y-51959428D01*
X58888285Y-52007047D01*
X58697809Y-52054666D01*
X58554952Y-52054666D01*
X58364476Y-52007047D01*
X58269238Y-51959428D01*
X58174000Y-51864190D01*
X58126380Y-51721333D01*
X58126380Y-51626095D01*
X58174000Y-51483238D01*
X58221619Y-51435619D01*
X55190857Y-49220380D02*
X54857523Y-48744190D01*
X54619428Y-49220380D02*
X54619428Y-48220380D01*
X55000380Y-48220380D01*
X55095619Y-48268000D01*
X55143238Y-48315619D01*
X55190857Y-48410857D01*
X55190857Y-48553714D01*
X55143238Y-48648952D01*
X55095619Y-48696571D01*
X55000380Y-48744190D01*
X54619428Y-48744190D01*
X56000380Y-49172761D02*
X55905142Y-49220380D01*
X55714666Y-49220380D01*
X55619428Y-49172761D01*
X55571809Y-49077523D01*
X55571809Y-48696571D01*
X55619428Y-48601333D01*
X55714666Y-48553714D01*
X55905142Y-48553714D01*
X56000380Y-48601333D01*
X56047999Y-48696571D01*
X56047999Y-48791809D01*
X55571809Y-48887047D01*
X56381333Y-48553714D02*
X56619428Y-49220380D01*
X56857523Y-48553714D01*
X57238476Y-49125142D02*
X57286095Y-49172761D01*
X57238476Y-49220380D01*
X57190857Y-49172761D01*
X57238476Y-49125142D01*
X57238476Y-49220380D01*
X58428952Y-48934666D02*
X58905142Y-48934666D01*
X58333714Y-49220380D02*
X58667047Y-48220380D01*
X59000380Y-49220380D01*
X60095619Y-48839428D02*
X60857523Y-48839428D01*
X62047999Y-48315619D02*
X62095619Y-48268000D01*
X62190857Y-48220380D01*
X62428952Y-48220380D01*
X62524190Y-48268000D01*
X62571809Y-48315619D01*
X62619428Y-48410857D01*
X62619428Y-48506095D01*
X62571809Y-48648952D01*
X62000380Y-49220380D01*
X62619428Y-49220380D01*
X63238476Y-48220380D02*
X63333714Y-48220380D01*
X63428952Y-48268000D01*
X63476571Y-48315619D01*
X63524190Y-48410857D01*
X63571809Y-48601333D01*
X63571809Y-48839428D01*
X63524190Y-49029904D01*
X63476571Y-49125142D01*
X63428952Y-49172761D01*
X63333714Y-49220380D01*
X63238476Y-49220380D01*
X63143238Y-49172761D01*
X63095619Y-49125142D01*
X63047999Y-49029904D01*
X63000380Y-48839428D01*
X63000380Y-48601333D01*
X63047999Y-48410857D01*
X63095619Y-48315619D01*
X63143238Y-48268000D01*
X63238476Y-48220380D01*
X63952761Y-48315619D02*
X64000380Y-48268000D01*
X64095619Y-48220380D01*
X64333714Y-48220380D01*
X64428952Y-48268000D01*
X64476571Y-48315619D01*
X64524190Y-48410857D01*
X64524190Y-48506095D01*
X64476571Y-48648952D01*
X63905142Y-49220380D01*
X64524190Y-49220380D01*
X64905142Y-48315619D02*
X64952761Y-48268000D01*
X65047999Y-48220380D01*
X65286095Y-48220380D01*
X65381333Y-48268000D01*
X65428952Y-48315619D01*
X65476571Y-48410857D01*
X65476571Y-48506095D01*
X65428952Y-48648952D01*
X64857523Y-49220380D01*
X65476571Y-49220380D01*
X66667047Y-49220380D02*
X66667047Y-48220380D01*
X66667047Y-48601333D02*
X66762285Y-48553714D01*
X66952761Y-48553714D01*
X67047999Y-48601333D01*
X67095619Y-48648952D01*
X67143238Y-48744190D01*
X67143238Y-49029904D01*
X67095619Y-49125142D01*
X67047999Y-49172761D01*
X66952761Y-49220380D01*
X66762285Y-49220380D01*
X66667047Y-49172761D01*
X67476571Y-48553714D02*
X67714666Y-49220380D01*
X67952761Y-48553714D02*
X67714666Y-49220380D01*
X67619428Y-49458476D01*
X67571809Y-49506095D01*
X67476571Y-49553714D01*
X68952761Y-48220380D02*
X69524190Y-48220380D01*
X69238476Y-49220380D02*
X69238476Y-48220380D01*
X70000380Y-49220380D02*
X69905142Y-49172761D01*
X69857523Y-49125142D01*
X69809904Y-49029904D01*
X69809904Y-48744190D01*
X69857523Y-48648952D01*
X69905142Y-48601333D01*
X70000380Y-48553714D01*
X70143238Y-48553714D01*
X70238476Y-48601333D01*
X70286095Y-48648952D01*
X70333714Y-48744190D01*
X70333714Y-49029904D01*
X70286095Y-49125142D01*
X70238476Y-49172761D01*
X70143238Y-49220380D01*
X70000380Y-49220380D01*
X70762285Y-49220380D02*
X70762285Y-48220380D01*
X70762285Y-48601333D02*
X70857523Y-48553714D01*
X71047999Y-48553714D01*
X71143238Y-48601333D01*
X71190857Y-48648952D01*
X71238476Y-48744190D01*
X71238476Y-49029904D01*
X71190857Y-49125142D01*
X71143238Y-49172761D01*
X71047999Y-49220380D01*
X70857523Y-49220380D01*
X70762285Y-49172761D01*
X71667047Y-49220380D02*
X71667047Y-48553714D01*
X71667047Y-48220380D02*
X71619428Y-48268000D01*
X71667047Y-48315619D01*
X71714666Y-48268000D01*
X71667047Y-48220380D01*
X71667047Y-48315619D01*
X72571809Y-49220380D02*
X72571809Y-48696571D01*
X72524190Y-48601333D01*
X72428952Y-48553714D01*
X72238476Y-48553714D01*
X72143238Y-48601333D01*
X72571809Y-49172761D02*
X72476571Y-49220380D01*
X72238476Y-49220380D01*
X72143238Y-49172761D01*
X72095619Y-49077523D01*
X72095619Y-48982285D01*
X72143238Y-48887047D01*
X72238476Y-48839428D01*
X72476571Y-48839428D01*
X72571809Y-48791809D01*
X73000380Y-49172761D02*
X73095619Y-49220380D01*
X73286095Y-49220380D01*
X73381333Y-49172761D01*
X73428952Y-49077523D01*
X73428952Y-49029904D01*
X73381333Y-48934666D01*
X73286095Y-48887047D01*
X73143238Y-48887047D01*
X73047999Y-48839428D01*
X73000380Y-48744190D01*
X73000380Y-48696571D01*
X73047999Y-48601333D01*
X73143238Y-48553714D01*
X73286095Y-48553714D01*
X73381333Y-48601333D01*
X74619428Y-49220380D02*
X74619428Y-48220380D01*
X74952761Y-48934666D01*
X75286095Y-48220380D01*
X75286095Y-49220380D01*
X76190857Y-49220380D02*
X76190857Y-48696571D01*
X76143238Y-48601333D01*
X76047999Y-48553714D01*
X75857523Y-48553714D01*
X75762285Y-48601333D01*
X76190857Y-49172761D02*
X76095619Y-49220380D01*
X75857523Y-49220380D01*
X75762285Y-49172761D01*
X75714666Y-49077523D01*
X75714666Y-48982285D01*
X75762285Y-48887047D01*
X75857523Y-48839428D01*
X76095619Y-48839428D01*
X76190857Y-48791809D01*
X75762285Y-48220380D02*
X75809904Y-48268000D01*
X75762285Y-48315619D01*
X75714666Y-48268000D01*
X75762285Y-48220380D01*
X75762285Y-48315619D01*
X76143238Y-48220380D02*
X76190857Y-48268000D01*
X76143238Y-48315619D01*
X76095619Y-48268000D01*
X76143238Y-48220380D01*
X76143238Y-48315619D01*
X77095619Y-49220380D02*
X77095619Y-48220380D01*
X77095619Y-49172761D02*
X77000380Y-49220380D01*
X76809904Y-49220380D01*
X76714666Y-49172761D01*
X76667047Y-49125142D01*
X76619428Y-49029904D01*
X76619428Y-48744190D01*
X76667047Y-48648952D01*
X76714666Y-48601333D01*
X76809904Y-48553714D01*
X77000380Y-48553714D01*
X77095619Y-48601333D01*
X77952761Y-49172761D02*
X77857523Y-49220380D01*
X77667047Y-49220380D01*
X77571809Y-49172761D01*
X77524190Y-49077523D01*
X77524190Y-48696571D01*
X77571809Y-48601333D01*
X77667047Y-48553714D01*
X77857523Y-48553714D01*
X77952761Y-48601333D01*
X78000380Y-48696571D01*
X78000380Y-48791809D01*
X77524190Y-48887047D01*
X78571809Y-49220380D02*
X78476571Y-49172761D01*
X78428952Y-49077523D01*
X78428952Y-48220380D01*
%TO.C,U3*%
X63754095Y-62444380D02*
X63754095Y-63253904D01*
X63801714Y-63349142D01*
X63849333Y-63396761D01*
X63944571Y-63444380D01*
X64135047Y-63444380D01*
X64230285Y-63396761D01*
X64277904Y-63349142D01*
X64325523Y-63253904D01*
X64325523Y-62444380D01*
X64706476Y-62444380D02*
X65325523Y-62444380D01*
X64992190Y-62825333D01*
X65135047Y-62825333D01*
X65230285Y-62872952D01*
X65277904Y-62920571D01*
X65325523Y-63015809D01*
X65325523Y-63253904D01*
X65277904Y-63349142D01*
X65230285Y-63396761D01*
X65135047Y-63444380D01*
X64849333Y-63444380D01*
X64754095Y-63396761D01*
X64706476Y-63349142D01*
%TO.C,R9*%
X66441580Y-52643066D02*
X65965390Y-52976400D01*
X66441580Y-53214495D02*
X65441580Y-53214495D01*
X65441580Y-52833542D01*
X65489200Y-52738304D01*
X65536819Y-52690685D01*
X65632057Y-52643066D01*
X65774914Y-52643066D01*
X65870152Y-52690685D01*
X65917771Y-52738304D01*
X65965390Y-52833542D01*
X65965390Y-53214495D01*
X66441580Y-52166876D02*
X66441580Y-51976400D01*
X66393961Y-51881161D01*
X66346342Y-51833542D01*
X66203485Y-51738304D01*
X66013009Y-51690685D01*
X65632057Y-51690685D01*
X65536819Y-51738304D01*
X65489200Y-51785923D01*
X65441580Y-51881161D01*
X65441580Y-52071638D01*
X65489200Y-52166876D01*
X65536819Y-52214495D01*
X65632057Y-52262114D01*
X65870152Y-52262114D01*
X65965390Y-52214495D01*
X66013009Y-52166876D01*
X66060628Y-52071638D01*
X66060628Y-51881161D01*
X66013009Y-51785923D01*
X65965390Y-51738304D01*
X65870152Y-51690685D01*
%TO.C,R8*%
X49829980Y-52338266D02*
X49353790Y-52671600D01*
X49829980Y-52909695D02*
X48829980Y-52909695D01*
X48829980Y-52528742D01*
X48877600Y-52433504D01*
X48925219Y-52385885D01*
X49020457Y-52338266D01*
X49163314Y-52338266D01*
X49258552Y-52385885D01*
X49306171Y-52433504D01*
X49353790Y-52528742D01*
X49353790Y-52909695D01*
X49258552Y-51766838D02*
X49210933Y-51862076D01*
X49163314Y-51909695D01*
X49068076Y-51957314D01*
X49020457Y-51957314D01*
X48925219Y-51909695D01*
X48877600Y-51862076D01*
X48829980Y-51766838D01*
X48829980Y-51576361D01*
X48877600Y-51481123D01*
X48925219Y-51433504D01*
X49020457Y-51385885D01*
X49068076Y-51385885D01*
X49163314Y-51433504D01*
X49210933Y-51481123D01*
X49258552Y-51576361D01*
X49258552Y-51766838D01*
X49306171Y-51862076D01*
X49353790Y-51909695D01*
X49449028Y-51957314D01*
X49639504Y-51957314D01*
X49734742Y-51909695D01*
X49782361Y-51862076D01*
X49829980Y-51766838D01*
X49829980Y-51576361D01*
X49782361Y-51481123D01*
X49734742Y-51433504D01*
X49639504Y-51385885D01*
X49449028Y-51385885D01*
X49353790Y-51433504D01*
X49306171Y-51481123D01*
X49258552Y-51576361D01*
%TO.C,R7*%
X45299333Y-53387580D02*
X44966000Y-52911390D01*
X44727904Y-53387580D02*
X44727904Y-52387580D01*
X45108857Y-52387580D01*
X45204095Y-52435200D01*
X45251714Y-52482819D01*
X45299333Y-52578057D01*
X45299333Y-52720914D01*
X45251714Y-52816152D01*
X45204095Y-52863771D01*
X45108857Y-52911390D01*
X44727904Y-52911390D01*
X45632666Y-52387580D02*
X46299333Y-52387580D01*
X45870761Y-53387580D01*
%TO.C,Q1*%
X51568361Y-52566819D02*
X51473123Y-52519200D01*
X51377885Y-52423961D01*
X51235028Y-52281104D01*
X51139790Y-52233485D01*
X51044552Y-52233485D01*
X51092171Y-52471580D02*
X50996933Y-52423961D01*
X50901695Y-52328723D01*
X50854076Y-52138247D01*
X50854076Y-51804914D01*
X50901695Y-51614438D01*
X50996933Y-51519200D01*
X51092171Y-51471580D01*
X51282647Y-51471580D01*
X51377885Y-51519200D01*
X51473123Y-51614438D01*
X51520742Y-51804914D01*
X51520742Y-52138247D01*
X51473123Y-52328723D01*
X51377885Y-52423961D01*
X51282647Y-52471580D01*
X51092171Y-52471580D01*
X52473123Y-52471580D02*
X51901695Y-52471580D01*
X52187409Y-52471580D02*
X52187409Y-51471580D01*
X52092171Y-51614438D01*
X51996933Y-51709676D01*
X51901695Y-51757295D01*
%TO.C,D2*%
X47064704Y-52369980D02*
X47064704Y-51369980D01*
X47302800Y-51369980D01*
X47445657Y-51417600D01*
X47540895Y-51512838D01*
X47588514Y-51608076D01*
X47636133Y-51798552D01*
X47636133Y-51941409D01*
X47588514Y-52131885D01*
X47540895Y-52227123D01*
X47445657Y-52322361D01*
X47302800Y-52369980D01*
X47064704Y-52369980D01*
X48017085Y-51465219D02*
X48064704Y-51417600D01*
X48159942Y-51369980D01*
X48398038Y-51369980D01*
X48493276Y-51417600D01*
X48540895Y-51465219D01*
X48588514Y-51560457D01*
X48588514Y-51655695D01*
X48540895Y-51798552D01*
X47969466Y-52369980D01*
X48588514Y-52369980D01*
%TO.C,TP1*%
X48964195Y-63748380D02*
X49535623Y-63748380D01*
X49249909Y-64748380D02*
X49249909Y-63748380D01*
X49868957Y-64748380D02*
X49868957Y-63748380D01*
X50249909Y-63748380D01*
X50345147Y-63796000D01*
X50392766Y-63843619D01*
X50440385Y-63938857D01*
X50440385Y-64081714D01*
X50392766Y-64176952D01*
X50345147Y-64224571D01*
X50249909Y-64272190D01*
X49868957Y-64272190D01*
X51392766Y-64748380D02*
X50821338Y-64748380D01*
X51107052Y-64748380D02*
X51107052Y-63748380D01*
X51011814Y-63891238D01*
X50916576Y-63986476D01*
X50821338Y-64034095D01*
X50035623Y-67796380D02*
X49559433Y-67796380D01*
X49511814Y-68272571D01*
X49559433Y-68224952D01*
X49654671Y-68177333D01*
X49892766Y-68177333D01*
X49988004Y-68224952D01*
X50035623Y-68272571D01*
X50083242Y-68367809D01*
X50083242Y-68605904D01*
X50035623Y-68701142D01*
X49988004Y-68748761D01*
X49892766Y-68796380D01*
X49654671Y-68796380D01*
X49559433Y-68748761D01*
X49511814Y-68701142D01*
X50368957Y-67796380D02*
X50702290Y-68796380D01*
X51035623Y-67796380D01*
%TO.C,C5*%
X38853969Y-44299142D02*
X38806350Y-44346761D01*
X38663493Y-44394380D01*
X38568255Y-44394380D01*
X38425397Y-44346761D01*
X38330159Y-44251523D01*
X38282540Y-44156285D01*
X38234921Y-43965809D01*
X38234921Y-43822952D01*
X38282540Y-43632476D01*
X38330159Y-43537238D01*
X38425397Y-43442000D01*
X38568255Y-43394380D01*
X38663493Y-43394380D01*
X38806350Y-43442000D01*
X38853969Y-43489619D01*
X39758731Y-43394380D02*
X39282540Y-43394380D01*
X39234921Y-43870571D01*
X39282540Y-43822952D01*
X39377778Y-43775333D01*
X39615874Y-43775333D01*
X39711112Y-43822952D01*
X39758731Y-43870571D01*
X39806350Y-43965809D01*
X39806350Y-44203904D01*
X39758731Y-44299142D01*
X39711112Y-44346761D01*
X39615874Y-44394380D01*
X39377778Y-44394380D01*
X39282540Y-44346761D01*
X39234921Y-44299142D01*
%TO.C,C16*%
X72747142Y-66428857D02*
X72794761Y-66476476D01*
X72842380Y-66619333D01*
X72842380Y-66714571D01*
X72794761Y-66857428D01*
X72699523Y-66952666D01*
X72604285Y-67000285D01*
X72413809Y-67047904D01*
X72270952Y-67047904D01*
X72080476Y-67000285D01*
X71985238Y-66952666D01*
X71890000Y-66857428D01*
X71842380Y-66714571D01*
X71842380Y-66619333D01*
X71890000Y-66476476D01*
X71937619Y-66428857D01*
X72842380Y-65476476D02*
X72842380Y-66047904D01*
X72842380Y-65762190D02*
X71842380Y-65762190D01*
X71985238Y-65857428D01*
X72080476Y-65952666D01*
X72128095Y-66047904D01*
X71842380Y-64619333D02*
X71842380Y-64809809D01*
X71890000Y-64905047D01*
X71937619Y-64952666D01*
X72080476Y-65047904D01*
X72270952Y-65095523D01*
X72651904Y-65095523D01*
X72747142Y-65047904D01*
X72794761Y-65000285D01*
X72842380Y-64905047D01*
X72842380Y-64714571D01*
X72794761Y-64619333D01*
X72747142Y-64571714D01*
X72651904Y-64524095D01*
X72413809Y-64524095D01*
X72318571Y-64571714D01*
X72270952Y-64619333D01*
X72223333Y-64714571D01*
X72223333Y-64905047D01*
X72270952Y-65000285D01*
X72318571Y-65047904D01*
X72413809Y-65095523D01*
%TO.C,R3*%
X39250533Y-70839580D02*
X38917200Y-70363390D01*
X38679104Y-70839580D02*
X38679104Y-69839580D01*
X39060057Y-69839580D01*
X39155295Y-69887200D01*
X39202914Y-69934819D01*
X39250533Y-70030057D01*
X39250533Y-70172914D01*
X39202914Y-70268152D01*
X39155295Y-70315771D01*
X39060057Y-70363390D01*
X38679104Y-70363390D01*
X39583866Y-69839580D02*
X40202914Y-69839580D01*
X39869580Y-70220533D01*
X40012438Y-70220533D01*
X40107676Y-70268152D01*
X40155295Y-70315771D01*
X40202914Y-70411009D01*
X40202914Y-70649104D01*
X40155295Y-70744342D01*
X40107676Y-70791961D01*
X40012438Y-70839580D01*
X39726723Y-70839580D01*
X39631485Y-70791961D01*
X39583866Y-70744342D01*
%TO.C,C10*%
X35774506Y-57253142D02*
X35726887Y-57300761D01*
X35584030Y-57348380D01*
X35488792Y-57348380D01*
X35345935Y-57300761D01*
X35250697Y-57205523D01*
X35203078Y-57110285D01*
X35155459Y-56919809D01*
X35155459Y-56776952D01*
X35203078Y-56586476D01*
X35250697Y-56491238D01*
X35345935Y-56396000D01*
X35488792Y-56348380D01*
X35584030Y-56348380D01*
X35726887Y-56396000D01*
X35774506Y-56443619D01*
X36726887Y-57348380D02*
X36155459Y-57348380D01*
X36441173Y-57348380D02*
X36441173Y-56348380D01*
X36345935Y-56491238D01*
X36250697Y-56586476D01*
X36155459Y-56634095D01*
X37345935Y-56348380D02*
X37441173Y-56348380D01*
X37536411Y-56396000D01*
X37584030Y-56443619D01*
X37631649Y-56538857D01*
X37679268Y-56729333D01*
X37679268Y-56967428D01*
X37631649Y-57157904D01*
X37584030Y-57253142D01*
X37536411Y-57300761D01*
X37441173Y-57348380D01*
X37345935Y-57348380D01*
X37250697Y-57300761D01*
X37203078Y-57253142D01*
X37155459Y-57157904D01*
X37107840Y-56967428D01*
X37107840Y-56729333D01*
X37155459Y-56538857D01*
X37203078Y-56443619D01*
X37250697Y-56396000D01*
X37345935Y-56348380D01*
%TO.C,JP1*%
X60634666Y-63714380D02*
X60634666Y-64428666D01*
X60587047Y-64571523D01*
X60491809Y-64666761D01*
X60348952Y-64714380D01*
X60253714Y-64714380D01*
X61110857Y-64714380D02*
X61110857Y-63714380D01*
X61491809Y-63714380D01*
X61587047Y-63762000D01*
X61634666Y-63809619D01*
X61682285Y-63904857D01*
X61682285Y-64047714D01*
X61634666Y-64142952D01*
X61587047Y-64190571D01*
X61491809Y-64238190D01*
X61110857Y-64238190D01*
X62634666Y-64714380D02*
X62063238Y-64714380D01*
X62348952Y-64714380D02*
X62348952Y-63714380D01*
X62253714Y-63857238D01*
X62158476Y-63952476D01*
X62063238Y-64000095D01*
X60118857Y-68289871D02*
X60261714Y-68337490D01*
X60309333Y-68385109D01*
X60356952Y-68480347D01*
X60356952Y-68623204D01*
X60309333Y-68718442D01*
X60261714Y-68766061D01*
X60166476Y-68813680D01*
X59785523Y-68813680D01*
X59785523Y-67813680D01*
X60118857Y-67813680D01*
X60214095Y-67861300D01*
X60261714Y-67908919D01*
X60309333Y-68004157D01*
X60309333Y-68099395D01*
X60261714Y-68194633D01*
X60214095Y-68242252D01*
X60118857Y-68289871D01*
X59785523Y-68289871D01*
X60737904Y-68527966D02*
X61214095Y-68527966D01*
X60642666Y-68813680D02*
X60976000Y-67813680D01*
X61309333Y-68813680D01*
X61642666Y-67813680D02*
X61642666Y-68623204D01*
X61690285Y-68718442D01*
X61737904Y-68766061D01*
X61833142Y-68813680D01*
X62023619Y-68813680D01*
X62118857Y-68766061D01*
X62166476Y-68718442D01*
X62214095Y-68623204D01*
X62214095Y-67813680D01*
X62690285Y-68813680D02*
X62690285Y-67813680D01*
X62928380Y-67813680D01*
X63071238Y-67861300D01*
X63166476Y-67956538D01*
X63214095Y-68051776D01*
X63261714Y-68242252D01*
X63261714Y-68385109D01*
X63214095Y-68575585D01*
X63166476Y-68670823D01*
X63071238Y-68766061D01*
X62928380Y-68813680D01*
X62690285Y-68813680D01*
X63880761Y-67813680D02*
X63976000Y-67813680D01*
X64071238Y-67861300D01*
X64118857Y-67908919D01*
X64166476Y-68004157D01*
X64214095Y-68194633D01*
X64214095Y-68432728D01*
X64166476Y-68623204D01*
X64118857Y-68718442D01*
X64071238Y-68766061D01*
X63976000Y-68813680D01*
X63880761Y-68813680D01*
X63785523Y-68766061D01*
X63737904Y-68718442D01*
X63690285Y-68623204D01*
X63642666Y-68432728D01*
X63642666Y-68194633D01*
X63690285Y-68004157D01*
X63737904Y-67908919D01*
X63785523Y-67861300D01*
X63880761Y-67813680D01*
%TO.C,R1*%
X69667380Y-54395666D02*
X69191190Y-54729000D01*
X69667380Y-54967095D02*
X68667380Y-54967095D01*
X68667380Y-54586142D01*
X68715000Y-54490904D01*
X68762619Y-54443285D01*
X68857857Y-54395666D01*
X69000714Y-54395666D01*
X69095952Y-54443285D01*
X69143571Y-54490904D01*
X69191190Y-54586142D01*
X69191190Y-54967095D01*
X69667380Y-53443285D02*
X69667380Y-54014714D01*
X69667380Y-53729000D02*
X68667380Y-53729000D01*
X68810238Y-53824238D01*
X68905476Y-53919476D01*
X68953095Y-54014714D01*
%TO.C,R4*%
X77668380Y-65190666D02*
X77192190Y-65524000D01*
X77668380Y-65762095D02*
X76668380Y-65762095D01*
X76668380Y-65381142D01*
X76716000Y-65285904D01*
X76763619Y-65238285D01*
X76858857Y-65190666D01*
X77001714Y-65190666D01*
X77096952Y-65238285D01*
X77144571Y-65285904D01*
X77192190Y-65381142D01*
X77192190Y-65762095D01*
X77001714Y-64333523D02*
X77668380Y-64333523D01*
X76620761Y-64571619D02*
X77335047Y-64809714D01*
X77335047Y-64190666D01*
%TO.C,U4*%
X78525619Y-56134095D02*
X77716095Y-56134095D01*
X77620857Y-56181714D01*
X77573238Y-56229333D01*
X77525619Y-56324571D01*
X77525619Y-56515047D01*
X77573238Y-56610285D01*
X77620857Y-56657904D01*
X77716095Y-56705523D01*
X78525619Y-56705523D01*
X78192285Y-57610285D02*
X77525619Y-57610285D01*
X78573238Y-57372190D02*
X77858952Y-57134095D01*
X77858952Y-57753142D01*
%TO.C,U1*%
X38568380Y-51307904D02*
X39377904Y-51307904D01*
X39473142Y-51260285D01*
X39520761Y-51212666D01*
X39568380Y-51117428D01*
X39568380Y-50926952D01*
X39520761Y-50831714D01*
X39473142Y-50784095D01*
X39377904Y-50736476D01*
X38568380Y-50736476D01*
X39568380Y-49736476D02*
X39568380Y-50307904D01*
X39568380Y-50022190D02*
X38568380Y-50022190D01*
X38711238Y-50117428D01*
X38806476Y-50212666D01*
X38854095Y-50307904D01*
%TO.C,C6*%
X38746133Y-56237142D02*
X38698514Y-56284761D01*
X38555657Y-56332380D01*
X38460419Y-56332380D01*
X38317561Y-56284761D01*
X38222323Y-56189523D01*
X38174704Y-56094285D01*
X38127085Y-55903809D01*
X38127085Y-55760952D01*
X38174704Y-55570476D01*
X38222323Y-55475238D01*
X38317561Y-55380000D01*
X38460419Y-55332380D01*
X38555657Y-55332380D01*
X38698514Y-55380000D01*
X38746133Y-55427619D01*
X39603276Y-55332380D02*
X39412800Y-55332380D01*
X39317561Y-55380000D01*
X39269942Y-55427619D01*
X39174704Y-55570476D01*
X39127085Y-55760952D01*
X39127085Y-56141904D01*
X39174704Y-56237142D01*
X39222323Y-56284761D01*
X39317561Y-56332380D01*
X39508038Y-56332380D01*
X39603276Y-56284761D01*
X39650895Y-56237142D01*
X39698514Y-56141904D01*
X39698514Y-55903809D01*
X39650895Y-55808571D01*
X39603276Y-55760952D01*
X39508038Y-55713333D01*
X39317561Y-55713333D01*
X39222323Y-55760952D01*
X39174704Y-55808571D01*
X39127085Y-55903809D01*
%TO.C,Y1*%
X50776190Y-54578190D02*
X51252380Y-54578190D01*
X50252380Y-54911523D02*
X50776190Y-54578190D01*
X50252380Y-54244857D01*
X51252380Y-53387714D02*
X51252380Y-53959142D01*
X51252380Y-53673428D02*
X50252380Y-53673428D01*
X50395238Y-53768666D01*
X50490476Y-53863904D01*
X50538095Y-53959142D01*
%TO.C,C7*%
X44537333Y-46585142D02*
X44489714Y-46632761D01*
X44346857Y-46680380D01*
X44251619Y-46680380D01*
X44108761Y-46632761D01*
X44013523Y-46537523D01*
X43965904Y-46442285D01*
X43918285Y-46251809D01*
X43918285Y-46108952D01*
X43965904Y-45918476D01*
X44013523Y-45823238D01*
X44108761Y-45728000D01*
X44251619Y-45680380D01*
X44346857Y-45680380D01*
X44489714Y-45728000D01*
X44537333Y-45775619D01*
X44870666Y-45680380D02*
X45537333Y-45680380D01*
X45108761Y-46680380D01*
%TO.C,U2*%
X38568380Y-63398304D02*
X39377904Y-63398304D01*
X39473142Y-63350685D01*
X39520761Y-63303066D01*
X39568380Y-63207828D01*
X39568380Y-63017352D01*
X39520761Y-62922114D01*
X39473142Y-62874495D01*
X39377904Y-62826876D01*
X38568380Y-62826876D01*
X38663619Y-62398304D02*
X38616000Y-62350685D01*
X38568380Y-62255447D01*
X38568380Y-62017352D01*
X38616000Y-61922114D01*
X38663619Y-61874495D01*
X38758857Y-61826876D01*
X38854095Y-61826876D01*
X38996952Y-61874495D01*
X39568380Y-62445923D01*
X39568380Y-61826876D01*
%TO.C,C13*%
X46601142Y-61867542D02*
X46553523Y-61915161D01*
X46410666Y-61962780D01*
X46315428Y-61962780D01*
X46172571Y-61915161D01*
X46077333Y-61819923D01*
X46029714Y-61724685D01*
X45982095Y-61534209D01*
X45982095Y-61391352D01*
X46029714Y-61200876D01*
X46077333Y-61105638D01*
X46172571Y-61010400D01*
X46315428Y-60962780D01*
X46410666Y-60962780D01*
X46553523Y-61010400D01*
X46601142Y-61058019D01*
X47553523Y-61962780D02*
X46982095Y-61962780D01*
X47267809Y-61962780D02*
X47267809Y-60962780D01*
X47172571Y-61105638D01*
X47077333Y-61200876D01*
X46982095Y-61248495D01*
X47886857Y-60962780D02*
X48505904Y-60962780D01*
X48172571Y-61343733D01*
X48315428Y-61343733D01*
X48410666Y-61391352D01*
X48458285Y-61438971D01*
X48505904Y-61534209D01*
X48505904Y-61772304D01*
X48458285Y-61867542D01*
X48410666Y-61915161D01*
X48315428Y-61962780D01*
X48029714Y-61962780D01*
X47934476Y-61915161D01*
X47886857Y-61867542D01*
%TO.C,C14*%
X44569142Y-56999142D02*
X44521523Y-57046761D01*
X44378666Y-57094380D01*
X44283428Y-57094380D01*
X44140571Y-57046761D01*
X44045333Y-56951523D01*
X43997714Y-56856285D01*
X43950095Y-56665809D01*
X43950095Y-56522952D01*
X43997714Y-56332476D01*
X44045333Y-56237238D01*
X44140571Y-56142000D01*
X44283428Y-56094380D01*
X44378666Y-56094380D01*
X44521523Y-56142000D01*
X44569142Y-56189619D01*
X45521523Y-57094380D02*
X44950095Y-57094380D01*
X45235809Y-57094380D02*
X45235809Y-56094380D01*
X45140571Y-56237238D01*
X45045333Y-56332476D01*
X44950095Y-56380095D01*
X46378666Y-56427714D02*
X46378666Y-57094380D01*
X46140571Y-56046761D02*
X45902476Y-56761047D01*
X46521523Y-56761047D01*
%TO.C,C4*%
X41489333Y-56347142D02*
X41441714Y-56394761D01*
X41298857Y-56442380D01*
X41203619Y-56442380D01*
X41060761Y-56394761D01*
X40965523Y-56299523D01*
X40917904Y-56204285D01*
X40870285Y-56013809D01*
X40870285Y-55870952D01*
X40917904Y-55680476D01*
X40965523Y-55585238D01*
X41060761Y-55490000D01*
X41203619Y-55442380D01*
X41298857Y-55442380D01*
X41441714Y-55490000D01*
X41489333Y-55537619D01*
X42346476Y-55775714D02*
X42346476Y-56442380D01*
X42108380Y-55394761D02*
X41870285Y-56109047D01*
X42489333Y-56109047D01*
%TO.C,H1*%
X80613809Y-67349714D02*
X80994761Y-67349714D01*
X80756666Y-67016380D02*
X80756666Y-67873523D01*
X80804285Y-67968761D01*
X80899523Y-68016380D01*
X80994761Y-68016380D01*
X81470952Y-68016380D02*
X81375714Y-67968761D01*
X81328095Y-67921142D01*
X81280476Y-67825904D01*
X81280476Y-67540190D01*
X81328095Y-67444952D01*
X81375714Y-67397333D01*
X81470952Y-67349714D01*
X81613809Y-67349714D01*
X81709047Y-67397333D01*
X81756666Y-67444952D01*
X81804285Y-67540190D01*
X81804285Y-67825904D01*
X81756666Y-67921142D01*
X81709047Y-67968761D01*
X81613809Y-68016380D01*
X81470952Y-68016380D01*
X82375714Y-68016380D02*
X82280476Y-67968761D01*
X82232857Y-67921142D01*
X82185238Y-67825904D01*
X82185238Y-67540190D01*
X82232857Y-67444952D01*
X82280476Y-67397333D01*
X82375714Y-67349714D01*
X82518571Y-67349714D01*
X82613809Y-67397333D01*
X82661428Y-67444952D01*
X82709047Y-67540190D01*
X82709047Y-67825904D01*
X82661428Y-67921142D01*
X82613809Y-67968761D01*
X82518571Y-68016380D01*
X82375714Y-68016380D01*
X83280476Y-68016380D02*
X83185238Y-67968761D01*
X83137619Y-67873523D01*
X83137619Y-67016380D01*
X83661428Y-68016380D02*
X83661428Y-67349714D01*
X83661428Y-67016380D02*
X83613809Y-67064000D01*
X83661428Y-67111619D01*
X83709047Y-67064000D01*
X83661428Y-67016380D01*
X83661428Y-67111619D01*
X84137619Y-67349714D02*
X84137619Y-68016380D01*
X84137619Y-67444952D02*
X84185238Y-67397333D01*
X84280476Y-67349714D01*
X84423333Y-67349714D01*
X84518571Y-67397333D01*
X84566190Y-67492571D01*
X84566190Y-68016380D01*
X85470952Y-67349714D02*
X85470952Y-68159238D01*
X85423333Y-68254476D01*
X85375714Y-68302095D01*
X85280476Y-68349714D01*
X85137619Y-68349714D01*
X85042380Y-68302095D01*
X85470952Y-67968761D02*
X85375714Y-68016380D01*
X85185238Y-68016380D01*
X85090000Y-67968761D01*
X85042380Y-67921142D01*
X84994761Y-67825904D01*
X84994761Y-67540190D01*
X85042380Y-67444952D01*
X85090000Y-67397333D01*
X85185238Y-67349714D01*
X85375714Y-67349714D01*
X85470952Y-67397333D01*
X86709047Y-68016380D02*
X86709047Y-67016380D01*
X87137619Y-68016380D02*
X87137619Y-67492571D01*
X87090000Y-67397333D01*
X86994761Y-67349714D01*
X86851904Y-67349714D01*
X86756666Y-67397333D01*
X86709047Y-67444952D01*
X87756666Y-68016380D02*
X87661428Y-67968761D01*
X87613809Y-67921142D01*
X87566190Y-67825904D01*
X87566190Y-67540190D01*
X87613809Y-67444952D01*
X87661428Y-67397333D01*
X87756666Y-67349714D01*
X87899523Y-67349714D01*
X87994761Y-67397333D01*
X88042380Y-67444952D01*
X88090000Y-67540190D01*
X88090000Y-67825904D01*
X88042380Y-67921142D01*
X87994761Y-67968761D01*
X87899523Y-68016380D01*
X87756666Y-68016380D01*
X88661428Y-68016380D02*
X88566190Y-67968761D01*
X88518571Y-67873523D01*
X88518571Y-67016380D01*
X89423333Y-67968761D02*
X89328095Y-68016380D01*
X89137619Y-68016380D01*
X89042380Y-67968761D01*
X88994761Y-67873523D01*
X88994761Y-67492571D01*
X89042380Y-67397333D01*
X89137619Y-67349714D01*
X89328095Y-67349714D01*
X89423333Y-67397333D01*
X89470952Y-67492571D01*
X89470952Y-67587809D01*
X88994761Y-67683047D01*
%TO.C,C17*%
X72500742Y-52306757D02*
X72548361Y-52354376D01*
X72595980Y-52497233D01*
X72595980Y-52592471D01*
X72548361Y-52735328D01*
X72453123Y-52830566D01*
X72357885Y-52878185D01*
X72167409Y-52925804D01*
X72024552Y-52925804D01*
X71834076Y-52878185D01*
X71738838Y-52830566D01*
X71643600Y-52735328D01*
X71595980Y-52592471D01*
X71595980Y-52497233D01*
X71643600Y-52354376D01*
X71691219Y-52306757D01*
X72595980Y-51354376D02*
X72595980Y-51925804D01*
X72595980Y-51640090D02*
X71595980Y-51640090D01*
X71738838Y-51735328D01*
X71834076Y-51830566D01*
X71881695Y-51925804D01*
X71595980Y-51021042D02*
X71595980Y-50354376D01*
X72595980Y-50782947D01*
%TO.C,D1*%
X35787104Y-68059580D02*
X35787104Y-67059580D01*
X36025200Y-67059580D01*
X36168057Y-67107200D01*
X36263295Y-67202438D01*
X36310914Y-67297676D01*
X36358533Y-67488152D01*
X36358533Y-67631009D01*
X36310914Y-67821485D01*
X36263295Y-67916723D01*
X36168057Y-68011961D01*
X36025200Y-68059580D01*
X35787104Y-68059580D01*
X37310914Y-68059580D02*
X36739485Y-68059580D01*
X37025200Y-68059580D02*
X37025200Y-67059580D01*
X36929961Y-67202438D01*
X36834723Y-67297676D01*
X36739485Y-67345295D01*
%TO.C,C2*%
X42708533Y-68725542D02*
X42660914Y-68773161D01*
X42518057Y-68820780D01*
X42422819Y-68820780D01*
X42279961Y-68773161D01*
X42184723Y-68677923D01*
X42137104Y-68582685D01*
X42089485Y-68392209D01*
X42089485Y-68249352D01*
X42137104Y-68058876D01*
X42184723Y-67963638D01*
X42279961Y-67868400D01*
X42422819Y-67820780D01*
X42518057Y-67820780D01*
X42660914Y-67868400D01*
X42708533Y-67916019D01*
X43089485Y-67916019D02*
X43137104Y-67868400D01*
X43232342Y-67820780D01*
X43470438Y-67820780D01*
X43565676Y-67868400D01*
X43613295Y-67916019D01*
X43660914Y-68011257D01*
X43660914Y-68106495D01*
X43613295Y-68249352D01*
X43041866Y-68820780D01*
X43660914Y-68820780D01*
%TO.C,H2*%
X14065809Y-42381714D02*
X14446761Y-42381714D01*
X14208666Y-42048380D02*
X14208666Y-42905523D01*
X14256285Y-43000761D01*
X14351523Y-43048380D01*
X14446761Y-43048380D01*
X14922952Y-43048380D02*
X14827714Y-43000761D01*
X14780095Y-42953142D01*
X14732476Y-42857904D01*
X14732476Y-42572190D01*
X14780095Y-42476952D01*
X14827714Y-42429333D01*
X14922952Y-42381714D01*
X15065809Y-42381714D01*
X15161047Y-42429333D01*
X15208666Y-42476952D01*
X15256285Y-42572190D01*
X15256285Y-42857904D01*
X15208666Y-42953142D01*
X15161047Y-43000761D01*
X15065809Y-43048380D01*
X14922952Y-43048380D01*
X15827714Y-43048380D02*
X15732476Y-43000761D01*
X15684857Y-42953142D01*
X15637238Y-42857904D01*
X15637238Y-42572190D01*
X15684857Y-42476952D01*
X15732476Y-42429333D01*
X15827714Y-42381714D01*
X15970571Y-42381714D01*
X16065809Y-42429333D01*
X16113428Y-42476952D01*
X16161047Y-42572190D01*
X16161047Y-42857904D01*
X16113428Y-42953142D01*
X16065809Y-43000761D01*
X15970571Y-43048380D01*
X15827714Y-43048380D01*
X16732476Y-43048380D02*
X16637238Y-43000761D01*
X16589619Y-42905523D01*
X16589619Y-42048380D01*
X17113428Y-43048380D02*
X17113428Y-42381714D01*
X17113428Y-42048380D02*
X17065809Y-42096000D01*
X17113428Y-42143619D01*
X17161047Y-42096000D01*
X17113428Y-42048380D01*
X17113428Y-42143619D01*
X17589619Y-42381714D02*
X17589619Y-43048380D01*
X17589619Y-42476952D02*
X17637238Y-42429333D01*
X17732476Y-42381714D01*
X17875333Y-42381714D01*
X17970571Y-42429333D01*
X18018190Y-42524571D01*
X18018190Y-43048380D01*
X18922952Y-42381714D02*
X18922952Y-43191238D01*
X18875333Y-43286476D01*
X18827714Y-43334095D01*
X18732476Y-43381714D01*
X18589619Y-43381714D01*
X18494380Y-43334095D01*
X18922952Y-43000761D02*
X18827714Y-43048380D01*
X18637238Y-43048380D01*
X18542000Y-43000761D01*
X18494380Y-42953142D01*
X18446761Y-42857904D01*
X18446761Y-42572190D01*
X18494380Y-42476952D01*
X18542000Y-42429333D01*
X18637238Y-42381714D01*
X18827714Y-42381714D01*
X18922952Y-42429333D01*
X20161047Y-43048380D02*
X20161047Y-42048380D01*
X20589619Y-43048380D02*
X20589619Y-42524571D01*
X20542000Y-42429333D01*
X20446761Y-42381714D01*
X20303904Y-42381714D01*
X20208666Y-42429333D01*
X20161047Y-42476952D01*
X21208666Y-43048380D02*
X21113428Y-43000761D01*
X21065809Y-42953142D01*
X21018190Y-42857904D01*
X21018190Y-42572190D01*
X21065809Y-42476952D01*
X21113428Y-42429333D01*
X21208666Y-42381714D01*
X21351523Y-42381714D01*
X21446761Y-42429333D01*
X21494380Y-42476952D01*
X21542000Y-42572190D01*
X21542000Y-42857904D01*
X21494380Y-42953142D01*
X21446761Y-43000761D01*
X21351523Y-43048380D01*
X21208666Y-43048380D01*
X22113428Y-43048380D02*
X22018190Y-43000761D01*
X21970571Y-42905523D01*
X21970571Y-42048380D01*
X22875333Y-43000761D02*
X22780095Y-43048380D01*
X22589619Y-43048380D01*
X22494380Y-43000761D01*
X22446761Y-42905523D01*
X22446761Y-42524571D01*
X22494380Y-42429333D01*
X22589619Y-42381714D01*
X22780095Y-42381714D01*
X22875333Y-42429333D01*
X22922952Y-42524571D01*
X22922952Y-42619809D01*
X22446761Y-42715047D01*
%TO.C,R5*%
X75128380Y-65139866D02*
X74652190Y-65473200D01*
X75128380Y-65711295D02*
X74128380Y-65711295D01*
X74128380Y-65330342D01*
X74176000Y-65235104D01*
X74223619Y-65187485D01*
X74318857Y-65139866D01*
X74461714Y-65139866D01*
X74556952Y-65187485D01*
X74604571Y-65235104D01*
X74652190Y-65330342D01*
X74652190Y-65711295D01*
X74128380Y-64235104D02*
X74128380Y-64711295D01*
X74604571Y-64758914D01*
X74556952Y-64711295D01*
X74509333Y-64616057D01*
X74509333Y-64377961D01*
X74556952Y-64282723D01*
X74604571Y-64235104D01*
X74699809Y-64187485D01*
X74937904Y-64187485D01*
X75033142Y-64235104D01*
X75080761Y-64282723D01*
X75128380Y-64377961D01*
X75128380Y-64616057D01*
X75080761Y-64711295D01*
X75033142Y-64758914D01*
%TO.C,C11*%
X72112142Y-57665857D02*
X72159761Y-57713476D01*
X72207380Y-57856333D01*
X72207380Y-57951571D01*
X72159761Y-58094428D01*
X72064523Y-58189666D01*
X71969285Y-58237285D01*
X71778809Y-58284904D01*
X71635952Y-58284904D01*
X71445476Y-58237285D01*
X71350238Y-58189666D01*
X71255000Y-58094428D01*
X71207380Y-57951571D01*
X71207380Y-57856333D01*
X71255000Y-57713476D01*
X71302619Y-57665857D01*
X72207380Y-56713476D02*
X72207380Y-57284904D01*
X72207380Y-56999190D02*
X71207380Y-56999190D01*
X71350238Y-57094428D01*
X71445476Y-57189666D01*
X71493095Y-57284904D01*
X72207380Y-55761095D02*
X72207380Y-56332523D01*
X72207380Y-56046809D02*
X71207380Y-56046809D01*
X71350238Y-56142047D01*
X71445476Y-56237285D01*
X71493095Y-56332523D01*
%TO.C,C8*%
X44791333Y-58523142D02*
X44743714Y-58570761D01*
X44600857Y-58618380D01*
X44505619Y-58618380D01*
X44362761Y-58570761D01*
X44267523Y-58475523D01*
X44219904Y-58380285D01*
X44172285Y-58189809D01*
X44172285Y-58046952D01*
X44219904Y-57856476D01*
X44267523Y-57761238D01*
X44362761Y-57666000D01*
X44505619Y-57618380D01*
X44600857Y-57618380D01*
X44743714Y-57666000D01*
X44791333Y-57713619D01*
X45362761Y-58046952D02*
X45267523Y-57999333D01*
X45219904Y-57951714D01*
X45172285Y-57856476D01*
X45172285Y-57808857D01*
X45219904Y-57713619D01*
X45267523Y-57666000D01*
X45362761Y-57618380D01*
X45553238Y-57618380D01*
X45648476Y-57666000D01*
X45696095Y-57713619D01*
X45743714Y-57808857D01*
X45743714Y-57856476D01*
X45696095Y-57951714D01*
X45648476Y-57999333D01*
X45553238Y-58046952D01*
X45362761Y-58046952D01*
X45267523Y-58094571D01*
X45219904Y-58142190D01*
X45172285Y-58237428D01*
X45172285Y-58427904D01*
X45219904Y-58523142D01*
X45267523Y-58570761D01*
X45362761Y-58618380D01*
X45553238Y-58618380D01*
X45648476Y-58570761D01*
X45696095Y-58523142D01*
X45743714Y-58427904D01*
X45743714Y-58237428D01*
X45696095Y-58142190D01*
X45648476Y-58094571D01*
X45553238Y-58046952D01*
%TO.C,C3*%
X41895733Y-44358342D02*
X41848114Y-44405961D01*
X41705257Y-44453580D01*
X41610019Y-44453580D01*
X41467161Y-44405961D01*
X41371923Y-44310723D01*
X41324304Y-44215485D01*
X41276685Y-44025009D01*
X41276685Y-43882152D01*
X41324304Y-43691676D01*
X41371923Y-43596438D01*
X41467161Y-43501200D01*
X41610019Y-43453580D01*
X41705257Y-43453580D01*
X41848114Y-43501200D01*
X41895733Y-43548819D01*
X42229066Y-43453580D02*
X42848114Y-43453580D01*
X42514780Y-43834533D01*
X42657638Y-43834533D01*
X42752876Y-43882152D01*
X42800495Y-43929771D01*
X42848114Y-44025009D01*
X42848114Y-44263104D01*
X42800495Y-44358342D01*
X42752876Y-44405961D01*
X42657638Y-44453580D01*
X42371923Y-44453580D01*
X42276685Y-44405961D01*
X42229066Y-44358342D01*
%TO.C,C12*%
X67286142Y-56522857D02*
X67333761Y-56570476D01*
X67381380Y-56713333D01*
X67381380Y-56808571D01*
X67333761Y-56951428D01*
X67238523Y-57046666D01*
X67143285Y-57094285D01*
X66952809Y-57141904D01*
X66809952Y-57141904D01*
X66619476Y-57094285D01*
X66524238Y-57046666D01*
X66429000Y-56951428D01*
X66381380Y-56808571D01*
X66381380Y-56713333D01*
X66429000Y-56570476D01*
X66476619Y-56522857D01*
X67381380Y-55570476D02*
X67381380Y-56141904D01*
X67381380Y-55856190D02*
X66381380Y-55856190D01*
X66524238Y-55951428D01*
X66619476Y-56046666D01*
X66667095Y-56141904D01*
X66476619Y-55189523D02*
X66429000Y-55141904D01*
X66381380Y-55046666D01*
X66381380Y-54808571D01*
X66429000Y-54713333D01*
X66476619Y-54665714D01*
X66571857Y-54618095D01*
X66667095Y-54618095D01*
X66809952Y-54665714D01*
X67381380Y-55237142D01*
X67381380Y-54618095D01*
%TO.C,J1*%
X30891311Y-59149733D02*
X31605597Y-59149733D01*
X31748454Y-59197352D01*
X31843692Y-59292590D01*
X31891311Y-59435447D01*
X31891311Y-59530685D01*
X31891311Y-58149733D02*
X31891311Y-58721161D01*
X31891311Y-58435447D02*
X30891311Y-58435447D01*
X31034169Y-58530685D01*
X31129407Y-58625923D01*
X31177026Y-58721161D01*
%TO.C,C15*%
X70969142Y-66428857D02*
X71016761Y-66476476D01*
X71064380Y-66619333D01*
X71064380Y-66714571D01*
X71016761Y-66857428D01*
X70921523Y-66952666D01*
X70826285Y-67000285D01*
X70635809Y-67047904D01*
X70492952Y-67047904D01*
X70302476Y-67000285D01*
X70207238Y-66952666D01*
X70112000Y-66857428D01*
X70064380Y-66714571D01*
X70064380Y-66619333D01*
X70112000Y-66476476D01*
X70159619Y-66428857D01*
X71064380Y-65476476D02*
X71064380Y-66047904D01*
X71064380Y-65762190D02*
X70064380Y-65762190D01*
X70207238Y-65857428D01*
X70302476Y-65952666D01*
X70350095Y-66047904D01*
X70064380Y-64571714D02*
X70064380Y-65047904D01*
X70540571Y-65095523D01*
X70492952Y-65047904D01*
X70445333Y-64952666D01*
X70445333Y-64714571D01*
X70492952Y-64619333D01*
X70540571Y-64571714D01*
X70635809Y-64524095D01*
X70873904Y-64524095D01*
X70969142Y-64571714D01*
X71016761Y-64619333D01*
X71064380Y-64714571D01*
X71064380Y-64952666D01*
X71016761Y-65047904D01*
X70969142Y-65095523D01*
%TO.C,R2*%
X68499833Y-59333180D02*
X68166500Y-58856990D01*
X67928404Y-59333180D02*
X67928404Y-58333180D01*
X68309357Y-58333180D01*
X68404595Y-58380800D01*
X68452214Y-58428419D01*
X68499833Y-58523657D01*
X68499833Y-58666514D01*
X68452214Y-58761752D01*
X68404595Y-58809371D01*
X68309357Y-58856990D01*
X67928404Y-58856990D01*
X68880785Y-58428419D02*
X68928404Y-58380800D01*
X69023642Y-58333180D01*
X69261738Y-58333180D01*
X69356976Y-58380800D01*
X69404595Y-58428419D01*
X69452214Y-58523657D01*
X69452214Y-58618895D01*
X69404595Y-58761752D01*
X68833166Y-59333180D01*
X69452214Y-59333180D01*
%TO.C,R6*%
X68006933Y-50974280D02*
X67673600Y-50498090D01*
X67435504Y-50974280D02*
X67435504Y-49974280D01*
X67816457Y-49974280D01*
X67911695Y-50021900D01*
X67959314Y-50069519D01*
X68006933Y-50164757D01*
X68006933Y-50307614D01*
X67959314Y-50402852D01*
X67911695Y-50450471D01*
X67816457Y-50498090D01*
X67435504Y-50498090D01*
X68864076Y-49974280D02*
X68673600Y-49974280D01*
X68578361Y-50021900D01*
X68530742Y-50069519D01*
X68435504Y-50212376D01*
X68387885Y-50402852D01*
X68387885Y-50783804D01*
X68435504Y-50879042D01*
X68483123Y-50926661D01*
X68578361Y-50974280D01*
X68768838Y-50974280D01*
X68864076Y-50926661D01*
X68911695Y-50879042D01*
X68959314Y-50783804D01*
X68959314Y-50545709D01*
X68911695Y-50450471D01*
X68864076Y-50402852D01*
X68768838Y-50355233D01*
X68578361Y-50355233D01*
X68483123Y-50402852D01*
X68435504Y-50450471D01*
X68387885Y-50545709D01*
%TO.C,C9*%
X36155333Y-45061142D02*
X36107714Y-45108761D01*
X35964857Y-45156380D01*
X35869619Y-45156380D01*
X35726761Y-45108761D01*
X35631523Y-45013523D01*
X35583904Y-44918285D01*
X35536285Y-44727809D01*
X35536285Y-44584952D01*
X35583904Y-44394476D01*
X35631523Y-44299238D01*
X35726761Y-44204000D01*
X35869619Y-44156380D01*
X35964857Y-44156380D01*
X36107714Y-44204000D01*
X36155333Y-44251619D01*
X36631523Y-45156380D02*
X36822000Y-45156380D01*
X36917238Y-45108761D01*
X36964857Y-45061142D01*
X37060095Y-44918285D01*
X37107714Y-44727809D01*
X37107714Y-44346857D01*
X37060095Y-44251619D01*
X37012476Y-44204000D01*
X36917238Y-44156380D01*
X36726761Y-44156380D01*
X36631523Y-44204000D01*
X36583904Y-44251619D01*
X36536285Y-44346857D01*
X36536285Y-44584952D01*
X36583904Y-44680190D01*
X36631523Y-44727809D01*
X36726761Y-44775428D01*
X36917238Y-44775428D01*
X37012476Y-44727809D01*
X37060095Y-44680190D01*
X37107714Y-44584952D01*
%TO.C,JP2*%
X55300666Y-63714380D02*
X55300666Y-64428666D01*
X55253047Y-64571523D01*
X55157809Y-64666761D01*
X55014952Y-64714380D01*
X54919714Y-64714380D01*
X55776857Y-64714380D02*
X55776857Y-63714380D01*
X56157809Y-63714380D01*
X56253047Y-63762000D01*
X56300666Y-63809619D01*
X56348285Y-63904857D01*
X56348285Y-64047714D01*
X56300666Y-64142952D01*
X56253047Y-64190571D01*
X56157809Y-64238190D01*
X55776857Y-64238190D01*
X56729238Y-63809619D02*
X56776857Y-63762000D01*
X56872095Y-63714380D01*
X57110190Y-63714380D01*
X57205428Y-63762000D01*
X57253047Y-63809619D01*
X57300666Y-63904857D01*
X57300666Y-64000095D01*
X57253047Y-64142952D01*
X56681619Y-64714380D01*
X57300666Y-64714380D01*
X55038857Y-68289871D02*
X55181714Y-68337490D01*
X55229333Y-68385109D01*
X55276952Y-68480347D01*
X55276952Y-68623204D01*
X55229333Y-68718442D01*
X55181714Y-68766061D01*
X55086476Y-68813680D01*
X54705523Y-68813680D01*
X54705523Y-67813680D01*
X55038857Y-67813680D01*
X55134095Y-67861300D01*
X55181714Y-67908919D01*
X55229333Y-68004157D01*
X55229333Y-68099395D01*
X55181714Y-68194633D01*
X55134095Y-68242252D01*
X55038857Y-68289871D01*
X54705523Y-68289871D01*
X55657904Y-68527966D02*
X56134095Y-68527966D01*
X55562666Y-68813680D02*
X55896000Y-67813680D01*
X56229333Y-68813680D01*
X56562666Y-67813680D02*
X56562666Y-68623204D01*
X56610285Y-68718442D01*
X56657904Y-68766061D01*
X56753142Y-68813680D01*
X56943619Y-68813680D01*
X57038857Y-68766061D01*
X57086476Y-68718442D01*
X57134095Y-68623204D01*
X57134095Y-67813680D01*
X57610285Y-68813680D02*
X57610285Y-67813680D01*
X57848380Y-67813680D01*
X57991238Y-67861300D01*
X58086476Y-67956538D01*
X58134095Y-68051776D01*
X58181714Y-68242252D01*
X58181714Y-68385109D01*
X58134095Y-68575585D01*
X58086476Y-68670823D01*
X57991238Y-68766061D01*
X57848380Y-68813680D01*
X57610285Y-68813680D01*
X59134095Y-68813680D02*
X58562666Y-68813680D01*
X58848380Y-68813680D02*
X58848380Y-67813680D01*
X58753142Y-67956538D01*
X58657904Y-68051776D01*
X58562666Y-68099395D01*
%TO.C,C1*%
X44791333Y-55475142D02*
X44743714Y-55522761D01*
X44600857Y-55570380D01*
X44505619Y-55570380D01*
X44362761Y-55522761D01*
X44267523Y-55427523D01*
X44219904Y-55332285D01*
X44172285Y-55141809D01*
X44172285Y-54998952D01*
X44219904Y-54808476D01*
X44267523Y-54713238D01*
X44362761Y-54618000D01*
X44505619Y-54570380D01*
X44600857Y-54570380D01*
X44743714Y-54618000D01*
X44791333Y-54665619D01*
X45743714Y-55570380D02*
X45172285Y-55570380D01*
X45458000Y-55570380D02*
X45458000Y-54570380D01*
X45362761Y-54713238D01*
X45267523Y-54808476D01*
X45172285Y-54856095D01*
%TO.C,TP2*%
X44914195Y-63748380D02*
X45485623Y-63748380D01*
X45199909Y-64748380D02*
X45199909Y-63748380D01*
X45818957Y-64748380D02*
X45818957Y-63748380D01*
X46199909Y-63748380D01*
X46295147Y-63796000D01*
X46342766Y-63843619D01*
X46390385Y-63938857D01*
X46390385Y-64081714D01*
X46342766Y-64176952D01*
X46295147Y-64224571D01*
X46199909Y-64272190D01*
X45818957Y-64272190D01*
X46771338Y-63843619D02*
X46818957Y-63796000D01*
X46914195Y-63748380D01*
X47152290Y-63748380D01*
X47247528Y-63796000D01*
X47295147Y-63843619D01*
X47342766Y-63938857D01*
X47342766Y-64034095D01*
X47295147Y-64176952D01*
X46723719Y-64748380D01*
X47342766Y-64748380D01*
X45414195Y-67844000D02*
X45318957Y-67796380D01*
X45176100Y-67796380D01*
X45033242Y-67844000D01*
X44938004Y-67939238D01*
X44890385Y-68034476D01*
X44842766Y-68224952D01*
X44842766Y-68367809D01*
X44890385Y-68558285D01*
X44938004Y-68653523D01*
X45033242Y-68748761D01*
X45176100Y-68796380D01*
X45271338Y-68796380D01*
X45414195Y-68748761D01*
X45461814Y-68701142D01*
X45461814Y-68367809D01*
X45271338Y-68367809D01*
X45890385Y-68796380D02*
X45890385Y-67796380D01*
X46461814Y-68796380D01*
X46461814Y-67796380D01*
X46938004Y-68796380D02*
X46938004Y-67796380D01*
X47176100Y-67796380D01*
X47318957Y-67844000D01*
X47414195Y-67939238D01*
X47461814Y-68034476D01*
X47509433Y-68224952D01*
X47509433Y-68367809D01*
X47461814Y-68558285D01*
X47414195Y-68653523D01*
X47318957Y-68748761D01*
X47176100Y-68796380D01*
X46938004Y-68796380D01*
D12*
%TO.C,U3*%
X59471700Y-50553800D02*
X55611700Y-50553800D01*
X63331700Y-50553800D02*
X63331700Y-50798800D01*
X55611700Y-50553800D02*
X55611700Y-50798800D01*
X59471700Y-50553800D02*
X63331700Y-50553800D01*
X59471700Y-62323800D02*
X55611700Y-62323800D01*
X55611700Y-62323800D02*
X55611700Y-62078800D01*
X63331700Y-62323800D02*
X63331700Y-62078800D01*
X59471700Y-62323800D02*
X63331700Y-62323800D01*
X63331700Y-62078800D02*
X65146700Y-62078800D01*
%TO.C,R9*%
X66318400Y-50341559D02*
X66318400Y-50648841D01*
X65558400Y-50341559D02*
X65558400Y-50648841D01*
%TO.C,R8*%
X49757600Y-48614359D02*
X49757600Y-48921641D01*
X48997600Y-48614359D02*
X48997600Y-48921641D01*
%TO.C,R7*%
X45619641Y-52145200D02*
X45312359Y-52145200D01*
X45619641Y-51385200D02*
X45312359Y-51385200D01*
%TO.C,Q1*%
X51889900Y-47970000D02*
X52539900Y-47970000D01*
X51889900Y-51090000D02*
X52539900Y-51090000D01*
X51889900Y-47970000D02*
X50214900Y-47970000D01*
X51889900Y-51090000D02*
X51239900Y-51090000D01*
%TO.C,D2*%
X46888400Y-47919200D02*
X47538400Y-47919200D01*
X46888400Y-51039200D02*
X47538400Y-51039200D01*
X46888400Y-47919200D02*
X45213400Y-47919200D01*
X46888400Y-51039200D02*
X46238400Y-51039200D01*
%TO.C,TP1*%
X51426100Y-65094000D02*
X51426100Y-67494000D01*
X51426100Y-67494000D02*
X49026100Y-67494000D01*
X49026100Y-67494000D02*
X49026100Y-65094000D01*
X49026100Y-65094000D02*
X51426100Y-65094000D01*
%TO.C,C5*%
X39020636Y-45521200D02*
X38804964Y-45521200D01*
X39020636Y-44801200D02*
X38804964Y-44801200D01*
%TO.C,C16*%
X72868800Y-62305920D02*
X72868800Y-62587080D01*
X71848800Y-62305920D02*
X71848800Y-62587080D01*
%TO.C,R3*%
X39345841Y-69417200D02*
X39038559Y-69417200D01*
X39345841Y-68657200D02*
X39038559Y-68657200D01*
%TO.C,C10*%
X36633036Y-57907600D02*
X36417364Y-57907600D01*
X36633036Y-58627600D02*
X36417364Y-58627600D01*
%TO.C,JP1*%
X64026000Y-67294000D02*
X59926000Y-67294000D01*
X63276000Y-65094000D02*
X63576000Y-64794000D01*
X59926000Y-67294000D02*
X59926000Y-65294000D01*
X63276000Y-65094000D02*
X62976000Y-64794000D01*
X64026000Y-65294000D02*
X64026000Y-67294000D01*
X63576000Y-64794000D02*
X62976000Y-64794000D01*
X59926000Y-65294000D02*
X64026000Y-65294000D01*
%TO.C,R1*%
X68794500Y-55880759D02*
X68794500Y-56188041D01*
X69554500Y-55880759D02*
X69554500Y-56188041D01*
%TO.C,R4*%
X76401800Y-62350064D02*
X76401800Y-60895936D01*
X78221800Y-62350064D02*
X78221800Y-60895936D01*
%TO.C,U1*%
X44023600Y-50546000D02*
X44023600Y-47096000D01*
X33903600Y-50546000D02*
X33903600Y-52496000D01*
X44023600Y-50546000D02*
X44023600Y-52496000D01*
X33903600Y-50546000D02*
X33903600Y-48596000D01*
%TO.C,C6*%
X39020636Y-57510000D02*
X38804964Y-57510000D01*
X39020636Y-56790000D02*
X38804964Y-56790000D01*
%TO.C,Y1*%
X48883300Y-55471600D02*
X48883300Y-61221600D01*
X52483300Y-55471600D02*
X48883300Y-55471600D01*
X52483300Y-61221600D02*
X52483300Y-55471600D01*
%TO.C,C7*%
X42462564Y-45868000D02*
X42678236Y-45868000D01*
X42462564Y-46588000D02*
X42678236Y-46588000D01*
%TO.C,U2*%
X33903600Y-62636400D02*
X33903600Y-60686400D01*
X44023600Y-62636400D02*
X44023600Y-64586400D01*
X33903600Y-62636400D02*
X33903600Y-64586400D01*
X44023600Y-62636400D02*
X44023600Y-59186400D01*
%TO.C,C13*%
X47715136Y-60710400D02*
X47499464Y-60710400D01*
X47715136Y-59990400D02*
X47499464Y-59990400D01*
%TO.C,C14*%
X47715136Y-56332800D02*
X47499464Y-56332800D01*
X47715136Y-57052800D02*
X47499464Y-57052800D01*
%TO.C,C4*%
X41548164Y-56790000D02*
X41763836Y-56790000D01*
X41548164Y-57510000D02*
X41763836Y-57510000D01*
%TO.C,C17*%
X71223600Y-51523320D02*
X71223600Y-51804480D01*
X70203600Y-51523320D02*
X70203600Y-51804480D01*
%TO.C,D1*%
X35040200Y-69772200D02*
X37325200Y-69772200D01*
X35040200Y-68302200D02*
X35040200Y-69772200D01*
X37325200Y-68302200D02*
X35040200Y-68302200D01*
%TO.C,C2*%
X42983036Y-67568400D02*
X42767364Y-67568400D01*
X42983036Y-66848400D02*
X42767364Y-66848400D01*
%TO.C,R5*%
X75636800Y-62350064D02*
X75636800Y-60895936D01*
X73816800Y-62350064D02*
X73816800Y-60895936D01*
%TO.C,C11*%
X70652100Y-57209036D02*
X70652100Y-56993364D01*
X69932100Y-57209036D02*
X69932100Y-56993364D01*
%TO.C,C8*%
X42462564Y-57806000D02*
X42678236Y-57806000D01*
X42462564Y-58526000D02*
X42678236Y-58526000D01*
%TO.C,C3*%
X41954564Y-45521200D02*
X42170236Y-45521200D01*
X41954564Y-44801200D02*
X42170236Y-44801200D01*
%TO.C,C12*%
X67696900Y-55619764D02*
X67696900Y-55835436D01*
X68416900Y-55619764D02*
X68416900Y-55835436D01*
%TO.C,J1*%
X18878931Y-43331400D02*
X29378931Y-43331400D01*
X26390675Y-66682870D02*
X21290675Y-65783602D01*
X26390675Y-50949930D02*
X21290675Y-51849198D01*
X17818931Y-73241400D02*
X17818931Y-44391400D01*
X29378931Y-74301400D02*
X18878931Y-74301400D01*
X31333269Y-53526400D02*
X30900256Y-53276400D01*
X28338931Y-52584711D02*
X28338931Y-65048089D01*
X30900256Y-53276400D02*
X31333269Y-53026400D01*
X30438931Y-44391400D02*
X30438931Y-73241400D01*
X19918931Y-53483979D02*
X19918931Y-64148821D01*
X31333269Y-53026400D02*
X31333269Y-53526400D01*
X28338931Y-52584711D02*
G75*
G03*
X26390675Y-50949930I-1659999J1D01*
G01*
X26390673Y-66682881D02*
G75*
G03*
X28338931Y-65048089I288258J1634781D01*
G01*
X30438931Y-44391400D02*
G75*
G03*
X29378931Y-43331400I-1060001J-1D01*
G01*
X18878931Y-43331400D02*
G75*
G03*
X17818931Y-44391400I1J-1060001D01*
G01*
X21290675Y-51849198D02*
G75*
G03*
X19918931Y-53483979I288259J-1634783D01*
G01*
X17818931Y-73241400D02*
G75*
G03*
X18878931Y-74301400I1060000J0D01*
G01*
X19918930Y-64148821D02*
G75*
G03*
X21290675Y-65783602I1660001J1D01*
G01*
X29378931Y-74301400D02*
G75*
G03*
X30438931Y-73241400I0J1060000D01*
G01*
%TO.C,C15*%
X71122000Y-62305920D02*
X71122000Y-62587080D01*
X70102000Y-62305920D02*
X70102000Y-62587080D01*
%TO.C,R2*%
X68820141Y-57330800D02*
X68512859Y-57330800D01*
X68820141Y-58090800D02*
X68512859Y-58090800D01*
%TO.C,R6*%
X67946536Y-51436900D02*
X68400664Y-51436900D01*
X67946536Y-52906900D02*
X68400664Y-52906900D01*
%TO.C,C9*%
X36531436Y-46435600D02*
X36315764Y-46435600D01*
X36531436Y-45715600D02*
X36315764Y-45715600D01*
%TO.C,JP2*%
X58496000Y-64794000D02*
X57896000Y-64794000D01*
X54846000Y-65294000D02*
X58946000Y-65294000D01*
X58196000Y-65094000D02*
X57896000Y-64794000D01*
X58196000Y-65094000D02*
X58496000Y-64794000D01*
X58946000Y-67294000D02*
X54846000Y-67294000D01*
X54846000Y-67294000D02*
X54846000Y-65294000D01*
X58946000Y-65294000D02*
X58946000Y-67294000D01*
%TO.C,C1*%
X42983036Y-54656400D02*
X42767364Y-54656400D01*
X42983036Y-55376400D02*
X42767364Y-55376400D01*
%TO.C,TP2*%
X44976100Y-67494000D02*
X44976100Y-65094000D01*
X47376100Y-65094000D02*
X47376100Y-67494000D01*
X44976100Y-65094000D02*
X47376100Y-65094000D01*
X47376100Y-67494000D02*
X44976100Y-67494000D01*
%TD*%
M02*
